mtllib BullDemonBot.mtl
g Head
v 100.8722 8.592031 -81.0031
v 100.0078 8.592031 -81.86746
v 100.8722 9.814431 -81.0031
v 100.0078 9.814431 -81.86746
v 100.0078 9.814431 -80.13873
v 99.14346 9.814431 -81.0031
v 100.0078 8.592031 -80.13873
v 99.14346 8.592031 -81.0031
v 100.8722 9.814431 -81.0031
v 100.0078 9.814431 -81.86746
v 100.0078 9.814431 -80.13873
v 99.14346 9.814431 -81.0031
v 100.0078 8.592031 -80.13873
v 100.8722 8.592031 -81.0031
v 100.0078 8.592031 -81.86746
v 99.14346 8.592031 -81.0031
v 100.0078 8.592031 -81.86746
v 100.0078 9.814431 -81.86746
v 99.14346 9.814431 -81.0031
v 99.14346 8.592031 -81.0031
v 100.0078 8.592031 -80.13873
v 100.0078 9.814431 -80.13873
v 100.8722 9.814431 -81.0031
v 100.8722 8.592031 -81.0031

vn 0.7071068 0 -0.7071068
vn 0.7071068 0 -0.7071068
vn 0.7071068 0 -0.7071068
vn 0.7071068 0 -0.7071068
vn 0 1 0
vn 0 1 0
vn -0.7071068 0 0.7071068
vn -0.7071068 0 0.7071068
vn 0 1 0
vn 0 1 0
vn -0.7071068 0 0.7071068
vn -0.7071068 0 0.7071068
vn 0 -1 0
vn 0 -1 0
vn 0 -1 0
vn 0 -1 0
vn -0.7071068 0 -0.7071068
vn -0.7071068 0 -0.7071068
vn -0.7071068 0 -0.7071068
vn -0.7071068 0 -0.7071068
vn 0.7071068 0 0.7071068
vn 0.7071068 0 0.7071068
vn 0.7071068 0 0.7071068
vn 0.7071068 0 0.7071068

vt 0 0
vt 1 0
vt 0 1
vt 1 1
vt 0 1
vt 1 1
vt 0 1
vt 1 1
vt 0 0
vt 1 0
vt 0 0
vt 1 0
vt 0 0
vt 0 1
vt 1 1
vt 1 0
vt 0 0
vt 0 1
vt 1 1
vt 1 0
vt 0 0
vt 0 1
vt 1 1
vt 1 0

usemtl dissolveGrey
usemap dissolveGrey
f 3/3/3 1/1/1 4/4/4
f 4/4/4 1/1/1 2/2/2
f 5/5/5 9/9/9 6/6/6
f 6/6/6 9/9/9 10/10/10
f 7/7/7 11/11/11 8/8/8
f 8/8/8 11/11/11 12/12/12
f 14/14/14 13/13/13 15/15/15
f 15/15/15 13/13/13 16/16/16
f 18/18/18 17/17/17 19/19/19
f 19/19/19 17/17/17 20/20/20
f 22/22/22 21/21/21 23/23/23
f 23/23/23 21/21/21 24/24/24
g LHorn
v 99.35134 9.287812 -81.15774
v 98.55973 9.287812 -81.16592
v 99.35134 9.551698 -81.15774
v 98.55973 9.551698 -81.16592
v 99.34861 9.551698 -80.89386
v 98.557 9.551698 -80.90205
v 99.34861 9.287812 -80.89386
v 98.557 9.287812 -80.90205
v 99.35134 9.551698 -81.15774
v 98.55973 9.551698 -81.16592
v 99.34861 9.551698 -80.89386
v 98.557 9.551698 -80.90205
v 99.34861 9.287812 -80.89386
v 99.35134 9.287812 -81.15774
v 98.55973 9.287812 -81.16592
v 98.557 9.287812 -80.90205
v 98.55973 9.287812 -81.16592
v 98.55973 9.551698 -81.16592
v 98.557 9.551698 -80.90205
v 98.557 9.287812 -80.90205
v 99.34861 9.287812 -80.89386
v 99.34861 9.551698 -80.89386
v 99.35134 9.551698 -81.15774
v 99.35134 9.287812 -81.15774

vn 0.01033989 0 -0.9999465
vn 0.01033989 0 -0.9999465
vn 0.01033989 0 -0.9999465
vn 0.01033989 0 -0.9999465
vn 0 1 0
vn 0 1 0
vn -0.01033989 0 0.9999465
vn -0.01033989 0 0.9999465
vn 0 1 0
vn 0 1 0
vn -0.01033989 0 0.9999465
vn -0.01033989 0 0.9999465
vn 0 -1 0
vn 0 -1 0
vn 0 -1 0
vn 0 -1 0
vn -0.9999465 0 -0.01033989
vn -0.9999465 0 -0.01033989
vn -0.9999465 0 -0.01033989
vn -0.9999465 0 -0.01033989
vn 0.9999465 0 0.01033989
vn 0.9999465 0 0.01033989
vn 0.9999465 0 0.01033989
vn 0.9999465 0 0.01033989

vt 0 0
vt 1 0
vt 0 1
vt 1 1
vt 0 1
vt 1 1
vt 0 1
vt 1 1
vt 0 0
vt 1 0
vt 0 0
vt 1 0
vt 0 0
vt 0 1
vt 1 1
vt 1 0
vt 0 0
vt 0 1
vt 1 1
vt 1 0
vt 0 0
vt 0 1
vt 1 1
vt 1 0

usemtl dissolveRed
usemap dissolveRed
f 27/27/27 25/25/25 28/28/28
f 28/28/28 25/25/25 26/26/26
f 29/29/29 33/33/33 30/30/30
f 30/30/30 33/33/33 34/34/34
f 31/31/31 35/35/35 32/32/32
f 32/32/32 35/35/35 36/36/36
f 38/38/38 37/37/37 39/39/39
f 39/39/39 37/37/37 40/40/40
f 42/42/42 41/41/41 43/43/43
f 43/43/43 41/41/41 44/44/44
f 46/46/46 45/45/45 47/47/47
f 47/47/47 45/45/45 48/48/48
g RHorn
v 101.4495 9.287812 -81.18343
v 100.6579 9.287812 -81.17306
v 101.4495 9.551698 -81.18343
v 100.6579 9.551698 -81.17306
v 101.453 9.551698 -80.91957
v 100.6614 9.551698 -80.90919
v 101.453 9.287812 -80.91957
v 100.6614 9.287812 -80.90919
v 101.4495 9.551698 -81.18343
v 100.6579 9.551698 -81.17306
v 101.453 9.551698 -80.91957
v 100.6614 9.551698 -80.90919
v 101.453 9.287812 -80.91957
v 101.4495 9.287812 -81.18343
v 100.6579 9.287812 -81.17306
v 100.6614 9.287812 -80.90919
v 100.6579 9.287812 -81.17306
v 100.6579 9.551698 -81.17306
v 100.6614 9.551698 -80.90919
v 100.6614 9.287812 -80.90919
v 101.453 9.287812 -80.91957
v 101.453 9.551698 -80.91957
v 101.4495 9.551698 -81.18343
v 101.4495 9.287812 -81.18343

vn -0.01310617 0 -0.9999141
vn -0.01310617 0 -0.9999141
vn -0.01310617 0 -0.9999141
vn -0.01310617 0 -0.9999141
vn 0 1 0
vn 0 1 0
vn 0.01310617 0 0.9999141
vn 0.01310617 0 0.9999141
vn 0 1 0
vn 0 1 0
vn 0.01310617 0 0.9999141
vn 0.01310617 0 0.9999141
vn 0 -1 0
vn 0 -1 0
vn 0 -1 0
vn 0 -1 0
vn -0.9999141 0 0.0131062
vn -0.9999141 0 0.0131062
vn -0.9999141 0 0.0131062
vn -0.9999141 0 0.0131062
vn 0.9999141 0 -0.0131062
vn 0.9999141 0 -0.0131062
vn 0.9999141 0 -0.0131062
vn 0.9999141 0 -0.0131062

vt 0 0
vt 1 0
vt 0 1
vt 1 1
vt 0 1
vt 1 1
vt 0 1
vt 1 1
vt 0 0
vt 1 0
vt 0 0
vt 1 0
vt 0 0
vt 0 1
vt 1 1
vt 1 0
vt 0 0
vt 0 1
vt 1 1
vt 1 0
vt 0 0
vt 0 1
vt 1 1
vt 1 0

usemtl dissolveRed
usemap dissolveRed
f 51/51/51 49/49/49 52/52/52
f 52/52/52 49/49/49 50/50/50
f 53/53/53 57/57/57 54/54/54
f 54/54/54 57/57/57 58/58/58
f 55/55/55 59/59/59 56/56/56
f 56/56/56 59/59/59 60/60/60
f 62/62/62 61/61/61 63/63/63
f 63/63/63 61/61/61 64/64/64
f 66/66/66 65/65/65 67/67/67
f 67/67/67 65/65/65 68/68/68
f 70/70/70 69/69/69 71/71/71
f 71/71/71 69/69/69 72/72/72
g LHorn2
v 98.5602 10.07946 -81.16565
v 98.5602 9.287807 -81.16565
v 98.29633 10.07946 -81.16838
v 98.29633 9.287807 -81.16838
v 98.29361 10.07946 -80.9045
v 98.29361 9.287807 -80.9045
v 98.55748 10.07946 -80.90178
v 98.55748 9.287807 -80.90178
v 98.29633 10.07946 -81.16838
v 98.29633 9.287807 -81.16838
v 98.29361 10.07946 -80.9045
v 98.29361 9.287807 -80.9045
v 98.55748 10.07946 -80.90178
v 98.5602 10.07946 -81.16565
v 98.5602 9.287807 -81.16565
v 98.55748 9.287807 -80.90178
v 98.5602 9.287807 -81.16565
v 98.29633 9.287807 -81.16838
v 98.29361 9.287807 -80.9045
v 98.55748 9.287807 -80.90178
v 98.55748 10.07946 -80.90178
v 98.29361 10.07946 -80.9045
v 98.29633 10.07946 -81.16838
v 98.5602 10.07946 -81.16565

vn 0.01034012 0 -0.9999466
vn 0.01034012 0 -0.9999466
vn 0.01034012 0 -0.9999466
vn 0.01034012 0 -0.9999466
vn -0.9999467 -1.192093E-07 -0.01034024
vn -0.9999467 -1.192093E-07 -0.01034024
vn -0.01034012 0 0.9999466
vn -0.01034012 0 0.9999466
vn -0.9999467 -1.192093E-07 -0.01034024
vn -0.9999467 -1.192093E-07 -0.01034024
vn -0.01034012 0 0.9999466
vn -0.01034012 0 0.9999466
vn 0.9999467 1.192093E-07 0.01034024
vn 0.9999467 1.192093E-07 0.01034024
vn 0.9999467 1.192093E-07 0.01034024
vn 0.9999467 1.192093E-07 0.01034024
vn 8.42937E-08 -1 8.42937E-08
vn 8.42937E-08 -1 8.42937E-08
vn 8.42937E-08 -1 8.42937E-08
vn 8.42937E-08 -1 8.42937E-08
vn -8.42937E-08 1 -8.42937E-08
vn -8.42937E-08 1 -8.42937E-08
vn -8.42937E-08 1 -8.42937E-08
vn -8.42937E-08 1 -8.42937E-08

vt 0 0
vt 1 0
vt 0 1
vt 1 1
vt 0 1
vt 1 1
vt 0 1
vt 1 1
vt 0 0
vt 1 0
vt 0 0
vt 1 0
vt 0 0
vt 0 1
vt 1 1
vt 1 0
vt 0 0
vt 0 1
vt 1 1
vt 1 0
vt 0 0
vt 0 1
vt 1 1
vt 1 0

usemtl dissolveRed
usemap dissolveRed
f 75/75/75 73/73/73 76/76/76
f 76/76/76 73/73/73 74/74/74
f 77/77/77 81/81/81 78/78/78
f 78/78/78 81/81/81 82/82/82
f 79/79/79 83/83/83 80/80/80
f 80/80/80 83/83/83 84/84/84
f 86/86/86 85/85/85 87/87/87
f 87/87/87 85/85/85 88/88/88
f 90/90/90 89/89/89 91/91/91
f 91/91/91 89/89/89 92/92/92
f 94/94/94 93/93/93 95/95/95
f 95/95/95 93/93/93 96/96/96
g RHorn2
v 101.7146 10.07946 -81.18689
v 101.7146 9.287807 -81.18689
v 101.4508 10.07946 -81.18343
v 101.4508 9.287807 -81.18343
v 101.4542 10.07946 -80.91957
v 101.4542 9.287807 -80.91957
v 101.7181 10.07946 -80.92303
v 101.7181 9.287807 -80.92303
v 101.4508 10.07946 -81.18343
v 101.4508 9.287807 -81.18343
v 101.4542 10.07946 -80.91957
v 101.4542 9.287807 -80.91957
v 101.7181 10.07946 -80.92303
v 101.7146 10.07946 -81.18689
v 101.7146 9.287807 -81.18689
v 101.7181 9.287807 -80.92303
v 101.7146 9.287807 -81.18689
v 101.4508 9.287807 -81.18343
v 101.4542 9.287807 -80.91957
v 101.7181 9.287807 -80.92303
v 101.7181 10.07946 -80.92303
v 101.4542 10.07946 -80.91957
v 101.4508 10.07946 -81.18343
v 101.7146 10.07946 -81.18689

vn -0.01310617 0 -0.9999141
vn -0.01310617 0 -0.9999141
vn -0.01310617 0 -0.9999141
vn -0.01310617 0 -0.9999141
vn -0.9999142 -1.192093E-07 0.01310614
vn -0.9999142 -1.192093E-07 0.01310614
vn 0.01310617 0 0.9999141
vn 0.01310617 0 0.9999141
vn -0.9999142 -1.192093E-07 0.01310614
vn -0.9999142 -1.192093E-07 0.01310614
vn 0.01310617 0 0.9999141
vn 0.01310617 0 0.9999141
vn 0.9999142 1.192093E-07 -0.01310614
vn 0.9999142 1.192093E-07 -0.01310614
vn 0.9999142 1.192093E-07 -0.01310614
vn 0.9999142 1.192093E-07 -0.01310614
vn 8.42937E-08 -1 8.42937E-08
vn 8.42937E-08 -1 8.42937E-08
vn 8.42937E-08 -1 8.42937E-08
vn 8.42937E-08 -1 8.42937E-08
vn -8.42937E-08 1 -8.42937E-08
vn -8.42937E-08 1 -8.42937E-08
vn -8.42937E-08 1 -8.42937E-08
vn -8.42937E-08 1 -8.42937E-08

vt 0 0
vt 1 0
vt 0 1
vt 1 1
vt 0 1
vt 1 1
vt 0 1
vt 1 1
vt 0 0
vt 1 0
vt 0 0
vt 1 0
vt 0 0
vt 0 1
vt 1 1
vt 1 0
vt 0 0
vt 0 1
vt 1 1
vt 1 0
vt 0 0
vt 0 1
vt 1 1
vt 1 0

usemtl dissolveRed
usemap dissolveRed
f 99/99/99 97/97/97 100/100/100
f 100/100/100 97/97/97 98/98/98
f 101/101/101 105/105/105 102/102/102
f 102/102/102 105/105/105 106/106/106
f 103/103/103 107/107/107 104/104/104
f 104/104/104 107/107/107 108/108/108
f 110/110/110 109/109/109 111/111/111
f 111/111/111 109/109/109 112/112/112
f 114/114/114 113/113/113 115/115/115
f 115/115/115 113/113/113 116/116/116
f 118/118/118 117/117/117 119/119/119
f 119/119/119 117/117/117 120/120/120
g Cube
v 100.5469 9.280865 -81.37102
v 100.1787 9.280865 -81.7392
v 100.5469 9.46787 -81.37102
v 100.1787 9.46787 -81.7392
v 99.68485 9.46787 -80.50901
v 99.31667 9.46787 -80.8772
v 99.68485 9.280865 -80.50901
v 99.31667 9.280865 -80.8772
v 100.5469 9.46787 -81.37102
v 100.1787 9.46787 -81.7392
v 99.68485 9.46787 -80.50901
v 99.31667 9.46787 -80.8772
v 99.68485 9.280865 -80.50901
v 100.5469 9.280865 -81.37102
v 100.1787 9.280865 -81.7392
v 99.31667 9.280865 -80.8772
v 100.1787 9.280865 -81.7392
v 100.1787 9.46787 -81.7392
v 99.31667 9.46787 -80.8772
v 99.31667 9.280865 -80.8772
v 99.68485 9.280865 -80.50901
v 99.68485 9.46787 -80.50901
v 100.5469 9.46787 -81.37102
v 100.5469 9.280865 -81.37102

vn 0.7071068 0 -0.7071068
vn 0.7071068 0 -0.7071068
vn 0.7071068 0 -0.7071068
vn 0.7071068 0 -0.7071068
vn 0 1 0
vn 0 1 0
vn -0.7071068 0 0.7071068
vn -0.7071068 0 0.7071068
vn 0 1 0
vn 0 1 0
vn -0.7071068 0 0.7071068
vn -0.7071068 0 0.7071068
vn 0 -1 0
vn 0 -1 0
vn 0 -1 0
vn 0 -1 0
vn -0.7071068 0 -0.7071068
vn -0.7071068 0 -0.7071068
vn -0.7071068 0 -0.7071068
vn -0.7071068 0 -0.7071068
vn 0.7071068 0 0.7071068
vn 0.7071068 0 0.7071068
vn 0.7071068 0 0.7071068
vn 0.7071068 0 0.7071068

vt 0 0
vt 1 0
vt 0 1
vt 1 1
vt 0 1
vt 1 1
vt 0 1
vt 1 1
vt 0 0
vt 1 0
vt 0 0
vt 1 0
vt 0 0
vt 0 1
vt 1 1
vt 1 0
vt 0 0
vt 0 1
vt 1 1
vt 1 0
vt 0 0
vt 0 1
vt 1 1
vt 1 0

usemtl dissolveRed
usemap dissolveRed
f 123/123/123 121/121/121 124/124/124
f 124/124/124 121/121/121 122/122/122
f 125/125/125 129/129/129 126/126/126
f 126/126/126 129/129/129 130/130/130
f 127/127/127 131/131/131 128/128/128
f 128/128/128 131/131/131 132/132/132
f 134/134/134 133/133/133 135/135/135
f 135/135/135 133/133/133 136/136/136
f 138/138/138 137/137/137 139/139/139
f 139/139/139 137/137/137 140/140/140
f 142/142/142 141/141/141 143/143/143
f 143/143/143 141/141/141 144/144/144
g Cube (1)
v 100.5469 9.040051 -81.37102
v 100.1787 9.040051 -81.7392
v 100.5469 9.227057 -81.37102
v 100.1787 9.227057 -81.7392
v 99.68485 9.227057 -80.50901
v 99.31667 9.227057 -80.8772
v 99.68485 9.040051 -80.50901
v 99.31667 9.040051 -80.8772
v 100.5469 9.227057 -81.37102
v 100.1787 9.227057 -81.7392
v 99.68485 9.227057 -80.50901
v 99.31667 9.227057 -80.8772
v 99.68485 9.040051 -80.50901
v 100.5469 9.040051 -81.37102
v 100.1787 9.040051 -81.7392
v 99.31667 9.040051 -80.8772
v 100.1787 9.040051 -81.7392
v 100.1787 9.227057 -81.7392
v 99.31667 9.227057 -80.8772
v 99.31667 9.040051 -80.8772
v 99.68485 9.040051 -80.50901
v 99.68485 9.227057 -80.50901
v 100.5469 9.227057 -81.37102
v 100.5469 9.040051 -81.37102

vn 0.7071068 0 -0.7071068
vn 0.7071068 0 -0.7071068
vn 0.7071068 0 -0.7071068
vn 0.7071068 0 -0.7071068
vn 0 1 0
vn 0 1 0
vn -0.7071068 0 0.7071068
vn -0.7071068 0 0.7071068
vn 0 1 0
vn 0 1 0
vn -0.7071068 0 0.7071068
vn -0.7071068 0 0.7071068
vn 0 -1 0
vn 0 -1 0
vn 0 -1 0
vn 0 -1 0
vn -0.7071068 0 -0.7071068
vn -0.7071068 0 -0.7071068
vn -0.7071068 0 -0.7071068
vn -0.7071068 0 -0.7071068
vn 0.7071068 0 0.7071068
vn 0.7071068 0 0.7071068
vn 0.7071068 0 0.7071068
vn 0.7071068 0 0.7071068

vt 0 0
vt 1 0
vt 0 1
vt 1 1
vt 0 1
vt 1 1
vt 0 1
vt 1 1
vt 0 0
vt 1 0
vt 0 0
vt 1 0
vt 0 0
vt 0 1
vt 1 1
vt 1 0
vt 0 0
vt 0 1
vt 1 1
vt 1 0
vt 0 0
vt 0 1
vt 1 1
vt 1 0

usemtl dissolveRed
usemap dissolveRed
f 147/147/147 145/145/145 148/148/148
f 148/148/148 145/145/145 146/146/146
f 149/149/149 153/153/153 150/150/150
f 150/150/150 153/153/153 154/154/154
f 151/151/151 155/155/155 152/152/152
f 152/152/152 155/155/155 156/156/156
f 158/158/158 157/157/157 159/159/159
f 159/159/159 157/157/157 160/160/160
f 162/162/162 161/161/161 163/163/163
f 163/163/163 161/161/161 164/164/164
f 166/166/166 165/165/165 167/167/167
f 167/167/167 165/165/165 168/168/168
g Cube (2)
v 100.3204 9.280865 -80.50037
v 100.6886 9.280865 -80.86855
v 100.3204 9.46787 -80.50037
v 100.6886 9.46787 -80.86855
v 99.45843 9.46787 -81.36238
v 99.82661 9.46787 -81.73056
v 99.45843 9.280865 -81.36238
v 99.82661 9.280865 -81.73056
v 100.3204 9.46787 -80.50037
v 100.6886 9.46787 -80.86855
v 99.45843 9.46787 -81.36238
v 99.82661 9.46787 -81.73056
v 99.45843 9.280865 -81.36238
v 100.3204 9.280865 -80.50037
v 100.6886 9.280865 -80.86855
v 99.82661 9.280865 -81.73056
v 100.6886 9.280865 -80.86855
v 100.6886 9.46787 -80.86855
v 99.82661 9.46787 -81.73056
v 99.82661 9.280865 -81.73056
v 99.45843 9.280865 -81.36238
v 99.45843 9.46787 -81.36238
v 100.3204 9.46787 -80.50037
v 100.3204 9.280865 -80.50037

vn 0.7071068 0 0.7071069
vn 0.7071068 0 0.7071069
vn 0.7071068 0 0.7071069
vn 0.7071068 0 0.7071069
vn 0 1 0
vn 0 1 0
vn -0.7071068 0 -0.7071069
vn -0.7071068 0 -0.7071069
vn 0 1 0
vn 0 1 0
vn -0.7071068 0 -0.7071069
vn -0.7071068 0 -0.7071069
vn 0 -1 0
vn 0 -1 0
vn 0 -1 0
vn 0 -1 0
vn 0.7071069 0 -0.7071068
vn 0.7071069 0 -0.7071068
vn 0.7071069 0 -0.7071068
vn 0.7071069 0 -0.7071068
vn -0.7071069 0 0.7071068
vn -0.7071069 0 0.7071068
vn -0.7071069 0 0.7071068
vn -0.7071069 0 0.7071068

vt 0 0
vt 1 0
vt 0 1
vt 1 1
vt 0 1
vt 1 1
vt 0 1
vt 1 1
vt 0 0
vt 1 0
vt 0 0
vt 1 0
vt 0 0
vt 0 1
vt 1 1
vt 1 0
vt 0 0
vt 0 1
vt 1 1
vt 1 0
vt 0 0
vt 0 1
vt 1 1
vt 1 0

usemtl dissolveRed
usemap dissolveRed
f 171/171/171 169/169/169 172/172/172
f 172/172/172 169/169/169 170/170/170
f 173/173/173 177/177/177 174/174/174
f 174/174/174 177/177/177 178/178/178
f 175/175/175 179/179/179 176/176/176
f 176/176/176 179/179/179 180/180/180
f 182/182/182 181/181/181 183/183/183
f 183/183/183 181/181/181 184/184/184
f 186/186/186 185/185/185 187/187/187
f 187/187/187 185/185/185 188/188/188
f 190/190/190 189/189/189 191/191/191
f 191/191/191 189/189/189 192/192/192
g Cube (3)
v 100.3204 9.037607 -80.50037
v 100.6886 9.037607 -80.86855
v 100.3204 9.224612 -80.50037
v 100.6886 9.224612 -80.86855
v 99.45843 9.224612 -81.36238
v 99.82661 9.224612 -81.73056
v 99.45843 9.037607 -81.36238
v 99.82661 9.037607 -81.73056
v 100.3204 9.224612 -80.50037
v 100.6886 9.224612 -80.86855
v 99.45843 9.224612 -81.36238
v 99.82661 9.224612 -81.73056
v 99.45843 9.037607 -81.36238
v 100.3204 9.037607 -80.50037
v 100.6886 9.037607 -80.86855
v 99.82661 9.037607 -81.73056
v 100.6886 9.037607 -80.86855
v 100.6886 9.224612 -80.86855
v 99.82661 9.224612 -81.73056
v 99.82661 9.037607 -81.73056
v 99.45843 9.037607 -81.36238
v 99.45843 9.224612 -81.36238
v 100.3204 9.224612 -80.50037
v 100.3204 9.037607 -80.50037

vn 0.7071068 0 0.7071069
vn 0.7071068 0 0.7071069
vn 0.7071068 0 0.7071069
vn 0.7071068 0 0.7071069
vn 0 1 0
vn 0 1 0
vn -0.7071068 0 -0.7071069
vn -0.7071068 0 -0.7071069
vn 0 1 0
vn 0 1 0
vn -0.7071068 0 -0.7071069
vn -0.7071068 0 -0.7071069
vn 0 -1 0
vn 0 -1 0
vn 0 -1 0
vn 0 -1 0
vn 0.7071069 0 -0.7071068
vn 0.7071069 0 -0.7071068
vn 0.7071069 0 -0.7071068
vn 0.7071069 0 -0.7071068
vn -0.7071069 0 0.7071068
vn -0.7071069 0 0.7071068
vn -0.7071069 0 0.7071068
vn -0.7071069 0 0.7071068

vt 0 0
vt 1 0
vt 0 1
vt 1 1
vt 0 1
vt 1 1
vt 0 1
vt 1 1
vt 0 0
vt 1 0
vt 0 0
vt 1 0
vt 0 0
vt 0 1
vt 1 1
vt 1 0
vt 0 0
vt 0 1
vt 1 1
vt 1 0
vt 0 0
vt 0 1
vt 1 1
vt 1 0

usemtl dissolveRed
usemap dissolveRed
f 195/195/195 193/193/193 196/196/196
f 196/196/196 193/193/193 194/194/194
f 197/197/197 201/201/201 198/198/198
f 198/198/198 201/201/201 202/202/202
f 199/199/199 203/203/203 200/200/200
f 200/200/200 203/203/203 204/204/204
f 206/206/206 205/205/205 207/207/207
f 207/207/207 205/205/205 208/208/208
f 210/210/210 209/209/209 211/211/211
f 211/211/211 209/209/209 212/212/212
f 214/214/214 213/213/213 215/215/215
f 215/215/215 213/213/213 216/216/216
g Body
v 101.7287 5.238371 -80.80865
v 100 5.007869 -82.52195
v 101.7287 8.082908 -81.19135
v 100 7.852406 -82.90465
v 100 8.31341 -79.47805
v 98.27126 8.082908 -81.19135
v 100 5.468873 -79.09535
v 98.27126 5.238371 -80.80865
v 101.7287 8.082908 -81.19135
v 100 7.852406 -82.90465
v 100 8.31341 -79.47805
v 98.27126 8.082908 -81.19135
v 100 5.468873 -79.09535
v 101.7287 5.238371 -80.80865
v 100 5.007869 -82.52195
v 98.27126 5.238371 -80.80865
v 100 5.007869 -82.52195
v 100 7.852406 -82.90465
v 98.27126 8.082908 -81.19135
v 98.27126 5.238371 -80.80865
v 100 5.468873 -79.09535
v 100 8.31341 -79.47805
v 101.7287 8.082908 -81.19135
v 101.7287 5.238371 -80.80865

vn 0.7071068 -0.09428263 -0.7007929
vn 0.7071068 -0.09428263 -0.7007929
vn 0.7071068 -0.09428263 -0.7007929
vn 0.7071068 -0.09428263 -0.7007929
vn 2.235174E-08 0.9910709 -0.1333358
vn 2.235174E-08 0.9910709 -0.1333358
vn -0.7071068 0.09428263 0.7007929
vn -0.7071068 0.09428263 0.7007929
vn 2.235174E-08 0.9910709 -0.1333358
vn 2.235174E-08 0.9910709 -0.1333358
vn -0.7071068 0.09428263 0.7007929
vn -0.7071068 0.09428263 0.7007929
vn -2.235174E-08 -0.9910709 0.1333358
vn -2.235174E-08 -0.9910709 0.1333358
vn -2.235174E-08 -0.9910709 0.1333358
vn -2.235174E-08 -0.9910709 0.1333358
vn -0.7071067 -0.0942826 -0.700793
vn -0.7071067 -0.0942826 -0.700793
vn -0.7071067 -0.0942826 -0.700793
vn -0.7071067 -0.0942826 -0.700793
vn 0.7071067 0.0942826 0.700793
vn 0.7071067 0.0942826 0.700793
vn 0.7071067 0.0942826 0.700793
vn 0.7071067 0.0942826 0.700793

vt 0 0
vt 1 0
vt 0 1
vt 1 1
vt 0 1
vt 1 1
vt 0 1
vt 1 1
vt 0 0
vt 1 0
vt 0 0
vt 1 0
vt 0 0
vt 0 1
vt 1 1
vt 1 0
vt 0 0
vt 0 1
vt 1 1
vt 1 0
vt 0 0
vt 0 1
vt 1 1
vt 1 0

usemtl dissolveGrey
usemap dissolveGrey
f 219/219/219 217/217/217 220/220/220
f 220/220/220 217/217/217 218/218/218
f 221/221/221 225/225/225 222/222/222
f 222/222/222 225/225/225 226/226/226
f 223/223/223 227/227/227 224/224/224
f 224/224/224 227/227/227 228/228/228
f 230/230/230 229/229/229 231/231/231
f 231/231/231 229/229/229 232/232/232
f 234/234/234 233/233/233 235/235/235
f 235/235/235 233/233/233 236/236/236
f 238/238/238 237/237/237 239/239/239
f 239/239/239 237/237/237 240/240/240
