mtllib Prism.mtl
g Prism (1)
v 12.8 18.6 -66
v 2.799999 3.6 -66
v 22.8 3.6 -66
v 12.8 18.6 -66
v 2.799999 3.6 -46
v 2.799999 3.6 -66
v 12.8 18.6 -46
v 12.8 18.6 -46
v 22.8 3.6 -46
v 2.799999 3.6 -46
v 12.8 18.6 -46
v 22.8 3.6 -66
v 22.8 3.6 -46
v 12.8 18.6 -66
v 22.8 3.6 -66
v 2.799999 3.6 -66
v 22.8 3.6 -46
v 2.799999 3.6 -46

vn 0 0 -1
vn 0 0 -1
vn 0 0 -1
vn -0.8320503 0.5547002 0
vn -0.8320503 0.5547002 0
vn -0.8320503 0.5547002 0
vn -0.8320503 0.5547002 0
vn 0 0 1
vn 0 0 1
vn 0 0 1
vn 0.8320503 0.5547002 0
vn 0.8320503 0.5547002 0
vn 0.8320503 0.5547002 0
vn 0.8320503 0.5547002 0
vn 0 -1 0
vn 0 -1 0
vn 0 -1 0
vn 0 -1 0

vt 10 15
vt 20 0
vt 0 0
vt 0 6.933753
vt 20 -11.094
vt 0 -11.094
vt 20 6.933753
vt -10 15
vt 0 0
vt -20 0
vt -20 18.02776
vt 0 0
vt -20 0
vt 0 18.02776
vt 0 0
vt -20 0
vt 0 20
vt -20 20

usemtl LEVEL_CANVAS
usemap LEVEL_CANVAS
f 2/2/2 1/1/1 3/3/3
f 5/5/5 4/4/4 6/6/6
f 7/7/7 4/4/4 5/5/5
f 9/9/9 8/8/8 10/10/10
f 12/12/12 11/11/11 13/13/13
f 14/14/14 11/11/11 12/12/12
f 16/16/16 15/15/15 17/17/17
f 18/18/18 16/16/16 17/17/17
