# This file uses centimeters as units for non-parametric coordinates.

mtllib bullhead.mtl
g default
v -4.890128 2.828447 4.114579
v 6.041594 3.023683 4.167832
v -2.965254 6.874983 3.180010
v 4.405020 7.293340 3.294122
v -3.041648 6.371796 -2.575135
v 4.328623 6.790150 -2.461024
v -4.983182 2.215563 -2.895199
v 5.948546 2.410798 -2.841946
v -2.096295 -9.503445 -1.349660
v 2.210547 -9.773266 -1.423257
v 2.256609 -9.469866 2.046824
v -2.050232 -9.200047 2.120421
v 6.926596 2.349524 -2.858660
v 7.019644 2.962407 4.151118
v 7.087379 6.617319 -2.508168
v 7.163777 7.120508 3.246977
v -6.158348 2.141013 -2.966557
v -6.001031 2.748789 4.041897
v -6.040390 6.915748 3.141790
v -6.169548 6.416756 -2.612266
v 16.842479 -0.644269 -1.089228
v 16.926516 -0.404948 0.788111
v 17.785470 0.477361 -1.047884
v 17.854464 0.673833 0.493442
v -16.440879 1.839876 -0.456400
v -16.418372 2.009701 1.417248
v -16.860589 3.380174 1.200112
v -16.879066 3.240749 -0.338183
v -9.588383 2.485067 -2.105567
v -9.527897 2.963892 3.217193
v -9.976048 6.212030 2.540088
v -10.025712 5.818900 -1.829988
v -12.966336 2.283167 -1.273312
v -13.678199 4.558934 -1.081261
v -13.643568 4.820258 1.801965
v -12.924148 2.601450 2.238466
v 10.894173 2.096867 -2.061254
v 11.609124 5.173148 -1.889509
v 11.363758 5.695277 2.377018
v 10.595314 2.732817 3.135388
v 14.437420 0.700320 -1.585148
v 14.579310 1.104382 1.584540
v 15.960631 2.705220 1.078889
v 15.844140 2.373483 -1.523482
v 5.979089 2.158949 -3.100093
v 6.080975 2.874587 4.383182
v 6.771043 2.109334 -3.113626
v 6.872933 2.824972 4.369649
v 4.630492 6.979043 -2.686008
v 6.864329 6.839094 -2.724181
v 4.715727 7.584986 3.542636
v 6.949565 7.445037 3.504463
v -5.037269 1.969016 -3.151900
v -4.935958 2.684690 4.331385
v -5.727914 2.734306 4.344919
v -5.829217 2.018630 -3.138367
v -3.247992 7.203806 3.438664
v -5.481832 7.343754 3.476837
v -3.332644 6.597833 -2.789988
v -5.566485 6.737781 -2.751815
v -6.703776 1.874206 -3.211826
v -6.526515 2.584874 4.270204
v -9.049452 2.814341 3.525048
v -9.116117 2.187142 -2.479762
v -6.593608 7.253511 3.412161
v -9.606420 6.684173 2.899561
v -6.743086 6.651616 -2.815537
v -9.661886 6.142747 -2.152489
v 7.807138 6.761542 -2.747301
v 7.068924 2.062932 -3.101892
v 10.985408 5.687150 -2.152370
v 10.019741 1.939939 -2.405904
v 8.130628 7.386871 3.471285
v 10.840912 6.348092 2.812689
v 7.458252 2.801774 4.370525
v 9.843976 2.709111 3.491145
v 10.993713 2.410510 3.255764
v 11.157896 1.615370 -2.559716
v 14.108511 0.470577 -1.940534
v 14.328560 1.035834 1.924808
v 12.058614 5.101411 -2.387449
v 15.973005 2.642554 -1.861526
v 11.923736 5.780703 2.496568
v 16.167827 3.135350 1.436432
v -9.810913 2.124158 -2.437907
v -9.742908 2.735617 3.501315
v -12.742715 2.421460 2.555912
v -12.777613 1.955353 -1.648745
v -10.300756 6.595012 2.875100
v -13.691342 5.274833 2.173270
v -10.358109 6.069240 -2.111467
v -13.718514 4.865742 -1.402808
vt 0.698175 0.558868
vt 0.839668 0.560382
vt 0.820644 0.623062
vt 0.725037 0.618898
vt 0.812041 0.726262
vt 0.716434 0.722098
vt 0.824360 0.786341
vt 0.683395 0.774630
vt 0.722872 0.335825
vt 0.778413 0.331762
vt 0.783449 0.393998
vt 0.727908 0.398062
vt 0.236140 0.676293
vt 0.190309 0.696011
vt 0.180892 0.677976
vt 0.219841 0.662482
vt 0.219764 0.975047
vt 0.177252 0.948989
vt 0.195445 0.937816
vt 0.231732 0.958473
vt 0.752293 0.951515
vt 0.697334 0.942873
vt 0.960272 0.507961
vt 0.843152 0.368048
vt 0.570790 0.523834
vt 0.664848 0.380719
vt 0.253683 0.490670
vt 0.415614 0.530762
vt 0.414894 0.541781
vt 0.254105 0.501041
vt 0.010224 0.538377
vt 0.062767 0.504898
vt 0.068346 0.533941
vt 0.013418 0.549705
vt 0.199636 0.473800
vt 0.200354 0.503498
vt 0.018582 0.782996
vt 0.185514 0.761926
vt 0.184123 0.772239
vt 0.017976 0.793951
vt 0.241630 0.753196
vt 0.236702 0.782095
vt 0.372099 0.801197
vt 0.364066 0.830047
vt 0.420764 0.840882
vt 0.416317 0.851923
vt 0.253832 0.562433
vt 0.385911 0.604658
vt 0.333734 0.649877
vt 0.249068 0.614290
vt 0.056159 0.629503
vt 0.097262 0.599142
vt 0.135436 0.647828
vt 0.116216 0.675173
vt 0.205251 0.568528
vt 0.214972 0.619713
vt 0.038566 0.855387
vt 0.177297 0.829533
vt 0.175275 0.875935
vt 0.078024 0.900938
vt 0.224378 0.842616
vt 0.209696 0.886879
vt 0.329163 0.887734
vt 0.290528 0.926737
vt 0.366164 0.923682
vt 0.307681 0.957800
vt 0.019138 0.806133
vt 0.182541 0.781985
vt 0.176704 0.819284
vt 0.037960 0.841498
vt 0.234485 0.795373
vt 0.228232 0.829518
vt 0.358456 0.842042
vt 0.337367 0.875770
vt 0.409894 0.868697
vt 0.378955 0.904312
vt 0.281128 0.928161
vt 0.294996 0.957269
vt 0.239678 0.976172
vt 0.212084 0.894516
vt 0.171343 0.880733
vt 0.171433 0.930657
vt 0.088748 0.903154
vt 0.126807 0.943231
vt 0.018098 0.567126
vt 0.072425 0.546695
vt 0.090316 0.585636
vt 0.045805 0.608445
vt 0.201108 0.517582
vt 0.203120 0.554637
vt 0.254584 0.511256
vt 0.255733 0.551700
vt 0.413550 0.554441
vt 0.388654 0.590051
vt 0.252089 0.619815
vt 0.322516 0.650561
vt 0.287246 0.678032
vt 0.245149 0.658067
vt 0.211698 0.627025
vt 0.144865 0.650356
vt 0.129180 0.675759
vt 0.171183 0.694685
vt 0.256811 0.489501
vt 0.409836 0.526345
vt 0.408668 0.544133
vt 0.256570 0.504723
vt 0.010449 0.530775
vt 0.065217 0.498794
vt 0.072686 0.537799
vt 0.018093 0.555433
vt 0.195465 0.468553
vt 0.197628 0.509339
vt 0.024829 0.779264
vt 0.182501 0.760415
vt 0.181257 0.775589
vt 0.023992 0.796993
vt 0.246279 0.748500
vt 0.238652 0.788222
vt 0.370400 0.794801
vt 0.359280 0.833295
vt 0.421338 0.833246
vt 0.411076 0.857187
vt 0.173357 0.826603
vt 0.046882 0.848092
vt 0.230084 0.838461
vt 0.328332 0.880842
vt 0.368537 0.911609
vt 0.098821 0.592315
vt 0.055439 0.617237
vt 0.200124 0.563612
vt 0.258026 0.559825
vt 0.378700 0.596108
vn -0.016074 0.212980 0.976924
vn -0.016074 0.212980 0.976924
vn -0.016074 0.212980 0.976924
vn -0.016074 0.212980 0.976924
vn -0.055129 0.994748 -0.086242
vn -0.055129 0.994748 -0.086242
vn -0.055129 0.994748 -0.086242
vn -0.055129 0.994748 -0.086242
vn 0.006378 0.081609 -0.996644
vn 0.006378 0.081609 -0.996644
vn 0.000595 -0.061216 -0.998124
vn 0.000180 -0.071403 -0.997448
vn -0.060792 -0.994287 0.087740
vn -0.060792 -0.994287 0.087740
vn -0.060792 -0.994287 0.087740
vn -0.060792 -0.994287 0.087740
vn 0.763678 -0.643819 0.047885
vn 0.763678 -0.643819 0.047885
vn 0.763678 -0.643819 0.047885
vn 0.763678 -0.643819 0.047885
vn -0.952746 -0.301286 0.038752
vn -0.952746 -0.301286 0.038752
vn -0.952746 -0.301286 0.038752
vn -0.952746 -0.301286 0.038752
vn 0.000180 -0.071403 -0.997448
vn 0.000595 -0.061216 -0.998124
vn -0.001927 -0.123000 -0.992405
vn -0.001927 -0.123000 -0.992405
vn 0.956359 -0.291912 0.012828
vn 0.956359 -0.291912 0.012828
vn 0.956359 -0.291912 0.012828
vn 0.956359 -0.291912 0.012828
vn -0.004529 -0.052934 0.998588
vn -0.003728 -0.070979 0.997471
vn 0.000507 -0.165519 0.986206
vn 0.000507 -0.165519 0.986206
vn -0.971445 -0.234898 0.033433
vn -0.971445 -0.234898 0.033433
vn -0.971445 -0.234898 0.033433
vn -0.971445 -0.234898 0.033433
vn -0.060607 -0.993550 0.095840
vn -0.060607 -0.993550 0.095840
vn -0.060607 -0.993550 0.095840
vn -0.060607 -0.993550 0.095840
vn -0.011874 0.082289 -0.996538
vn -0.011874 0.082289 -0.996538
vn -0.011874 0.082289 -0.996538
vn -0.011874 0.082289 -0.996538
vn 0.060570 0.993394 -0.097469
vn 0.060570 0.993394 -0.097469
vn 0.060570 0.993394 -0.097469
vn 0.060570 0.993394 -0.097469
vn 0.028290 0.183541 0.982605
vn 0.028290 0.183541 0.982605
vn 0.028290 0.183541 0.982605
vn 0.028290 0.183541 0.982605
vn -0.060607 -0.993550 0.095840
vn -0.060607 -0.993550 0.095840
vn -0.060607 -0.993550 0.095840
vn -0.060607 -0.993550 0.095840
vn 0.028290 0.183541 0.982605
vn 0.028290 0.183541 0.982605
vn 0.028290 0.183541 0.982605
vn 0.028290 0.183541 0.982605
vn 0.060570 0.993394 -0.097469
vn 0.060570 0.993394 -0.097469
vn 0.060570 0.993394 -0.097469
vn 0.060570 0.993394 -0.097469
vn -0.011874 0.082289 -0.996538
vn -0.011874 0.082289 -0.996538
vn -0.011874 0.082289 -0.996538
vn -0.011874 0.082289 -0.996538
vn -0.355884 -0.925152 0.132061
vn -0.355884 -0.925152 0.132061
vn -0.355884 -0.925152 0.132061
vn -0.355884 -0.925152 0.132061
vn 0.149534 -0.029189 -0.988326
vn 0.149534 -0.029189 -0.988326
vn 0.149534 -0.029189 -0.988326
vn 0.149534 -0.029189 -0.988326
vn 0.520349 0.844781 -0.124830
vn 0.520349 0.844781 -0.124830
vn 0.520349 0.844781 -0.124830
vn 0.520349 0.844781 -0.124830
vn 0.324932 0.050886 0.944367
vn 0.324932 0.050886 0.944367
vn 0.324932 0.050886 0.944367
vn 0.324931 0.050887 0.944368
vn 0.077519 -0.991495 0.104538
vn 0.077519 -0.991495 0.104538
vn 0.077519 -0.991495 0.104538
vn 0.077519 -0.991495 0.104538
vn -0.268792 0.083887 0.959539
vn -0.268792 0.083887 0.959539
vn -0.268792 0.083887 0.959539
vn -0.268792 0.083887 0.959539
vn -0.348548 0.932119 -0.098327
vn -0.348548 0.932119 -0.098327
vn -0.348548 0.932119 -0.098327
vn -0.348548 0.932119 -0.098327
vn -0.236373 0.029779 -0.971206
vn -0.236373 0.029779 -0.971206
vn -0.236373 0.029779 -0.971206
vn -0.236373 0.029779 -0.971206
vn -0.022226 -0.995001 0.097357
vn -0.020229 -0.995051 0.097286
vn -0.130294 -0.986428 0.099918
vn -0.130723 -0.986371 0.099915
vn -0.227814 0.150495 0.962004
vn -0.227814 0.150495 0.962004
vn -0.275978 0.140954 0.950772
vn -0.262448 0.143684 0.954189
vn -0.180373 0.978908 -0.095945
vn -0.180373 0.978908 -0.095945
vn -0.180373 0.978908 -0.095945
vn -0.180373 0.978908 -0.095945
vn -0.254828 0.062876 -0.964940
vn -0.254828 0.062876 -0.964940
vn -0.293473 0.055281 -0.954368
vn -0.294230 0.055131 -0.954143
vn -0.230088 0.010149 -0.973117
vn -0.230088 0.010149 -0.973117
vn -0.230088 0.010149 -0.973117
vn -0.230088 0.010149 -0.973117
vn -0.395099 0.915303 -0.078215
vn -0.395099 0.915303 -0.078215
vn -0.395099 0.915303 -0.078215
vn -0.395099 0.915303 -0.078215
vn -0.235251 0.099922 0.966785
vn -0.235251 0.099922 0.966785
vn -0.235251 0.099922 0.966785
vn -0.235251 0.099922 0.966785
vn 0.146297 -0.985359 0.087551
vn 0.146297 -0.985359 0.087551
vn 0.146297 -0.985359 0.087551
vn 0.146297 -0.985359 0.087551
vn 0.211207 0.027741 -0.977048
vn 0.211207 0.027741 -0.977048
vn 0.231037 0.020288 -0.972734
vn 0.231837 0.019987 -0.972549
vn 0.334527 0.935592 -0.112960
vn 0.334527 0.935592 -0.112960
vn 0.373701 0.921144 -0.108816
vn 0.380760 0.918340 -0.108042
vn 0.310804 0.117844 0.943140
vn 0.310804 0.117844 0.943140
vn 0.339956 0.108601 0.934150
vn 0.349959 0.105378 0.930819
vn -0.099245 -0.988675 0.112567
vn -0.088482 -0.989693 0.112601
vn -0.017759 -0.993223 0.114863
vn -0.020977 -0.993205 0.114469
vn -0.504254 -0.853503 0.131376
vn -0.504254 -0.853503 0.131376
vn -0.504254 -0.853503 0.131376
vn -0.504254 -0.853503 0.131376
vn 0.317217 0.009854 0.948302
vn 0.317217 0.009854 0.948302
vn 0.317217 0.009854 0.948302
vn 0.317217 0.009854 0.948302
vn 0.708583 0.695289 -0.120349
vn 0.708583 0.695289 -0.120349
vn 0.708583 0.695289 -0.120349
vn 0.708583 0.695289 -0.120349
vn 0.151845 -0.091388 -0.984170
vn 0.151845 -0.091388 -0.984170
vn 0.151845 -0.091388 -0.984170
vn 0.151845 -0.091388 -0.984170
vn -0.984175 -0.174767 0.029257
vn -0.984175 -0.174767 0.029257
vn -0.984175 -0.174767 0.029257
vn -0.984175 -0.174767 0.029257
vn 0.777622 -0.626972 0.047012
vn 0.777622 -0.626972 0.047012
vn 0.777622 -0.626972 0.047012
vn 0.777622 -0.626972 0.047012
vn -0.817112 -0.217535 -0.533860
vn -0.817112 -0.217535 -0.533860
vn -0.817112 -0.217535 -0.533860
vn -0.817112 -0.217535 -0.533860
vn 0.778492 0.029576 -0.626957
vn 0.778492 0.029576 -0.626957
vn 0.778492 0.029576 -0.626957
vn 0.778492 0.029576 -0.626957
vn -0.614388 0.786364 -0.064493
vn -0.614388 0.786364 -0.064493
vn -0.614388 0.786364 -0.064493
vn -0.614388 0.786364 -0.064493
vn 0.776345 0.626580 -0.068462
vn 0.776345 0.626580 -0.068462
vn 0.776345 0.626580 -0.068462
vn 0.776345 0.626580 -0.068462
vn -0.769624 -0.138274 0.623345
vn -0.769624 -0.138274 0.623345
vn -0.769624 -0.138274 0.623345
vn -0.769624 -0.138274 0.623345
vn 0.810964 0.095941 0.577177
vn 0.810964 0.095941 0.577177
vn 0.810964 0.095941 0.577177
vn 0.810964 0.095941 0.577177
vn 0.968470 -0.248936 0.009831
vn 0.968470 -0.248936 0.009831
vn 0.968470 -0.248936 0.009831
vn 0.968470 -0.248936 0.009831
vn -0.239788 -0.966405 0.092536
vn -0.239788 -0.966405 0.092536
vn -0.239788 -0.966405 0.092536
vn -0.239788 -0.966405 0.092536
vn 0.769745 -0.194996 0.607839
vn 0.769745 -0.194996 0.607839
vn 0.769745 -0.194996 0.607839
vn 0.769745 -0.194996 0.607839
vn -0.650631 0.164680 0.741323
vn -0.650631 0.164680 0.741323
vn -0.650631 0.164680 0.741323
vn -0.650631 0.164680 0.741323
vn 0.690182 0.719646 -0.075882
vn 0.690182 0.719646 -0.075882
vn 0.690182 0.719646 -0.075882
vn 0.690182 0.719646 -0.075882
vn -0.532510 0.843664 -0.068295
vn -0.532510 0.843664 -0.068295
vn -0.532510 0.843664 -0.068295
vn -0.532510 0.843664 -0.068295
vn 0.780373 -0.280503 -0.558870
vn 0.780373 -0.280503 -0.558870
vn 0.780373 -0.280503 -0.558870
vn 0.780373 -0.280503 -0.558870
vn -0.332174 0.086647 -0.939230
vn -0.332174 0.086647 -0.939230
vn -0.332174 0.086647 -0.939230
vn -0.332174 0.086647 -0.939230
vn 0.371047 -0.925528 0.075644
vn 0.371047 -0.925528 0.075644
vn -0.020229 -0.995051 0.097286
vn -0.022226 -0.995001 0.097357
vn -0.418706 -0.903357 0.092904
vn -0.418706 -0.903357 0.092904
vn -0.130723 -0.986371 0.099915
vn -0.130294 -0.986428 0.099918
vn 0.436558 0.180636 0.881356
vn 0.436558 0.180636 0.881356
vn 0.436558 0.180636 0.881356
vn 0.436558 0.180637 0.881355
vn -0.629862 0.052866 0.774906
vn -0.629862 0.052866 0.774906
vn -0.262448 0.143684 0.954189
vn -0.275978 0.140954 0.950772
vn 0.446760 0.889895 -0.092154
vn 0.446760 0.889895 -0.092154
vn 0.446760 0.889895 -0.092154
vn 0.446760 0.889895 -0.092154
vn -0.732751 0.677928 -0.059067
vn -0.732751 0.677928 -0.059067
vn -0.732751 0.677928 -0.059067
vn -0.732751 0.677928 -0.059067
vn 0.368973 0.078840 -0.926090
vn 0.368973 0.078840 -0.926090
vn 0.368973 0.078840 -0.926090
vn 0.368973 0.078840 -0.926090
vn -0.639578 -0.022710 -0.768391
vn -0.639578 -0.022710 -0.768391
vn -0.294230 0.055131 -0.954143
vn -0.293473 0.055281 -0.954368
vn -0.470347 0.115952 -0.874831
vn -0.470347 0.115952 -0.874831
vn -0.470347 0.115952 -0.874831
vn -0.470347 0.115952 -0.874831
vn 0.368830 -0.032947 -0.928913
vn 0.368830 -0.032947 -0.928913
vn 0.231837 0.019987 -0.972549
vn 0.231037 0.020288 -0.972734
vn -0.236401 0.968074 -0.083345
vn -0.236401 0.968074 -0.083345
vn -0.236401 0.968074 -0.083345
vn -0.236401 0.968074 -0.083345
vn 0.707487 0.704144 -0.060362
vn 0.707487 0.704144 -0.060362
vn 0.380760 0.918340 -0.108042
vn 0.373701 0.921144 -0.108816
vn -0.308694 0.219709 0.925438
vn -0.308694 0.219709 0.925438
vn -0.308694 0.219709 0.925438
vn -0.308694 0.219709 0.925438
vn 0.540809 0.038264 0.840274
vn 0.540809 0.038264 0.840274
vn 0.349959 0.105378 0.930819
vn 0.339956 0.108601 0.934150
vn -0.604892 -0.790745 0.093954
vn -0.604892 -0.790745 0.093955
vn -0.088482 -0.989693 0.112601
vn -0.099245 -0.988675 0.112567
vn 0.110372 -0.985413 0.129535
vn 0.110372 -0.985413 0.129534
vn -0.020977 -0.993205 0.114469
vn -0.017759 -0.993223 0.114863
vn -0.758523 -0.649527 0.052515
vn -0.758523 -0.649527 0.052515
vn -0.758523 -0.649527 0.052515
vn -0.758523 -0.649527 0.052515
vn 0.589579 -0.806558 -0.043144
vn 0.453295 -0.885875 0.098737
vn 0.453295 -0.885875 0.098737
vn 0.634633 -0.766727 -0.096803
vn -0.733953 0.214484 -0.644445
vn -0.733953 0.214484 -0.644445
vn -0.733953 0.214484 -0.644445
vn -0.733953 0.214484 -0.644445
vn 0.849830 -0.518391 -0.095179
vn 0.589579 -0.806558 -0.043144
vn 0.634633 -0.766727 -0.096803
vn 0.828827 -0.544058 -0.130561
vn -0.063078 0.989175 -0.132494
vn -0.063078 0.989175 -0.132494
vn -0.063078 0.989175 -0.132494
vn -0.063078 0.989175 -0.132494
vn 0.854801 -0.496485 0.151057
vn 0.849830 -0.518391 -0.095179
vn 0.828827 -0.544058 -0.130561
vn 0.833159 -0.515897 0.199240
vn -0.169748 0.272485 0.947068
vn -0.169748 0.272485 0.947068
vn -0.169748 0.272485 0.947068
vn -0.169748 0.272485 0.947068
vn 0.752811 -0.564068 0.339266
vn 0.854801 -0.496485 0.151057
vn 0.833159 -0.515897 0.199240
vn 0.752811 -0.564068 0.339266
vn 0.799964 -0.598063 0.048771
vn 0.799964 -0.598063 0.048771
vn 0.799964 -0.598063 0.048771
vn 0.799964 -0.598063 0.048771
vn -0.873645 -0.457999 0.164260
vn -0.877857 -0.477384 -0.038358
vn -0.899324 -0.430241 -0.078164
vn -0.889554 -0.414448 0.192163
vn 0.761918 0.219573 0.609319
vn 0.761918 0.219573 0.609319
vn 0.761918 0.219573 0.609319
vn 0.761918 0.219573 0.609319
vn -0.976122 -0.175468 0.128051
vn -0.873645 -0.457999 0.164260
vn -0.889554 -0.414448 0.192163
vn -0.966129 -0.196723 0.167018
vn 0.688476 0.720979 -0.078681
vn 0.688476 0.720979 -0.078681
vn 0.688476 0.720979 -0.078681
vn 0.688476 0.720979 -0.078681
vn -0.980506 -0.185406 -0.065050
vn -0.976122 -0.175468 0.128051
vn -0.966129 -0.196723 0.167018
vn -0.973590 -0.208081 -0.093935
vn 0.719128 0.153322 -0.677752
vn 0.719128 0.153322 -0.677752
vn 0.719128 0.153322 -0.677752
vn 0.719128 0.153322 -0.677752
vn -0.877857 -0.477384 -0.038358
vn -0.980506 -0.185406 -0.065050
vn -0.973590 -0.208081 -0.093935
vn -0.899324 -0.430241 -0.078164
s off
g bulldemon_UPDATED1:bulldemonhed
usemtl bulldemon_UPDATED1:initialShadingGroup
f 1/1/1 2/2/2 4/3/3 3/4/4
f 3/4/5 4/3/6 6/5/7 5/6/8
f 5/6/9 6/5/10 8/7/11 7/8/12
f 9/9/13 10/10/14 11/11/15 12/12/16
f 22/13/17 21/14/18 23/15/19 24/16/20
f 25/17/21 26/18/22 27/19/23 28/20/24
f 7/8/25 8/7/26 10/21/27 9/22/28
f 8/23/29 2/2/30 11/11/31 10/24/32
f 2/2/33 1/1/34 12/12/35 11/11/36
f 1/1/37 7/25/38 9/26/39 12/12/40
f 46/27/41 45/28/42 47/29/43 48/30/44
f 45/31/45 49/32/46 50/33/47 47/34/48
f 49/32/49 51/35/50 52/36/51 50/33/52
f 51/35/53 46/27/54 48/30/55 52/36/56
f 53/37/57 54/38/58 55/39/59 56/40/60
f 54/38/61 57/41/62 58/42/63 55/39/64
f 57/41/65 59/43/66 60/44/67 58/42/68
f 59/43/69 53/45/70 56/46/71 60/44/72
f 77/47/73 78/48/74 79/49/75 80/50/76
f 78/51/77 81/52/78 82/53/79 79/54/80
f 81/52/81 83/55/82 84/56/83 82/53/84
f 83/55/85 77/47/86 80/50/87 84/56/88
f 85/57/89 86/58/90 87/59/91 88/60/92
f 86/58/93 89/61/94 90/62/95 87/59/96
f 89/61/97 91/63/98 92/64/99 90/62/100
f 91/63/101 85/65/102 88/66/103 92/64/104
f 61/67/105 62/68/106 63/69/107 64/70/108
f 62/68/109 65/71/110 66/72/111 63/69/112
f 65/71/113 67/73/114 68/74/115 66/72/116
f 67/73/117 61/75/118 64/76/119 68/74/120
f 34/77/121 33/78/122 25/79/123 28/20/124
f 35/80/125 34/77/126 28/20/127 27/19/128
f 36/81/129 35/80/130 27/19/131 26/82/132
f 33/83/133 36/81/134 26/82/135 25/84/136
f 70/85/137 69/86/138 71/87/139 72/88/140
f 69/86/141 73/89/142 74/90/143 71/87/144
f 73/89/145 75/91/146 76/92/147 74/90/148
f 75/91/149 70/93/150 72/94/151 76/92/152
f 42/95/153 41/96/154 21/97/155 22/98/156
f 43/99/157 42/95/158 22/98/159 24/16/160
f 44/100/161 43/99/162 24/16/163 23/15/164
f 41/101/165 44/100/166 23/15/167 21/102/168
f 2/103/169 8/104/170 45/28/171 46/27/172
f 13/105/173 14/106/174 48/30/175 47/29/176
f 8/107/177 6/108/178 49/32/179 45/31/180
f 15/109/181 13/110/182 47/34/183 50/33/184
f 6/108/185 4/111/186 51/35/187 49/32/188
f 16/112/189 15/109/190 50/33/191 52/36/192
f 4/111/193 2/103/194 46/27/195 51/35/196
f 14/106/197 16/112/198 52/36/199 48/30/200
f 7/113/201 1/114/202 54/38/203 53/37/204
f 18/115/205 17/116/206 56/40/207 55/39/208
f 1/114/209 3/117/210 57/41/211 54/38/212
f 19/118/213 18/115/214 55/39/215 58/42/216
f 3/117/217 5/119/218 59/43/219 57/41/220
f 20/120/221 19/118/222 58/42/223 60/44/224
f 5/119/225 7/121/226 53/45/227 59/43/228
f 17/122/229 20/120/230 60/44/231 56/46/232
f 17/116/233 18/115/234 62/68/235 61/67/236
f 30/123/237 29/124/238 64/70/239 63/69/240
f 18/115/241 19/118/242 65/71/243 62/68/244
f 31/125/245 30/123/246 63/69/247 66/72/248
f 19/118/249 20/120/250 67/73/251 65/71/252
f 32/126/253 31/125/254 66/72/255 68/74/256
f 20/120/257 17/122/258 61/75/259 67/73/260
f 29/127/261 32/126/262 68/74/263 64/76/264
f 13/110/265 15/109/266 69/86/267 70/85/268
f 38/128/269 37/129/270 72/88/271 71/87/272
f 15/109/273 16/112/274 73/89/275 69/86/276
f 39/130/277 38/128/278 71/87/279 74/90/280
f 16/112/281 14/106/282 75/91/283 73/89/284
f 40/131/285 39/130/286 74/90/287 76/92/288
f 14/106/289 13/105/290 70/93/291 75/91/292
f 37/132/293 40/131/294 76/92/295 72/94/296
f 40/131/297 37/132/298 78/48/299 77/47/300
f 41/96/301 42/95/302 80/50/303 79/49/304
f 37/129/305 38/128/306 81/52/307 78/51/308
f 44/100/309 41/101/310 79/54/311 82/53/312
f 38/128/313 39/130/314 83/55/315 81/52/316
f 43/99/317 44/100/318 82/53/319 84/56/320
f 39/130/321 40/131/322 77/47/323 83/55/324
f 42/95/325 43/99/326 84/56/327 80/50/328
f 29/124/329 30/123/330 86/58/331 85/57/332
f 36/81/333 33/83/334 88/60/335 87/59/336
f 30/123/337 31/125/338 89/61/339 86/58/340
f 35/80/341 36/81/342 87/59/343 90/62/344
f 31/125/345 32/126/346 91/63/347 89/61/348
f 34/77/349 35/80/350 90/62/351 92/64/352
f 32/126/353 29/127/354 85/65/355 91/63/356
f 33/78/357 34/77/358 92/64/359 88/66/360
