# This file uses centimeters as units for non-parametric coordinates.

mtllib newpaper.mtl
g default
v -0.500000 0.000000 0.353555
v -0.400000 0.002157 0.353555
v -0.300000 0.000000 0.353555
v -0.200000 -0.006620 0.353555
v -0.100000 -0.004435 0.353555
v 0.000000 0.000000 0.353555
v 0.100000 0.004385 0.353555
v 0.200000 0.004385 0.353555
v 0.300000 -0.004412 0.353555
v 0.400000 0.002166 0.353555
v 0.500000 -0.005447 0.353555
v -0.500000 0.004283 0.282844
v -0.400000 0.006440 0.282844
v -0.300000 0.004283 0.282844
v -0.200000 -0.002337 0.282844
v -0.100000 -0.000152 0.282844
v 0.000000 0.004283 0.282844
v 0.100000 0.008668 0.282844
v 0.200000 0.008668 0.282844
v 0.300000 -0.004412 0.282844
v 0.400000 0.006449 0.282844
v 0.500000 -0.005447 0.282844
v -0.500000 0.000000 0.212133
v -0.400000 0.002157 0.212133
v -0.300000 0.000000 0.212133
v -0.200000 -0.006620 0.212133
v -0.100000 -0.004435 0.212133
v 0.000000 0.000000 0.212133
v 0.100000 0.004385 0.212133
v 0.200000 0.004385 0.212133
v 0.300000 -0.004412 0.212133
v 0.400000 0.002166 0.212133
v 0.500000 -0.005447 0.212133
v -0.500000 -0.004297 0.141422
v -0.400000 -0.002141 0.141422
v -0.300000 -0.004297 0.141422
v -0.200000 -0.006620 0.141422
v -0.100000 -0.008733 0.141422
v 0.000000 -0.004297 0.141422
v 0.100000 0.000088 0.141422
v 0.200000 0.000088 0.141422
v 0.300000 -0.004412 0.141422
v 0.400000 -0.002132 0.141422
v 0.500000 -0.005447 0.141422
v -0.500000 0.000000 0.070711
v -0.400000 0.002157 0.070711
v -0.300000 0.000000 0.070711
v -0.200000 -0.006620 0.070711
v -0.100000 -0.004435 0.070711
v 0.000000 0.000000 0.070711
v 0.100000 0.004385 0.070711
v 0.200000 0.004385 0.070711
v 0.300000 -0.004412 0.070711
v 0.400000 0.002166 0.070711
v 0.500000 -0.005447 0.070711
v -0.500000 0.002191 0.000000
v -0.400000 0.004348 0.000000
v -0.300000 0.002191 0.000000
v -0.200000 -0.004429 0.000000
v -0.100000 -0.002244 0.000000
v 0.000000 0.002191 0.000000
v 0.100000 0.006576 0.000000
v 0.200000 0.006576 0.000000
v 0.300000 -0.002220 0.000000
v 0.400000 0.004357 0.000000
v 0.500000 -0.003256 0.000000
v -0.500000 0.000000 -0.070711
v -0.400000 0.002157 -0.070711
v -0.300000 0.000000 -0.070711
v -0.200000 -0.006620 -0.070711
v -0.100000 -0.004435 -0.070711
v 0.000000 0.000000 -0.070711
v 0.100000 0.004385 -0.070711
v 0.200000 0.004385 -0.070711
v 0.300000 -0.004412 -0.070711
v 0.400000 0.002166 -0.070711
v 0.500000 -0.005447 -0.070711
v -0.500000 -0.002156 -0.141422
v -0.400000 0.000000 -0.141422
v -0.300000 -0.002156 -0.141422
v -0.200000 -0.008776 -0.141422
v -0.100000 -0.006592 -0.141422
v 0.000000 -0.002156 -0.141422
v 0.100000 0.002229 -0.141422
v 0.200000 0.002229 -0.141422
v 0.300000 -0.004412 -0.141422
v 0.400000 0.000010 -0.141422
v 0.500000 -0.005447 -0.141422
v -0.500000 0.000000 -0.212133
v -0.400000 0.002157 -0.212133
v -0.300000 0.000000 -0.212133
v -0.200000 -0.006620 -0.212133
v -0.100000 -0.004435 -0.212133
v 0.000000 0.000000 -0.212133
v 0.100000 0.004385 -0.212133
v 0.200000 0.004385 -0.212133
v 0.300000 -0.004412 -0.212133
v 0.400000 0.002166 -0.212133
v 0.500000 -0.005447 -0.212133
v -0.500000 0.002187 -0.282844
v -0.400000 0.004343 -0.282844
v -0.300000 0.002187 -0.282844
v -0.200000 -0.004433 -0.282844
v -0.100000 -0.002249 -0.282844
v 0.000000 0.002187 -0.282844
v 0.100000 0.006572 -0.282844
v 0.200000 0.006572 -0.282844
v 0.300000 -0.002225 -0.282844
v 0.400000 0.004353 -0.282844
v 0.500000 -0.003260 -0.282844
v -0.500000 0.000000 -0.353555
v -0.400000 0.002157 -0.353555
v -0.300000 0.000000 -0.353555
v -0.200000 -0.006620 -0.353555
v -0.100000 -0.004435 -0.353555
v 0.000000 0.000000 -0.353555
v 0.100000 0.004385 -0.353555
v 0.200000 0.004385 -0.353555
v 0.300000 -0.004412 -0.353555
v 0.400000 0.002166 -0.353555
v 0.500000 -0.005447 -0.353555
vt 1.000000 1.000000
vt 0.900000 1.000000
vt 0.900000 0.900000
vt 1.000000 0.900000
vt 0.800000 1.000000
vt 0.800000 0.900000
vt 0.700000 1.000000
vt 0.700000 0.900000
vt 0.600000 1.000000
vt 0.600000 0.900000
vt 0.500000 1.000000
vt 0.500000 0.900000
vt 0.400000 1.000000
vt 0.400000 0.900000
vt 0.300000 1.000000
vt 0.300000 0.900000
vt 0.200000 1.000000
vt 0.200000 0.900000
vt 0.100000 1.000000
vt 0.100000 0.900000
vt 0.000000 1.000000
vt 0.000000 0.900000
vt 0.900000 0.800000
vt 1.000000 0.800000
vt 0.800000 0.800000
vt 0.700000 0.800000
vt 0.600000 0.800000
vt 0.500000 0.800000
vt 0.400000 0.800000
vt 0.300000 0.800000
vt 0.200000 0.800000
vt 0.100000 0.800000
vt 0.000000 0.800000
vt 0.900000 0.700000
vt 1.000000 0.700000
vt 0.800000 0.700000
vt 0.700000 0.700000
vt 0.600000 0.700000
vt 0.500000 0.700000
vt 0.400000 0.700000
vt 0.300000 0.700000
vt 0.200000 0.700000
vt 0.100000 0.700000
vt 0.000000 0.700000
vt 0.900000 0.600000
vt 1.000000 0.600000
vt 0.800000 0.600000
vt 0.700000 0.600000
vt 0.600000 0.600000
vt 0.500000 0.600000
vt 0.400000 0.600000
vt 0.300000 0.600000
vt 0.200000 0.600000
vt 0.100000 0.600000
vt 0.000000 0.600000
vt 0.900000 0.500000
vt 1.000000 0.500000
vt 0.800000 0.500000
vt 0.700000 0.500000
vt 0.600000 0.500000
vt 0.500000 0.500000
vt 0.400000 0.500000
vt 0.300000 0.500000
vt 0.200000 0.500000
vt 0.100000 0.500000
vt 0.000000 0.500000
vt 0.900000 0.400000
vt 1.000000 0.400000
vt 0.800000 0.400000
vt 0.700000 0.400000
vt 0.600000 0.400000
vt 0.500000 0.400000
vt 0.400000 0.400000
vt 0.300000 0.400000
vt 0.200000 0.400000
vt 0.100000 0.400000
vt 0.000000 0.400000
vt 0.900000 0.300000
vt 1.000000 0.300000
vt 0.800000 0.300000
vt 0.700000 0.300000
vt 0.600000 0.300000
vt 0.500000 0.300000
vt 0.400000 0.300000
vt 0.300000 0.300000
vt 0.200000 0.300000
vt 0.100000 0.300000
vt 0.000000 0.300000
vt 0.900000 0.200000
vt 1.000000 0.200000
vt 0.800000 0.200000
vt 0.700000 0.200000
vt 0.600000 0.200000
vt 0.500000 0.200000
vt 0.400000 0.200000
vt 0.300000 0.200000
vt 0.200000 0.200000
vt 0.100000 0.200000
vt 0.000000 0.200000
vt 0.900000 0.100000
vt 1.000000 0.100000
vt 0.800000 0.100000
vt 0.700000 0.100000
vt 0.600000 0.100000
vt 0.500000 0.100000
vt 0.400000 0.100000
vt 0.300000 0.100000
vt 0.200000 0.100000
vt 0.100000 0.100000
vt 0.000000 0.100000
vt 0.900000 0.000000
vt 1.000000 0.000000
vt 0.800000 0.000000
vt 0.700000 0.000000
vt 0.600000 0.000000
vt 0.500000 0.000000
vt 0.400000 0.000000
vt 0.300000 0.000000
vt 0.200000 0.000000
vt 0.100000 0.000000
vt 0.000000 0.000000
vn -0.021523 0.997939 0.060446
vn 0.000000 0.998171 0.060460
vn 0.000000 1.000000 -0.000000
vn -0.021562 0.999768 -0.000000
vn 0.043800 0.997213 0.060402
vn 0.043805 0.999040 -0.000000
vn 0.022094 0.997927 0.060445
vn 0.022209 0.999753 -0.000000
vn -0.033008 0.997627 0.060427
vn -0.033097 0.999452 0.000000
vn -0.043980 0.997205 0.060401
vn -0.044059 0.999029 0.000000
vn -0.021898 0.997931 0.060445
vn -0.021902 0.999760 -0.000000
vn 0.054645 0.997478 0.045288
vn 0.054473 0.998515 -0.000000
vn 0.011090 0.999480 0.030270
vn 0.011095 0.999939 0.000000
vn 0.005194 0.999528 0.030271
vn 0.005160 0.999987 0.000000
vn 0.097042 0.994824 0.030129
vn 0.097086 0.995276 0.000000
vn -0.000000 0.998165 -0.060562
vn -0.021522 0.997933 -0.060548
vn 0.038444 0.997855 -0.052981
vn 0.022130 0.998723 -0.045408
vn -0.027684 0.998211 -0.052988
vn -0.043979 0.997199 -0.060503
vn -0.021880 0.997926 -0.060547
vn 0.043914 0.998003 -0.045414
vn 0.011090 0.999479 -0.030321
vn 0.005180 0.999527 -0.030322
vn 0.075842 0.996661 -0.030235
vn -0.000000 1.000000 -0.000000
vn -0.021562 0.999768 -0.000000
vn 0.033133 0.999451 0.000000
vn 0.022172 0.999754 0.000000
vn -0.022342 0.999750 -0.000000
vn -0.044060 0.999029 0.000000
vn -0.021939 0.999759 0.000000
vn 0.033250 0.999447 0.000000
vn 0.011095 0.999939 0.000000
vn 0.005188 0.999987 0.000000
vn 0.054563 0.998510 0.000000
vn 0.000000 0.998950 0.045824
vn -0.021539 0.998717 0.045832
vn 0.038459 0.998528 0.038236
vn 0.022152 0.999284 0.030666
vn -0.027707 0.998884 0.038254
vn -0.044013 0.997981 0.045789
vn -0.021893 0.998710 0.045813
vn 0.038553 0.998525 0.038232
vn 0.011081 0.999468 0.030671
vn 0.005174 0.999516 0.030673
vn 0.065210 0.997402 0.030608
vn 0.000000 1.000000 0.000000
vn -0.021562 0.999768 0.000000
vn 0.043823 0.999039 0.000000
vn 0.022191 0.999754 0.000000
vn -0.033090 0.999452 0.000000
vn -0.044060 0.999029 0.000000
vn -0.021911 0.999760 0.000000
vn 0.043903 0.999036 0.000000
vn 0.011112 0.999938 0.000000
vn 0.005171 0.999987 -0.000000
vn 0.075912 0.997115 -0.000000
vn 0.000000 0.999528 -0.030726
vn -0.021552 0.999296 -0.030719
vn 0.043822 0.998568 -0.030697
vn 0.022161 0.999282 -0.030718
vn -0.033067 0.998981 -0.030709
vn -0.044039 0.998558 -0.030696
vn -0.021910 0.999288 -0.030719
vn 0.041243 0.998787 -0.026903
vn 0.011084 0.999672 -0.023104
vn 0.005177 0.999719 -0.023122
vn 0.070542 0.997243 -0.023048
vn 0.000000 1.000000 -0.000000
vn -0.021562 0.999768 -0.000000
vn 0.043861 0.999038 -0.000000
vn 0.022153 0.999755 0.000000
vn -0.033076 0.999453 0.000000
vn -0.044060 0.999029 0.000000
vn -0.021929 0.999760 0.000000
vn 0.038589 0.999255 0.000000
vn 0.011095 0.999939 0.000000
vn 0.005184 0.999987 0.000000
vn 0.065212 0.997872 0.000000
vn 0.000000 0.999529 0.030695
vn -0.021552 0.999297 0.030688
vn 0.043822 0.998569 0.030666
vn 0.022161 0.999283 0.030687
vn -0.033067 0.998982 0.030678
vn -0.044039 0.998559 0.030665
vn -0.021910 0.999289 0.030688
vn 0.041243 0.998788 0.026872
vn 0.011084 0.999672 0.023073
vn 0.005177 0.999720 0.023090
vn 0.070542 0.997243 0.023017
vn 0.000000 1.000000 0.000000
vn -0.021562 0.999768 0.000000
vn 0.043823 0.999039 0.000000
vn 0.022191 0.999754 0.000000
vn -0.033090 0.999452 -0.000000
vn -0.044060 0.999029 -0.000000
vn -0.021911 0.999760 -0.000000
vn 0.043903 0.999036 0.000000
vn 0.011112 0.999938 -0.000000
vn 0.005171 0.999987 0.000000
vn 0.075912 0.997114 -0.000000
vn 0.000000 0.999522 -0.030911
vn -0.021552 0.999290 -0.030904
vn 0.043841 0.998561 -0.030881
vn 0.022142 0.999277 -0.030903
vn -0.033060 0.998976 -0.030894
vn -0.044039 0.998553 -0.030881
vn -0.021919 0.999282 -0.030903
vn 0.043958 0.998556 -0.030881
vn 0.011073 0.999461 -0.030909
vn 0.005183 0.999509 -0.030910
vn 0.075876 0.996641 -0.030822
s 1
g paper:pPlane1
usemtl initialShadingGroup
f 1/1/1 2/2/2 13/3/3 12/4/4
f 2/2/2 3/5/5 14/6/6 13/3/3
f 3/5/5 4/7/7 15/8/8 14/6/6
f 4/7/7 5/9/9 16/10/10 15/8/8
f 5/9/9 6/11/11 17/12/12 16/10/10
f 6/11/11 7/13/13 18/14/14 17/12/12
f 7/13/13 8/15/15 19/16/16 18/14/14
f 8/15/15 9/17/17 20/18/18 19/16/16
f 9/17/17 10/19/19 21/20/20 20/18/18
f 10/19/19 11/21/21 22/22/22 21/20/20
f 12/4/4 13/3/3 24/23/23 23/24/24
f 13/3/3 14/6/6 25/25/25 24/23/23
f 14/6/6 15/8/8 26/26/26 25/25/25
f 15/8/8 16/10/10 27/27/27 26/26/26
f 16/10/10 17/12/12 28/28/28 27/27/27
f 17/12/12 18/14/14 29/29/29 28/28/28
f 18/14/14 19/16/16 30/30/30 29/29/29
f 19/16/16 20/18/18 31/31/31 30/30/30
f 20/18/18 21/20/20 32/32/32 31/31/31
f 21/20/20 22/22/22 33/33/33 32/32/32
f 23/24/24 24/23/23 35/34/34 34/35/35
f 24/23/23 25/25/25 36/36/36 35/34/34
f 25/25/25 26/26/26 37/37/37 36/36/36
f 26/26/26 27/27/27 38/38/38 37/37/37
f 27/27/27 28/28/28 39/39/39 38/38/38
f 28/28/28 29/29/29 40/40/40 39/39/39
f 29/29/29 30/30/30 41/41/41 40/40/40
f 30/30/30 31/31/31 42/42/42 41/41/41
f 31/31/31 32/32/32 43/43/43 42/42/42
f 32/32/32 33/33/33 44/44/44 43/43/43
f 34/35/35 35/34/34 46/45/45 45/46/46
f 35/34/34 36/36/36 47/47/47 46/45/45
f 36/36/36 37/37/37 48/48/48 47/47/47
f 37/37/37 38/38/38 49/49/49 48/48/48
f 38/38/38 39/39/39 50/50/50 49/49/49
f 39/39/39 40/40/40 51/51/51 50/50/50
f 40/40/40 41/41/41 52/52/52 51/51/51
f 41/41/41 42/42/42 53/53/53 52/52/52
f 42/42/42 43/43/43 54/54/54 53/53/53
f 43/43/43 44/44/44 55/55/55 54/54/54
f 45/46/46 46/45/45 57/56/56 56/57/57
f 46/45/45 47/47/47 58/58/58 57/56/56
f 47/47/47 48/48/48 59/59/59 58/58/58
f 48/48/48 49/49/49 60/60/60 59/59/59
f 49/49/49 50/50/50 61/61/61 60/60/60
f 50/50/50 51/51/51 62/62/62 61/61/61
f 51/51/51 52/52/52 63/63/63 62/62/62
f 52/52/52 53/53/53 64/64/64 63/63/63
f 53/53/53 54/54/54 65/65/65 64/64/64
f 54/54/54 55/55/55 66/66/66 65/65/65
f 56/57/57 57/56/56 68/67/67 67/68/68
f 57/56/56 58/58/58 69/69/69 68/67/67
f 58/58/58 59/59/59 70/70/70 69/69/69
f 59/59/59 60/60/60 71/71/71 70/70/70
f 60/60/60 61/61/61 72/72/72 71/71/71
f 61/61/61 62/62/62 73/73/73 72/72/72
f 62/62/62 63/63/63 74/74/74 73/73/73
f 63/63/63 64/64/64 75/75/75 74/74/74
f 64/64/64 65/65/65 76/76/76 75/75/75
f 65/65/65 66/66/66 77/77/77 76/76/76
f 67/68/68 68/67/67 79/78/78 78/79/79
f 68/67/67 69/69/69 80/80/80 79/78/78
f 69/69/69 70/70/70 81/81/81 80/80/80
f 70/70/70 71/71/71 82/82/82 81/81/81
f 71/71/71 72/72/72 83/83/83 82/82/82
f 72/72/72 73/73/73 84/84/84 83/83/83
f 73/73/73 74/74/74 85/85/85 84/84/84
f 74/74/74 75/75/75 86/86/86 85/85/85
f 75/75/75 76/76/76 87/87/87 86/86/86
f 76/76/76 77/77/77 88/88/88 87/87/87
f 78/79/79 79/78/78 90/89/89 89/90/90
f 79/78/78 80/80/80 91/91/91 90/89/89
f 80/80/80 81/81/81 92/92/92 91/91/91
f 81/81/81 82/82/82 93/93/93 92/92/92
f 82/82/82 83/83/83 94/94/94 93/93/93
f 83/83/83 84/84/84 95/95/95 94/94/94
f 84/84/84 85/85/85 96/96/96 95/95/95
f 85/85/85 86/86/86 97/97/97 96/96/96
f 86/86/86 87/87/87 98/98/98 97/97/97
f 87/87/87 88/88/88 99/99/99 98/98/98
f 89/90/90 90/89/89 101/100/100 100/101/101
f 90/89/89 91/91/91 102/102/102 101/100/100
f 91/91/91 92/92/92 103/103/103 102/102/102
f 92/92/92 93/93/93 104/104/104 103/103/103
f 93/93/93 94/94/94 105/105/105 104/104/104
f 94/94/94 95/95/95 106/106/106 105/105/105
f 95/95/95 96/96/96 107/107/107 106/106/106
f 96/96/96 97/97/97 108/108/108 107/107/107
f 97/97/97 98/98/98 109/109/109 108/108/108
f 98/98/98 99/99/99 110/110/110 109/109/109
f 100/101/101 101/100/100 112/111/111 111/112/112
f 101/100/100 102/102/102 113/113/113 112/111/111
f 102/102/102 103/103/103 114/114/114 113/113/113
f 103/103/103 104/104/104 115/115/115 114/114/114
f 104/104/104 105/105/105 116/116/116 115/115/115
f 105/105/105 106/106/106 117/117/117 116/116/116
f 106/106/106 107/107/107 118/118/118 117/117/117
f 107/107/107 108/108/108 119/119/119 118/118/118
f 108/108/108 109/109/109 120/120/120 119/119/119
f 109/109/109 110/110/110 121/121/121 120/120/120
