# This file uses centimeters as units for non-parametric coordinates.

mtllib verticleeyehead.mtl
g default
v -0.429549 -4.216345 2.150223
v 1.140984 -4.216345 2.150223
v -0.429549 -2.645813 2.150223
v 1.140984 -2.645813 2.150223
v -0.429549 -2.645813 0.579691
v 1.140984 -2.645813 0.579691
v -0.429549 -4.216345 0.579691
v 1.140984 -4.216345 0.579691
v -0.704392 -2.370974 1.364957
v 1.415825 -3.431082 0.304848
v 0.355717 -4.491190 0.304848
v -0.704392 -3.431082 0.304848
v 1.415825 -4.491190 1.364957
v -0.704392 -4.491190 1.364957
v 0.355717 -4.491190 2.425066
v 1.415825 -3.431082 2.425066
v 0.355717 -2.370974 2.425066
v -0.704392 -3.431082 2.425066
v 1.415825 -2.370974 1.364957
v 0.355717 -2.370974 0.304848
v 0.355717 -3.431082 2.778436
v 0.355717 -2.017603 1.364957
v 0.355717 -3.431082 -0.048522
v 0.355717 -4.844561 1.364957
v 1.769196 -3.431082 1.364957
v -1.057761 -3.431082 1.364957
v -1.569442 0.348680 2.608600
v 0.917845 0.348680 2.608600
v -1.569442 2.835966 2.608600
v 0.917845 2.835966 2.608600
v -1.569442 2.835966 0.121314
v 0.917845 2.835966 0.121314
v -1.569442 0.348680 0.121315
v 0.917845 0.348680 0.121314
v -2.004717 3.271245 1.364957
v 1.353119 1.592327 -0.313962
v -0.325798 -0.086592 -0.313962
v -2.004717 1.592327 -0.313962
v 1.353119 -0.086592 1.364957
v -2.004717 -0.086592 1.364957
v -0.325798 -0.086592 3.043875
v 1.353119 1.592327 3.043875
v -0.325798 3.271245 3.043875
v -2.004717 1.592327 3.043875
v 1.353119 3.271245 1.364957
v -0.325798 3.271245 -0.313962
v -0.325798 1.592327 3.603515
v -0.325798 3.830884 1.364957
v -0.325798 1.592327 -0.873600
v -0.325798 -0.646231 1.364957
v 1.912758 1.592327 1.364957
v -2.564356 1.592327 1.364957
v -5.001629 -3.208998 1.216170
v 5.713064 -3.208998 1.216170
v -5.001629 4.819725 1.216170
v 5.713064 4.819725 1.216170
v -5.001629 4.819725 -3.603515
v 5.713064 4.819725 -3.603515
v -5.001629 -3.208998 -3.603515
v 5.713064 -3.208998 -3.603515
v -3.557711 7.658556 0.541100
v 4.269146 6.241521 0.541100
v 4.269146 6.241521 -3.603515
v -3.557711 7.658556 -3.603515
v -1.497323 -8.763912 -3.603515
v 2.208760 -7.767159 -3.603515
v 2.208760 -7.767159 0.541100
v -1.497323 -8.763912 0.541100
v -5.001629 1.547891 1.216170
v 5.713064 1.547891 1.216170
v 5.713064 1.547891 -3.603515
v -5.001629 1.547891 -3.603515
v 9.236517 1.732538 0.248327
v 9.236517 1.732538 -2.635670
v 9.236517 4.635070 -2.635670
v 9.236517 4.635070 0.248327
v -8.525082 1.732538 -2.635670
v -8.525082 1.732538 0.248327
v -8.525082 4.635070 0.248327
v -8.525082 4.635070 -2.635670
v 12.115496 3.321586 0.248327
v 12.115496 3.321586 -2.635670
v 12.115496 4.635070 -2.635670
v 12.115496 4.635070 0.248327
v -11.194377 3.344640 -2.635670
v -11.194377 3.344640 0.248327
v -11.613745 4.612016 0.248327
v -11.613745 4.612016 -2.635670
v 9.591244 8.763912 -0.382053
v 9.591244 8.763912 -2.005291
v 11.095358 8.763912 -0.382053
v 11.095358 8.763912 -2.005291
v -10.611383 6.883407 -0.382053
v -10.611383 6.883407 -2.005291
v -12.115496 6.883407 -2.005291
v -12.115496 6.883407 -0.382053
vt 0.414705 0.910772
vt 0.430248 0.906869
vt 0.433778 0.933635
vt 0.413738 0.932388
vt 0.446804 0.910139
vt 0.452523 0.933022
vt 0.454227 0.956405
vt 0.431933 0.958733
vt 0.414375 0.953728
vt 0.418836 0.987687
vt 0.398402 0.958812
vt 0.474840 0.963745
vt 0.508867 0.976977
vt 0.498804 0.940613
vt 0.523572 0.940029
vt 0.365858 0.975393
vt 0.376602 0.957801
vt 0.343817 0.929551
vt 0.372637 0.930508
vt 0.490494 0.914637
vt 0.514279 0.896012
vt 0.474868 0.891551
vt 0.475455 0.868680
vt 0.369245 0.885073
vt 0.378608 0.903445
vt 0.424342 0.875571
vt 0.400232 0.904042
vt 0.456822 0.899871
vt 0.473174 0.929297
vt 0.392478 0.931369
vt 0.607342 0.923888
vt 0.621879 0.919795
vt 0.625922 0.944914
vt 0.607011 0.944277
vt 0.637563 0.922431
vt 0.643564 0.943834
vt 0.645796 0.965816
vt 0.624857 0.968606
vt 0.608182 0.964363
vt 0.613296 0.996232
vt 0.593273 0.969580
vt 0.665410 0.972177
vt 0.697819 0.983729
vt 0.687365 0.949744
vt 0.710680 0.948530
vt 0.563060 0.986072
vt 0.572709 0.969212
vt 0.541068 0.943479
vt 0.568242 0.943608
vt 0.678839 0.925497
vt 0.700746 0.907314
vt 0.663501 0.904169
vt 0.663441 0.882608
vt 0.563829 0.900899
vt 0.573142 0.917954
vt 0.615477 0.890470
vt 0.593528 0.917937
vt 0.646725 0.912490
vt 0.662918 0.939771
vt 0.586956 0.943887
vt 0.275231 0.768219
vt 0.276082 0.610960
vt 0.347308 0.613191
vt 0.347308 0.757263
vt 0.368049 0.731711
vt 0.372610 0.632228
vt 0.513358 0.639072
vt 0.510693 0.767580
vt 0.560961 0.752827
vt 0.531614 0.615172
vt 0.582715 0.604278
vt 0.612062 0.741932
vt -0.001489 0.676902
vt 0.011907 0.630098
vt 0.151565 0.661081
vt 0.148994 0.718899
vt 0.862435 0.629516
vt 0.886625 0.554674
vt 0.900935 0.558459
vt 0.879335 0.635521
vt 0.859065 0.926422
vt 0.828541 0.852933
vt 0.843695 0.844846
vt 0.873258 0.920352
vt 0.513480 0.620720
vt 0.490312 0.833477
vt 0.686358 0.726093
vt 0.657011 0.588439
vt 0.737800 0.618282
vt 0.763519 0.662576
vt 0.152604 0.488581
vt 0.222852 0.604413
vt 0.087126 0.520380
vt 0.220230 0.751856
vt 0.153442 0.892387
vt 0.073111 0.854754
vt 0.220938 0.455395
vt 0.222233 0.924613
vt 0.784382 0.617033
vt 0.834602 0.509102
vt 0.855956 0.543572
vt 0.826665 0.615508
vt 0.924763 0.479102
vt 0.953752 0.506477
vt 0.923744 0.538337
vt 0.896305 0.513661
vt 0.964284 0.728385
vt 0.887447 0.683228
vt 0.892180 0.668346
vt 0.965111 0.688601
vt 0.872664 0.716877
vt 0.838635 0.703720
vt 0.853261 0.664605
vt 0.798095 0.971687
vt 0.760020 0.863263
vt 0.796764 0.868915
vt 0.827302 0.941551
vt 0.802648 0.776269
vt 0.839546 0.773668
vt 0.851606 0.811003
vt 0.813345 0.818412
vt 0.840531 0.774464
vt 0.930190 0.754709
vt 0.920294 0.787222
vt 0.931303 0.972376
vt 0.899792 0.992787
vt 0.877398 0.960376
vt 0.903318 0.933245
vt 0.891525 0.546230
vt 0.970173 0.622830
vt 0.929226 0.636073
vt 0.924801 0.623193
vt 0.965160 0.608377
vt 0.867615 0.640189
vt 0.831627 0.841143
vt 0.894826 0.839692
vt 0.935145 0.836604
vt 0.937403 0.851117
vt 0.892708 0.853477
vt 0.868937 0.933438
vt 0.964703 0.647699
vt 0.937827 0.585091
vt 0.948904 0.573907
vt 0.932013 0.817570
vt 0.903805 0.888205
vt 0.914013 0.896362
vn -0.577350 -0.577350 0.577350
vn 0.000000 -0.707108 0.707106
vn -0.000000 -0.000000 1.000000
vn -0.707107 -0.000000 0.707107
vn 0.577350 -0.577350 0.577351
vn 0.707107 0.000000 0.707107
vn 0.577350 0.577350 0.577350
vn 0.000000 0.707106 0.707107
vn -0.577350 0.577350 0.577350
vn 0.000000 1.000000 0.000000
vn -0.707107 0.707107 0.000000
vn 0.707107 0.707106 0.000000
vn 0.577350 0.577351 -0.577350
vn 0.000000 0.707106 -0.707107
vn -0.577350 0.577351 -0.577350
vn 0.000000 0.000000 -1.000000
vn -0.707107 0.000000 -0.707107
vn 0.707107 0.000000 -0.707107
vn 0.577350 -0.577350 -0.577350
vn 0.000000 -0.707108 -0.707106
vn -0.577350 -0.577350 -0.577350
vn 0.000000 -1.000000 0.000000
vn -0.707106 -0.707107 0.000000
vn 0.707106 -0.707107 0.000000
vn 1.000000 0.000000 0.000000
vn -1.000000 0.000000 0.000000
vn -0.577350 -0.577350 0.577350
vn -0.000000 -0.707106 0.707107
vn 0.000000 -0.000000 1.000000
vn -0.707107 -0.000000 0.707107
vn 0.577350 -0.577350 0.577350
vn 0.707107 0.000000 0.707107
vn 0.577351 0.577350 0.577350
vn 0.000000 0.707107 0.707106
vn -0.577350 0.577350 0.577350
vn 0.000000 1.000000 0.000000
vn -0.707106 0.707107 0.000000
vn 0.707106 0.707107 0.000000
vn 0.577350 0.577350 -0.577350
vn 0.000000 0.707107 -0.707106
vn -0.577350 0.577350 -0.577351
vn 0.000000 0.000000 -1.000000
vn -0.707107 0.000000 -0.707107
vn 0.707107 0.000000 -0.707107
vn 0.577350 -0.577350 -0.577350
vn 0.000000 -0.707106 -0.707107
vn -0.577350 -0.577351 -0.577350
vn 0.000000 -1.000000 0.000000
vn -0.707107 -0.707106 0.000000
vn 0.707107 -0.707106 0.000000
vn 1.000000 0.000000 0.000000
vn -1.000000 0.000000 0.000000
vn 0.000000 0.000000 1.000000
vn 0.000000 0.000000 1.000000
vn 0.000000 0.000000 1.000000
vn 0.000000 0.000000 1.000000
vn 0.178152 0.984003 0.000000
vn 0.178152 0.984003 0.000000
vn 0.178152 0.984003 0.000000
vn 0.178152 0.984003 0.000000
vn -0.047825 0.000000 -0.998856
vn 0.051002 0.000000 -0.998699
vn 0.029913 0.000000 -0.999552
vn -0.029913 0.000000 -0.999552
vn 0.259721 -0.965684 0.000000
vn 0.259721 -0.965684 0.000000
vn 0.259721 -0.965684 0.000000
vn 0.259721 -0.965684 0.000000
vn 1.000000 0.000000 0.000000
vn 1.000000 0.000000 0.000000
vn 0.986815 0.161853 0.000000
vn 0.986815 0.161853 0.000000
vn -0.949376 -0.314143 0.000000
vn -0.949376 -0.314143 0.000000
vn -0.963500 -0.267709 0.000000
vn -0.963500 -0.267709 0.000000
vn -0.041255 0.079160 0.996008
vn 0.054448 0.070335 0.996036
vn 0.023081 0.302003 0.953028
vn 0.023081 0.302003 0.953028
vn 0.701627 0.712544 0.000000
vn 0.701627 0.712544 0.000000
vn 0.701627 0.712544 0.000000
vn 0.701627 0.712544 0.000000
vn 0.051002 0.000000 -0.998699
vn -0.047825 0.000000 -0.998856
vn 0.000000 0.000000 -1.000000
vn 0.000000 0.000000 -1.000000
vn -0.891329 0.453358 0.000000
vn -0.891329 0.453358 0.000000
vn -0.891329 0.453358 0.000000
vn -0.891329 0.453358 0.000000
vn 0.000000 0.000000 -1.000000
vn 0.000000 0.000000 -1.000000
vn 0.000000 0.000000 -1.000000
vn 0.000000 0.000000 -1.000000
vn 0.792790 -0.609495 0.000000
vn 0.792790 -0.609495 0.000000
vn 0.792790 -0.609495 0.000000
vn 0.792790 -0.609495 0.000000
vn 0.002940 -0.042533 0.999091
vn 0.003086 -0.044653 0.998998
vn 0.009146 -0.132325 0.991164
vn 0.009146 -0.132325 0.991164
vn -0.845768 -0.533551 0.000000
vn -0.845768 -0.533551 0.000000
vn -0.845768 -0.533551 0.000000
vn -0.845768 -0.533551 0.000000
vn 0.003086 -0.044653 0.998998
vn 0.002940 -0.042533 0.999091
vn 0.029913 0.000000 0.999552
vn -0.029913 0.000000 0.999552
vn 1.000000 0.000000 0.000000
vn 1.000000 0.000000 0.000000
vn 1.000000 0.000000 0.000000
vn 1.000000 0.000000 0.000000
vn -0.029913 0.000000 -0.999552
vn 0.029913 0.000000 -0.999552
vn 0.000000 0.000000 -1.000000
vn 0.000000 0.000000 -1.000000
vn -1.000000 0.000000 0.000000
vn -1.000000 0.000000 0.000000
vn -1.000000 0.000000 0.000000
vn -1.000000 0.000000 0.000000
vn 0.052333 -0.998630 0.000000
vn 0.052333 -0.998630 0.000000
vn 0.200715 -0.979650 0.000000
vn 0.200715 -0.979650 0.000000
vn 0.029913 0.000000 -0.999552
vn 0.051002 0.000000 -0.998699
vn 0.117882 0.050507 -0.991742
vn 0.201263 0.000000 -0.979537
vn 0.052336 0.998630 0.000000
vn 0.052336 0.998630 0.000000
vn 0.052336 0.998630 0.000000
vn 0.052336 0.998630 0.000000
vn 0.054448 0.070335 0.996036
vn 0.029913 0.000000 0.999552
vn 0.201263 0.000000 0.979537
vn 0.117882 0.050507 0.991742
vn -0.052333 -0.998630 0.000000
vn -0.052333 -0.998630 0.000000
vn -0.207431 -0.978250 0.000000
vn -0.207431 -0.978250 0.000000
vn -0.029913 0.000000 0.999552
vn -0.041255 0.079160 0.996008
vn -0.150055 0.044658 0.987669
vn -0.205227 0.000000 0.978714
vn -0.052336 0.998630 0.000000
vn -0.052336 0.998630 0.000000
vn -0.052336 0.998630 0.000000
vn -0.052336 0.998630 0.000000
vn -0.047825 0.000000 -0.998856
vn -0.029913 0.000000 -0.999552
vn -0.205227 0.000000 -0.978714
vn -0.150055 0.044658 -0.987669
vn 0.200715 -0.979650 0.000000
vn 0.200715 -0.979650 0.000000
vn 0.483228 -0.875495 0.000000
vn 0.483228 -0.875495 0.000000
vn 0.201263 0.000000 -0.979537
vn 0.117882 0.050507 -0.991742
vn 0.000000 0.086253 -0.996273
vn 0.000000 0.000000 -1.000000
vn 0.000000 1.000000 0.000000
vn 0.000000 1.000000 0.000000
vn 0.000000 1.000000 0.000000
vn 0.000000 1.000000 0.000000
vn 0.117882 0.050507 0.991742
vn 0.201263 0.000000 0.979537
vn 0.000000 0.000000 1.000000
vn 0.000000 0.086253 0.996273
vn -0.207431 -0.978250 0.000000
vn -0.207431 -0.978250 0.000000
vn -0.516975 -0.856000 0.000000
vn -0.516975 -0.856000 0.000000
vn -0.205227 0.000000 0.978714
vn -0.150055 0.044658 0.987669
vn -0.000743 0.148081 0.988975
vn 0.000000 0.000000 1.000000
vn 0.000000 1.000000 0.000000
vn 0.000000 1.000000 0.000000
vn 0.000000 1.000000 0.000000
vn 0.000000 1.000000 0.000000
vn -0.150055 0.044658 -0.987669
vn -0.205227 0.000000 -0.978714
vn 0.000000 0.000000 -1.000000
vn -0.000743 0.148081 -0.988975
vn -0.996330 0.085599 0.000000
vn -0.996330 0.085599 0.000000
vn -0.996330 0.085599 0.000000
vn -0.996330 0.085599 0.000000
vn 0.117882 0.050507 0.991742
vn 0.000000 0.086253 0.996273
vn 0.000000 0.150928 0.988545
vn 0.000000 0.150928 0.988545
vn 0.986815 0.161853 0.000000
vn 0.986815 0.161853 0.000000
vn 0.970807 0.239863 0.000000
vn 0.970807 0.239863 0.000000
vn 0.000000 0.086253 -0.996273
vn 0.117882 0.050507 -0.991742
vn 0.000000 0.150928 -0.988545
vn 0.000000 0.150928 -0.988545
vn 0.733028 0.680199 0.000000
vn 0.733028 0.680199 0.000000
vn 0.733028 0.680199 0.000000
vn 0.733028 0.680199 0.000000
vn -0.150055 0.044658 -0.987669
vn -0.000743 0.148081 -0.988975
vn -0.001345 0.267973 -0.963425
vn -0.001345 0.267973 -0.963425
vn -0.963500 -0.267709 0.000000
vn -0.963500 -0.267709 0.000000
vn -0.976460 -0.215701 0.000000
vn -0.976460 -0.215701 0.000000
vn -0.000743 0.148081 0.988975
vn -0.150055 0.044658 0.987669
vn -0.001345 0.267973 0.963425
vn -0.001345 0.267973 0.963425
s 1
g verteyedemon_UPDATED:bottomeye1
usemtl verteyedemon_UPDATED:lambert2SG
f 1/1/1 15/2/2 21/3/3 18/4/4
f 15/2/2 2/5/5 16/6/6 21/3/3
f 21/3/3 16/6/6 4/7/7 17/8/8
f 18/4/4 21/3/3 17/8/8 3/9/9
f 3/9/9 17/8/8 22/10/10 9/11/11
f 17/8/8 4/7/7 19/12/12 22/10/10
f 22/13/10 19/12/12 6/14/13 20/15/14
f 9/11/11 22/10/10 20/16/14 5/17/15
f 5/17/15 20/16/14 23/18/16 12/19/17
f 20/15/14 6/14/13 10/20/18 23/21/16
f 23/21/16 10/20/18 8/22/19 11/23/20
f 12/19/17 23/18/16 11/24/20 7/25/21
f 7/25/21 11/24/20 24/26/22 14/27/23
f 11/23/20 8/22/19 13/28/24 24/26/22
f 24/26/22 13/28/24 2/5/5 15/2/2
f 14/27/23 24/26/22 15/2/2 1/1/1
f 2/5/5 13/28/24 25/29/25 16/6/6
f 13/28/24 8/22/19 10/20/18 25/29/25
f 25/29/25 10/20/18 6/14/13 19/12/12
f 16/6/6 25/29/25 19/12/12 4/7/7
f 7/25/21 14/27/23 26/30/26 12/19/17
f 14/27/23 1/1/1 18/4/4 26/30/26
f 26/30/26 18/4/4 3/9/9 9/11/11
f 12/19/17 26/30/26 9/11/11 5/17/15
s 2
f 27/31/27 41/32/28 47/33/29 44/34/30
f 41/32/28 28/35/31 42/36/32 47/33/29
f 47/33/29 42/36/32 30/37/33 43/38/34
f 44/34/30 47/33/29 43/38/34 29/39/35
f 29/39/35 43/38/34 48/40/36 35/41/37
f 43/38/34 30/37/33 45/42/38 48/40/36
f 48/43/36 45/42/38 32/44/39 46/45/40
f 35/41/37 48/40/36 46/46/40 31/47/41
f 31/47/41 46/46/40 49/48/42 38/49/43
f 46/45/40 32/44/39 36/50/44 49/51/42
f 49/51/42 36/50/44 34/52/45 37/53/46
f 38/49/43 49/48/42 37/54/46 33/55/47
f 33/55/47 37/54/46 50/56/48 40/57/49
f 37/53/46 34/52/45 39/58/50 50/56/48
f 50/56/48 39/58/50 28/35/31 41/32/28
f 40/57/49 50/56/48 41/32/28 27/31/27
f 28/35/31 39/58/50 51/59/51 42/36/32
f 39/58/50 34/52/45 36/50/44 51/59/51
f 51/59/51 36/50/44 32/44/39 45/42/38
f 42/36/32 51/59/51 45/42/38 30/37/33
f 33/55/47 40/57/49 52/60/52 38/49/43
f 40/57/49 27/31/27 44/34/30 52/60/52
f 52/60/52 44/34/30 29/39/35 35/41/37
f 38/49/43 52/60/52 35/41/37 31/47/41
s off
f 69/61/53 70/62/54 56/63/55 55/64/56
f 61/65/57 62/66/58 63/67/59 64/68/60
f 57/69/61 58/70/62 71/71/63 72/72/64
f 65/73/65 66/74/66 67/75/67 68/76/68
f 81/77/69 82/78/70 83/79/71 84/80/72
f 85/81/73 86/82/74 87/83/75 88/84/76
f 55/64/77 56/63/78 62/66/79 61/65/80
f 56/63/81 58/85/82 63/67/83 62/66/84
f 58/70/85 57/69/86 64/68/87 63/67/88
f 57/86/89 55/64/90 61/65/91 64/68/92
f 59/87/93 60/88/94 66/89/95 65/90/96
f 60/91/97 54/92/98 67/75/99 66/93/100
f 54/92/101 53/94/102 68/76/103 67/75/104
f 53/94/105 59/95/106 65/96/107 68/76/108
f 53/94/109 54/92/110 70/62/111 69/61/112
f 54/92/113 60/91/114 71/97/115 70/62/116
f 72/72/117 71/71/118 60/88/119 59/87/120
f 59/95/121 53/94/122 69/61/123 72/98/124
f 70/99/125 71/100/126 74/101/127 73/102/128
f 71/103/129 58/104/130 75/105/131 74/106/132
f 58/107/133 56/108/134 76/109/135 75/110/136
f 56/111/137 70/112/138 73/113/139 76/109/140
f 72/114/141 69/115/142 78/116/143 77/117/144
f 69/118/145 55/119/146 79/120/147 78/121/148
f 55/122/149 57/123/150 80/124/151 79/120/152
f 57/125/153 72/126/154 77/127/155 80/128/156
f 73/102/157 74/101/158 82/78/159 81/77/160
f 74/106/161 75/105/162 83/79/163 82/129/164
f 90/130/165 89/131/166 91/132/167 92/133/168
f 76/109/169 73/113/170 81/134/171 84/80/172
f 77/117/173 78/116/174 86/82/175 85/81/176
f 78/121/177 79/120/178 87/83/179 86/135/180
f 93/136/181 94/137/182 95/138/183 96/139/184
f 80/128/185 77/127/186 85/140/187 88/84/188
f 75/110/189 76/109/190 89/131/191 90/141/192
f 76/109/193 84/80/194 91/132/195 89/131/196
f 84/80/197 83/79/198 92/142/199 91/132/200
f 83/79/201 75/105/202 90/143/203 92/142/204
f 79/120/205 80/124/206 94/144/207 93/136/208
f 80/128/209 88/84/210 95/145/211 94/146/212
f 88/84/213 87/83/214 96/139/215 95/145/216
f 87/83/217 79/120/218 93/136/219 96/139/220
