# This file uses centimeters as units for non-parametric coordinates.

mtllib bloodchain.mtl
g default
v -0.125000 -0.000500 0.000000
v 0.125000 -0.000500 0.000000
v -0.125000 0.000500 0.000000
v 0.125000 0.000500 0.000000
v -0.125000 0.000500 -1.000000
v 0.125000 0.000500 -1.000000
v -0.125000 -0.000500 -1.000000
v 0.125000 -0.000500 -1.000000
vt 0.839057 -0.002570
vt 0.839057 -0.002570
vt 0.840057 -0.002565
vt 0.841057 -0.002560
vt 0.833943 0.997417
vt 0.839057 -0.002570
vt 0.835943 0.997427
vt 0.841057 -0.002560
vt 0.000000 1.000000
vt 0.250000 1.000000
vt 0.839057 -0.002570
vt 0.840057 -0.002565
vt 0.833943 0.997417
vt 0.834943 0.997422
vt 0.000000 0.000000
vt 0.250000 0.000000
vt 0.250000 1.000000
vt 0.000000 1.000000
vt 0.000000 0.000000
vt 0.250000 0.000000
vt 0.833943 0.997417
vt 0.834943 0.997422
vt 0.833943 0.997417
vt 0.835943 0.997427
vn 0.000000 0.000000 1.000000
vn 0.000000 0.000000 1.000000
vn 0.000000 0.000000 1.000000
vn 0.000000 0.000000 1.000000
vn 0.000000 1.000000 0.000000
vn 0.000000 1.000000 0.000000
vn 0.000000 1.000000 0.000000
vn 0.000000 1.000000 0.000000
vn 0.000000 0.000000 -1.000000
vn 0.000000 0.000000 -1.000000
vn 0.000000 0.000000 -1.000000
vn 0.000000 0.000000 -1.000000
vn 0.000000 -1.000000 0.000000
vn 0.000000 -1.000000 0.000000
vn 0.000000 -1.000000 0.000000
vn 0.000000 -1.000000 0.000000
vn 1.000000 0.000000 0.000000
vn 1.000000 0.000000 0.000000
vn 1.000000 0.000000 0.000000
vn 1.000000 0.000000 0.000000
vn -1.000000 0.000000 0.000000
vn -1.000000 0.000000 0.000000
vn -1.000000 0.000000 0.000000
vn -1.000000 0.000000 0.000000
s off
g pCube1
usemtl initialShadingGroup
f 1/23/1 2/2/2 4/4/3 3/24/4
f 3/15/5 4/16/6 6/17/7 5/18/8
f 5/5/9 6/6/10 8/8/11 7/7/12
f 7/19/13 8/20/14 2/10/15 1/9/16
f 2/21/17 8/11/18 6/12/19 4/22/20
f 7/13/21 1/1/22 3/3/23 5/14/24
