# ProBuilder 4.2.3
# https://unity3d.com/unity/features/worldbuilding/probuilder
# 2/16/2021 4:09:42 PM

mtllib ./Debree_3.mtl
o Debree_3

g Debree 3
v 0 0 0
v -1.967506 -1.434541E-06 -7.574534E-06
v 0 7.2 0
v -1.967506 7.199998 -8.73421E-06
v -2.032494 0.2992535 -21.61326
v -2.032494 7.499252 -21.61326
v -0.06498343 0.2992551 -21.61325
v -0.06498091 7.499255 -21.61325

vt 0 0
vt -1.967506 -1.434541E-06
vt 0 7.2
vt -1.967506 7.199998
vt -0.005923486 -1.435493E-06
vt -21.61928 0.2992535
vt -0.005924646 7.199998
vt -21.61928 7.499252
vt 2.03264 0.2992535
vt 0.0651301 0.2992551
vt 2.03264 7.499252
vt 0.06512757 7.499255
vt 21.61335 0.2992551
vt 21.61335 7.499255
vt -7.422404E-06 -0.09968095
vt 1.967499 -0.09968968
vt 0.06497318 -21.715
vt 2.032486 -21.71502
vt -0.06498316 -21.61532
vt -2.032493 -21.61534

vn -3.849814E-06 0 1
vn -0.9999955 4.842947E-10 0.003006807
vn 6.785958E-06 0 -1
vn 0.9999955 -3.507966E-07 -0.003006639
vn -1.030791E-06 0.9999042 0.01384458
vn 9.118206E-07 -0.9999042 -0.01384458

usemtl Wood_Debree
f 3/3/1 4/4/1 2/2/1 1/1/1
f 4/7/2 6/8/2 5/6/2 2/5/2
f 6/11/3 8/12/3 7/10/3 5/9/3
f 8/14/4 3/3/4 1/1/4 7/13/4
f 8/17/5 6/18/5 4/16/5 3/15/5
f 1/1/6 2/2/6 5/20/6 7/19/6

