# ProBuilder 4.2.3
# https://unity3d.com/unity/features/worldbuilding/probuilder
# 2/16/2021 12:17:59 AM

mtllib ./Debree_1.mtl
o Debree_1

g Debree 1
v 84 3 171.2198
v 82.03249 2.999999 171.2198
v 84 7.860358 170.4535
v 82.03249 7.860357 170.4535
v 81.96751 1.279281 149.6731
v 81.96751 6.139637 148.9068
v 83.93501 1.279281 149.6731
v 83.93502 6.139638 148.9068

vt 0 0
vt -1.967506 -2.164458E-07
vt -9.056828E-07 4.920391
vt -1.967507 4.920391
vt -0.005926826 -0.0003727458
vt -21.61927 0.2988827
vt -0.3148869 4.910308
vt -21.92825 5.209563
vt 2.032535 1.655874
vt 0.06502526 1.655874
vt 2.032536 6.576265
vt 0.06502198 6.576264
vt 21.61335 0.2992551
vt 21.92231 5.209935
vt 0.3089658 4.910681
vt -1.191163E-06 -0.3769237
vt 1.967505 -0.3769237
vt 0.06497829 -21.99224
vt 2.032492 -21.99226
vt -0.06498344 -21.61532
vt -2.032494 -21.61533

vn -2.925538E-06 0.1557339 0.987799
vn -0.9999955 0.0004695934 0.00297859
vn 1.931214E-06 -0.1557359 -0.9877988
vn 0.9999955 -0.0004703575 -0.002978355
vn -2.425426E-07 0.9968264 -0.07960649
vn -3.374061E-08 -0.9968264 0.07960644

usemtl Wood_Debree
f 3/3/1 4/4/1 2/2/1 1/1/1
f 4/7/2 6/8/2 5/6/2 2/5/2
f 6/11/3 8/12/3 7/10/3 5/9/3
f 8/14/4 3/15/4 1/1/4 7/13/4
f 8/18/5 6/19/5 4/17/5 3/16/5
f 1/1/6 2/2/6 5/21/6 7/20/6

