# ProBuilder 4.2.3
# https://unity3d.com/unity/features/worldbuilding/probuilder
# 2/16/2021 4:08:50 PM

mtllib ./Debree_1.mtl
o Debree_1

g Debree 1
v 0 0 0
v -1.967506 -2.160186E-07 -5.753805E-06
v 0 4.910681 -0.3089672
v -1.967506 4.910681 -0.3089673
v -2.032494 0.2992552 -21.61325
v -2.032494 5.209936 -21.92223
v -0.06498343 0.2992551 -21.61325
v -0.06497955 5.209935 -21.92222

vt 0 0
vt -1.967506 -2.164458E-07
vt -9.056828E-07 4.920391
vt -1.967507 4.920391
vt -0.005926826 -0.0003727458
vt -21.61927 0.2988827
vt -0.3148869 4.910308
vt -21.92825 5.209563
vt 2.032535 1.655874
vt 0.06502526 1.655874
vt 2.032536 6.576265
vt 0.06502198 6.576264
vt 21.61335 0.2992551
vt 21.92231 5.209935
vt 0.3089658 4.910681
vt -1.191163E-06 -0.3769237
vt 1.967505 -0.3769237
vt 0.06497829 -21.99224
vt 2.032492 -21.99226
vt -0.06498344 -21.61532
vt -2.032494 -21.61533

vn -2.925538E-06 0.06279323 0.9980265
vn -0.9999955 0.000189342 0.00300943
vn 1.931214E-06 -0.06279524 -0.9980264
vn 0.9999955 -0.0001901248 -0.003009267
vn -2.425426E-07 0.9999042 0.01384453
vn -3.374061E-08 -0.9999042 -0.01384458

usemtl Wood_Debree
f 3/3/1 4/4/1 2/2/1 1/1/1
f 4/7/2 6/8/2 5/6/2 2/5/2
f 6/11/3 8/12/3 7/10/3 5/9/3
f 8/14/4 3/15/4 1/1/4 7/13/4
f 8/18/5 6/19/5 4/17/5 3/16/5
f 1/1/6 2/2/6 5/21/6 7/20/6

