# ProBuilder 4.2.3
# https://unity3d.com/unity/features/worldbuilding/probuilder
# 2/16/2021 12:18:23 AM

mtllib ./Debree_3.mtl
o Debree_3

g Debree 3
v 105 11.25377 171.5408
v 103.0325 11.25376 171.5408
v 105 18.13985 169.4379
v 103.0325 18.13985 169.4379
v 102.9675 5.227649 150.7824
v 102.9675 12.11373 148.6796
v 104.935 5.227655 150.7824
v 104.935 12.11374 148.6796

vt 0 0
vt -1.967506 -1.434541E-06
vt 0 7.2
vt -1.967506 7.199998
vt -0.005923486 -1.435493E-06
vt -21.61928 0.2992535
vt -0.005924646 7.199998
vt -21.61928 7.499252
vt 2.03264 0.2992535
vt 0.0651301 0.2992551
vt 2.03264 7.499252
vt 0.06512757 7.499255
vt 21.61335 0.2992551
vt 21.61335 7.499255
vt -7.422404E-06 -0.09968095
vt 1.967499 -0.09968968
vt 0.06497318 -21.715
vt 2.032486 -21.71502
vt -0.06498316 -21.61532
vt -2.032493 -21.61534

vn -3.849814E-06 0.2920579 0.9564006
vn -0.9999955 0.000878162 0.002875712
vn 6.785958E-06 -0.2920579 -0.9564006
vn 0.9999955 -0.0008784481 -0.002875449
vn -1.030791E-06 0.9603524 -0.2787889
vn 9.118206E-07 -0.9603524 0.2787889

usemtl Wood_Debree
f 3/3/1 4/4/1 2/2/1 1/1/1
f 4/7/2 6/8/2 5/6/2 2/5/2
f 6/11/3 8/12/3 7/10/3 5/9/3
f 8/14/4 3/3/4 1/1/4 7/13/4
f 8/17/5 6/18/5 4/16/5 3/15/5
f 1/1/6 2/2/6 5/20/6 7/19/6

