# ProBuilder 4.2.3
# https://unity3d.com/unity/features/worldbuilding/probuilder
# 2/16/2021 4:08:02 PM

mtllib ./Shattered_space_1.mtl
o Shattered_space_1

g Shattered space 1
v 0 0 0
v -2 0 0
v 0 18 0
v -3 11 0
v -11 0 0
v -20 0 0
v -5 13 0
v -20 18 0
v 0 30 0
v -2 30 0
v -18 30 0
v -20 30 0
v -2 0 -1
v 0 0 -1
v -3 11 -1
v 0 18 -1
v -20 0 -1
v -11 0 -1
v -20 18 -1
v -5 13 -1
v -2 30 -1
v 0 30 -1
v -20 30 -1
v -18 30 -1

vt 0 0
vt -2 0
vt 0 18
vt -3 11
vt -11 0
vt -20 0
vt -5 13
vt -20 18
vt 0 30
vt -2 30
vt -18 30
vt -20 30
vt 2 0
vt 3 11
vt 20 0
vt 11 0
vt 20 18
vt 5 13
vt 2 30
vt 20 30
vt 18 30
vt -12.72792 0
vt -9.899495 0
vt -12.72792 -1
vt -9.899495 -1
vt 1 -4.60964
vt 0 -4.60964
vt 1 9.708181
vt 0 9.708181
vt 0 0.1810715
vt -1 0.1810715
vt 0 11.22643
vt -1 11.22643

vn 0 0 1
vn 0 0 -1
vn -0.7071068 -0.7071068 0
vn 0.9079594 -0.4190582 0
vn -0.9958932 -0.09053575 0

usemtl Wall
f 3/3/1 4/4/1 2/2/1 1/1/1
f 7/7/1 8/8/1 6/6/1 5/5/1
f 9/9/1 10/10/1 4/4/1 3/3/1
f 11/11/1 12/12/1 8/8/1 7/7/1
f 10/10/1 11/11/1 7/7/1 4/4/1
f 15/14/2 16/3/2 14/1/2 13/13/2
f 19/17/2 20/18/2 18/16/2 17/15/2
f 21/19/2 22/9/2 16/3/2 15/14/2
f 23/20/2 24/21/2 20/18/2 19/17/2
f 24/21/2 21/19/2 15/14/2 20/18/2
f 20/24/3 15/25/3 4/23/3 7/22/3
f 20/28/4 7/29/4 5/27/4 18/26/4
f 4/32/5 15/33/5 13/31/5 2/30/5

