# ProBuilder 4.2.3
# https://unity3d.com/unity/features/worldbuilding/probuilder
# 2/16/2021 4:07:00 PM

mtllib ./Shattered_2.mtl
o Shattered_2

g Shattered 2
v 0 0 0
v -8 0 0
v 0 18 0
v -10 11 0
v -17 0 0
v -20 0 0
v -17 16 0
v -20 18 0
v 0 30 0
v -2 30 0
v -18 30 0
v -20 30 0
v -8 0 -1
v 0 0 -1
v -10 11 -1
v 0 18 -1
v -20 0 -1
v -17 0 -1
v -20 18 -1
v -17 16 -1
v -2 30 -1
v 0 30 -1
v -20 30 -1
v -18 30 -1

vt 0 0
vt -8 0
vt 0 18
vt -10 11
vt -17 0
vt -20 0
vt -17 16
vt -20 18
vt 0 30
vt -2 30
vt -18 30
vt -20 30
vt 8 0
vt 10 11
vt 20 0
vt 17 0
vt 20 18
vt 17 16
vt 2 30
vt 20 30
vt 18 30
vt -23.13328 0
vt -14.53096 0
vt -23.13328 -1
vt -14.53096 -1
vt 1 0
vt 1 16
vt 0 16
vt 0 1.431084
vt -1 1.431084
vt 0 12.61142
vt -1 12.61142

vn 0 0 1
vn 0 0 -1
vn -0.5812382 -0.8137335 0
vn 1 0 0
vn -0.9838699 -0.1788854 0

usemtl Wall
f 3/3/1 4/4/1 2/2/1 1/1/1
f 7/7/1 8/8/1 6/6/1 5/5/1
f 9/9/1 10/10/1 4/4/1 3/3/1
f 11/11/1 12/12/1 8/8/1 7/7/1
f 10/10/1 11/11/1 7/7/1 4/4/1
f 15/14/2 16/3/2 14/1/2 13/13/2
f 19/17/2 20/18/2 18/16/2 17/15/2
f 21/19/2 22/9/2 16/3/2 15/14/2
f 23/20/2 24/21/2 20/18/2 19/17/2
f 24/21/2 21/19/2 15/14/2 20/18/2
f 20/24/3 15/25/3 4/23/3 7/22/3
f 20/27/4 7/28/4 5/1/4 18/26/4
f 4/31/5 15/32/5 13/30/5 2/29/5

