# This file uses centimeters as units for non-parametric coordinates.

mtllib sword.mtl
g default
v -0.500000 6.200194 0.204508
v 0.500000 6.200194 0.204508
v -0.378736 6.540514 0.140670
v 0.500000 6.540514 0.077119
v -0.378736 6.540514 -0.140670
v 0.500000 6.540514 -0.077119
v -0.500000 6.200194 -0.204508
v 0.500000 6.200194 -0.204508
v -0.399351 4.594301 -0.204508
v 0.399351 4.594301 -0.204508
v 0.399351 4.594301 0.204508
v -0.399351 4.594301 0.204508
v -0.399351 2.822093 -0.204508
v 0.399351 2.822093 -0.204508
v 0.399351 2.822093 0.204508
v -0.399351 2.822093 0.204508
v -0.776404 2.436790 -0.281554
v 0.776404 2.436790 -0.281554
v 0.776404 2.436790 0.281554
v -0.776404 2.436790 0.281554
v -1.492906 6.200194 0.311602
v 1.492906 6.200194 0.311602
v 1.163021 6.540514 0.254426
v -1.163021 6.540514 0.254426
v -1.163021 6.540514 -0.254426
v 1.163021 6.540514 -0.254426
v 1.492906 6.200194 -0.311602
v -1.492906 6.200194 -0.311602
v -0.500000 6.049760 -0.204508
v 0.500000 6.049760 -0.204508
v 0.500000 6.049760 0.204508
v -0.500000 6.049760 0.204508
v 0.918509 5.586374 -0.204508
v 0.918509 5.586374 0.204508
v 0.918509 5.057686 0.204508
v 0.918509 5.057686 -0.204508
v -0.918509 5.586374 0.204508
v -0.918509 5.586374 -0.204508
v -0.918509 5.057686 -0.204508
v -0.918509 5.057686 0.204508
v -0.378736 13.493849 0.140670
v 0.500000 13.493849 0.077119
v 0.500000 13.493849 -0.077119
v -0.378736 13.493849 -0.140670
v -0.378734 15.976194 0.077119
v 0.257470 14.900699 0.077119
v 0.257470 14.900699 -0.077119
v -0.378734 15.976194 -0.077119
v -0.155208 5.837482 -0.204508
v 0.155208 5.837482 -0.204508
v 0.155208 4.806579 -0.204508
v -0.155208 4.806579 -0.204508
v 0.611667 5.541241 -0.204508
v 0.611667 5.102820 -0.204508
v -0.611667 5.102819 -0.204508
v -0.611667 5.541241 -0.204508
v 0.155208 5.837482 0.204508
v -0.155208 5.837482 0.204508
v -0.155208 4.806579 0.204508
v 0.155208 4.806579 0.204508
v 0.611667 5.102820 0.204508
v 0.611667 5.541241 0.204508
v -0.611667 5.541241 0.204508
v -0.611667 5.102819 0.204508
v -0.531841 1.882176 -0.281554
v 0.531841 1.882176 -0.281554
v 0.531841 1.882176 0.281554
v -0.531841 1.882176 0.281554
v -0.918509 5.366747 -0.204508
v -0.611667 5.413687 -0.204508
v -0.611667 5.413687 0.204508
v -0.918509 5.366747 0.204508
v 0.918509 5.366747 0.204508
v 0.611667 5.413687 0.204508
v 0.611667 5.413687 -0.204508
v 0.918509 5.366747 -0.204508
v -0.918509 5.234944 -0.204508
v -0.918509 5.234944 0.204508
v -0.611667 5.188005 0.204508
v -0.611667 5.188005 -0.204508
v 0.918509 5.234944 0.204508
v 0.918509 5.234944 -0.204508
v 0.611667 5.188004 -0.204508
v 0.611667 5.188004 0.204508
v 0.217286 5.352257 -0.204508
v 0.155208 5.283475 -0.204508
v 0.102221 5.331660 -0.204508
v 0.062661 5.533519 -0.204508
v 0.217286 5.352257 0.204508
v 0.062661 5.533519 0.204508
v 0.102221 5.331660 0.204508
v 0.155208 5.283475 0.204508
v -0.217286 5.352257 0.204508
v -0.155208 5.283475 0.204508
v -0.102221 5.331660 0.204508
v -0.062661 5.533519 0.204508
v -0.217286 5.352257 -0.204508
v -0.062661 5.533519 -0.204508
v -0.102221 5.331660 -0.204508
v -0.155208 5.283475 -0.204508
v -0.217286 5.213912 -0.204508
v -0.102221 5.237849 -0.204508
v -0.062661 5.035990 -0.204508
v -0.217286 5.213912 0.204508
v -0.062661 5.035990 0.204508
v -0.102221 5.237849 0.204508
v 0.217286 5.213912 -0.204508
v 0.062661 5.035990 -0.204508
v 0.102221 5.237849 -0.204508
v 0.217286 5.213912 0.204508
v 0.102221 5.237849 0.204508
v 0.062661 5.035990 0.204508
vt 0.672689 0.281436
vt 0.754679 0.277969
vt 0.759608 0.797994
vt 0.693939 0.801170
vt 0.770042 0.903324
vt 0.698238 0.906326
vt 0.701525 0.986715
vt 0.801081 0.984244
vt 0.824029 0.278746
vt 0.898830 0.279864
vt 0.891060 0.799974
vt 0.816260 0.798857
vt 0.888286 0.985653
vt 0.964559 0.280846
vt 0.956789 0.800956
vt 0.937076 0.905917
vt 0.804737 0.093605
vt 0.824022 0.093605
vt 0.824021 0.185841
vt 0.804736 0.185841
vt 0.835521 0.185841
vt 0.835522 0.093605
vt 0.730868 0.096542
vt 0.730869 0.188778
vt 0.711584 0.188778
vt 0.711583 0.096542
vt 0.742369 0.188778
vt 0.742368 0.096542
vt 0.775482 0.188778
vt 0.767390 0.188778
vt 0.767390 0.096542
vt 0.775482 0.096542
vt 0.794277 0.188778
vt 0.794277 0.096542
vt 0.860542 0.185841
vt 0.860543 0.093605
vt 0.868635 0.093605
vt 0.868635 0.185841
vt 0.887430 0.093605
vt 0.887430 0.185841
vt 0.647905 0.189075
vt 0.647905 0.096839
vt 0.653310 0.096839
vt 0.653309 0.189075
vt 0.672104 0.096839
vt 0.672104 0.189075
vt 0.686659 0.096839
vt 0.686659 0.189075
vt 0.697947 0.189075
vt 0.697947 0.096839
vt 0.938407 0.187310
vt 0.938407 0.095074
vt 0.952961 0.095074
vt 0.952962 0.187310
vt 0.927119 0.187310
vt 0.927118 0.095074
vt 0.971756 0.095074
vt 0.977161 0.095074
vt 0.977161 0.187310
vt 0.971756 0.187310
vt 0.315362 0.557835
vt 0.259831 0.542926
vt 0.207647 0.518377
vt 0.360237 0.518381
vt 0.265026 0.605365
vt 0.216206 0.635111
vt 0.183286 0.503055
vt 0.384603 0.503067
vt 0.478940 0.554596
vt 0.351624 0.635110
vt 0.612639 0.500607
vt 0.371624 0.652989
vt 0.902097 0.187310
vt 0.902097 0.095074
vt 0.622884 0.189075
vt 0.622884 0.096839
vt 0.537356 0.369479
vt 0.485557 0.369453
vt 0.485613 0.254518
vt 0.537412 0.254544
vt 0.521515 0.383238
vt 0.501384 0.383228
vt 0.466265 0.221009
vt 0.561878 0.229567
vt 0.571011 0.399548
vt 0.551109 0.402465
vt 0.515506 0.398113
vt 0.518065 0.411206
vt 0.504807 0.411199
vt 0.507378 0.398109
vt 0.451873 0.398747
vt 0.471771 0.402426
vt 0.473426 0.172934
vt 0.547611 0.172934
vt 0.571005 0.411043
vt 0.551107 0.407989
vt 0.525529 0.409657
vt 0.521500 0.414167
vt 0.504804 0.417283
vt 0.501369 0.414157
vt 0.497345 0.409643
vt 0.471768 0.407951
vt 0.451867 0.410769
vt 0.571001 0.419591
vt 0.551099 0.422626
vt 0.525524 0.418629
vt 0.518062 0.417290
vt 0.497340 0.418616
vt 0.507363 0.430376
vt 0.471761 0.422587
vt 0.451863 0.419708
vt 0.570994 0.433835
vt 0.551096 0.430898
vt 0.515490 0.430380
vt 0.521483 0.450096
vt 0.501351 0.450086
vt 0.451855 0.434602
vt 0.471757 0.430859
vt 0.543837 0.463874
vt 0.478983 0.463843
vt 0.545315 0.473631
vt 0.477496 0.473598
vt 0.348958 0.419827
vt 0.348961 0.410497
vt 0.348954 0.435373
vt 0.348964 0.397950
vt 0.451836 0.468228
vt 0.348931 0.468173
vt 0.348986 0.365150
vt 0.451892 0.365206
vt 0.451831 0.478876
vt 0.348925 0.478821
vt 0.349054 0.239708
vt 0.451959 0.239763
vt 0.334292 0.212430
vt 0.323650 0.173172
vt 0.218928 0.419827
vt 0.116022 0.419775
vt 0.116026 0.410446
vt 0.218930 0.410497
vt 0.218924 0.435373
vt 0.116014 0.435321
vt 0.116033 0.397899
vt 0.218934 0.397950
vt 0.218903 0.468173
vt 0.115997 0.468121
vt 0.116049 0.365099
vt 0.218954 0.365150
vt 0.218898 0.478821
vt 0.115992 0.478769
vt 0.116112 0.239656
vt 0.219017 0.239708
vt 0.096741 0.212374
vt 0.233701 0.212440
vt 0.096761 0.173116
vt 0.244364 0.173182
vt 0.248553 0.478820
vt 0.452571 0.532829
vt 0.410146 0.500511
vt 0.124134 0.635311
vt 0.196198 0.652982
vt 0.312212 0.365150
vt 0.255677 0.365150
vt 0.255677 0.239708
vt 0.312212 0.239708
vt 0.294930 0.380176
vt 0.272958 0.380176
vt 0.327240 0.401145
vt 0.288379 0.396415
vt 0.291180 0.410703
vt 0.276709 0.410703
vt 0.279509 0.396415
vt 0.240648 0.401145
vt 0.327240 0.407175
vt 0.299324 0.409009
vt 0.294930 0.413932
vt 0.291180 0.417343
vt 0.268564 0.409009
vt 0.272958 0.413932
vt 0.240648 0.407175
vt 0.327240 0.423149
vt 0.299324 0.418801
vt 0.288379 0.431631
vt 0.276709 0.417343
vt 0.240648 0.423149
vt 0.268564 0.418801
vt 0.327240 0.432178
vt 0.294930 0.453147
vt 0.272958 0.453147
vt 0.279509 0.431631
vt 0.240648 0.432178
vt 0.319336 0.468173
vt 0.248553 0.468173
vt 0.319336 0.478822
vt 0.586813 0.513775
vt 0.435960 0.513703
vt 0.443695 0.635351
vt 0.311739 0.591310
vt 0.535937 0.539973
vt 0.115305 0.532785
vt 0.551247 0.051917
vt 0.471962 0.051882
vn 0.000000 0.165686 0.986179
vn 0.000000 0.165686 0.986179
vn 0.000000 0.165686 0.986179
vn 0.000000 0.165686 0.986179
vn 0.860687 0.509135 0.000000
vn 0.860687 0.509135 0.000000
vn 0.860687 0.509135 0.000000
vn 0.860687 0.509135 0.000000
vn 0.000000 0.165686 -0.986179
vn 0.000000 0.165686 -0.986179
vn 0.000000 0.165686 -0.986179
vn 0.000000 0.165686 -0.986179
vn 0.000000 -1.000000 0.000000
vn 0.000000 -1.000000 0.000000
vn 0.000000 -1.000000 0.000000
vn 0.000000 -1.000000 0.000000
vn 0.718028 0.696014 0.000000
vn 0.718028 0.696014 0.000000
vn 0.718028 0.696014 0.000000
vn 0.718028 0.696014 0.000000
vn -0.718028 0.696014 0.000000
vn -0.718028 0.696014 0.000000
vn -0.718028 0.696014 0.000000
vn -0.718028 0.696014 0.000000
vn 1.000000 0.000000 0.000000
vn 1.000000 0.000000 0.000000
vn 1.000000 0.000000 0.000000
vn 1.000000 0.000000 0.000000
vn -1.000000 0.000000 0.000000
vn -1.000000 0.000000 0.000000
vn -1.000000 0.000000 0.000000
vn -1.000000 0.000000 0.000000
vn 0.000000 0.000000 -1.000000
vn -0.000000 0.000000 -1.000000
vn 0.000000 0.062619 -0.998038
vn 0.000000 0.062619 -0.998038
vn 1.000000 0.000000 0.000000
vn 1.000000 0.000000 0.000000
vn 0.971064 0.238819 0.000000
vn 0.971064 0.238819 0.000000
vn -0.000000 0.000000 1.000000
vn -0.000000 0.000000 1.000000
vn 0.000000 0.062619 0.998038
vn 0.000000 0.062619 0.998038
vn -1.000000 0.000000 0.000000
vn -1.000000 0.000000 0.000000
vn -0.971064 0.238819 0.000000
vn -0.971064 0.238819 0.000000
vn 0.000000 0.065165 -0.997875
vn 0.000000 0.065165 -0.997875
vn 0.999781 -0.020924 0.000000
vn 0.999781 -0.020924 0.000000
vn 0.000000 0.065165 0.997875
vn 0.000000 0.065165 0.997875
vn -0.999781 -0.020924 0.000000
vn -0.999781 -0.020924 0.000000
vn 0.000000 -1.000000 0.000000
vn 0.000000 -1.000000 0.000000
vn 0.000000 -1.000000 0.000000
vn 0.000000 -1.000000 0.000000
vn 0.000000 1.000000 0.000000
vn 0.000000 1.000000 0.000000
vn 0.000000 1.000000 0.000000
vn 0.000000 1.000000 0.000000
vn 0.000000 1.000000 0.000000
vn 0.000000 1.000000 0.000000
vn 0.000000 1.000000 0.000000
vn 0.000000 1.000000 0.000000
vn 0.000000 -1.000000 0.000000
vn 0.000000 -1.000000 0.000000
vn 0.000000 -1.000000 0.000000
vn 0.000000 -1.000000 0.000000
vn 0.000000 0.000000 -1.000000
vn 0.000000 0.000000 -1.000000
vn 0.000000 0.000000 -1.000000
vn -0.000000 0.000000 -1.000000
vn 1.000000 0.000000 0.000000
vn 1.000000 0.000000 0.000000
vn 1.000000 0.000000 0.000000
vn 1.000000 0.000000 0.000000
vn 0.000000 0.000000 1.000000
vn 0.000000 0.000000 1.000000
vn -0.000000 0.000000 1.000000
vn 0.000000 0.000000 1.000000
vn -1.000000 0.000000 0.000000
vn -1.000000 0.000000 0.000000
vn -1.000000 0.000000 0.000000
vn -1.000000 0.000000 0.000000
vn 0.742129 0.670257 0.000000
vn 0.742129 0.670257 0.000000
vn 0.742129 0.670257 0.000000
vn 0.742129 0.670257 0.000000
vn 0.665897 -0.746044 0.000000
vn 0.665897 -0.746044 0.000000
vn 0.665897 -0.746044 0.000000
vn 0.665897 -0.746044 0.000000
vn -0.742129 0.670257 0.000000
vn -0.742129 0.670257 0.000000
vn -0.742129 0.670257 0.000000
vn -0.742129 0.670257 0.000000
vn -0.665897 -0.746044 0.000000
vn -0.665897 -0.746044 0.000000
vn -0.665897 -0.746044 0.000000
vn -0.665897 -0.746044 0.000000
vn 0.072132 0.000000 0.997395
vn 0.072132 0.000000 0.997395
vn 0.069368 0.003382 0.997585
vn 0.069140 0.003662 0.997600
vn 1.000000 0.000000 0.000000
vn 1.000000 0.000000 0.000000
vn 0.999579 0.028998 0.000000
vn 0.999579 0.028998 0.000000
vn 0.072132 0.000000 -0.997395
vn 0.072132 0.000000 -0.997395
vn 0.069140 0.003662 -0.997600
vn 0.069368 0.003382 -0.997585
vn -1.000000 0.000000 0.000000
vn -1.000000 0.000000 0.000000
vn -1.000000 0.000000 0.000000
vn -1.000000 0.000000 0.000000
vn 0.055932 0.019799 0.998238
vn 0.055932 0.019799 0.998238
vn 0.985464 0.169886 0.000000
vn 0.985464 0.169886 0.000000
vn 0.055932 0.019799 -0.998238
vn 0.055932 0.019799 -0.998238
vn -1.000000 0.000001 0.000000
vn -1.000000 0.000001 0.000000
vn 0.000000 -0.000000 -1.000000
vn -0.000000 -0.000000 -1.000000
vn 0.000000 0.000000 -1.000000
vn -0.000000 0.000000 -1.000000
vn 0.000000 0.000000 -1.000000
vn 0.000000 0.000000 -1.000000
vn 0.000000 0.000000 -1.000000
vn 0.000000 0.000000 -1.000000
vn 0.000000 0.000000 -1.000000
vn 0.000000 0.000000 -1.000000
vn 0.000000 0.000000 -1.000000
vn -0.000000 0.000000 -1.000000
vn 0.000000 0.000000 -1.000000
vn 0.000000 0.000000 -1.000000
vn 0.000000 0.000000 -1.000000
vn 0.000000 0.000000 -1.000000
vn 0.000000 0.000000 -1.000000
vn 0.000000 0.000000 -1.000000
vn -0.000000 0.000000 -1.000000
vn -0.000000 0.000000 -1.000000
vn -0.000000 -0.000000 1.000000
vn 0.000000 -0.000000 1.000000
vn -0.000000 0.000000 1.000000
vn -0.000000 0.000000 1.000000
vn -0.000000 0.000000 1.000000
vn -0.000000 0.000000 1.000000
vn 0.000000 0.000000 1.000000
vn 0.000000 0.000000 1.000000
vn 0.000000 0.000000 1.000000
vn 0.000000 0.000000 1.000000
vn 0.000000 0.000000 1.000000
vn 0.000000 0.000000 1.000000
vn -0.000000 0.000000 1.000000
vn -0.000000 0.000000 1.000000
vn 0.000000 0.000000 1.000000
vn 0.000000 0.000000 1.000000
vn 0.000000 0.000000 1.000000
vn 0.000000 0.000000 1.000000
vn 0.000000 0.000000 1.000000
vn -0.000000 0.000000 1.000000
vn 0.000000 -0.000000 -1.000000
vn 0.000000 -0.000000 -1.000000
vn 0.914991 -0.403475 0.000000
vn 0.914991 -0.403475 0.000000
vn 0.000000 -0.000000 1.000000
vn 0.000000 -0.000000 1.000000
vn -0.914991 -0.403475 0.000000
vn -0.914991 -0.403475 0.000000
vn -0.544396 0.838828 0.000000
vn -0.544396 0.838828 0.000000
vn -0.544396 0.838828 0.000000
vn -0.544396 0.838828 0.000000
vn -0.544397 -0.838828 0.000000
vn -0.544397 -0.838828 0.000000
vn -0.544397 -0.838828 0.000000
vn -0.544397 -0.838828 0.000000
vn 0.544397 -0.838828 0.000000
vn 0.544397 -0.838828 0.000000
vn 0.544397 -0.838828 0.000000
vn 0.544397 -0.838828 0.000000
vn 0.544396 0.838828 0.000000
vn 0.544396 0.838828 0.000000
vn 0.544396 0.838828 0.000000
vn 0.544396 0.838828 0.000000
vn 0.956642 -0.291267 0.000000
vn 0.956642 -0.291267 0.000000
vn 0.956642 -0.291267 0.000000
vn 0.956642 -0.291267 0.000000
vn -0.000000 -0.000000 1.000000
vn -0.000000 0.000000 1.000000
vn 0.000000 0.000000 1.000000
vn 0.000000 -0.000000 1.000000
vn -0.956642 -0.291267 0.000000
vn -0.956642 -0.291267 0.000000
vn -0.956642 -0.291268 0.000000
vn -0.956642 -0.291268 0.000000
vn 0.000000 -0.000000 -1.000000
vn 0.000000 0.000000 -1.000000
vn -0.000000 0.000000 -1.000000
vn -0.000000 -0.000000 -1.000000
vn 1.000000 0.000000 0.000000
vn 1.000000 0.000000 0.000000
vn 1.000000 0.000000 0.000000
vn 1.000000 0.000000 0.000000
vn -1.000000 0.000000 0.000000
vn -1.000000 0.000000 0.000000
vn -1.000000 0.000000 0.000000
vn -1.000000 0.000000 0.000000
vn -1.000000 0.000000 0.000000
vn -1.000000 0.000000 0.000000
vn 1.000000 0.000000 0.000000
vn 1.000000 0.000000 0.000000
vn -1.000000 0.000000 0.000000
vn -1.000000 0.000000 0.000000
vn 1.000000 0.000000 0.000000
vn 1.000000 0.000000 0.000000
vn 1.000000 0.000000 0.000000
vn 1.000000 0.000000 0.000000
vn -0.927382 0.374117 0.000000
vn -0.927382 0.374117 0.000000
vn -0.927382 0.374117 0.000000
vn -0.927382 0.374117 0.000000
vn 0.927382 0.374117 0.000000
vn 0.927382 0.374117 0.000000
vn 0.927382 0.374117 0.000000
vn 0.927382 0.374117 0.000000
vn 1.000000 0.000000 0.000000
vn 1.000000 0.000000 0.000000
vn -1.000000 0.000000 0.000000
vn -1.000000 0.000000 0.000000
vn -1.000000 0.000000 0.000000
vn -1.000000 0.000000 0.000000
vn -0.153906 0.988086 0.000000
vn -0.153906 0.988086 0.000000
vn -0.153906 0.988086 0.000000
vn -0.153906 0.988086 0.000000
vn -0.065551 -0.997849 0.000000
vn -0.065551 -0.997849 0.000000
vn -0.065551 -0.997849 0.000000
vn -0.065551 -0.997849 0.000000
vn 0.153906 0.988086 0.000000
vn 0.153906 0.988086 0.000000
vn 0.153906 0.988086 0.000000
vn 0.153906 0.988086 0.000000
vn -0.000000 0.000000 1.000000
vn -0.000000 0.000000 1.000000
vn -0.000000 -0.000000 1.000000
vn -0.000000 -0.000000 1.000000
vn -0.000000 0.000000 1.000000
vn 0.065548 -0.997849 0.000000
vn 0.065548 -0.997849 0.000000
vn 0.065548 -0.997849 0.000000
vn 0.065548 -0.997849 0.000000
vn -0.000000 0.000000 -1.000000
vn -0.000000 0.000000 -1.000000
vn -0.000000 0.000000 -1.000000
vn -0.000000 -0.000000 -1.000000
vn -0.000000 -0.000000 -1.000000
vn 0.000000 0.000000 1.000000
vn 0.000000 -0.000000 1.000000
vn -0.000000 -0.000000 1.000000
vn -0.000000 0.000000 1.000000
vn -0.000000 0.000000 1.000000
vn -0.000000 -0.000000 1.000000
vn 0.000000 -0.000000 -1.000000
vn 0.000000 -0.000000 -1.000000
vn 0.000000 -0.000000 -1.000000
vn 0.000000 0.000000 -1.000000
vn 0.000000 0.000000 -1.000000
vn -0.000000 -0.000000 -1.000000
vn -0.000000 0.000000 -1.000000
vn -0.000000 -0.000000 -1.000000
vn -0.000000 -0.000000 -1.000000
vn 0.000000 0.000000 1.000000
vn 0.000000 -0.000000 1.000000
vn -0.000000 0.000000 1.000000
vn 0.760795 0.648993 0.000000
vn 0.760795 0.648993 0.000000
vn 0.760795 0.648993 0.000000
vn 0.760795 0.648993 0.000000
vn -0.760795 0.648993 0.000000
vn -0.760795 0.648993 0.000000
vn -0.760795 0.648993 0.000000
vn -0.760795 0.648993 0.000000
vn -0.754794 -0.655962 0.000000
vn -0.754794 -0.655962 0.000000
vn -0.754794 -0.655962 0.000000
vn -0.754794 -0.655962 0.000000
vn 0.754794 -0.655962 0.000000
vn 0.754794 -0.655962 0.000000
vn 0.754794 -0.655962 0.000000
vn 0.754794 -0.655962 0.000000
s off
g sword
usemtl aiStandardSurface1SG
f 21/67/1 22/68/2 23/64/3 24/63/4
f 45/7/5 46/6/6 47/5/7 48/8/8
f 25/195/9 26/196/10 27/159/11 28/71/12
f 65/94/13 66/93/14 67/202/15 68/201/16
f 22/68/17 27/72/18 26/70/19 23/64/20
f 28/161/21 21/67/22 24/63/23 25/66/24
s 1
f 76/111/25 73/123/26 81/124/27 82/103/28
s 2
f 72/137/29 69/138/30 77/139/31 78/140/32
s 3
f 9/77/33 10/78/34 14/79/35 13/80/36
s 4
f 10/130/37 11/129/38 15/133/39 14/134/40
s 5
f 11/162/41 12/163/42 16/164/43 15/165/44
s 6
f 12/148/45 9/147/46 13/151/47 16/152/48
s 3
f 13/80/36 14/79/35 18/83/49 17/84/50
s 4
f 14/134/40 15/133/39 19/135/51 18/83/52
s 5
f 15/165/44 16/164/43 20/154/53 19/135/54
s 6
f 16/152/48 13/151/47 17/153/55 20/154/56
s 7
f 1/157/57 2/194/58 22/68/59 21/67/60
s 8
f 4/61/61 3/62/62 24/63/63 23/64/64
f 5/199/65 6/69/66 26/196/67 25/195/68
s 7
f 8/122/69 7/121/70 28/71/71 27/159/72
f 2/158/58 8/197/69 27/72/72 22/68/59
s 8
f 6/198/66 4/61/61 23/64/64 26/70/67
s 7
f 7/160/70 1/200/57 21/67/60 28/161/71
s 8
f 3/62/62 5/65/65 25/66/68 24/63/63
s 3
f 7/121/73 8/122/74 30/120/75 29/119/76
s off
f 8/131/77 2/132/78 31/128/79 30/127/80
s 5
f 2/194/81 1/157/82 32/193/83 31/192/84
s off
f 1/149/85 7/150/86 29/146/87 32/145/88
f 30/127/89 31/128/90 34/125/91 33/117/92
f 11/129/93 10/130/94 36/91/95 35/126/96
f 32/145/97 29/146/98 38/142/99 37/141/100
f 9/147/101 12/148/102 40/144/103 39/143/104
s 11
f 3/10/105 4/14/106 42/15/107 41/11/108
s 12
f 4/1/109 6/2/110 43/3/111 42/4/112
s 13
f 6/2/113 5/9/114 44/12/115 43/3/116
s 14
f 5/9/117 3/10/118 41/11/119 44/12/120
s 11
f 41/11/108 42/15/107 46/16/121 45/13/122
s 12
f 42/4/112 43/3/111 47/5/123 46/6/124
s 13
f 43/3/116 44/12/115 48/8/125 47/5/126
s 14
f 44/12/120 41/11/119 45/13/127 48/8/128
s 3
f 29/119/76 30/120/75 50/116/129 49/115/130
f 10/78/34 9/77/33 52/81/131 51/82/132
f 30/120/75 33/117/133 53/118/134 50/116/129
f 75/110/135 76/111/136 82/103/137 83/102/138
f 36/91/139 10/78/34 51/82/132 54/92/140
f 9/77/33 39/85/141 55/86/142 52/81/131
f 80/96/143 77/95/144 69/104/145 70/105/146
f 38/112/147 29/119/76 49/115/130 56/113/148
s 5
f 31/192/84 32/193/83 58/189/149 57/188/150
f 12/163/42 11/162/41 60/166/151 59/167/152
f 11/162/41 35/126/153 61/168/154 60/166/151
f 84/174/155 81/124/156 73/123/157 74/181/158
f 34/125/159 31/192/84 57/188/150 62/187/160
f 32/193/83 37/141/161 63/191/162 58/189/149
f 71/185/163 72/137/164 78/140/165 79/180/166
f 40/144/167 12/163/42 59/167/152 64/173/168
s 3
f 17/84/50 18/83/49 66/93/169 65/94/170
s 4
f 18/83/52 19/135/51 67/136/171 66/93/172
s 5
f 19/135/54 20/154/53 68/156/173 67/136/174
s 6
f 20/154/56 17/153/55 65/155/175 68/156/176
s off
f 60/53/177 61/57/178 54/60/179 51/54/180
f 62/37/181 57/39/182 50/40/183 53/38/184
f 58/33/185 63/29/186 56/32/187 49/34/188
f 64/43/189 59/45/190 52/46/191 55/44/192
f 57/17/193 90/18/194 88/19/195 50/20/196
s 5
f 57/188/150 58/189/149 96/190/197 95/184/198 91/177/199 90/183/200
s off
f 98/23/201 96/24/202 58/25/203 49/26/204
s 3
f 49/115/130 50/116/129 88/109/205 87/99/206 99/107/207 98/114/208
f 70/105/146 69/104/145 38/112/147 56/113/148
s off
f 63/29/209 71/30/210 70/31/211 56/32/212
s 5
f 37/141/161 72/137/164 71/185/163 63/191/162
s 2
f 37/141/213 38/142/214 69/138/30 72/137/29
s 5
f 74/181/158 73/123/157 34/125/159 62/187/160
s off
f 75/35/215 74/36/216 62/37/217 53/38/218
s 3
f 33/117/133 76/111/136 75/110/135 53/118/134
s 1
f 33/117/219 34/125/220 73/123/26 76/111/25
s 2
f 78/140/32 77/139/31 39/143/221 40/144/222
s 5
f 79/180/166 78/140/165 40/144/167 64/173/168
s off
f 80/41/223 79/42/224 64/43/225 55/44/226
s 3
f 39/85/141 77/95/144 80/96/143 55/86/142
s off
f 59/45/227 105/47/228 103/48/229 52/46/230
f 108/51/231 112/52/232 60/53/233 51/54/234
s 1
f 82/103/28 81/124/27 35/126/235 36/91/236
s 3
f 83/102/138 82/103/137 36/91/139 54/92/140
s off
f 61/57/237 84/58/238 83/59/239 54/60/240
s 5
f 35/126/153 81/124/156 84/174/155 61/168/154
s off
f 85/21/241 89/22/242 74/36/243 75/35/244
f 110/56/245 107/55/246 83/73/247 84/74/248
f 70/31/249 71/30/250 93/27/251 97/28/252
s 5
f 71/185/253 79/180/254 104/178/255 94/179/256 93/186/257
s off
f 79/42/258 80/41/259 101/75/260 104/76/261
s 3
f 80/96/262 70/105/263 97/106/264 100/98/265 101/97/266
s 5
f 89/182/267 92/176/268 110/175/269 84/174/270 74/181/271
f 106/171/272 91/177/199 95/184/198 94/179/256
s 3
f 102/88/273 87/99/206 86/100/274 109/89/275
f 103/87/276 102/88/273 109/89/275 108/90/277 51/82/132 52/81/131
f 107/101/278 86/100/274 85/108/279 75/110/280 83/102/281
s 5
f 112/169/282 111/170/283 106/171/272 105/172/284 59/167/152 60/166/151
s off
f 85/21/285 88/19/286 90/18/287 89/22/288
f 93/27/289 96/24/290 98/23/291 97/28/292
f 101/49/293 103/48/294 105/47/295 104/50/296
f 108/51/297 107/55/298 110/56/299 112/52/300
s 3
f 85/108/279 86/100/274 87/99/206 88/109/205
s 5
f 89/182/267 90/183/200 91/177/199 92/176/268
f 93/186/257 94/179/256 95/184/198 96/190/197
s 3
f 97/106/264 98/114/208 99/107/207 100/98/265
f 101/97/266 100/98/265 102/88/273 103/87/276
s 5
f 104/178/255 105/172/284 106/171/272 94/179/256
s 3
f 107/101/278 108/90/277 109/89/275 86/100/274
s 5
f 110/175/269 92/176/268 111/170/283 112/169/282
s 3
f 100/98/265 99/107/207 87/99/206 102/88/273
s 5
f 92/176/268 91/177/199 106/171/272 111/170/283
