# ProBuilder 4.2.3
# https://unity3d.com/unity/features/worldbuilding/probuilder
# 2/16/2021 4:11:49 PM

mtllib ./Tube_to_City.mtl
o Tube_to_City

g Tube to City
v -1.441235 -0.217547 0
v -13.23284 0.9182225 0
v -1.441231 -0.01755037 0
v -13.23284 1.118219 0
v -13.23284 0.9182271 -1
v -13.23284 0.9182047 -6
v -13.23284 1.118219 -0.2763138
v -13.23284 1.11819 -6.721291
v -13.23284 0.9182032 -7
v -1.441231 -0.2175667 -7
v -13.23283 1.1182 -7
v -1.441227 -0.01757039 -7
v -1.441231 -0.2175656 -6
v -1.441231 -0.2175419 -1
v -1.441235 -0.01757956 -6.721291
v -1.441231 -0.01755037 -0.2763138
v 3.078651 5.763496 -6.721259
v -8.426919 6.661738 -6.72126
v 3.078646 5.763514 -6.999969
v -8.426912 6.661747 -6.999969
v 3.070905 5.263556 -6.721291
v -8.675789 6.362029 -6.721291
v 3.0709 5.263574 -7
v -8.675783 6.362036 -7
v -8.825031 6.999461 -0.2763138
v 2.776603 6.021445 -0.1136551
v -8.825031 6.999461 0
v 2.776602 6.021444 0.1626587
v -9.031576 6.657497 -0.2763138
v 2.760025 5.521722 -0.1136551
v -9.031576 6.657497 0
v 2.760025 5.521721 0.1626587
v 2.915469 5.392608 -3.359085
v -8.805019 6.469326 -3.359085
v 2.927621 5.892448 -3.35907
v -8.54393 6.762447 -3.35907

vt -1.441235 -0.217547
vt -13.23284 0.9182225
vt -1.441231 -0.01755037
vt -13.23284 1.118219
vt -0.9999975 0.918218
vt -5.999998 0.9181955
vt -0.2763112 1.11821
vt -6.721288 1.118181
vt 13.23284 0.9182032
vt 1.441231 -0.2175667
vt 13.23283 1.1182
vt 1.441227 -0.01757039
vt 6 -0.2175337
vt 0.9999999 -0.21751
vt 6.721291 -0.01754765
vt 0.2763138 -0.01751846
vt 1.432909 -0.2763145
vt 13.27909 -0.2763145
vt 1.43291 -6.721291
vt 13.27909 -6.721291
vt -1.413732 -6.000002
vt -13.25991 -6.000002
vt -1.413734 -1.000002
vt -13.25991 -1.000002
vt -13.25991 -7
vt -1.413733 -7
vt -6.720883 1.119976
vt -5.999592 0.9199902
vt -6.999592 1.119986
vt -6.999592 0.9199888
vt 7.000001 -0.2175398
vt 7.000001 -0.01754356
vt -2.620719 -6.721629
vt 8.91986 -6.72163
vt -2.620713 -7.000338
vt 8.919854 -7.000339
vt 3.070905 5.263556
vt -8.675789 6.362029
vt 7.000001 -0.9495499
vt 6.721292 -0.949562
vt 6.999998 5.996656
vt 6.721288 5.996646
vt -6.721316 -7.836039
vt -7.000025 -7.836025
vt -6.721307 -0.8887684
vt -7.000017 -0.8887593
vt 8.675783 6.362036
vt -3.0709 5.263574
vt -1.413734 -0.999998
vt -13.25991 -0.999998
vt -1.413738 1.955899E-06
vt -13.25992 1.955896E-06
vt 1 -0.2175428
vt 0 -0.01755123
vt 0 -0.2175479
vt 5.047844E-05 0.9180398
vt 5.047843E-05 1.118036
vt 9.381808 -0.2763138
vt -2.260976 -0.1136551
vt 9.381808 0
vt -2.260975 0.1626587
vt 9.031576 6.657497
vt -2.760025 5.521722
vt 0 -7.105652
vt -0.2763138 -7.105652
vt 0 -0.1533716
vt -0.2763138 -0.1533716
vt 0.2763138 -0.8849185
vt 0 -0.8849185
vt 0.1136551 6.067354
vt -0.1626587 6.067353
vt -1.441226 -0.01743988
vt -13.23279 1.118755
vt 2.760444 5.523906
vt -9.031545 6.655657
vt 2.91546 5.392506
vt -8.805029 6.469224
vt 2.927612 5.892345
vt -8.54394 6.762345
vt 6.999942 5.310519
vt 6.721232 5.310501
vt 6.99991 5.810519
vt 6.721201 5.810501
vt -6.721285 -0.6478592
vt -6.999994 -0.6478505
vt -6.721255 -0.2582929
vt -6.999964 -0.2582825
vt 8.675845 6.361374
vt -3.070838 5.262913
vt 8.426974 6.661085
vt -3.078584 5.762853
vt 2.567491 -6.530118
vt -9.230453 -6.530118
vt 2.400714 -3.16598
vt -9.369111 -3.166632
vt 6.854286 5.80568
vt 6.853965 5.30568
vt 3.488707 5.934647
vt 3.48817 5.43468
vt -6.144978 -0.9030549
vt -6.161074 -0.5138212
vt -2.781465 -0.7637073
vt -2.798368 -0.3717673
vt 8.91986 -6.556311
vt -2.620719 -6.55631
vt 9.044354 -3.192882
vt -2.460111 -3.192189
vt 8.805035 6.469165
vt -2.915454 5.392447
vt 8.543945 6.762286
vt -2.927606 5.892286
vt 0 1.029274
vt -0.2763138 1.029274
vt 0 1.428773
vt -0.2763138 1.428773
vt 0.1136621 5.610194
vt -0.1626517 5.610194
vt 0.1136621 6.110192
vt -0.1626517 6.110191
vt 2.762 5.521664
vt -9.030723 6.65744
vt 2.778576 6.021387
vt -8.824197 6.999404
vt -9.632512 0.03235469
vt 2.21366 0.1952473
vt -9.388836 -3.054851
vt 2.38085 -3.051602
vt 0.9294487 1.498014
vt 0.9576085 1.099508
vt -2.162847 1.221811
vt -2.127266 0.8374724
vt 0.2491906 5.609795
vt 0.2500055 6.109792
vt 3.498338 5.480611
vt 3.49892 5.980578
vt -2.257869 0.108682
vt 9.384913 -0.05408014
vt -2.419248 -3.138797
vt 9.08479 -3.142449

vn 0 0 1
vn -1 6.902008E-07 -1.907379E-07
vn 0 0 -1
vn 1 2.214087E-05 2.373701E-08
vn 0.09587641 0.9953933 -4.574071E-06
vn -0.09587651 -0.9953933 4.711487E-06
vn 0.07783335 0.9969664 6.171216E-05
vn 0.7602919 -0.6495816 -5.639457E-07
vn -0.7548056 0.6559486 1.444608E-06
vn 0.0840019 0.9964656 0
vn 0.007743458 0.008805258 -0.9998625
vn 0.01548692 0.01761052 -0.999725
vn -0.796757 0.6042998 0
vn 0.7967572 -0.6042997 0
vn -0.002634851 -0.02735514 0.9996223
vn -0.007744247 -0.008803153 0.9997461
vn -0.01285364 0.009748837 0.9998699
vn 0.99988 -0.01549196 -1.894272E-05
vn -0.7693411 0.6388384 -4.933392E-07
vn -0.09305365 -0.9950841 0.03389246
vn -0.09224913 -0.9952468 0.03107199
vn -0.0914446 -0.9954094 0.02825152
vn 0.9988462 -0.01547881 0.04546192
vn 0.9987207 -0.01987914 0.04627964
vn 0.9985952 -0.02427946 0.04709736
vn -0.7683802 0.6380457 -0.04989547
vn -0.7571612 0.6512378 -0.04787885
vn -0.7459422 0.6644298 -0.04586223
vn 0.07780468 0.996599 -0.02714375
vn 0.07669069 0.9965653 -0.03098463
vn 0.0755767 0.9965317 -0.03482552
vn -0.8559797 0.5170093 0
vn 0.9994503 -0.03315463 2.529925E-06
vn -0.01374922 0.000456101 0.9999054
vn -0.01354432 0.004256538 0.999892
vn -0.01333942 0.008056974 0.9998786
vn -0.09647153 -0.9938927 0.05357693
vn -0.09394796 -0.994541 0.04439494
vn -0.09142438 -0.9951892 0.03521296
vn -0.8501015 0.5134589 -0.1169931
vn -0.7967238 0.5877895 -0.106019
vn -0.7433462 0.66212 -0.09504495
vn 0.9982433 -0.03311459 0.04912944
vn 0.9984114 -0.02869684 0.04828064
vn 0.08444479 0.9957902 -0.03565063
vn 0.07994199 0.9952544 -0.05262461
vn 0.07543919 0.9947186 -0.0695986

usemtl Wall
f 3/3/1 4/4/1 2/2/1 1/1/1
f 7/7/2 8/8/2 6/6/2 5/5/2
f 11/11/3 12/12/3 10/10/3 9/9/3
f 15/15/4 16/16/4 14/14/4 13/13/4
f 15/19/5 8/20/5 7/18/5 16/17/5
f 14/23/6 5/24/6 6/22/6 13/21/6
f 9/25/6 10/26/6 13/21/6 6/22/6
f 11/29/2 9/30/2 6/28/2 8/27/2
f 10/31/4 12/32/4 15/15/4 13/13/4
f 19/35/7 20/36/7 18/34/7 17/33/7
f 21/37/1 22/38/1 8/4/1 15/3/1
f 23/41/8 21/42/8 15/40/8 12/39/8
f 22/45/9 24/46/9 11/44/9 8/43/9
f 24/47/3 23/48/3 12/12/3 11/11/3
f 1/51/6 2/52/6 5/50/6 14/49/6
f 3/54/4 1/55/4 14/53/4 16/16/4
f 2/56/2 4/57/2 7/7/2 5/5/2
f 27/60/10 28/61/10 26/59/10 25/58/10
f 29/62/11 30/63/12 16/12/11 7/11/3
f 31/66/13 29/67/13 7/65/13 4/64/13
f 30/70/14 32/71/14 3/69/14 16/68/14
f 32/74/16 31/75/17 4/73/16 3/72/15
f 35/78/1 36/79/1 34/77/1 33/76/1
f 19/82/18 17/83/18 21/81/18 23/80/18
f 18/86/19 20/87/19 24/85/19 22/84/19
f 20/90/3 19/91/3 23/89/3 24/88/3
f 33/94/21 34/95/22 22/93/21 21/92/20
f 35/98/24 33/99/25 21/97/24 17/96/23
f 34/102/27 36/103/28 18/101/27 22/100/26
f 36/106/30 35/107/31 17/105/30 18/104/29
f 36/110/3 35/111/3 33/109/3 34/108/3
f 27/114/32 25/115/32 29/113/32 31/112/32
f 26/118/33 28/119/33 32/117/33 30/116/33
f 28/122/35 27/123/36 31/121/35 32/120/34
f 34/126/38 33/127/39 30/125/38 29/124/37
f 36/130/41 34/131/42 29/129/41 25/128/40
f 33/134/44 35/135/25 26/133/44 30/132/43
f 35/138/46 36/139/47 25/137/46 26/136/45

