# ProBuilder 4.2.3
# https://unity3d.com/unity/features/worldbuilding/probuilder
# 2/16/2021 12:20:37 AM

mtllib ./Tube_to_City.mtl
o Tube_to_City

g Tube to City
v 226.0302 4.911918 76
v 216.2328 -1.7472 76
v 225.9024 5.065786 76
v 216.1051 -1.593332 76
v 216.2328 -1.747194 75
v 216.2328 -1.747211 70
v 216.1051 -1.593332 75.72369
v 216.1051 -1.593357 69.27871
v 216.2328 -1.747213 69
v 226.0302 4.911905 69
v 216.1051 -1.593343 69
v 225.9024 5.065773 69
v 226.0302 4.911906 70
v 226.0302 4.911924 75
v 225.9024 5.065761 69.27871
v 225.9024 5.065786 75.72369
v 225.6866 12.40086 69.27874
v 216.261 5.74173 69.27874
v 225.6866 12.40087 69.00003
v 216.261 5.74174 69.00003
v 226 12.01128 69.27871
v 216.261 5.352163 69.27871
v 226 12.01129 69
v 216.261 5.352172 69
v 215.739 5.747225 75.72369
v 225.2894 12.40635 75.88634
v 215.739 5.747225 76
v 225.2894 12.40635 76.16266
v 215.7986 5.35219 75.72369
v 225.5959 12.0113 75.88634
v 215.7986 5.35219 76
v 225.5959 12.0113 76.16266
v 225.798 12.01127 72.64091
v 216.0931 5.352155 72.64091
v 225.488 12.40358 72.64093
v 216.1067 5.744459 72.64093

vt -1.441235 -0.217547
vt -13.23284 0.9182225
vt -1.441231 -0.01755037
vt -13.23284 1.118219
vt -0.9999975 0.918218
vt -5.999998 0.9181955
vt -0.2763112 1.11821
vt -6.721288 1.118181
vt 13.23284 0.9182032
vt 1.441231 -0.2175667
vt 13.23283 1.1182
vt 1.441227 -0.01757039
vt 6 -0.2175337
vt 0.9999999 -0.21751
vt 6.721291 -0.01754765
vt 0.2763138 -0.01751846
vt 1.432909 -0.2763145
vt 13.27909 -0.2763145
vt 1.43291 -6.721291
vt 13.27909 -6.721291
vt -1.413732 -6.000002
vt -13.25991 -6.000002
vt -1.413734 -1.000002
vt -13.25991 -1.000002
vt -13.25991 -7
vt -1.413733 -7
vt -6.720883 1.119976
vt -5.999592 0.9199902
vt -6.999592 1.119986
vt -6.999592 0.9199888
vt 7.000001 -0.2175398
vt 7.000001 -0.01754356
vt -2.620719 -6.721629
vt 8.91986 -6.72163
vt -2.620713 -7.000338
vt 8.919854 -7.000339
vt 3.070905 5.263556
vt -8.675789 6.362029
vt 7.000001 -0.9495499
vt 6.721292 -0.949562
vt 6.999998 5.996656
vt 6.721288 5.996646
vt -6.721316 -7.836039
vt -7.000025 -7.836025
vt -6.721307 -0.8887684
vt -7.000017 -0.8887593
vt 8.675783 6.362036
vt -3.0709 5.263574
vt -1.413734 -0.999998
vt -13.25991 -0.999998
vt -1.413738 1.955899E-06
vt -13.25992 1.955896E-06
vt 1 -0.2175428
vt 0 -0.01755123
vt 0 -0.2175479
vt 5.047844E-05 0.9180398
vt 5.047843E-05 1.118036
vt 9.381808 -0.2763138
vt -2.260976 -0.1136551
vt 9.381808 0
vt -2.260975 0.1626587
vt 9.031576 6.657497
vt -2.760025 5.521722
vt 0 -7.105652
vt -0.2763138 -7.105652
vt 0 -0.1533716
vt -0.2763138 -0.1533716
vt 0.2763138 -0.8849185
vt 0 -0.8849185
vt 0.1136551 6.067354
vt -0.1626587 6.067353
vt -1.441226 -0.01743988
vt -13.23279 1.118755
vt 2.760444 5.523906
vt -9.031545 6.655657
vt 2.91546 5.392506
vt -8.805029 6.469224
vt 2.927612 5.892345
vt -8.54394 6.762345
vt 6.999942 5.310519
vt 6.721232 5.310501
vt 6.99991 5.810519
vt 6.721201 5.810501
vt -6.721285 -0.6478592
vt -6.999994 -0.6478505
vt -6.721255 -0.2582929
vt -6.999964 -0.2582825
vt 8.675845 6.361374
vt -3.070838 5.262913
vt 8.426974 6.661085
vt -3.078584 5.762853
vt 2.567491 -6.530118
vt -9.230453 -6.530118
vt 2.400714 -3.16598
vt -9.369111 -3.166632
vt 6.854286 5.80568
vt 6.853965 5.30568
vt 3.488707 5.934647
vt 3.48817 5.43468
vt -6.144978 -0.9030549
vt -6.161074 -0.5138212
vt -2.781465 -0.7637073
vt -2.798368 -0.3717673
vt 8.91986 -6.556311
vt -2.620719 -6.55631
vt 9.044354 -3.192882
vt -2.460111 -3.192189
vt 8.805035 6.469165
vt -2.915454 5.392447
vt 8.543945 6.762286
vt -2.927606 5.892286
vt 0 1.029274
vt -0.2763138 1.029274
vt 0 1.428773
vt -0.2763138 1.428773
vt 0.1136621 5.610194
vt -0.1626517 5.610194
vt 0.1136621 6.110192
vt -0.1626517 6.110191
vt 2.762 5.521664
vt -9.030723 6.65744
vt 2.778576 6.021387
vt -8.824197 6.999404
vt -9.632512 0.03235469
vt 2.21366 0.1952473
vt -9.388836 -3.054851
vt 2.38085 -3.051602
vt 0.9294487 1.498014
vt 0.9576085 1.099508
vt -2.162847 1.221811
vt -2.127266 0.8374724
vt 0.2491906 5.609795
vt 0.2500055 6.109792
vt 3.498338 5.480611
vt 3.49892 5.980578
vt -2.257869 0.108682
vt 9.384913 -0.05408014
vt -2.419248 -3.138797
vt 9.08479 -3.142449

vn 0 0 1
vn -0.7693427 -0.6388364 -1.907379E-07
vn 0 0 -1
vn 0.7693281 0.638854 2.373701E-08
vn -0.5621322 0.8270475 -4.574071E-06
vn 0.5621321 -0.8270475 4.711487E-06
vn -0.5770184 0.8167312 6.171216E-05
vn 0.9999014 -0.01404797 -5.639457E-07
vn -0.999748 0.02245129 1.444608E-06
vn -0.5719528 0.8202866 0
vn 0.0003322455 0.01172106 -0.9998625
vn 0.000664491 0.02344213 -0.999725
vn -0.9990278 -0.04408446 0
vn 0.9990279 0.04408463 0
vn 0.01544837 -0.02272871 0.9996223
vn -0.000334197 -0.01171995 0.9997461
vn -0.01611677 -0.0007111895 0.9998699
vn 0.7791468 0.6268417 -1.894272E-05
vn -1 1.862106E-06 -4.933392E-07
vn 0.5641063 -0.8250064 0.03389246
vn 0.5648292 -0.8246175 0.03107199
vn 0.5655521 -0.8242286 0.02825152
vn 0.778343 0.6261913 0.04546192
vn 0.7810575 0.6227258 0.04627964
vn 0.7837721 0.6192603 0.04709736
vn -0.9987546 5.875763E-06 -0.04989547
vn -0.9985508 0.01732221 -0.04787885
vn -0.9983472 0.03463854 -0.04586223
vn -0.5768058 0.8164302 -0.02714375
vn -0.5776414 0.8156927 -0.03098463
vn -0.5784768 0.8149551 -0.03482552
vn -0.988826 -0.1490743 0
vn 0.7900997 0.6129785 2.529925E-06
vn -0.01086923 -0.00843261 0.9999054
vn -0.01313945 -0.005377877 0.999892
vn -0.01540967 -0.002323145 0.9998786
vn 0.5607157 -0.8262733 0.05357693
vn 0.5630714 -0.8251598 0.04439494
vn 0.565427 -0.8240464 0.03521296
vn -0.9820355 -0.1480506 -0.1169931
vn -0.9884549 -0.05676533 -0.106019
vn -0.9948743 0.03451995 -0.09504495
vn 0.7891456 0.6122382 0.04912944
vn 0.7864527 0.6157444 0.04828064
vn -0.5711806 0.8200499 -0.03565063
vn -0.5743025 0.8167611 -0.05262461
vn -0.5774244 0.8134723 -0.0695986

usemtl Wall
f 3/3/1 4/4/1 2/2/1 1/1/1
f 7/7/2 8/8/2 6/6/2 5/5/2
f 11/11/3 12/12/3 10/10/3 9/9/3
f 15/15/4 16/16/4 14/14/4 13/13/4
f 15/19/5 8/20/5 7/18/5 16/17/5
f 14/23/6 5/24/6 6/22/6 13/21/6
f 9/25/6 10/26/6 13/21/6 6/22/6
f 11/29/2 9/30/2 6/28/2 8/27/2
f 10/31/4 12/32/4 15/15/4 13/13/4
f 19/35/7 20/36/7 18/34/7 17/33/7
f 21/37/1 22/38/1 8/4/1 15/3/1
f 23/41/8 21/42/8 15/40/8 12/39/8
f 22/45/9 24/46/9 11/44/9 8/43/9
f 24/47/3 23/48/3 12/12/3 11/11/3
f 1/51/6 2/52/6 5/50/6 14/49/6
f 3/54/4 1/55/4 14/53/4 16/16/4
f 2/56/2 4/57/2 7/7/2 5/5/2
f 27/60/10 28/61/10 26/59/10 25/58/10
f 29/62/11 30/63/12 16/12/11 7/11/3
f 31/66/13 29/67/13 7/65/13 4/64/13
f 30/70/14 32/71/14 3/69/14 16/68/14
f 32/74/16 31/75/17 4/73/16 3/72/15
f 35/78/1 36/79/1 34/77/1 33/76/1
f 19/82/18 17/83/18 21/81/18 23/80/18
f 18/86/19 20/87/19 24/85/19 22/84/19
f 20/90/3 19/91/3 23/89/3 24/88/3
f 33/94/21 34/95/22 22/93/21 21/92/20
f 35/98/24 33/99/25 21/97/24 17/96/23
f 34/102/27 36/103/28 18/101/27 22/100/26
f 36/106/30 35/107/31 17/105/30 18/104/29
f 36/110/3 35/111/3 33/109/3 34/108/3
f 27/114/32 25/115/32 29/113/32 31/112/32
f 26/118/33 28/119/33 32/117/33 30/116/33
f 28/122/35 27/123/36 31/121/35 32/120/34
f 34/126/38 33/127/39 30/125/38 29/124/37
f 36/130/41 34/131/42 29/129/41 25/128/40
f 33/134/44 35/135/25 26/133/44 30/132/43
f 35/138/46 36/139/47 25/137/46 26/136/45

