# This file uses centimeters as units for non-parametric coordinates.

mtllib bloodpool.mtl
g default
v 0.951057 -0.050000 -0.309017
v 0.809018 -0.050000 -0.587786
v 0.587786 -0.050000 -0.809017
v 0.309017 -0.050000 -0.951057
v 0.000000 -0.050000 -1.000000
v -0.309017 -0.050000 -0.951057
v -0.587785 -0.050000 -0.809017
v -0.809017 -0.050000 -0.587785
v -0.951057 -0.050000 -0.309017
v -1.000000 -0.050000 0.000000
v -0.951057 -0.050000 0.309017
v -0.809017 -0.050000 0.587785
v -0.587785 -0.050000 0.809017
v -0.309017 -0.050000 0.951057
v -0.000000 -0.050000 1.000000
v 0.309017 -0.050000 0.951057
v 0.587785 -0.050000 0.809017
v 0.809017 -0.050000 0.587785
v 0.951057 -0.050000 0.309017
v 1.000000 -0.050000 0.000000
v 0.951057 -0.030000 -0.309017
v 0.809018 -0.030000 -0.587786
v 0.587786 -0.030000 -0.809017
v 0.309017 -0.030000 -0.951057
v 0.000000 -0.030000 -1.000000
v -0.309017 -0.030000 -0.951057
v -0.587785 -0.030000 -0.809017
v -0.809017 -0.030000 -0.587785
v -0.951057 -0.030000 -0.309017
v -1.000000 -0.030000 0.000000
v -0.951057 -0.030000 0.309017
v -0.809017 -0.030000 0.587785
v -0.587785 -0.030000 0.809017
v -0.309017 -0.030000 0.951057
v -0.000000 -0.030000 1.000000
v 0.309017 -0.030000 0.951057
v 0.587785 -0.030000 0.809017
v 0.809017 -0.030000 0.587785
v 0.951057 -0.030000 0.309017
v 1.000000 -0.030000 0.000000
v 0.878731 -0.010000 -0.285517
v 0.747493 -0.010000 -0.543086
v 0.543086 -0.010000 -0.747493
v 0.285517 -0.010000 -0.878731
v -0.000000 -0.010000 -0.923953
v -0.285517 -0.010000 -0.878731
v -0.543086 -0.010000 -0.747493
v -0.747493 -0.010000 -0.543086
v -0.878731 -0.010000 -0.285517
v -0.923952 -0.010000 -0.000000
v -0.878731 -0.010000 0.285517
v -0.747493 -0.010000 0.543086
v -0.543086 -0.010000 0.747493
v -0.285517 -0.010000 0.878731
v -0.000000 -0.010000 0.923952
v 0.285517 -0.010000 0.878731
v 0.543085 -0.010000 0.747493
v 0.747493 -0.010000 0.543085
v 0.878731 -0.010000 0.285517
v 0.923952 -0.010000 -0.000000
v 0.734562 0.010000 -0.238674
v 0.624855 0.010000 -0.453984
v 0.453984 0.010000 -0.624855
v 0.238673 0.010000 -0.734562
v -0.000000 0.010000 -0.772364
v -0.238674 0.010000 -0.734562
v -0.453984 0.010000 -0.624855
v -0.624855 0.010000 -0.453984
v -0.734561 0.010000 -0.238673
v -0.772363 0.010000 -0.000000
v -0.734561 0.010000 0.238673
v -0.624855 0.010000 0.453984
v -0.453984 0.010000 0.624855
v -0.238673 0.010000 0.734561
v -0.000000 0.010000 0.772363
v 0.238673 0.010000 0.734561
v 0.453984 0.010000 0.624855
v 0.624855 0.010000 0.453984
v 0.734561 0.010000 0.238673
v 0.772363 0.010000 -0.000000
v 0.472170 0.030000 -0.153417
v 0.401652 0.030000 -0.291817
v 0.291817 0.030000 -0.401652
v 0.153417 0.030000 -0.472170
v -0.000000 0.030000 -0.496469
v -0.153417 0.030000 -0.472170
v -0.291817 0.030000 -0.401652
v -0.401652 0.030000 -0.291817
v -0.472170 0.030000 -0.153417
v -0.496469 0.030000 -0.000000
v -0.472170 0.030000 0.153417
v -0.401652 0.030000 0.291817
v -0.291817 0.030000 0.401651
v -0.153417 0.030000 0.472169
v -0.000000 0.030000 0.496468
v 0.153417 0.030000 0.472169
v 0.291817 0.030000 0.401651
v 0.401651 0.030000 0.291817
v 0.472169 0.030000 0.153417
v 0.496468 0.030000 -0.000000
v 0.226079 0.050000 -0.073458
v 0.192314 0.050000 -0.139725
v 0.139724 0.050000 -0.192314
v 0.073457 0.050000 -0.226079
v -0.000000 0.050000 -0.237714
v -0.073458 0.050000 -0.226079
v -0.139725 0.050000 -0.192314
v -0.192314 0.050000 -0.139725
v -0.226079 0.050000 -0.073458
v -0.237713 0.050000 -0.000000
v -0.226079 0.050000 0.073457
v -0.192314 0.050000 0.139724
v -0.139725 0.050000 0.192314
v -0.073458 0.050000 0.226079
v -0.000000 0.050000 0.237713
v 0.073457 0.050000 0.226079
v 0.139724 0.050000 0.192314
v 0.192314 0.050000 0.139724
v 0.226079 0.050000 0.073457
v 0.237713 0.050000 -0.000000
v 0.000000 -0.050000 0.000000
v -0.000000 0.050000 -0.000000
vt 0.270175 0.048943
vt 0.142040 0.142039
vt 0.048943 0.270175
vt 0.000000 0.420808
vt 0.000000 0.579192
vt 0.048943 0.729825
vt 0.142040 0.857960
vt 0.270175 0.951056
vt 0.420808 1.000000
vt 0.579192 1.000000
vt 0.729825 0.951056
vt 0.857960 0.857960
vt 0.951056 0.729825
vt 1.000000 0.579192
vt 1.000000 0.420808
vt 0.951056 0.270175
vt 0.857960 0.142040
vt 0.729825 0.048943
vt 0.579192 0.000000
vt 0.420808 0.000000
vt 0.792339 0.256410
vt 0.841057 0.256410
vt 0.841057 0.743590
vt 0.792339 0.743590
vt 0.889775 0.256410
vt 0.889775 0.743590
vt 0.938493 0.743590
vt 0.012852 0.256410
vt 0.012852 0.743590
vt 0.061570 0.256410
vt 0.061570 0.743590
vt 0.110288 0.256410
vt 0.110288 0.743590
vt 0.159006 0.256410
vt 0.159006 0.743590
vt 0.207724 0.256410
vt 0.207724 0.743590
vt 0.256442 0.256410
vt 0.256442 0.743590
vt 0.305160 0.256410
vt 0.305160 0.743590
vt 0.353878 0.256410
vt 0.353878 0.743590
vt 0.402596 0.256410
vt 0.402596 0.743590
vt 0.451314 0.256410
vt 0.451314 0.743590
vt 0.500032 0.256410
vt 0.500032 0.743590
vt 0.548750 0.256410
vt 0.548750 0.743590
vt 0.597468 0.256410
vt 0.597468 0.743590
vt 0.646186 0.256410
vt 0.646186 0.743590
vt 0.694904 0.256410
vt 0.694904 0.743590
vt 0.743621 0.256410
vt 0.743621 0.743590
vt 0.500000 0.500000
vt 0.500000 0.500000
vt 0.975529 0.654508
vt 0.904509 0.793893
vt 0.873747 0.771543
vt 0.939366 0.642758
vt 0.793893 0.904509
vt 0.771543 0.873747
vt 0.654509 0.975528
vt 0.642759 0.939365
vt 0.500000 1.000000
vt 0.500000 0.961976
vt 0.345492 0.975528
vt 0.357242 0.939365
vt 0.206107 0.904508
vt 0.228457 0.873746
vt 0.095492 0.793893
vt 0.126254 0.771543
vt 0.024472 0.654508
vt 0.060635 0.642758
vt 0.000000 0.500000
vt 0.038024 0.500000
vt 0.024472 0.345491
vt 0.060635 0.357241
vt 0.095492 0.206107
vt 0.126254 0.228457
vt 0.206107 0.095491
vt 0.228457 0.126253
vt 0.345492 0.024472
vt 0.357242 0.060635
vt 0.500000 -0.000000
vt 0.500000 0.038024
vt 0.654509 0.024472
vt 0.642758 0.060635
vt 0.793893 0.095491
vt 0.771543 0.126253
vt 0.904509 0.206107
vt 0.873747 0.228457
vt 0.975528 0.345491
vt 0.939365 0.357241
vt 1.000000 0.500000
vt 0.961976 0.500000
vt 0.812428 0.726992
vt 0.867281 0.619337
vt 0.726992 0.812428
vt 0.619337 0.867281
vt 0.500000 0.886182
vt 0.380663 0.867280
vt 0.273008 0.812428
vt 0.187573 0.726992
vt 0.132719 0.619337
vt 0.113818 0.500000
vt 0.132719 0.380663
vt 0.187573 0.273008
vt 0.273008 0.187572
vt 0.380663 0.132719
vt 0.500000 0.113818
vt 0.619337 0.132719
vt 0.726992 0.187572
vt 0.812428 0.273008
vt 0.867281 0.380663
vt 0.886182 0.500000
vt 0.700826 0.645908
vt 0.736085 0.576709
vt 0.645909 0.700826
vt 0.576709 0.736085
vt 0.500000 0.748234
vt 0.423291 0.736085
vt 0.354092 0.700826
vt 0.299174 0.645908
vt 0.263915 0.576709
vt 0.251766 0.500000
vt 0.263915 0.423291
vt 0.299174 0.354092
vt 0.354092 0.299174
vt 0.423292 0.263915
vt 0.500000 0.251766
vt 0.576709 0.263915
vt 0.645908 0.299174
vt 0.700826 0.354092
vt 0.736085 0.423291
vt 0.748234 0.500000
vt 0.596157 0.569862
vt 0.613040 0.536729
vt 0.569862 0.596157
vt 0.536729 0.613039
vt 0.500000 0.618857
vt 0.463271 0.613039
vt 0.430138 0.596157
vt 0.403843 0.569862
vt 0.386961 0.536729
vt 0.381143 0.500000
vt 0.386961 0.463271
vt 0.403843 0.430138
vt 0.430138 0.403843
vt 0.463271 0.386961
vt 0.500000 0.381143
vt 0.536729 0.386961
vt 0.569862 0.403843
vt 0.596157 0.430138
vt 0.613039 0.463271
vt 0.618857 0.500000
vt 0.938493 0.256410
vt 0.987211 0.256410
vt 0.987211 0.743590
vn 0.042228 -0.999014 -0.013721
vn 0.035921 -0.999014 -0.026098
vn 0.398309 0.870405 -0.289388
vn 0.468240 0.870405 -0.152140
vn 0.026098 -0.999014 -0.035921
vn 0.289388 0.870405 -0.398309
vn 0.013721 -0.999014 -0.042227
vn 0.152140 0.870405 -0.468240
vn -0.000000 -0.999014 -0.044401
vn -0.000000 0.870405 -0.492337
vn -0.013721 -0.999014 -0.042227
vn -0.152140 0.870405 -0.468240
vn -0.026098 -0.999014 -0.035921
vn -0.289388 0.870405 -0.398309
vn -0.035921 -0.999014 -0.026098
vn -0.398309 0.870405 -0.289388
vn -0.042227 -0.999014 -0.013721
vn -0.468240 0.870405 -0.152140
vn -0.044401 -0.999014 0.000000
vn -0.492337 0.870405 -0.000000
vn -0.042227 -0.999014 0.013721
vn -0.468240 0.870405 0.152141
vn -0.035921 -0.999014 0.026098
vn -0.398309 0.870405 0.289388
vn -0.026098 -0.999014 0.035921
vn -0.289388 0.870405 0.398309
vn -0.013721 -0.999014 0.042227
vn -0.152140 0.870405 0.468240
vn 0.000000 -0.999014 0.044401
vn 0.000000 0.870405 0.492337
vn 0.013721 -0.999014 0.042227
vn 0.152140 0.870405 0.468240
vn 0.026098 -0.999014 0.035921
vn 0.289388 0.870405 0.398309
vn 0.035921 -0.999014 0.026098
vn 0.398309 0.870405 0.289388
vn 0.042227 -0.999014 0.013721
vn 0.468240 0.870405 0.152140
vn 0.044401 -0.999014 0.000000
vn 0.492336 0.870405 0.000000
vn 0.147607 0.983215 -0.107242
vn 0.173522 0.983215 -0.056380
vn 0.107242 0.983215 -0.147607
vn 0.056381 0.983215 -0.173522
vn -0.000000 0.983215 -0.182452
vn -0.056381 0.983215 -0.173522
vn -0.107243 0.983215 -0.147607
vn -0.147607 0.983215 -0.107242
vn -0.173522 0.983215 -0.056381
vn -0.182452 0.983215 -0.000000
vn -0.173522 0.983215 0.056381
vn -0.147607 0.983215 0.107243
vn -0.107242 0.983215 0.147607
vn -0.056381 0.983215 0.173522
vn 0.000000 0.983215 0.182452
vn 0.056381 0.983215 0.173522
vn 0.107242 0.983215 0.147607
vn 0.147607 0.983215 0.107242
vn 0.173522 0.983215 0.056381
vn 0.182452 0.983215 0.000000
vn 0.080976 0.994978 -0.058832
vn 0.095193 0.994978 -0.030930
vn 0.058832 0.994978 -0.080976
vn 0.030930 0.994978 -0.095193
vn -0.000000 0.994978 -0.100092
vn -0.030930 0.994978 -0.095193
vn -0.058832 0.994978 -0.080976
vn -0.080976 0.994978 -0.058832
vn -0.095193 0.994978 -0.030930
vn -0.100092 0.994978 0.000000
vn -0.095193 0.994978 0.030930
vn -0.080976 0.994978 0.058832
vn -0.058832 0.994978 0.080976
vn -0.030930 0.994978 0.095193
vn 0.000000 0.994978 0.100092
vn 0.030930 0.994978 0.095193
vn 0.058832 0.994978 0.080976
vn 0.080976 0.994978 0.058832
vn 0.095193 0.994978 0.030930
vn 0.100092 0.994978 0.000000
vn 0.059679 0.997275 -0.043359
vn 0.070156 0.997276 -0.022795
vn 0.043359 0.997276 -0.059679
vn 0.022795 0.997276 -0.070156
vn 0.000000 0.997276 -0.073767
vn -0.022795 0.997276 -0.070156
vn -0.043359 0.997276 -0.059679
vn -0.059679 0.997276 -0.043359
vn -0.070157 0.997276 -0.022795
vn -0.073767 0.997275 0.000000
vn -0.070156 0.997276 0.022795
vn -0.059679 0.997276 0.043359
vn -0.043359 0.997276 0.059679
vn -0.022795 0.997276 0.070156
vn -0.000000 0.997276 0.073767
vn 0.022795 0.997276 0.070156
vn 0.043359 0.997276 0.059679
vn 0.059679 0.997276 0.043359
vn 0.070156 0.997276 0.022795
vn 0.073767 0.997276 0.000000
vn 0.050192 0.998074 -0.036467
vn 0.059005 0.998074 -0.019172
vn 0.036467 0.998074 -0.050192
vn 0.019172 0.998074 -0.059005
vn 0.000000 0.998074 -0.062041
vn -0.019172 0.998074 -0.059005
vn -0.036467 0.998074 -0.050192
vn -0.050192 0.998074 -0.036467
vn -0.059005 0.998074 -0.019172
vn -0.062041 0.998074 -0.000000
vn -0.059005 0.998074 0.019172
vn -0.050192 0.998074 0.036467
vn -0.036467 0.998074 0.050192
vn -0.019172 0.998074 0.059005
vn -0.000000 0.998074 0.062041
vn 0.019172 0.998074 0.059005
vn 0.036467 0.998074 0.050192
vn 0.050192 0.998074 0.036467
vn 0.059005 0.998074 0.019172
vn 0.062041 0.998074 0.000000
vn 0.000000 -1.000000 0.000000
vn 0.000000 1.000000 -0.000000
s 1
g pCylinder2
usemtl bloodpool
f 1/21/1 2/22/2 22/23/3 21/24/4
f 2/22/2 3/25/5 23/26/6 22/23/3
f 3/25/5 4/162/7 24/27/8 23/26/6
f 4/162/7 5/163/9 25/164/10 24/27/8
f 5/28/9 6/30/11 26/31/12 25/29/10
f 6/30/11 7/32/13 27/33/14 26/31/12
f 7/32/13 8/34/15 28/35/16 27/33/14
f 8/34/15 9/36/17 29/37/18 28/35/16
f 9/36/17 10/38/19 30/39/20 29/37/18
f 10/38/19 11/40/21 31/41/22 30/39/20
f 11/40/21 12/42/23 32/43/24 31/41/22
f 12/42/23 13/44/25 33/45/26 32/43/24
f 13/44/25 14/46/27 34/47/28 33/45/26
f 14/46/27 15/48/29 35/49/30 34/47/28
f 15/48/29 16/50/31 36/51/32 35/49/30
f 16/50/31 17/52/33 37/53/34 36/51/32
f 17/52/33 18/54/35 38/55/36 37/53/34
f 18/54/35 19/56/37 39/57/38 38/55/36
f 19/56/37 20/58/39 40/59/40 39/57/38
f 20/58/39 1/21/1 21/24/4 40/59/40
f 21/62/4 22/63/3 42/64/41 41/65/42
f 22/63/3 23/66/6 43/67/43 42/64/41
f 23/66/6 24/68/8 44/69/44 43/67/43
f 24/68/8 25/70/10 45/71/45 44/69/44
f 25/70/10 26/72/12 46/73/46 45/71/45
f 26/72/12 27/74/14 47/75/47 46/73/46
f 27/74/14 28/76/16 48/77/48 47/75/47
f 28/76/16 29/78/18 49/79/49 48/77/48
f 29/78/18 30/80/20 50/81/50 49/79/49
f 30/80/20 31/82/22 51/83/51 50/81/50
f 31/82/22 32/84/24 52/85/52 51/83/51
f 32/84/24 33/86/26 53/87/53 52/85/52
f 33/86/26 34/88/28 54/89/54 53/87/53
f 34/88/28 35/90/30 55/91/55 54/89/54
f 35/90/30 36/92/32 56/93/56 55/91/55
f 36/92/32 37/94/34 57/95/57 56/93/56
f 37/94/34 38/96/36 58/97/58 57/95/57
f 38/96/36 39/98/38 59/99/59 58/97/58
f 39/98/38 40/100/40 60/101/60 59/99/59
f 40/100/40 21/62/4 41/65/42 60/101/60
f 41/65/42 42/64/41 62/102/61 61/103/62
f 42/64/41 43/67/43 63/104/63 62/102/61
f 43/67/43 44/69/44 64/105/64 63/104/63
f 44/69/44 45/71/45 65/106/65 64/105/64
f 45/71/45 46/73/46 66/107/66 65/106/65
f 46/73/46 47/75/47 67/108/67 66/107/66
f 47/75/47 48/77/48 68/109/68 67/108/67
f 48/77/48 49/79/49 69/110/69 68/109/68
f 49/79/49 50/81/50 70/111/70 69/110/69
f 50/81/50 51/83/51 71/112/71 70/111/70
f 51/83/51 52/85/52 72/113/72 71/112/71
f 52/85/52 53/87/53 73/114/73 72/113/72
f 53/87/53 54/89/54 74/115/74 73/114/73
f 54/89/54 55/91/55 75/116/75 74/115/74
f 55/91/55 56/93/56 76/117/76 75/116/75
f 56/93/56 57/95/57 77/118/77 76/117/76
f 57/95/57 58/97/58 78/119/78 77/118/77
f 58/97/58 59/99/59 79/120/79 78/119/78
f 59/99/59 60/101/60 80/121/80 79/120/79
f 60/101/60 41/65/42 61/103/62 80/121/80
f 61/103/62 62/102/61 82/122/81 81/123/82
f 62/102/61 63/104/63 83/124/83 82/122/81
f 63/104/63 64/105/64 84/125/84 83/124/83
f 64/105/64 65/106/65 85/126/85 84/125/84
f 65/106/65 66/107/66 86/127/86 85/126/85
f 66/107/66 67/108/67 87/128/87 86/127/86
f 67/108/67 68/109/68 88/129/88 87/128/87
f 68/109/68 69/110/69 89/130/89 88/129/88
f 69/110/69 70/111/70 90/131/90 89/130/89
f 70/111/70 71/112/71 91/132/91 90/131/90
f 71/112/71 72/113/72 92/133/92 91/132/91
f 72/113/72 73/114/73 93/134/93 92/133/92
f 73/114/73 74/115/74 94/135/94 93/134/93
f 74/115/74 75/116/75 95/136/95 94/135/94
f 75/116/75 76/117/76 96/137/96 95/136/95
f 76/117/76 77/118/77 97/138/97 96/137/96
f 77/118/77 78/119/78 98/139/98 97/138/97
f 78/119/78 79/120/79 99/140/99 98/139/98
f 79/120/79 80/121/80 100/141/100 99/140/99
f 80/121/80 61/103/62 81/123/82 100/141/100
f 81/123/82 82/122/81 102/142/101 101/143/102
f 82/122/81 83/124/83 103/144/103 102/142/101
f 83/124/83 84/125/84 104/145/104 103/144/103
f 84/125/84 85/126/85 105/146/105 104/145/104
f 85/126/85 86/127/86 106/147/106 105/146/105
f 86/127/86 87/128/87 107/148/107 106/147/106
f 87/128/87 88/129/88 108/149/108 107/148/107
f 88/129/88 89/130/89 109/150/109 108/149/108
f 89/130/89 90/131/90 110/151/110 109/150/109
f 90/131/90 91/132/91 111/152/111 110/151/110
f 91/132/91 92/133/92 112/153/112 111/152/111
f 92/133/92 93/134/93 113/154/113 112/153/112
f 93/134/93 94/135/94 114/155/114 113/154/113
f 94/135/94 95/136/95 115/156/115 114/155/114
f 95/136/95 96/137/96 116/157/116 115/156/115
f 96/137/96 97/138/97 117/158/117 116/157/116
f 97/138/97 98/139/98 118/159/118 117/158/117
f 98/139/98 99/140/99 119/160/119 118/159/118
f 99/140/99 100/141/100 120/161/120 119/160/119
f 100/141/100 81/123/82 101/143/102 120/161/120
f 2/2/2 1/1/1 121/60/121
f 3/3/5 2/2/2 121/60/121
f 4/4/7 3/3/5 121/60/121
f 5/5/9 4/4/7 121/60/121
f 6/6/11 5/5/9 121/60/121
f 7/7/13 6/6/11 121/60/121
f 8/8/15 7/7/13 121/60/121
f 9/9/17 8/8/15 121/60/121
f 10/10/19 9/9/17 121/60/121
f 11/11/21 10/10/19 121/60/121
f 12/12/23 11/11/21 121/60/121
f 13/13/25 12/12/23 121/60/121
f 14/14/27 13/13/25 121/60/121
f 15/15/29 14/14/27 121/60/121
f 16/16/31 15/15/29 121/60/121
f 17/17/33 16/16/31 121/60/121
f 18/18/35 17/17/33 121/60/121
f 19/19/37 18/18/35 121/60/121
f 20/20/39 19/19/37 121/60/121
f 1/1/1 20/20/39 121/60/121
f 101/143/102 102/142/101 122/61/122
f 102/142/101 103/144/103 122/61/122
f 103/144/103 104/145/104 122/61/122
f 104/145/104 105/146/105 122/61/122
f 105/146/105 106/147/106 122/61/122
f 106/147/106 107/148/107 122/61/122
f 107/148/107 108/149/108 122/61/122
f 108/149/108 109/150/109 122/61/122
f 109/150/109 110/151/110 122/61/122
f 110/151/110 111/152/111 122/61/122
f 111/152/111 112/153/112 122/61/122
f 112/153/112 113/154/113 122/61/122
f 113/154/113 114/155/114 122/61/122
f 114/155/114 115/156/115 122/61/122
f 115/156/115 116/157/116 122/61/122
f 116/157/116 117/158/117 122/61/122
f 117/158/117 118/159/118 122/61/122
f 118/159/118 119/160/119 122/61/122
f 119/160/119 120/161/120 122/61/122
f 120/161/120 101/143/102 122/61/122
