# This file uses centimeters as units for non-parametric coordinates.

mtllib bulldemon_UPDATED.mtl
g default
v -41.552381 14.624819 -4.223521
v -13.352826 14.624819 -4.223521
v -33.834134 19.955773 -4.901224
v -17.316895 19.955773 -4.901224
v -33.834134 19.955773 -12.774421
v -17.316895 19.955773 -12.774421
v -41.552381 14.624819 -15.019171
v -13.352826 14.624819 -15.019171
v -33.411312 -0.614348 -12.570342
v -16.732677 -0.614348 -12.570342
v -16.732677 -0.614348 -4.972314
v -33.411312 -0.614348 -4.972314
v -32.503284 -0.614377 -11.847484
v -17.640705 -0.614377 -11.847484
v -17.640705 -0.614377 -5.695171
v -32.503284 -0.614377 -5.695171
v -30.268074 -16.309195 -9.992379
v -27.476688 -21.555548 -9.992379
v -27.476688 -21.555548 -7.550276
v -30.268074 -16.309195 -7.550276
vt 0.355683 0.015333
vt 0.387818 0.117967
vt 0.245360 0.157206
vt 0.219747 0.062961
vt 0.411952 0.030885
vt 0.436028 0.143892
vt 0.387818 0.337083
vt 0.355683 0.439717
vt 0.219748 0.392090
vt 0.245360 0.297844
vt 0.436028 0.311159
vt 0.411952 0.424166
vt 0.214559 0.074275
vt 0.235483 0.157611
vt 0.086899 0.185797
vt 0.072310 0.122635
vt 0.235483 0.297440
vt 0.214559 0.380775
vt 0.072310 0.332415
vt 0.086899 0.269253
vt 0.518287 0.155093
vt 0.518287 0.299958
vt 0.547996 0.103862
vt 0.547996 0.351188
vt 0.024533 0.268266
vt 0.024533 0.186784
vt 0.691653 0.300665
vt 0.701219 0.292702
vt 0.691652 0.154385
vt 0.701219 0.162349
vt 0.851161 0.186784
vt 0.851161 0.268266
vn 0.000000 -0.019412 0.999812
vn 0.000000 -0.014116 0.999900
vn 0.000000 0.126111 0.992016
vn 0.000000 0.126111 0.992016
vn 0.000000 1.000000 0.000000
vn 0.000000 1.000000 0.000000
vn 0.000000 1.000000 0.000000
vn 0.000000 1.000000 0.000000
vn 0.000000 0.388077 -0.921627
vn 0.000000 0.388077 -0.921627
vn 0.000000 0.388077 -0.921627
vn 0.000000 0.388077 -0.921627
vn -0.882818 -0.469714 0.000000
vn -0.882818 -0.469714 0.000000
vn -0.882818 -0.469714 0.000000
vn -0.882818 -0.469714 0.000000
vn 0.802460 0.596705 0.000000
vn 0.802460 0.596705 0.000000
vn 0.802460 0.596705 0.000000
vn 0.802460 0.596705 0.000000
vn -0.568312 0.822813 0.000000
vn -0.568312 0.822813 0.000000
vn -0.568312 0.822813 0.000000
vn -0.568312 0.822813 0.000000
vn 0.000000 -0.158658 -0.987334
vn 0.000000 -0.158658 -0.987334
vn 0.000000 -0.174490 -0.984659
vn 0.000000 -0.172518 -0.985006
vn 0.976277 -0.216526 0.000000
vn 0.976277 -0.216526 0.000000
vn 0.972241 -0.233982 0.000000
vn 0.972590 -0.232526 0.000000
vn 0.000000 -0.063396 0.997989
vn 0.000000 -0.065470 0.997854
vn -0.882028 -0.471197 0.000000
vn -0.882028 -0.471197 0.000000
vn -0.875591 -0.483054 0.000000
vn -0.875045 -0.484041 0.000000
vn 0.000000 -1.000000 -0.000041
vn 0.000000 -1.000000 -0.000041
vn 0.000032 -1.000000 0.000000
vn 0.000032 -1.000000 0.000000
vn 0.000000 -1.000000 0.000042
vn 0.000000 -1.000000 0.000042
vn -0.000032 -1.000000 0.000000
vn -0.000032 -1.000000 0.000000
vn -0.028209 -0.094922 -0.995085
vn -0.028209 -0.094922 -0.995085
vn -0.028209 -0.094922 -0.995085
vn -0.028209 -0.094922 -0.995085
vn 0.905130 -0.425136 0.000000
vn 0.905130 -0.425136 0.000000
vn 0.905130 -0.425136 0.000000
vn 0.905130 -0.425136 0.000000
vn -0.028209 -0.094922 0.995085
vn -0.028209 -0.094922 0.995085
vn -0.028209 -0.094922 0.995085
vn -0.028209 -0.094922 0.995085
vn -0.990010 -0.140994 0.000000
vn -0.990010 -0.140994 0.000000
vn -0.990010 -0.140994 0.000000
vn -0.990010 -0.140994 0.000000
s 1
g evenmoredemons:bulldemonbody
usemtl initialShadingGroup
f 1/7/1 2/2/2 4/6/3 3/11/4
s off
f 3/11/5 4/6/6 6/21/7 5/22/8
f 5/22/9 6/21/10 8/23/11 7/24/12
f 17/25/13 18/26/14 19/15/15 20/20/16
f 2/2/17 8/1/18 6/5/19 4/6/20
f 7/8/21 1/7/22 3/11/23 5/12/24
s 2
f 7/24/25 8/23/26 10/29/27 9/27/28
s 3
f 8/1/29 2/2/30 11/3/31 10/4/32
s 1
f 2/2/2 1/7/1 12/10/33 11/3/34
s 4
f 1/7/35 7/8/36 9/9/37 12/10/38
s 2
f 9/27/28 10/29/27 14/30/39 13/28/40
s 3
f 10/4/32 11/3/31 15/14/41 14/13/42
s 1
f 11/3/34 12/10/33 16/17/43 15/14/44
s 4
f 12/10/38 9/9/37 13/18/45 16/17/46
s off
f 13/28/47 14/30/48 18/31/49 17/32/50
f 14/13/51 15/14/52 19/15/53 18/16/54
f 15/14/55 16/17/56 20/20/57 19/15/58
f 16/17/59 13/18/60 17/19/61 20/20/62
g default
v -33.405749 27.051888 6.087718
v -22.838508 29.858471 6.087718
v -32.409930 31.063663 4.121247
v -25.356354 33.244496 4.121247
v -32.006616 29.103353 -1.298647
v -24.953040 31.284182 -1.298647
v -32.914516 24.664222 -0.513723
v -22.347270 27.470806 -0.513723
v -27.508804 14.769455 4.061186
v -23.259747 15.526171 4.061186
v -23.502927 16.708147 7.329126
v -27.751983 15.951430 7.329126
v -21.382342 27.642650 -0.513724
v -21.873580 30.030314 6.087717
v -22.231298 31.768899 -1.298649
v -22.634612 33.729212 4.121244
v -34.034037 24.295563 -0.562949
v -34.461607 26.693448 6.038559
v -35.403118 30.357866 4.073646
v -35.052075 28.389166 -1.346301
v -11.174807 27.657589 1.981158
v -11.266279 28.381593 3.729354
v -10.520049 28.944105 1.725889
v -10.595147 29.538512 3.161191
v -44.107529 22.199815 1.937983
v -44.242512 22.843078 3.700905
v -44.973981 23.965941 3.130784
v -44.863155 23.437814 1.683395
v -37.498219 24.018947 0.177159
v -37.884203 25.842146 5.186317
v -39.025049 28.605147 3.678334
v -38.708149 27.108263 -0.434269
v -40.784259 23.235946 1.033211
v -42.011815 25.247118 0.619628
v -42.219533 26.236983 3.332468
v -41.037252 24.441597 4.337462
v -17.521415 28.557018 0.322064
v -17.546541 31.653632 -0.321763
v -18.173145 33.174465 3.656994
v -18.284622 30.409393 5.168203
v -13.788870 28.216310 1.148890
v -13.943308 29.438712 4.100534
v -12.938912 31.139053 3.191447
v -12.812115 30.135447 0.768092
v -22.243377 27.176188 -0.696498
v -22.779453 29.783223 6.334712
v -21.462050 27.315335 -0.696498
v -21.998121 29.922371 6.334712
v -24.689276 31.475729 -1.565409
v -22.485410 31.868216 -1.565409
v -25.137426 33.655413 4.284255
v -22.933560 34.047901 4.284255
v -32.894119 24.354734 -0.696498
v -33.430764 26.961668 6.334712
v -34.212093 26.822521 6.334712
v -33.675443 24.215587 -0.696498
v -32.776484 31.370311 4.284255
v -34.980354 30.977823 4.284255
v -32.327761 29.190734 -1.565409
v -34.531630 28.798246 -1.565409
v -34.486824 23.852702 -0.729363
v -34.948481 26.472760 6.301954
v -37.404490 25.894942 5.522676
v -36.947476 23.756973 -0.105449
v -36.035126 30.611304 4.245606
v -38.797451 29.227587 3.900893
v -35.650354 28.420312 -1.604210
v -38.409178 27.416117 -0.830623
v -21.550553 32.014759 -1.567306
v -21.162833 27.345983 -0.672967
v -18.254100 31.919085 -0.710619
v -18.312755 28.113148 0.030857
v -21.771171 34.266921 4.267553
v -18.858615 33.772552 3.905522
v -21.424442 30.040614 6.341662
v -19.031122 30.298704 5.517659
v -17.831067 30.233323 5.369151
v -17.123090 28.041517 -0.032124
v -14.033017 27.831729 0.866486
v -14.192394 29.401574 4.446848
v -17.062240 31.566501 -0.783276
v -12.727716 30.331911 0.371156
v -17.656552 33.418748 3.749850
v -12.859252 31.682857 3.423200
v -37.610298 23.542773 -0.048495
v -38.058265 25.649553 5.520496
v -40.839549 24.397412 4.691084
v -40.501896 22.877956 0.757274
v -39.449629 28.972025 3.900757
v -42.393963 26.746328 3.571066
v -39.070913 27.191503 -0.771704
v -42.101433 25.442758 0.228678
vt 0.236140 0.676293
vt 0.190309 0.696011
vt 0.180892 0.677976
vt 0.219841 0.662482
vt 0.219764 0.975047
vt 0.177252 0.948989
vt 0.195445 0.937816
vt 0.231732 0.958473
vt 0.960272 0.507961
vt 0.839668 0.560382
vt 0.783449 0.393998
vt 0.843152 0.368048
vt 0.698175 0.558868
vt 0.570790 0.523834
vt 0.664848 0.380719
vt 0.727908 0.398062
vt 0.256811 0.489501
vt 0.010449 0.530775
vt 0.010224 0.538377
vt 0.253683 0.490670
vt 0.065217 0.498794
vt 0.062767 0.504898
vt 0.195465 0.468553
vt 0.199636 0.473800
vt 0.072686 0.537799
vt 0.018093 0.555433
vt 0.414894 0.541781
vt 0.068346 0.533941
vt 0.256570 0.504723
vt 0.254105 0.501041
vt 0.197628 0.509339
vt 0.200354 0.503498
vt 0.024829 0.779264
vt 0.182501 0.760415
vt 0.185514 0.761926
vt 0.018582 0.782996
vt 0.246279 0.748500
vt 0.241630 0.753196
vt 0.370400 0.794801
vt 0.372099 0.801197
vt 0.238652 0.788222
vt 0.181257 0.775589
vt 0.184123 0.772239
vt 0.236702 0.782095
vt 0.023992 0.796993
vt 0.416317 0.851923
vt 0.359280 0.833295
vt 0.364066 0.830047
vt 0.322516 0.650561
vt 0.252089 0.619815
vt 0.249068 0.614290
vt 0.333734 0.649877
vt 0.211698 0.627025
vt 0.214972 0.619713
vt 0.144865 0.650356
vt 0.135436 0.647828
vt 0.055439 0.617237
vt 0.098821 0.592315
vt 0.097262 0.599142
vt 0.056159 0.629503
vt 0.200124 0.563612
vt 0.205251 0.568528
vt 0.258026 0.559825
vt 0.253832 0.562433
vt 0.171343 0.880733
vt 0.294996 0.957269
vt 0.307681 0.957800
vt 0.175275 0.875935
vt 0.281128 0.928161
vt 0.290528 0.926737
vt 0.212084 0.894516
vt 0.209696 0.886879
vt 0.173357 0.826603
vt 0.230084 0.838461
vt 0.224378 0.842616
vt 0.177297 0.829533
vt 0.328332 0.880842
vt 0.329163 0.887734
vt 0.046882 0.848092
vt 0.038566 0.855387
vt 0.725037 0.618898
vt 0.820644 0.623062
vt 0.812041 0.726262
vt 0.716434 0.722098
vt 0.722872 0.335825
vt 0.778413 0.331762
vt 0.415614 0.530762
vt 0.017976 0.793951
vt 0.385911 0.604658
vt 0.078024 0.900938
vt 0.019138 0.806133
vt 0.182541 0.781985
vt 0.176704 0.819284
vt 0.037960 0.841498
vt 0.234485 0.795373
vt 0.358456 0.842042
vt 0.337367 0.875770
vt 0.228232 0.829518
vt 0.088748 0.903154
vt 0.171433 0.930657
vt 0.126807 0.943231
vt 0.072425 0.546695
vt 0.201108 0.517582
vt 0.203120 0.554637
vt 0.090316 0.585636
vt 0.254584 0.511256
vt 0.413550 0.554441
vt 0.388654 0.590051
vt 0.255733 0.551700
vt 0.408668 0.544133
vt 0.378700 0.596108
vt 0.287246 0.678032
vt 0.245149 0.658067
vt 0.824360 0.786341
vt 0.683395 0.774630
vt 0.752293 0.951515
vt 0.697334 0.942873
vt 0.013418 0.549705
vt 0.420764 0.840882
vt 0.116216 0.675173
vt 0.366164 0.923682
vt 0.409894 0.868697
vt 0.378955 0.904312
vt 0.411076 0.857187
vt 0.368537 0.911609
vt 0.239678 0.976172
vt 0.018098 0.567126
vt 0.045805 0.608445
vt 0.129180 0.675759
vt 0.171183 0.694685
vt 0.421338 0.833246
vt 0.409836 0.526345
vn -0.049941 0.187505 0.980993
vn -0.054946 0.204504 0.977322
vn -0.126048 0.445335 0.886447
vn -0.126048 0.445335 0.886447
vn -0.277252 0.896732 -0.344969
vn -0.277252 0.896732 -0.344969
vn -0.277252 0.896732 -0.344969
vn -0.277252 0.896732 -0.344969
vn 0.050014 -0.176702 -0.982993
vn 0.050014 -0.176702 -0.982993
vn 0.077390 -0.312267 -0.946837
vn 0.079291 -0.321737 -0.943503
vn 0.164483 -0.923594 0.346293
vn 0.164483 -0.923594 0.346293
vn 0.164483 -0.923594 0.346293
vn 0.164483 -0.923594 0.346293
vn 0.886884 -0.408591 0.215617
vn 0.886884 -0.408591 0.215617
vn 0.886884 -0.408591 0.215617
vn 0.886884 -0.408591 0.215617
vn -0.858226 -0.499837 0.116669
vn -0.858226 -0.499837 0.116669
vn -0.858226 -0.499837 0.116669
vn -0.858226 -0.499837 0.116669
vn 0.088814 -0.369290 -0.925061
vn 0.088814 -0.369290 -0.925061
vn 0.995134 -0.041859 0.089192
vn 0.995134 -0.041859 0.089192
vn 0.995134 -0.041859 0.089192
vn 0.995134 -0.041859 0.089192
vn -0.023344 0.097067 0.995004
vn -0.023344 0.097067 0.995004
vn -0.891342 -0.443465 0.094068
vn -0.891342 -0.443465 0.094068
vn -0.891342 -0.443465 0.094068
vn -0.891342 -0.443465 0.094068
vn 0.163984 -0.920790 0.353914
vn 0.163984 -0.920790 0.353914
vn 0.163984 -0.920790 0.353914
vn 0.163984 -0.920790 0.353914
vn 0.032127 -0.180396 -0.983069
vn 0.032127 -0.180396 -0.983069
vn 0.032127 -0.180396 -0.983069
vn 0.032127 -0.180396 -0.983069
vn -0.163882 0.920219 -0.355444
vn -0.163882 0.920219 -0.355444
vn -0.163882 0.920219 -0.355444
vn -0.163882 0.920219 -0.355444
vn -0.076543 0.429798 0.899675
vn -0.076543 0.429798 0.899675
vn -0.076543 0.429798 0.899675
vn -0.076543 0.429798 0.899675
vn 0.163984 -0.920790 0.353914
vn 0.163984 -0.920790 0.353914
vn 0.163984 -0.920790 0.353914
vn 0.163984 -0.920790 0.353914
vn -0.076543 0.429798 0.899675
vn -0.076543 0.429798 0.899675
vn -0.076543 0.429798 0.899675
vn -0.076543 0.429798 0.899675
vn -0.163882 0.920219 -0.355444
vn -0.163882 0.920219 -0.355444
vn -0.163882 0.920219 -0.355444
vn -0.163882 0.920219 -0.355444
vn 0.032127 -0.180396 -0.983069
vn 0.032127 -0.180396 -0.983069
vn 0.032127 -0.180396 -0.983069
vn 0.032127 -0.180396 -0.983069
vn -0.140784 -0.917956 0.370859
vn -0.140784 -0.917956 0.370859
vn -0.140784 -0.917956 0.370859
vn -0.140784 -0.917956 0.370859
vn 0.214029 -0.244198 -0.945811
vn 0.214029 -0.244198 -0.945811
vn 0.214029 -0.244198 -0.945811
vn 0.214029 -0.244198 -0.945811
vn 0.318551 0.883776 -0.342733
vn 0.318551 0.883776 -0.342733
vn 0.318551 0.883776 -0.342733
vn 0.318551 0.883776 -0.342733
vn 0.244479 0.366576 0.897693
vn 0.244479 0.366576 0.897693
vn 0.244479 0.366576 0.897693
vn 0.244478 0.366576 0.897693
vn 0.297096 -0.883663 0.361764
vn 0.297096 -0.883663 0.361764
vn 0.297096 -0.883663 0.361764
vn 0.297096 -0.883663 0.361764
vn -0.340628 0.259611 0.903645
vn -0.340628 0.259611 0.903645
vn -0.340628 0.259611 0.903645
vn -0.340628 0.259611 0.903645
vn -0.546999 0.764913 -0.340148
vn -0.546999 0.764913 -0.340148
vn -0.546999 0.764913 -0.340148
vn -0.546999 0.764913 -0.340148
vn -0.175376 -0.276718 -0.944812
vn -0.175376 -0.276718 -0.944812
vn -0.175376 -0.276718 -0.944812
vn -0.175376 -0.276718 -0.944812
vn 0.201494 -0.912598 0.355759
vn 0.203449 -0.912186 0.355703
vn 0.094416 -0.929714 0.355974
vn 0.093987 -0.929764 0.355956
vn -0.316333 0.332427 0.888496
vn -0.316333 0.332427 0.888496
vn -0.360201 0.309119 0.880171
vn -0.347906 0.315780 0.882748
vn -0.394615 0.849509 -0.350162
vn -0.394615 0.849509 -0.350162
vn -0.394615 0.849509 -0.350162
vn -0.394615 0.849509 -0.350162
vn -0.201314 -0.248516 -0.947477
vn -0.201314 -0.248516 -0.947477
vn -0.237756 -0.262157 -0.935278
vn -0.238471 -0.262421 -0.935022
vn -0.164631 -0.294096 -0.941490
vn -0.164631 -0.294096 -0.941490
vn -0.164631 -0.294096 -0.941490
vn -0.164631 -0.294096 -0.941490
vn -0.589594 0.743183 -0.316319
vn -0.589594 0.743183 -0.316319
vn -0.589594 0.743183 -0.316319
vn -0.589594 0.743183 -0.316319
vn -0.312207 0.284494 0.906416
vn -0.312207 0.284494 0.906416
vn -0.312207 0.284494 0.906416
vn -0.312207 0.284494 0.906416
vn 0.363538 -0.865834 0.343761
vn 0.363538 -0.865834 0.343761
vn 0.363538 -0.865834 0.343761
vn 0.363538 -0.865834 0.343761
vn 0.260096 -0.173256 -0.949912
vn 0.260096 -0.173256 -0.949912
vn 0.280798 -0.174401 -0.943789
vn 0.281633 -0.174445 -0.943532
vn 0.116439 0.927518 -0.355178
vn 0.116439 0.927518 -0.355178
vn 0.157548 0.924395 -0.347379
vn 0.165000 0.923652 -0.345894
vn 0.215413 0.425619 0.878889
vn 0.215413 0.425619 0.878889
vn 0.246416 0.421622 0.872648
vn 0.257081 0.420140 0.870283
vn 0.124290 -0.921174 0.368768
vn 0.134974 -0.919549 0.369069
vn 0.204323 -0.905392 0.372180
vn 0.201218 -0.906245 0.371795
vn -0.301324 -0.886432 0.351344
vn -0.301324 -0.886432 0.351344
vn -0.301324 -0.886432 0.351344
vn -0.301324 -0.886432 0.351344
vn 0.246191 0.327298 0.912286
vn 0.246191 0.327298 0.912286
vn 0.246191 0.327298 0.912286
vn 0.246191 0.327298 0.912286
vn 0.535494 0.789811 -0.299072
vn 0.535494 0.789811 -0.299072
vn 0.535494 0.789811 -0.299072
vn 0.535494 0.789811 -0.299072
vn 0.230339 -0.300856 -0.925435
vn 0.230339 -0.300856 -0.925435
vn 0.230339 -0.300856 -0.925435
vn 0.230339 -0.300856 -0.925435
vn -0.917292 -0.391237 0.074216
vn -0.917292 -0.391237 0.074216
vn -0.917292 -0.391237 0.074216
vn -0.917292 -0.391237 0.074216
vn 0.896599 -0.389702 0.210342
vn 0.896599 -0.389702 0.210342
vn 0.896599 -0.389702 0.210342
vn 0.896599 -0.389702 0.210342
vn -0.709830 -0.535314 -0.457800
vn -0.709830 -0.535314 -0.457800
vn -0.709830 -0.535314 -0.457800
vn -0.709830 -0.535314 -0.457800
vn 0.788556 0.053371 -0.612643
vn 0.788556 0.053371 -0.612643
vn 0.788556 0.053371 -0.612643
vn 0.788556 0.053371 -0.612643
vn -0.773703 0.573535 -0.269151
vn -0.773703 0.573535 -0.269151
vn -0.773702 0.573535 -0.269151
vn -0.773703 0.573535 -0.269151
vn 0.613863 0.754879 -0.230933
vn 0.613863 0.754879 -0.230933
vn 0.613863 0.754879 -0.230933
vn 0.613863 0.754879 -0.230933
vn -0.754679 -0.154010 0.637762
vn -0.754679 -0.154010 0.637762
vn -0.754679 -0.154010 0.637762
vn -0.754679 -0.154010 0.637762
vn 0.729146 0.431000 0.531588
vn 0.729146 0.431000 0.531588
vn 0.729146 0.431000 0.531588
vn 0.729146 0.431000 0.531588
vn 0.997184 0.000529 0.074992
vn 0.997184 0.000529 0.074992
vn 0.997184 0.000529 0.074992
vn 0.997184 0.000529 0.074992
vn -0.016060 -0.938985 0.343583
vn -0.016060 -0.938985 0.343583
vn -0.016060 -0.938985 0.343583
vn -0.016060 -0.938985 0.343583
vn 0.754209 0.156428 0.637729
vn 0.754209 0.156428 0.637729
vn 0.754209 0.156428 0.637729
vn 0.754209 0.156428 0.637729
vn -0.716324 0.188372 0.671860
vn -0.716324 0.188372 0.671860
vn -0.716324 0.188372 0.671860
vn -0.716324 0.188372 0.671860
vn 0.509221 0.819601 -0.262582
vn 0.509221 0.819601 -0.262582
vn 0.509221 0.819601 -0.262582
vn 0.509221 0.819601 -0.262582
vn -0.707152 0.645795 -0.287897
vn -0.707152 0.645795 -0.287897
vn -0.707152 0.645795 -0.287897
vn -0.707152 0.645795 -0.287897
vn 0.857530 -0.219280 -0.465359
vn 0.857530 -0.219280 -0.465359
vn 0.857530 -0.219280 -0.465359
vn 0.857530 -0.219280 -0.465359
vn -0.283514 -0.238144 -0.928928
vn -0.283514 -0.238144 -0.928928
vn -0.283514 -0.238144 -0.928928
vn -0.283514 -0.238144 -0.928928
vn 0.568755 -0.759162 0.316529
vn 0.568755 -0.759162 0.316529
vn -0.204349 -0.922543 0.327347
vn -0.204349 -0.922543 0.327347
vn 0.326948 0.498682 0.802758
vn 0.326948 0.498682 0.802758
vn 0.326948 0.498682 0.802758
vn 0.326948 0.498683 0.802758
vn -0.672510 0.097159 0.733683
vn -0.672510 0.097159 0.733683
vn 0.234646 0.916821 -0.323081
vn 0.234646 0.916821 -0.323081
vn 0.234646 0.916821 -0.323081
vn 0.234646 0.916821 -0.323081
vn -0.864006 0.445073 -0.235381
vn -0.864006 0.445073 -0.235381
vn -0.864006 0.445073 -0.235381
vn -0.864006 0.445073 -0.235381
vn 0.398327 -0.074694 -0.914197
vn 0.398327 -0.074694 -0.914197
vn 0.398327 -0.074694 -0.914197
vn 0.398327 -0.074694 -0.914197
vn -0.567571 -0.370335 -0.735333
vn -0.567571 -0.370335 -0.735333
vn -0.428488 -0.227223 -0.874510
vn -0.428488 -0.227223 -0.874510
vn -0.428488 -0.227223 -0.874510
vn -0.428488 -0.227223 -0.874510
vn 0.424115 -0.180177 -0.887503
vn 0.424115 -0.180177 -0.887504
vn -0.447319 0.829202 -0.335155
vn -0.447319 0.829202 -0.335155
vn -0.447319 0.829202 -0.335155
vn -0.447319 0.829202 -0.335155
vn 0.528621 0.813175 -0.243529
vn 0.528621 0.813175 -0.243529
vn -0.408520 0.368616 0.835005
vn -0.408520 0.368616 0.835005
vn -0.408520 0.368616 0.835005
vn -0.408520 0.368616 0.835005
vn 0.463560 0.379694 0.800590
vn 0.463560 0.379694 0.800590
vn -0.411156 -0.861228 0.298726
vn -0.411156 -0.861228 0.298727
vn 0.326027 -0.863734 0.384280
vn 0.326027 -0.863734 0.384279
vn -0.590269 -0.776197 0.221586
vn -0.590269 -0.776197 0.221586
vn -0.590269 -0.776197 0.221586
vn -0.590269 -0.776197 0.221586
vn 0.761025 -0.625883 0.170621
vn 0.638039 -0.696475 0.328374
vn 0.638039 -0.696475 0.328374
vn 0.798973 -0.591522 0.108372
vn -0.721641 -0.138979 -0.678173
vn -0.721641 -0.138979 -0.678173
vn -0.721641 -0.138979 -0.678173
vn -0.721641 -0.138979 -0.678173
vn 0.950641 -0.307072 0.044590
vn 0.938381 -0.345174 0.017209
vn -0.280781 0.877793 -0.388124
vn -0.280781 0.877793 -0.388124
vn -0.280781 0.877793 -0.388124
vn -0.280781 0.877793 -0.388124
vn 0.934951 -0.222440 0.276382
vn 0.915379 -0.233480 0.327975
vn -0.287108 0.456761 0.841985
vn -0.287108 0.456761 0.841985
vn -0.287108 0.456761 0.841985
vn -0.287108 0.456761 0.841985
vn 0.839654 -0.262012 0.475743
vn 0.839654 -0.262012 0.475743
vn 0.911525 -0.356834 0.204432
vn 0.911525 -0.356834 0.204432
vn 0.911525 -0.356834 0.204432
vn 0.911525 -0.356834 0.204432
vn -0.753200 -0.595695 0.278992
vn -0.740095 -0.666638 0.088617
vn -0.769298 -0.637770 0.037808
vn -0.780434 -0.551563 0.294452
vn 0.651021 0.543328 0.530063
vn 0.651021 0.543328 0.530063
vn 0.651021 0.543328 0.530063
vn 0.651021 0.543328 0.530063
vn -0.915518 -0.364725 0.169712
vn -0.903366 -0.372295 0.212899
vn 0.507433 0.819726 -0.265633
vn 0.507433 0.819726 -0.265633
vn 0.507433 0.819726 -0.265633
vn 0.507433 0.819726 -0.265633
vn -0.905354 -0.424428 -0.013968
vn -0.891600 -0.451401 -0.035868
vn 0.705595 0.142148 -0.694211
vn 0.705595 0.142148 -0.694211
vn 0.705595 0.142148 -0.694211
vn 0.705595 0.142148 -0.694211
s 1
g evenmoredemons:bulldemonbody evenmoredemons:bulldemonhed
usemtl initialShadingGroup
f 21/45/63 22/42/64 24/114/65 23/113/66
s off
f 23/113/67 24/114/68 26/115/69 25/116/70
s 2
f 25/116/71 26/115/72 28/146/73 27/147/74
s off
f 29/117/75 30/118/76 31/43/77 32/48/78
f 42/33/79 41/34/80 43/35/81 44/36/82
f 45/37/83 46/38/84 47/39/85 48/40/86
s 2
f 27/147/74 28/146/73 30/148/87 29/149/88
s off
f 28/41/89 22/42/90 31/43/91 30/44/92
s 1
f 22/42/64 21/45/63 32/48/93 31/43/94
s off
f 21/45/95 27/46/96 29/47/97 32/48/98
f 66/52/99 65/119/100 67/59/101 68/62/102
f 65/51/103 69/54/104 70/60/105 67/150/106
f 69/54/107 71/56/108 72/64/109 70/60/110
f 71/56/111 66/52/112 68/62/113 72/64/114
f 73/68/115 74/67/116 75/75/117 76/120/118
f 74/67/119 77/70/120 78/76/121 75/75/122
f 77/70/123 79/72/124 80/80/125 78/76/126
f 79/72/127 73/151/128 76/78/129 80/80/130
f 97/96/131 98/121/132 99/84/133 100/83/134
f 98/92/135 101/91/136 102/88/137 99/152/138
f 101/91/139 103/94/140 104/86/141 102/88/142
f 103/94/143 97/96/144 100/83/145 104/86/146
f 105/112/147 106/108/148 107/100/149 108/122/150
f 106/108/151 109/107/152 110/104/153 107/100/154
f 109/107/155 111/110/156 112/102/157 110/104/158
f 111/110/159 105/153/160 108/99/161 112/102/162
s 3
f 81/123/163 82/124/164 83/125/165 84/126/166
s 4
f 82/124/167 85/127/168 86/130/169 83/125/170
s off
f 85/127/171 87/128/172 88/129/173 86/130/174
s 5
f 87/128/175 81/154/176 84/155/177 88/129/178
s off
f 54/101/179 53/98/180 45/158/181 48/40/182
f 55/103/183 54/101/184 48/40/185 47/39/186
f 56/97/187 55/103/188 47/39/189 46/132/190
f 53/131/191 56/97/192 46/132/193 45/133/194
s 6
f 90/159/195 89/134/196 91/137/197 92/160/198
s 7
f 89/134/199 93/135/200 94/136/201 91/137/202
s 8
f 93/135/203 95/138/204 96/141/205 94/136/206
s 9
f 95/138/207 90/139/208 92/140/209 96/141/210
s off
f 62/82/211 61/81/212 41/144/213 42/145/214
f 63/85/215 62/82/216 42/145/217 44/36/218
f 64/87/219 63/85/220 44/36/221 43/35/222
f 61/161/223 64/87/224 43/35/225 41/162/226
f 22/49/227 28/164/228 65/119/229 66/52/230
f 33/142/231 34/61/232 68/62/233 67/59/234
f 28/50/235 26/53/236 69/54/237 65/51/238
f 35/57/239 33/58/240 67/150/241 70/60/242
f 26/53/243 24/55/244 71/56/245 69/54/246
f 36/63/247 35/57/248 70/60/249 72/64/250
f 24/55/251 22/49/252 66/52/253 71/56/254
f 34/61/255 36/63/256 72/64/257 68/62/258
f 27/65/259 21/66/260 74/67/261 73/68/262
f 38/74/263 37/77/264 76/120/265 75/75/266
f 21/66/267 23/69/268 77/70/269 74/67/270
f 39/73/271 38/74/272 75/75/273 78/76/274
f 23/69/275 25/71/276 79/72/277 77/70/278
f 40/79/279 39/73/280 78/76/281 80/80/282
f 25/71/283 27/163/284 73/151/285 79/72/286
f 37/156/287 40/79/288 80/80/289 76/78/290
s 3
f 37/77/291 38/74/292 82/124/164 81/123/163
f 50/105/293 49/111/294 84/126/166 83/125/165
s off
f 38/74/295 39/73/296 85/127/297 82/124/298
s 4
f 51/106/299 50/105/300 83/125/170 86/130/169
s off
f 39/73/301 40/79/302 87/128/303 85/127/304
f 52/109/305 51/106/306 86/130/307 88/129/308
f 40/79/309 37/156/310 81/154/311 87/128/312
s 5
f 49/157/313 52/109/314 88/129/178 84/155/177
s off
f 33/58/315 35/57/316 89/134/317 90/159/318
s 6
f 58/90/319 57/89/320 92/160/198 91/137/197
s off
f 35/57/321 36/63/322 93/135/323 89/134/324
s 7
f 59/93/325 58/90/326 91/137/202 94/136/201
s off
f 36/63/327 34/61/328 95/138/329 93/135/330
s 8
f 60/95/331 59/93/332 94/136/206 96/141/205
s 9
f 34/61/333 33/142/334 90/139/208 95/138/207
f 57/143/335 60/95/336 96/141/210 92/140/209
s off
f 60/95/337 57/143/338 98/121/339 97/96/340
s 10
f 61/81/341 62/82/342 100/83/343 99/84/344
s off
f 57/89/345 58/90/346 101/91/347 98/92/348
s 10
f 64/87/349 61/161/341 99/152/344 102/88/350
s off
f 58/90/351 59/93/352 103/94/353 101/91/354
s 10
f 63/85/355 64/87/349 102/88/350 104/86/356
s off
f 59/93/357 60/95/358 97/96/359 103/94/360
s 10
f 62/82/361 63/85/355 104/86/356 100/83/362
s off
f 49/111/363 50/105/364 106/108/365 105/112/366
s 11
f 56/97/367 53/131/368 108/122/369 107/100/370
s off
f 50/105/371 51/106/372 109/107/373 106/108/374
s 11
f 55/103/375 56/97/367 107/100/370 110/104/376
s off
f 51/106/377 52/109/378 111/110/379 109/107/380
s 11
f 54/101/381 55/103/375 110/104/376 112/102/382
s off
f 52/109/383 49/157/384 105/153/385 111/110/386
s 11
f 53/98/368 54/101/381 112/102/382 108/99/369
