# This file uses centimeters as units for non-parametric coordinates.

mtllib car.mtl
g default
v 2.830897 -1.414070 -7.035847
v 2.830897 -1.994832 -6.824467
v 2.830897 -2.340432 -6.312093
v 2.830897 -2.318863 -5.694436
v 2.830897 -1.938363 -5.207418
v 2.830897 -1.344271 -5.037066
v 1.869103 -1.414070 -7.035847
v 1.869103 -1.994832 -6.824467
v 1.869103 -2.340432 -6.312093
v 1.869103 -2.318863 -5.694436
v 1.869103 -1.938363 -5.207418
v 1.869103 -1.344271 -5.037066
v 2.830897 -1.379170 -6.036456
v 1.869103 -1.379170 -6.036456
v -3.045719 -1.442190 7.315761
v 3.045719 -1.442190 7.315761
v -3.045719 -1.024599 7.656019
v 3.045719 -1.024599 7.656019
v -3.045719 -1.024599 -8.154792
v 3.045719 -1.024599 -8.154792
v -3.045719 -1.442190 -7.814533
v 3.045719 -1.442190 -7.814533
v -3.045719 -0.589566 7.656019
v 3.045719 -0.589566 7.656019
v 3.045719 -0.589566 -8.154792
v -3.045719 -0.589566 -8.154792
v -2.740133 -0.055427 7.347287
v 2.740133 -0.055427 7.347287
v 2.740133 -0.114122 -7.637754
v -2.740133 -0.114122 -7.637754
v 2.740133 0.336360 6.048065
v 2.740133 0.277664 -3.438456
v -2.740133 0.277664 -3.438456
v -2.740133 0.336360 6.048065
v 2.527494 2.340432 5.358851
v 2.527494 2.281736 -2.780517
v -2.527494 2.281736 -2.780517
v -2.527494 2.340432 5.358851
v -1.869103 -1.414070 4.486337
v -1.869103 -1.994832 4.697718
v -1.869103 -2.340432 5.210091
v -1.869103 -2.318863 5.827748
v -1.869103 -1.938363 6.314766
v -1.869103 -1.344271 6.485119
v -2.830897 -1.414070 4.486337
v -2.830897 -1.994832 4.697718
v -2.830897 -2.340432 5.210091
v -2.830897 -2.318863 5.827748
v -2.830897 -1.938363 6.314766
v -2.830897 -1.344271 6.485119
v -1.869103 -1.379170 5.485728
v -2.830897 -1.379170 5.485728
v 2.830897 -1.414070 4.486337
v 2.830897 -1.994832 4.697718
v 2.830897 -2.340432 5.210091
v 2.830897 -2.318863 5.827748
v 2.830897 -1.938363 6.314766
v 2.830897 -1.344271 6.485119
v 1.869103 -1.414070 4.486337
v 1.869103 -1.994832 4.697718
v 1.869103 -2.340432 5.210091
v 1.869103 -2.318863 5.827748
v 1.869103 -1.938363 6.314766
v 1.869103 -1.344271 6.485119
v 2.830897 -1.379170 5.485728
v 1.869103 -1.379170 5.485728
v -1.869103 -1.414070 -7.035847
v -1.869103 -1.994832 -6.824467
v -1.869103 -2.340432 -6.312093
v -1.869103 -2.318863 -5.694436
v -1.869103 -1.938363 -5.207418
v -1.869103 -1.344271 -5.037066
v -2.830897 -1.414070 -7.035847
v -2.830897 -1.994832 -6.824467
v -2.830897 -2.340432 -6.312093
v -2.830897 -2.318863 -5.694436
v -2.830897 -1.938363 -5.207418
v -2.830897 -1.344271 -5.037066
v -1.869103 -1.379170 -6.036456
v -2.830897 -1.379170 -6.036456
vt 0.400000 0.312500
vt 0.425000 0.312500
vt 0.425000 0.688440
vt 0.400000 0.688440
vt 0.450000 0.312500
vt 0.450000 0.688440
vt 0.475000 0.312500
vt 0.475000 0.688440
vt 0.500000 0.312500
vt 0.500000 0.688440
vt 0.525000 0.312500
vt 0.525000 0.688440
vt 0.451716 0.007647
vt 0.548284 0.007647
vt 0.500000 0.150000
vt 0.373591 0.064409
vt 0.343750 0.156250
vt 0.373591 0.248091
vt 0.451716 0.304853
vt 0.548284 0.992353
vt 0.451716 0.992353
vt 0.500000 0.837500
vt 0.373591 0.935591
vt 0.343750 0.843750
vt 0.373591 0.751909
vt 0.451716 0.695147
vt 0.978479 -0.000000
vt 0.021521 -0.000000
vt 0.978479 -0.000000
vt 0.021521 -0.000000
vt 0.000000 0.110397
vt 1.000000 0.110397
vt 0.000000 0.314435
vt 1.000000 0.314435
vt 0.402599 1.000000
vt 0.000000 1.000000
vt 0.000000 0.110397
vt 1.000000 0.225405
vt 1.000000 0.110397
vt 0.000000 0.225405
vt 0.000000 0.225405
vt 1.000000 0.225405
vt 0.967299 0.351097
vt 0.019527 0.366614
vt 0.019527 0.366614
vt 0.967299 0.351097
vt 0.701702 0.454672
vt 0.101700 0.470190
vt 0.101700 0.470190
vt 0.660089 0.984483
vt 0.701702 0.454672
vt 0.145291 1.000000
vt 0.145291 1.000000
vt 0.000000 1.000000
vt 0.660089 0.984483
vt 0.000000 0.000000
vt 0.400000 0.312500
vt 0.425000 0.312500
vt 0.425000 0.688440
vt 0.400000 0.688440
vt 0.450000 0.312500
vt 0.450000 0.688440
vt 0.475000 0.312500
vt 0.475000 0.688440
vt 0.500000 0.312500
vt 0.500000 0.688440
vt 0.525000 0.312500
vt 0.525000 0.688440
vt 0.451716 0.007647
vt 0.548284 0.007647
vt 0.500000 0.150000
vt 0.373591 0.064409
vt 0.343750 0.156250
vt 0.373591 0.248091
vt 0.451716 0.304853
vt 0.548284 0.992353
vt 0.451716 0.992353
vt 0.500000 0.837500
vt 0.373591 0.935591
vt 0.343750 0.843750
vt 0.373591 0.751909
vt 0.451716 0.695147
vt 0.400000 0.312500
vt 0.425000 0.312500
vt 0.425000 0.688440
vt 0.400000 0.688440
vt 0.450000 0.312500
vt 0.450000 0.688440
vt 0.475000 0.312500
vt 0.475000 0.688440
vt 0.500000 0.312500
vt 0.500000 0.688440
vt 0.525000 0.312500
vt 0.525000 0.688440
vt 0.451716 0.007647
vt 0.548284 0.007647
vt 0.500000 0.150000
vt 0.373591 0.064409
vt 0.343750 0.156250
vt 0.373591 0.248091
vt 0.451716 0.304853
vt 0.548284 0.992353
vt 0.451716 0.992353
vt 0.500000 0.837500
vt 0.373591 0.935591
vt 0.343750 0.843750
vt 0.373591 0.751909
vt 0.451716 0.695147
vt 0.400000 0.312500
vt 0.425000 0.312500
vt 0.425000 0.688440
vt 0.400000 0.688440
vt 0.450000 0.312500
vt 0.450000 0.688440
vt 0.475000 0.312500
vt 0.475000 0.688440
vt 0.500000 0.312500
vt 0.500000 0.688440
vt 0.525000 0.312500
vt 0.525000 0.688440
vt 0.451716 0.007647
vt 0.548284 0.007647
vt 0.500000 0.150000
vt 0.373591 0.064409
vt 0.343750 0.156250
vt 0.373591 0.248091
vt 0.451716 0.304853
vt 0.548284 0.992353
vt 0.451716 0.992353
vt 0.500000 0.837500
vt 0.373591 0.935591
vt 0.343750 0.843750
vt 0.373591 0.751909
vt 0.451716 0.695147
vt 0.000000 0.000000
vt 1.000000 0.000000
vt 0.961199 1.000000
vt 0.038801 1.000000
vt 0.000000 0.270769
vt 1.000000 0.270769
vt 1.000000 0.729231
vt 0.000000 0.729231
vt 0.000000 0.000000
vt 1.000000 0.000000
vt 1.000000 0.301126
vt 0.000000 0.301126
vt 1.000000 0.614830
vt 0.000000 0.614830
vt 0.949834 1.000000
vt 0.050166 1.000000
vt 0.000000 0.000000
vt 0.402599 0.000000
vt 1.000000 0.000000
vt 0.000000 0.000000
vt 0.000000 0.642003
vt 1.000000 0.642003
vt 0.050166 1.000000
vt 0.949834 1.000000
vt 1.000000 0.256146
vt 0.000000 0.256146
vt 0.000000 0.743854
vt 1.000000 0.743854
vt 1.000000 0.000000
vt 0.000000 0.000000
vt 0.038801 1.000000
vt 0.961199 1.000000
vt 1.000000 0.000000
vt 1.000000 1.000000
vn 0.000000 -0.342021 -0.939692
vn 0.000000 -0.342021 -0.939692
vn 0.000000 -0.342021 -0.939692
vn 0.000000 -0.342021 -0.939692
vn 0.000000 -0.829038 -0.559193
vn 0.000000 -0.829038 -0.559193
vn 0.000000 -0.829038 -0.559193
vn 0.000000 -0.829038 -0.559193
vn 0.000000 -0.999391 0.034900
vn 0.000000 -0.999391 0.034900
vn 0.000000 -0.999391 0.034900
vn 0.000000 -0.999391 0.034900
vn 0.000000 -0.788011 0.615661
vn 0.000000 -0.788011 0.615661
vn 0.000000 -0.788011 0.615661
vn 0.000000 -0.788011 0.615661
vn 0.000000 -0.275637 0.961262
vn 0.000000 -0.275637 0.961262
vn 0.000000 -0.275637 0.961262
vn 0.000000 -0.275637 0.961262
vn 1.000000 0.000000 0.000000
vn 1.000000 0.000000 0.000000
vn 1.000000 0.000000 0.000000
vn 1.000000 0.000000 0.000000
vn 1.000000 0.000000 0.000000
vn 1.000000 0.000000 0.000000
vn 1.000000 0.000000 0.000000
vn 1.000000 0.000000 0.000000
vn 1.000000 0.000000 0.000000
vn 1.000000 0.000000 0.000000
vn 1.000000 0.000000 0.000000
vn 1.000000 0.000000 0.000000
vn 1.000000 0.000001 0.000000
vn 1.000000 0.000000 0.000000
vn 1.000000 0.000000 0.000000
vn -1.000000 0.000000 0.000000
vn -1.000000 0.000000 0.000000
vn -1.000000 0.000000 0.000000
vn -1.000000 0.000000 0.000000
vn -1.000000 0.000000 0.000000
vn -1.000000 0.000000 0.000000
vn -1.000000 0.000000 0.000000
vn -1.000000 0.000000 0.000000
vn -1.000000 0.000000 0.000000
vn -1.000000 0.000000 0.000000
vn -1.000000 0.000000 0.000000
vn -1.000000 0.000000 0.000000
vn -1.000000 0.000000 0.000000
vn -1.000000 0.000000 0.000000
vn -1.000000 0.000000 0.000000
vn 0.000000 -0.631672 0.775236
vn 0.000000 -0.631672 0.775236
vn 0.000000 -0.631672 0.775236
vn 0.000000 -0.631672 0.775236
vn 0.000000 -0.631672 -0.775236
vn 0.000000 -0.631672 -0.775236
vn 0.000000 -0.631672 -0.775236
vn 0.000000 -0.631672 -0.775236
vn 0.000000 -1.000000 0.000000
vn 0.000000 -1.000000 0.000000
vn 0.000000 -1.000000 0.000000
vn 0.000000 -1.000000 0.000000
vn 1.000000 0.000000 0.000000
vn 1.000000 0.000000 0.000000
vn 1.000000 0.000000 0.000000
vn 1.000000 0.000000 0.000000
vn -1.000000 0.000000 0.000000
vn -1.000000 0.000000 0.000000
vn -1.000000 0.000000 0.000000
vn -1.000000 0.000000 0.000000
vn 0.000000 0.000000 1.000000
vn 0.000000 0.000000 1.000000
vn 0.000000 0.252765 0.967528
vn 0.000000 0.252765 0.967528
vn 1.000000 0.000000 0.000000
vn 1.000000 0.000000 0.000000
vn 0.975329 0.220755 -0.000421
vn 0.965850 0.259101 -0.000494
vn 0.000000 0.000000 -1.000000
vn 0.000000 0.000000 -1.000000
vn 0.000000 0.426843 -0.904326
vn 0.000000 0.426843 -0.904326
vn -1.000000 0.000000 0.000000
vn -1.000000 0.000000 0.000000
vn -0.965850 0.259101 -0.000494
vn -0.975329 0.220755 -0.000421
vn 0.000000 0.252765 0.967528
vn 0.000000 0.252765 0.967528
vn 0.000000 0.837903 0.545819
vn 0.000000 0.837903 0.545819
vn 0.965850 0.259101 -0.000494
vn 0.975329 0.220755 -0.000421
vn 0.855368 0.518019 -0.000987
vn 0.855368 0.518019 -0.000987
vn 0.000000 0.426843 -0.904326
vn 0.000000 0.426843 -0.904326
vn 0.000000 0.736095 -0.676879
vn 0.000000 0.736095 -0.676879
vn -0.975329 0.220755 -0.000421
vn -0.965850 0.259101 -0.000494
vn -0.855368 0.518019 -0.000987
vn -0.855368 0.518019 -0.000987
vn 0.000000 0.999974 -0.007211
vn 0.000000 0.999974 -0.007211
vn 0.000000 0.999974 -0.007211
vn 0.000000 0.999974 -0.007211
vn 1.000000 0.000000 0.000000
vn 1.000000 0.000000 0.000000
vn 0.997944 0.064093 -0.000427
vn 0.997829 0.065859 -0.000439
vn 0.000000 0.995676 -0.092895
vn 0.000000 0.995676 -0.092895
vn 0.000000 0.995676 -0.092895
vn 0.000000 0.995676 -0.092895
vn -1.000000 0.000000 0.000000
vn -1.000000 0.000000 0.000000
vn -0.997829 0.065859 -0.000439
vn -0.997944 0.064093 -0.000427
vn 0.000000 0.837903 0.545819
vn 0.000000 0.837903 0.545819
vn 0.000000 0.957416 0.288713
vn 0.000000 0.957416 0.288713
vn 0.997829 0.065859 -0.000439
vn 0.997944 0.064093 -0.000427
vn 0.994418 0.105506 -0.000703
vn 0.994418 0.105506 -0.000703
vn 0.000000 0.311921 -0.950108
vn 0.000000 0.311921 -0.950108
vn 0.000000 0.311921 -0.950108
vn 0.000000 0.311921 -0.950108
vn -0.997944 0.064093 -0.000427
vn -0.997829 0.065859 -0.000439
vn -0.994418 0.105506 -0.000703
vn -0.994418 0.105506 -0.000703
vn 0.000000 0.325212 0.945641
vn 0.000000 0.325212 0.945641
vn 0.000000 0.325212 0.945641
vn 0.000000 0.325212 0.945641
vn 0.000000 -0.342021 -0.939692
vn 0.000000 -0.342021 -0.939692
vn 0.000000 -0.342021 -0.939692
vn 0.000000 -0.342021 -0.939692
vn 0.000000 -0.829038 -0.559193
vn 0.000000 -0.829038 -0.559193
vn 0.000000 -0.829038 -0.559193
vn 0.000000 -0.829038 -0.559193
vn 0.000000 -0.999391 0.034900
vn 0.000000 -0.999391 0.034900
vn 0.000000 -0.999391 0.034900
vn 0.000000 -0.999391 0.034900
vn 0.000000 -0.788011 0.615661
vn 0.000000 -0.788011 0.615661
vn 0.000000 -0.788011 0.615661
vn 0.000000 -0.788011 0.615661
vn 0.000000 -0.275637 0.961262
vn 0.000000 -0.275637 0.961262
vn 0.000000 -0.275637 0.961262
vn 0.000000 -0.275637 0.961262
vn 1.000000 0.000000 0.000000
vn 1.000000 0.000000 0.000000
vn 1.000000 0.000000 0.000000
vn 1.000000 0.000000 0.000000
vn 1.000000 0.000000 0.000000
vn 1.000000 0.000000 0.000000
vn 1.000000 0.000000 0.000000
vn 1.000000 0.000000 0.000000
vn 1.000000 0.000000 0.000000
vn 1.000000 0.000000 0.000000
vn 1.000000 0.000000 0.000000
vn 1.000000 0.000000 0.000000
vn 1.000000 0.000000 0.000000
vn 1.000000 0.000000 0.000000
vn 1.000000 0.000000 0.000000
vn -1.000000 0.000000 0.000000
vn -1.000000 0.000000 0.000000
vn -1.000000 0.000000 0.000000
vn -1.000000 0.000000 0.000000
vn -1.000000 0.000000 0.000000
vn -1.000000 0.000000 0.000000
vn -1.000000 0.000000 0.000000
vn -1.000000 0.000000 0.000000
vn -1.000000 0.000000 0.000000
vn -1.000000 0.000000 0.000000
vn -1.000000 0.000000 0.000000
vn -1.000000 0.000000 0.000000
vn -1.000000 0.000000 0.000000
vn -1.000000 0.000001 0.000000
vn -1.000000 0.000000 0.000000
vn 0.000000 -0.342021 -0.939692
vn 0.000000 -0.342021 -0.939692
vn 0.000000 -0.342021 -0.939692
vn 0.000000 -0.342021 -0.939692
vn 0.000000 -0.829038 -0.559193
vn 0.000000 -0.829038 -0.559193
vn 0.000000 -0.829038 -0.559193
vn 0.000000 -0.829038 -0.559193
vn 0.000000 -0.999391 0.034900
vn 0.000000 -0.999391 0.034900
vn 0.000000 -0.999391 0.034900
vn 0.000000 -0.999391 0.034900
vn 0.000000 -0.788011 0.615661
vn 0.000000 -0.788011 0.615661
vn 0.000000 -0.788011 0.615661
vn 0.000000 -0.788011 0.615661
vn 0.000000 -0.275637 0.961262
vn 0.000000 -0.275637 0.961262
vn 0.000000 -0.275637 0.961262
vn 0.000000 -0.275637 0.961262
vn 1.000000 0.000000 0.000000
vn 1.000000 0.000000 0.000000
vn 1.000000 0.000000 0.000000
vn 1.000000 0.000000 0.000000
vn 1.000000 0.000000 0.000000
vn 1.000000 0.000000 0.000000
vn 1.000000 0.000000 0.000000
vn 1.000000 0.000000 0.000000
vn 1.000000 0.000000 0.000000
vn 1.000000 0.000000 0.000000
vn 1.000000 0.000000 0.000000
vn 1.000000 0.000000 0.000000
vn 1.000000 0.000001 0.000000
vn 1.000000 0.000000 0.000000
vn 1.000000 0.000000 0.000000
vn -1.000000 0.000000 0.000000
vn -1.000000 0.000000 0.000000
vn -1.000000 0.000000 0.000000
vn -1.000000 0.000000 0.000000
vn -1.000000 0.000000 0.000000
vn -1.000000 0.000000 0.000000
vn -1.000000 0.000000 0.000000
vn -1.000000 0.000000 0.000000
vn -1.000000 0.000000 0.000000
vn -1.000000 0.000000 0.000000
vn -1.000000 0.000000 0.000000
vn -1.000000 0.000000 0.000000
vn -1.000000 0.000000 0.000000
vn -1.000000 0.000000 0.000000
vn -1.000000 0.000000 0.000000
vn 0.000000 -0.342021 -0.939692
vn 0.000000 -0.342021 -0.939692
vn 0.000000 -0.342021 -0.939692
vn 0.000000 -0.342021 -0.939692
vn 0.000000 -0.829038 -0.559193
vn 0.000000 -0.829038 -0.559193
vn 0.000000 -0.829038 -0.559193
vn 0.000000 -0.829038 -0.559193
vn 0.000000 -0.999391 0.034900
vn 0.000000 -0.999391 0.034900
vn 0.000000 -0.999391 0.034900
vn 0.000000 -0.999391 0.034900
vn 0.000000 -0.788011 0.615661
vn 0.000000 -0.788011 0.615661
vn 0.000000 -0.788011 0.615661
vn 0.000000 -0.788011 0.615661
vn 0.000000 -0.275637 0.961262
vn 0.000000 -0.275637 0.961262
vn 0.000000 -0.275637 0.961262
vn 0.000000 -0.275637 0.961262
vn 1.000000 0.000000 0.000000
vn 1.000000 0.000000 0.000000
vn 1.000000 0.000000 0.000000
vn 1.000000 0.000000 0.000000
vn 1.000000 0.000000 0.000000
vn 1.000000 0.000000 0.000000
vn 1.000000 0.000000 0.000000
vn 1.000000 0.000000 0.000000
vn 1.000000 0.000000 0.000000
vn 1.000000 0.000000 0.000000
vn 1.000000 0.000000 0.000000
vn 1.000000 0.000000 0.000000
vn 1.000000 0.000000 0.000000
vn 1.000000 0.000000 0.000000
vn 1.000000 0.000000 0.000000
vn -1.000000 0.000000 0.000000
vn -1.000000 0.000000 0.000000
vn -1.000000 0.000000 0.000000
vn -1.000000 0.000000 0.000000
vn -1.000000 0.000000 0.000000
vn -1.000000 0.000000 0.000000
vn -1.000000 0.000000 0.000000
vn -1.000000 0.000000 0.000000
vn -1.000000 0.000000 0.000000
vn -1.000000 0.000000 0.000000
vn -1.000000 0.000000 0.000000
vn -1.000000 0.000000 0.000000
vn -1.000000 0.000000 0.000000
vn -1.000000 0.000001 0.000000
vn -1.000000 0.000000 0.000000
s off
g car:polySurface14
usemtl car:initialShadingGroup
f 1/1/1 2/2/2 8/3/3 7/4/4
f 2/2/5 3/5/6 9/6/7 8/3/8
f 3/5/9 4/7/10 10/8/11 9/6/12
f 4/7/13 5/9/14 11/10/15 10/8/16
f 5/9/17 6/11/18 12/12/19 11/10/20
f 2/13/21 1/14/22 13/15/23
f 3/16/24 2/13/25 13/15/26
f 4/17/27 3/16/28 13/15/29
f 5/18/30 4/17/31 13/15/32
f 6/19/33 5/18/34 13/15/35
f 7/20/36 8/21/37 14/22/38
f 8/21/39 9/23/40 14/22/41
f 9/23/42 10/24/43 14/22/44
f 10/24/45 11/25/46 14/22/47
f 11/25/48 12/26/49 14/22/50
f 15/143/51 16/144/52 18/145/53 17/146/54
f 19/33/55 20/34/56 22/153/57 21/154/58
f 21/151/59 22/152/60 16/35/61 15/36/62
f 16/28/63 22/29/64 20/32/65 18/37/66
f 21/27/67 15/30/68 17/31/69 19/39/70
f 17/146/71 18/145/72 24/147/73 23/148/74
f 18/37/75 20/32/76 25/38/77 24/41/78
f 20/34/79 19/33/80 26/155/81 25/156/82
f 19/39/83 17/31/84 23/40/85 26/42/86
f 23/148/87 24/147/88 28/149/89 27/150/90
f 24/41/91 25/38/92 29/43/93 28/45/94
f 25/156/95 26/155/96 30/157/97 29/158/98
f 26/42/99 23/40/100 27/44/101 30/46/102
f 35/167/103 36/168/104 37/54/105 38/56/106
f 28/45/107 29/43/108 32/47/109 31/49/110
f 29/159/111 30/160/112 33/161/113 32/162/114
f 30/46/115 27/44/116 34/48/117 33/51/118
f 27/139/119 28/140/120 31/141/121 34/142/122
f 31/49/123 32/47/124 36/50/125 35/53/126
f 32/163/127 33/164/128 37/165/129 36/166/130
f 33/51/131 34/48/132 38/52/133 37/55/134
f 34/135/135 31/136/136 35/137/137 38/138/138
f 39/57/139 40/58/140 46/59/141 45/60/142
f 40/58/143 41/61/144 47/62/145 46/59/146
f 41/61/147 42/63/148 48/64/149 47/62/150
f 42/63/151 43/65/152 49/66/153 48/64/154
f 43/65/155 44/67/156 50/68/157 49/66/158
f 40/69/159 39/70/160 51/71/161
f 41/72/162 40/69/163 51/71/164
f 42/73/165 41/72/166 51/71/167
f 43/74/168 42/73/169 51/71/170
f 44/75/171 43/74/172 51/71/173
f 45/76/174 46/77/175 52/78/176
f 46/77/177 47/79/178 52/78/179
f 47/79/180 48/80/181 52/78/182
f 48/80/183 49/81/184 52/78/185
f 49/81/186 50/82/187 52/78/188
f 53/83/189 54/84/190 60/85/191 59/86/192
f 54/84/193 55/87/194 61/88/195 60/85/196
f 55/87/197 56/89/198 62/90/199 61/88/200
f 56/89/201 57/91/202 63/92/203 62/90/204
f 57/91/205 58/93/206 64/94/207 63/92/208
f 54/95/209 53/96/210 65/97/211
f 55/98/212 54/95/213 65/97/214
f 56/99/215 55/98/216 65/97/217
f 57/100/218 56/99/219 65/97/220
f 58/101/221 57/100/222 65/97/223
f 59/102/224 60/103/225 66/104/226
f 60/103/227 61/105/228 66/104/229
f 61/105/230 62/106/231 66/104/232
f 62/106/233 63/107/234 66/104/235
f 63/107/236 64/108/237 66/104/238
f 67/109/239 68/110/240 74/111/241 73/112/242
f 68/110/243 69/113/244 75/114/245 74/111/246
f 69/113/247 70/115/248 76/116/249 75/114/250
f 70/115/251 71/117/252 77/118/253 76/116/254
f 71/117/255 72/119/256 78/120/257 77/118/258
f 68/121/259 67/122/260 79/123/261
f 69/124/262 68/121/263 79/123/264
f 70/125/265 69/124/266 79/123/267
f 71/126/268 70/125/269 79/123/270
f 72/127/271 71/126/272 79/123/273
f 73/128/274 74/129/275 80/130/276
f 74/129/277 75/131/278 80/130/279
f 75/131/280 76/132/281 80/130/282
f 76/132/283 77/133/284 80/130/285
f 77/133/286 78/134/287 80/130/288
