# ProBuilder 4.2.3
# https://unity3d.com/unity/features/worldbuilding/probuilder
# 4/15/2021 3:02:07 PM

mtllib ./grave.mtl
o Cube

g Cube
v -12.96 0.076 5.36
v -13.96 0.076 5.36
v -12.96 1.076 5.36
v -13.96 1.076 5.36
v -13.96 0.076 -4.64
v -13.96 1.076 -4.64
v -12.96 0.076 -4.64
v -12.96 1.076 -4.64

vt 0 0
vt -1 0
vt 0 1
vt -1 1
vt -10 0
vt -10 1
vt 1 0
vt 1 1
vt 10 0
vt 10 1
vt 0 -10
vt 1 -10
vt -1 -10

vn 0 0 1
vn -1 0 0
vn 0 0 -1
vn 1 0 0
vn 0 1 0
vn 0 -1 0

usemtl OldFactory
f 3/3/1 4/4/1 2/2/1 1/1/1
f 4/3/2 6/6/2 5/5/2 2/1/2
f 6/8/3 8/3/3 7/1/3 5/7/3
f 8/10/4 3/3/4 1/1/4 7/9/4
f 8/11/5 6/12/5 4/7/5 3/1/5
f 1/1/6 2/2/6 5/13/6 7/11/6

g Cube (3)
v -0.01 -1 11
v -20.01 -1 11
v -0.01 0 11
v -20.01 0 11
v -20.01 -1 -11
v -20.01 0 -11
v -0.01 -1 -11
v -0.01 0 -11

vt 0 0
vt -20 0
vt 0 1
vt -20 1
vt -22 0
vt -22 1
vt 20 0
vt 20 1
vt 22 0
vt 22 1
vt 0 -22
vt 20 -22
vt -20 -22

vn 0 0 1
vn -1 0 0
vn 0 0 -1
vn 1 0 0
vn 0 1 0
vn 0 -1 0

usemtl DefaultHDMaterial
f 11/16/7 12/17/7 10/15/7 9/14/7
f 12/16/8 14/19/8 13/18/8 10/14/8
f 14/21/9 16/16/9 15/14/9 13/20/9
f 16/23/10 11/16/10 9/14/10 15/22/10
f 16/24/11 14/25/11 12/20/11 11/14/11
f 9/14/12 10/15/12 13/26/12 15/24/12

g Cube (1)
v 0 0 10.91
v -20 0 10.91
v 0 10 10.91
v -20 10 10.91
v -20 0 9.91
v -20 10 9.91
v 0 0 9.91
v 0 10 9.91

vt 0 0
vt -20 0
vt 0 10
vt -20 10
vt -1 0
vt -1 10
vt 20 0
vt 20 10
vt 1 0
vt 1 10
vt 0 -1
vt 20 -1
vt -20 -1

vn 0 0 1
vn -1 0 0
vn 0 0 -1
vn 1 0 0
vn 0 1 0
vn 0 -1 0

usemtl OldConcrete
f 19/29/13 20/30/13 18/28/13 17/27/13
f 20/29/14 22/32/14 21/31/14 18/27/14
f 22/34/15 24/29/15 23/27/15 21/33/15
f 24/36/16 19/29/16 17/27/16 23/35/16
f 24/37/17 22/38/17 20/33/17 19/27/17
f 17/27/18 18/28/18 21/39/18 23/37/18

g Cube
v -13.96 0.06499988 5.37
v -18.96 0.06499988 5.37
v -13.96 2.065 5.37
v -18.96 2.065 5.37
v -18.96 0.06499988 -4.63
v -18.96 2.065 -4.63
v -13.96 0.06499988 -4.63
v -13.96 2.065 -4.63

vt 0 0
vt -5 0
vt 0 2
vt -5 2
vt -10 0
vt -10 2
vt 5 0
vt 5 2
vt 10 0
vt 10 2
vt 0 -10
vt 5 -10
vt -5 -10

vn 0 0 1
vn -1 0 0
vn 0 0 -1
vn 1 0 0
vn 0 1 0
vn 0 -1 0

usemtl OldFactory
f 27/42/19 28/43/19 26/41/19 25/40/19
f 28/42/20 30/45/20 29/44/20 26/40/20
f 30/47/21 32/42/21 31/40/21 29/46/21
f 32/49/22 27/42/22 25/40/22 31/48/22
f 32/50/23 30/51/23 28/46/23 27/40/23
f 25/40/24 26/41/24 29/52/24 31/50/24

g Prism
v 1.03 9.89 12.01
v 1.030003 9.89 -11.99
v 1.030001 12.89 0.009998798
v -20.97 9.89 -11.99001
v -20.97 12.89 0.009996176
v -20.97 9.89 12.01

vt 0 0
vt 24 0
vt 12 3
vt 23.28342 0
vt 23.28342 22
vt 10.9141 0
vt 10.9141 22
vt -24 0
vt -12 3
vt 0 22
vt 12.36932 22
vt 12.36932 0
vt -24 22

vn 1 0 1.192093E-07
vn 2.89125E-08 0.9701425 -0.2425357
vn -1 0 -1.192093E-07
vn -2.89125E-08 0.9701425 0.2425357
vn 0 -1 0

usemtl OldConcrete
f 33/53/25 34/54/25 35/55/25
f 36/60/27 38/53/27 37/61/27
f 35/58/26 34/56/26 36/57/26
f 36/57/26 37/59/26 35/58/26
f 37/63/28 38/62/28 33/53/28
f 33/53/28 35/64/28 37/63/28
f 36/65/29 34/60/29 33/53/29
f 33/53/29 38/62/29 36/65/29

g Cube
v -16.48 2.08 2.66
v -18.98 2.08 2.66
v -16.48 4.08 2.66
v -18.98 4.08 2.66
v -18.98 2.08 -2.34
v -18.98 4.08 -2.34
v -16.48 2.08 -2.34
v -16.48 4.08 -2.34

vt 0 0
vt -2.5 0
vt 0 2
vt -2.5 2
vt -5 0
vt -5 2
vt 2.5 0
vt 2.5 2
vt 5 0
vt 5 2
vt 0 -5
vt 2.5 -5
vt -2.5 -5

vn 0 0 1
vn -1 0 0
vn 0 0 -1
vn 1 0 0
vn 0 1 0
vn 0 -1 0

usemtl OldMetal
f 41/68/30 42/69/30 40/67/30 39/66/30
f 42/68/31 44/71/31 43/70/31 40/66/31
f 44/73/32 46/68/32 45/66/32 43/72/32
f 46/75/33 41/68/33 39/66/33 45/74/33
f 46/76/34 44/77/34 42/72/34 41/66/34
f 39/66/35 40/67/35 43/78/35 45/76/35

g Cube (4)
v -0.01 -1 11
v -20.01 -1 11
v -0.01 0 11
v -20.01 0 11
v -20.01 -1 -11
v -20.01 0 -11
v -0.01 -1 -11
v -0.01 0 -11

vt 0 0
vt -20 0
vt 0 1
vt -20 1
vt -22 0
vt -22 1
vt 20 0
vt 20 1
vt 22 0
vt 22 1
vt 0 -22
vt 20 -22
vt -20 -22

vn 0 0 1
vn -1 0 0
vn 0 0 -1
vn 1 0 0
vn 0 1 0
vn 0 -1 0

usemtl OldConcrete
f 49/81/36 50/82/36 48/80/36 47/79/36
f 50/81/37 52/84/37 51/83/37 48/79/37
f 52/86/38 54/81/38 53/79/38 51/85/38
f 54/88/39 49/81/39 47/79/39 53/87/39
f 54/89/40 52/90/40 50/85/40 49/79/40
f 47/79/41 48/80/41 51/91/41 53/89/41

g Cube (2)
v -19.01 0 -9.99
v -19.00468 0 10.01
v -19.01 10 -9.99
v -19.00468 10 10.01
v -20.00468 0 10.01027
v -20.00468 10 10.01027
v -20.01 0 -9.989734
v -20.01 10 -9.989734

vt 0 0
vt -20 0
vt 0 10
vt -20 10
vt -1 0
vt -1 10
vt 20 0
vt 20 10
vt 1 0
vt 1 10
vt 0 -1
vt 20 -1
vt -20 -1

vn 1 0 -0.0002659559
vn 0.0002659559 0 1
vn -1 0 0.0002659559
vn -0.0002659559 0 -1
vn 0 1 0
vn 0 -1 0

usemtl OldConcrete
f 57/94/42 58/95/42 56/93/42 55/92/42
f 58/94/43 60/97/43 59/96/43 56/92/43
f 60/99/44 62/94/44 61/92/44 59/98/44
f 62/101/45 57/94/45 55/92/45 61/100/45
f 62/102/46 60/103/46 58/98/46 57/92/46
f 55/92/47 56/93/47 59/104/47 61/102/47

g Cube
v 0 0 -9.92
v -20 0 -9.92
v 0 10 -9.92
v -20 10 -9.92
v -20 0 -10.92
v -20 10 -10.92
v 0 0 -10.92
v 0 10 -10.92

vt 0 0
vt -20 0
vt 0 10
vt -20 10
vt -1 0
vt -1 10
vt 20 0
vt 20 10
vt 1 0
vt 1 10
vt 0 -1
vt 20 -1
vt -20 -1

vn 0 0 1
vn -1 0 0
vn 0 0 -1
vn 1 0 0
vn 0 1 0
vn 0 -1 0

usemtl OldConcrete
f 65/107/48 66/108/48 64/106/48 63/105/48
f 66/107/49 68/110/49 67/109/49 64/105/49
f 68/112/50 70/107/50 69/105/50 67/111/50
f 70/114/51 65/107/51 63/105/51 69/113/51
f 70/115/52 68/116/52 66/111/52 65/105/52
f 63/105/53 64/106/53 67/117/53 69/115/53

