# ProBuilder 4.2.3
# https://unity3d.com/unity/features/worldbuilding/probuilder
# 4/15/2021 3:10:08 PM

mtllib ./graveyard.mtl
o graveyard

g Cube (7)
v 80.0602 -1 -55.5
v -20.8 -1 -55.5
v 80.0602 9 -55.5
v -20.8 9 -55.5
v -20.8 -1 -56.5
v -20.8 9 -56.5
v 80.0602 -1 -56.5
v 80.0602 9 -56.5
v 80.04385 -1 -56.5
v 80.04385 -1 -55.5
v 80.04385 9 -56.5
v 80.04385 9 -55.5

vt 0.1720417 0
vt -20 0
vt 0.1720417 10
vt -20 10
vt 0 0
vt -1 0
vt 0 10
vt -1 10
vt 20 0
vt -0.1720417 0
vt 20 10
vt -0.1720417 10
vt 1 0
vt 1 10
vt -0.1720417 -1
vt 20 -1
vt 0.1720417 -1
vt -20 -1
vt -0.1687718 -1
vt -0.1687718 0
vt 0.1687718 10
vt 0.1687718 0
vt -0.1687718 10
vt 0.1687718 -1

vn 0 0 1
vn -5 0 0
vn 0 0 -1
vn 5 0 0
vn 0 1 0
vn 0 -1 0

usemtl GraveyardBrickWall
f 3/3/1 4/4/1 2/2/1 1/1/1
f 4/7/2 6/8/2 5/6/2 2/5/2
f 6/11/3 8/12/3 7/10/3 5/9/3
f 11/14/4 12/7/4 10/5/4 9/13/4
f 8/15/5 6/16/5 4/9/5 3/10/5
f 1/1/6 2/2/6 5/18/6 7/17/6
f 9/19/5 10/20/5 1/10/5 7/15/5
f 11/21/1 9/22/1 7/1/1 8/3/1
f 10/20/3 12/23/3 3/12/3 1/10/3
f 12/22/6 11/24/6 8/17/6 3/1/6

g Cube (8)
v -21.8 -2 53.51529
v -21.79999 -2 -56.48238
v -21.80001 9.001499 53.51529
v -21.79999 9.001499 -56.48248
v -20.79999 -2 -56.48238
v -20.79999 9.001499 -56.48248
v -20.8 -2 53.51529
v -20.80001 9.001499 53.51529

vt -0.7474515 -1.192083E-07
vt -19.08039 -1.192083E-07
vt -0.7474515 11.0015
vt -19.08041 11.0015
vt 1.702587E-06 2.965279E-05
vt -1 2.965279E-05
vt 7.424645E-06 11.00153
vt -0.9999946 11.00153
vt 19.08039 -6.447414E-07
vt 0.7474517 -6.447414E-07
vt 19.08041 11.0015
vt 0.7474517 11.0015
vt 0.9999982 -1.192093E-07
vt 0.9999925 11.0015
vt -7.618783E-06 11.0015
vt 0.7474516 -0.9999924
vt 19.08041 -0.9999946
vt -0.7474516 -0.9999982
vt -19.08039 -1

vn -1 -5.190315E-07 -2.012329E-07
vn 7.152557E-07 -1.560345E-06 -6.000001
vn 1 5.255332E-07 8.409829E-07
vn -6.556511E-07 3.100127E-14 6.000001
vn 0 1 0
vn 0 -1 0

usemtl GraveyardBrickWall
f 15/27/7 16/28/7 14/26/7 13/25/7
f 16/31/8 18/32/8 17/30/8 14/29/8
f 18/35/9 20/36/9 19/34/9 17/33/9
f 20/38/10 15/39/10 13/29/10 19/37/10
f 20/40/11 18/41/11 16/33/11 15/34/11
f 13/25/12 14/26/12 17/43/12 19/42/12

g Cube (6)
v 79.93699 -1 53.5
v -20.8 -1 53.5
v 79.93699 9 53.5
v -20.8 9 53.5
v -20.8 -1 52.5
v -20.8 9 52.5
v 79.93699 -1 52.5
v 79.93699 9 52.5
v 79.9492 -1 52.5
v 79.9492 -1 53.5
v 79.9492 9 52.5
v 79.9492 9 53.5

vt 0.1473988 0
vt -20 0
vt 0.1473988 10
vt -20 10
vt 0 0
vt -1 0
vt 0 10
vt -1 10
vt 20 0
vt -0.1473988 0
vt 20 10
vt -0.1473988 10
vt 1 0
vt 1 10
vt -0.1473988 -1
vt 20 -1
vt 0.1473988 -1
vt -20 -1
vt 0.1498402 -1
vt 0.1498402 0
vt -0.1498402 10
vt -0.1498402 0
vt 0.1498402 10
vt -0.1498402 -1

vn 0 0 1
vn -5 0 0
vn 0 0 -1
vn 5 0 0
vn 0 1 0
vn 0 -1 0

usemtl GraveyardBrickWall
f 23/46/13 24/47/13 22/45/13 21/44/13
f 24/50/14 26/51/14 25/49/14 22/48/14
f 26/54/15 28/55/15 27/53/15 25/52/15
f 31/57/16 32/50/16 30/48/16 29/56/16
f 28/58/17 26/59/17 24/52/17 23/53/17
f 21/44/18 22/45/18 25/61/18 27/60/18
f 29/62/18 30/63/18 21/44/18 27/60/18
f 31/64/15 29/65/15 27/53/15 28/55/15
f 30/63/13 32/66/13 23/46/13 21/44/13
f 32/65/17 31/67/17 28/58/17 23/53/17

g Cube (13)
v 78.7 -1.8 40.81529
v 78.70001 -1.8 -42.8843
v 78.69999 14.32146 40.81529
v 78.7 14.32146 -42.88443
v 78.70001 -1.8 -45.68808
v 79.70001 -1.8 -45.68808
v 78.7 14.32146 -45.68821
v 79.7 14.32146 -45.68821
v 79.70001 -1.8 -42.8843
v 79.7 -1.8 40.81529
v 79.7 14.32146 -42.88443
v 79.69999 14.32146 40.81529
v 79.69999 -1.8 42.75501
v 78.69999 -1.8 42.75502
v 79.69998 14.32146 42.75501
v 78.69998 14.32146 42.75502
v 78.69999 14.50737 40.81529
v 78.7 14.50737 -42.88445
v 79.69999 14.50737 40.81529
v 79.7 14.50737 -42.88445
v 79.7 14.50737 -45.68823
v 78.7 14.50737 -45.68823
v 78.69998 14.50737 42.75502
v 79.69998 14.50737 42.75501

vt -0.7474515 -1.192083E-07
vt -14.69738 1.005793E-12
vt -0.7474519 16.12146
vt -14.6974 16.12146
vt -3.935332E-06 1.973565E-05
vt -1.000004 1.973565E-05
vt 3.694079E-06 16.12148
vt -0.9999964 16.12148
vt 14.69738 -6.285272E-07
vt 0.7474523 -7.477365E-07
vt 14.6974 16.12146
vt 0.7474526 16.12146
vt 0.999992 -2.384185E-07
vt 0.9999844 16.12146
vt 0.7474519 -0.9999915
vt 14.69741 -0.9999968
vt -0.7474516 -0.9999982
vt -14.69738 -1.000007
vt -15.16468 -3.935332E-06
vt -15.16468 -1.000004
vt -15.1647 16.12146
vt 15.16467 -6.285804E-07
vt 15.16469 16.12146
vt 15.1647 -0.9999964
vt -0.4241646 -0.9999917
vt -0.4241639 8.409619E-06
vt 0.4241874 16.12146
vt 0.4241874 -6.525005E-07
vt -0.4241639 16.12146
vt 0.4241646 -0.9999841
vt 14.69741 16.30737
vt 0.7474523 16.30737
vt 15.1647 16.30737
vt -14.69741 16.30737
vt -15.1647 16.30737
vt 3.694079E-06 16.12177
vt -0.9999964 16.12177
vt 3.694081E-06 16.30768
vt -0.9999964 16.30768
vt -0.7474519 16.30737
vt -0.4241639 16.30737
vt 0.4241874 16.30737
vt 0.9999844 16.30737
vt -1.576091E-05 16.30737

vn -1 -4.148285E-07 -3.903186E-06
vn 7.152557E-07 -1.301422E-06 -6.000001
vn 1 6.285287E-07 3.887781E-06
vn -5.960462E-08 3.102833E-13 6.000001
vn 0 1 0
vn 5.602875E-15 -1 -5.127308E-08

usemtl GraveyardBrickWall
f 35/70/19 36/71/19 34/69/19 33/68/19
f 39/74/20 40/75/20 38/73/20 37/72/20
f 43/78/21 44/79/21 42/77/21 41/76/21
f 47/81/22 48/74/22 46/72/22 45/80/22
f 51/82/23 52/83/23 50/76/23 49/77/23
f 33/68/24 34/69/24 41/85/24 42/84/24
f 37/86/24 38/87/24 41/85/24 34/69/24
f 39/88/19 37/86/19 34/69/19 36/71/19
f 38/89/21 40/90/21 43/78/21 41/76/21
f 53/91/23 54/89/23 50/76/23 52/83/23
f 45/92/24 46/93/24 33/68/24 42/84/24
f 47/94/21 45/95/21 42/77/21 44/79/21
f 46/93/19 48/96/19 35/70/19 33/68/19
f 55/95/23 56/97/23 51/82/23 49/77/23
f 52/98/21 51/99/21 44/79/21 43/78/21
f 53/100/21 52/98/21 43/78/21 40/90/21
f 50/101/19 54/102/19 39/88/19 36/71/19
f 54/105/20 53/106/20 40/104/20 39/103/20
f 49/107/19 50/101/19 36/71/19 35/70/19
f 55/108/19 49/107/19 35/70/19 48/96/19
f 51/99/21 56/109/21 47/94/21 44/79/21
f 56/110/22 55/111/22 48/74/22 47/81/22

g Cube (5)
v 79.1 -1.99 53.5
v -20.80375 -1.99 53.5
v 79.1 -0.99 53.5
v -20.80375 -0.99 53.5
v -20.80375 -1.99 -56.5
v -20.80375 -0.99 -56.5
v 79.1 -1.99 -56.5
v 79.1 -0.99 -56.5

vt 0 0
vt -19.98075 0
vt 0 1
vt -19.98075 1
vt -22 0
vt -22 1
vt 19.98075 0
vt 19.98075 1
vt 22 0
vt 22 1
vt 0 -22
vt 19.98075 -22
vt -19.98075 -22

vn 8.762867E-08 0 5
vn -5 0 0
vn 0 0 -5
vn 5 0 0
vn 0 1 0
vn 0 -1 0

usemtl GraveyardDirt
f 59/114/25 60/115/25 58/113/25 57/112/25
f 60/114/26 62/117/26 61/116/26 58/112/26
f 62/119/27 64/114/27 63/112/27 61/118/27
f 64/121/28 59/114/28 57/112/28 63/120/28
f 64/122/29 62/123/29 60/118/29 59/112/29
f 57/112/30 58/113/30 61/124/30 63/122/30

