# ProBuilder 4.2.3
# https://unity3d.com/unity/features/worldbuilding/probuilder
# 4/16/2021 3:08:52 PM

mtllib ./graveline.mtl
o graveline

g Cube (81)
v 0 0 0
v -0.5 0 0
v 0 3 0
v -0.5 3.652127 0
v -0.5 0 -1
v -0.5 3.652127 -1
v 0 0 -1
v 0 3 -1

vt 0 0
vt -0.5 0
vt 0 3
vt -0.5 3.652127
vt -1 0
vt 0 3.652127
vt -1 3.652127
vt 0.5 0
vt 0.5 3.652127
vt 1 0
vt 1 3
vt 0 2.380756
vt 0 3.202504
vt 1 2.380756
vt 1 3.202504
vt 0 -1
vt -0.5 -1

vn 0 0 1
vn -1 0 0
vn 0 0 -1
vn 1 0 0
vn 0.7935854 0.608459 0
vn 0 -1 0

usemtl DefaultHDMaterial
f 3/3/1 4/4/1 2/2/1 1/1/1
f 4/6/2 6/7/2 5/5/2 2/1/2
f 6/9/3 8/3/3 7/1/3 5/8/3
f 8/11/4 3/3/4 1/1/4 7/10/4
f 8/14/5 6/15/5 4/13/5 3/12/5
f 1/1/6 2/2/6 5/17/6 7/16/6

