# ProBuilder 4.2.3
# https://unity3d.com/unity/features/worldbuilding/probuilder
# 4/16/2021 3:23:26 PM

mtllib ./graveyardfloor.mtl
o graveyardfloor

g Cube (5)
v 0 0 0
v -19.98075 0 3.501773E-07
v 0 1 0
v -19.98075 1 3.501773E-07
v -19.98075 0 -22
v -19.98075 1 -22
v 0 0 -22
v 0 1 -22

vt 0 0
vt -19.98075 0
vt 0 1
vt -19.98075 1
vt -22 0
vt -22 1
vt 19.98075 0
vt 19.98075 1
vt 22 0
vt 22 1
vt 0 -22
vt 19.98075 -22
vt -19.98075 -22

vn 1.752573E-08 0 1
vn -1 0 0
vn 0 0 -1
vn 1 0 0
vn 0 1 0
vn 0 -1 0

usemtl Dirt
f 3/3/1 4/4/1 2/2/1 1/1/1
f 4/3/2 6/6/2 5/5/2 2/1/2
f 6/8/3 8/3/3 7/1/3 5/7/3
f 8/10/4 3/3/4 1/1/4 7/9/4
f 8/11/5 6/12/5 4/7/5 3/1/5
f 1/1/6 2/2/6 5/13/6 7/11/6

