# This file uses centimeters as units for non-parametric coordinates.

mtllib horneddemon2.mtl
g default
v -10.916694 1.358305 0.169969
v -10.048772 0.728228 1.242483
v -10.916694 1.358305 2.314997
v -11.784619 1.988380 1.242484
v -13.137831 -2.645824 1.242484
v -9.420282 4.526777 1.242484
v -8.444883 3.818678 0.214383
v -8.444883 3.818678 2.270584
v -7.469483 3.110579 1.242483
vt 0.392618 0.664493
vt 0.427680 0.725531
vt 0.396294 0.794381
vt 0.360179 0.733196
vt 0.310898 0.823346
vt 0.349883 0.818450
vt 0.337217 0.928673
vt 0.382553 0.866391
vt 0.402881 0.945540
vt 0.276241 0.869577
vt 0.269421 0.783186
vt 0.314093 0.744846
vt 0.427232 0.877848
vn 0.587475 0.809242 0.000000
vn 0.587475 0.809242 0.000000
vn 0.587475 0.809242 0.000000
vn 0.587475 0.809242 0.000000
vn 0.491948 -0.486560 -0.721974
vn 0.490994 -0.486777 -0.722477
vn 0.523219 -0.479024 -0.704825
vn 0.490994 -0.486777 0.722477
vn 0.491948 -0.486560 0.721974
vn 0.523219 -0.479024 0.704825
vn -0.565032 0.391953 0.726025
vn -0.566927 0.389701 0.725759
vn -0.698905 0.204084 0.685479
vn -0.566927 0.389701 -0.725759
vn -0.565032 0.391953 -0.726024
vn -0.698905 0.204084 -0.685479
vn -0.565032 0.391953 -0.726024
vn -0.566927 0.389701 -0.725759
vn -0.486850 0.477510 -0.731411
vn -0.486850 0.477510 -0.731411
vn -0.566927 0.389701 0.725759
vn -0.565032 0.391953 0.726025
vn -0.486850 0.477510 0.731411
vn -0.486850 0.477510 0.731411
vn 0.491948 -0.486560 0.721974
vn 0.490994 -0.486777 0.722477
vn 0.476250 -0.490046 0.730096
vn 0.476250 -0.490046 0.730096
vn 0.490994 -0.486777 -0.722477
vn 0.491948 -0.486560 -0.721974
vn 0.476250 -0.490046 -0.730096
vn 0.476250 -0.490046 -0.730096
s off
g horneddemon1:pPyramid5 group1
usemtl horneddemon1:lambert7SG
f 7/1/1 6/2/2 8/3/3 9/4/4
f 1/5/5 2/6/6 5/7/7
f 2/6/8 3/8/9 5/7/10
f 3/8/11 4/9/12 5/7/13
f 4/10/14 1/5/15 5/7/16
f 1/5/17 4/10/18 6/11/19 7/12/20
f 4/9/21 3/8/22 8/3/23 6/13/24
f 3/8/25 2/6/26 9/4/27 8/3/28
f 2/6/29 1/5/30 7/12/31 9/4/32
g default
v 10.916693 1.358305 0.169970
v 10.048773 0.728229 1.242483
v 10.916693 1.358305 2.314997
v 11.784618 1.988380 1.242484
v 13.137831 -2.645824 1.242484
v 9.420280 4.526776 1.242484
v 8.444883 3.818679 0.214383
v 8.444883 3.818679 2.270584
v 7.469481 3.110578 1.242483
vt 0.271161 0.737698
vt 0.303257 0.733562
vt 0.318287 0.762110
vt 0.286744 0.766174
vt 0.374694 0.850129
vt 0.401876 0.855969
vt 0.354239 0.967939
vt 0.316107 0.852387
vt 0.343682 0.848834
vt 0.359384 0.844785
vt 0.362979 0.758737
vt 0.407506 0.765885
vt 0.438055 0.772448
vn 0.587475 -0.809242 0.000000
vn 0.587475 -0.809242 0.000000
vn 0.587475 -0.809242 0.000000
vn 0.587475 -0.809242 0.000000
vn -0.493814 -0.486132 -0.720988
vn -0.493305 -0.486249 -0.721258
vn -0.523218 -0.479024 -0.704825
vn -0.493305 -0.486250 0.721257
vn -0.493814 -0.486133 0.720987
vn -0.523219 -0.479024 0.704825
vn 0.573866 0.381376 0.724728
vn 0.574121 0.381067 0.724688
vn 0.698905 0.204083 0.685480
vn 0.574121 0.381067 -0.724688
vn 0.573866 0.381376 -0.724728
vn 0.698905 0.204083 -0.685480
vn 0.573866 0.381376 -0.724728
vn 0.574121 0.381067 -0.724688
vn 0.486849 0.477510 -0.731411
vn 0.486849 0.477510 -0.731411
vn 0.574121 0.381067 0.724688
vn 0.573866 0.381376 0.724728
vn 0.486849 0.477510 0.731411
vn 0.486849 0.477510 0.731411
vn -0.493814 -0.486133 0.720987
vn -0.493305 -0.486250 0.721257
vn -0.476250 -0.490047 0.730096
vn -0.476250 -0.490047 0.730096
vn -0.493305 -0.486249 -0.721258
vn -0.493814 -0.486132 -0.720988
vn -0.476250 -0.490046 -0.730097
vn -0.476250 -0.490046 -0.730097
s off
g group1 horneddemon1:pPyramid6
usemtl horneddemon1:lambert7SG
f 16/14/33 15/15/34 17/16/35 18/17/36
f 10/18/37 11/19/38 14/20/39
f 11/21/40 12/22/41 14/20/42
f 12/22/43 13/23/44 14/20/45
f 13/23/46 10/18/47 14/20/48
f 10/18/49 13/23/50 15/24/51 16/25/52
f 13/23/53 12/22/54 17/16/55 15/24/56
f 12/22/57 11/21/58 18/17/59 17/16/60
f 11/19/61 10/18/62 16/25/63 18/26/64
g default
v -0.882564 3.100067 4.789425
v 1.677663 3.100067 4.789425
v -4.162325 5.767943 5.579611
v 4.957365 5.767943 5.579611
v -4.162325 5.767943 0.784001
v 4.957365 5.767943 0.784001
v -0.882564 3.100067 1.574187
v 1.677663 3.100067 1.574187
v -2.930746 12.674628 5.579611
v 3.725813 12.674628 5.579611
v 3.725813 12.674628 0.784001
v -2.930746 12.674628 0.784001
v 0.464902 3.100067 4.789425
v 0.464902 3.100067 1.574187
v 0.637532 5.767943 0.784001
v 0.572708 12.674628 0.784001
v 0.572708 12.052161 5.606972
v 0.637532 6.390415 6.256013
v -2.329006 13.835211 5.579611
v -0.029024 12.985626 5.579611
v -0.029024 12.985626 0.784001
v -2.329006 13.835211 0.784001
v 1.105943 13.097635 0.784001
v 1.105943 13.097635 5.579611
v 3.192587 13.699480 5.579611
v 3.192587 13.699480 0.784001
v -3.402148 10.030994 5.579611
v 0.597532 9.885049 5.855402
v 4.197199 10.030994 5.579611
v 3.564837 10.030994 0.784001
v 0.564245 10.030994 0.784001
v -2.769778 10.030994 0.784001
v 6.745420 10.640155 5.042583
v 6.745420 10.640155 1.321029
v 6.327522 12.983795 1.321029
v 6.327522 12.983795 5.042583
v -5.950381 10.640155 1.321029
v -5.950381 10.640155 5.042583
v -5.532481 12.983795 5.042583
v -5.532481 12.983795 1.321029
v 9.680162 13.441303 4.361496
v 9.680162 13.441303 2.002116
v 8.578407 14.659801 2.002116
v 8.578407 14.659801 4.361496
v -8.900936 13.455980 2.002116
v -8.900936 13.455980 4.361496
v -7.767542 14.645109 4.361496
v -7.767542 14.645109 2.002116
v 10.647797 17.507683 3.620819
v 10.647797 17.507683 2.742793
v 9.979210 17.507685 2.742793
v 9.979210 17.507685 3.620819
v -9.651963 17.685551 2.646868
v -9.651963 17.685551 3.716743
v -8.813887 17.685562 3.716743
v -8.813887 17.685562 2.646868
v 0.637532 5.752956 -4.448027
v 4.957365 5.752956 -4.448027
v 0.531258 9.949872 -3.700021
v 2.938112 9.949872 -3.700021
v -2.143039 9.949872 -3.700021
v -4.162325 5.752956 -4.448027
v 0.809071 -0.426855 1.505030
v 8.216154 -0.426855 1.505031
v 0.809071 -0.345734 -6.256013
v 8.216154 -0.345734 -6.256013
v -7.421097 -0.426855 1.505031
v -7.421097 -0.345734 -6.256013
v 0.736592 -0.419711 0.408944
v 6.839283 -0.419711 0.408944
v 0.736592 -0.352874 -5.159924
v 6.839283 -0.352874 -5.159924
v -6.044227 -0.419711 0.408944
v -6.044227 -0.352874 -5.159924
v 0.736592 -10.819964 0.284123
v 6.839283 -10.819964 0.284124
v 0.736592 -10.753128 -5.284745
v 6.839283 -10.753128 -5.284745
v -6.044227 -10.819964 0.284124
v -6.044227 -10.753128 -5.284745
vt 0.280709 0.302723
vt 0.220282 0.308049
vt 0.208481 0.258435
vt 0.263309 0.217520
vt 0.645854 0.279718
vt 0.436392 0.288964
vt 0.441768 0.238567
vt 0.635653 0.230230
vt 0.079615 0.310822
vt 0.015449 0.307938
vt 0.013404 0.204174
vt 0.079040 0.281691
vt 0.126608 0.116279
vt 0.164676 0.054192
vt 0.133314 0.505936
vt 0.210371 0.361185
vt 0.266580 0.400108
vt 0.173450 0.566705
vt 0.423620 0.301998
vt 0.361018 0.302404
vt 0.360869 0.200059
vt 0.427508 0.226518
vt 0.099427 0.930100
vt 0.081723 0.948953
vt 0.076606 0.939287
vt 0.094153 0.918412
vt 0.716259 0.215125
vt 0.721716 0.287007
vt 0.651685 0.292120
vt 0.652635 0.216076
vt 0.120727 0.973327
vt 0.112117 0.942088
vt 0.119399 0.934784
vt 0.128363 0.966593
vt 0.080253 0.343189
vt 0.017721 0.423233
vt 0.727780 0.366878
vt 0.664742 0.375542
vt 0.447335 0.371509
vt 0.435863 0.316239
vt 0.648823 0.306832
vt 0.641945 0.362756
vt 0.364495 0.414313
vt 0.430183 0.385652
vt 0.530565 0.569939
vt 0.555108 0.556703
vt 0.522033 0.039160
vt 0.544057 0.050168
vt 0.253248 0.002764
vt 0.663865 0.934136
vt 0.676066 0.905541
vt 0.704148 0.916691
vt 0.697350 0.932624
vt 0.710250 0.899228
vt 0.690594 0.873281
vt 0.263705 0.615121
vt 0.118441 0.741233
vt 0.221489 0.826675
vt 0.188615 0.850487
vt 0.123112 0.789439
vt 0.220297 0.888748
vt 0.189869 0.888335
vt 0.007003 0.851890
vt 0.089277 0.765956
vt 0.100895 0.812968
vt 0.032426 0.884817
vt 0.006735 0.811737
vt 0.089223 0.755220
vt 0.091066 0.804349
vt 0.030158 0.856524
vt 0.116178 0.762937
vt 0.114522 0.814739
vt 0.195997 0.814842
vt 0.180916 0.856355
vt 0.221511 0.827201
vt 0.203114 0.875322
vt 0.155324 0.891080
vt 0.120282 0.857687
vt 0.161480 0.914837
vt 0.101103 0.859816
vt 0.054858 0.899922
vt 0.100059 0.872171
vt 0.061502 0.910724
vt 0.116167 0.873365
vt 0.159891 0.899397
vt 0.172804 0.915648
vt 0.128241 0.956158
vt 0.141169 0.965748
vt 0.085448 0.933180
vt 0.095204 0.962577
vt 0.135662 0.946057
vt 0.139082 0.958830
vt 0.886053 0.769511
vt 0.846194 0.751064
vt 0.876854 0.684815
vt 0.916713 0.703263
vt 0.758118 0.939978
vt 0.749643 0.959840
vt 0.791766 0.896976
vt 0.818517 0.884521
vt 0.849039 0.945674
vt 0.817551 0.949800
vt 0.767535 0.917908
vt 0.801906 0.730566
vt 0.832566 0.664318
vt 0.757938 0.856485
vt 0.765756 0.884938
vt 0.789349 0.872193
vt 0.809195 0.832250
vt 0.856974 0.855208
vt 0.614289 0.938483
vt 0.635211 0.889450
vt 0.898820 0.948133
vt 0.755396 0.808196
vt 0.657965 0.835703
vt 0.814756 0.818992
vt 0.854615 0.837439
vt 0.604963 0.923729
vt 0.622200 0.883332
vt 0.871946 0.864320
vt 0.901919 0.930883
vt 0.770468 0.798495
vt 0.668618 0.822909
vt 0.738760 0.802681
vt 0.641352 0.838446
vt 0.536117 0.894354
vt 0.553355 0.853956
vt 0.940673 0.834624
vt 0.970647 0.901187
vt 0.646776 0.751297
vt 0.716918 0.731069
vt 0.572507 0.809070
vn 0.001166 -0.086272 0.996271
vn -0.001702 -0.385581 0.922672
vn 0.068721 -0.387948 0.919116
vn 0.107496 -0.088138 0.990291
vn -0.277130 0.960832 0.000000
vn -0.277130 0.960832 0.000000
vn -0.277130 0.960832 0.000000
vn -0.277130 0.960832 0.000000
vn 0.000000 -0.283991 -0.958827
vn 0.000000 -0.283991 -0.958827
vn 0.000000 -0.283991 -0.958827
vn 0.000000 -0.283991 -0.958827
vn 0.000000 -1.000000 0.000000
vn 0.000000 -1.000000 0.000000
vn 0.000000 -1.000000 0.000000
vn 0.000000 -1.000000 0.000000
vn 0.631037 -0.775753 0.000000
vn 0.631037 -0.775753 0.000000
vn 0.631037 -0.775753 0.000000
vn 0.631037 -0.775753 0.000000
vn -0.631030 -0.775758 0.000000
vn -0.631030 -0.775758 0.000000
vn -0.631030 -0.775758 0.000000
vn -0.631030 -0.775758 0.000000
vn 0.000018 0.049273 0.998785
vn -0.000312 0.060416 0.998173
vn 0.118369 0.055824 0.991399
vn 0.095707 0.042279 0.994511
vn 0.000003 1.000000 0.000000
vn 0.000003 1.000000 0.000000
vn 0.000003 1.000000 0.000000
vn 0.000003 1.000000 0.000000
vn 0.077466 0.003991 -0.996987
vn 0.000000 0.000000 -1.000000
vn 0.000000 0.000000 -1.000000
vn 0.085945 0.004427 -0.996290
vn -0.000015 1.000000 0.000000
vn -0.000015 1.000000 0.000000
vn -0.000015 1.000000 0.000000
vn -0.000015 1.000000 0.000000
vn 0.000000 -1.000000 0.000000
vn 0.000000 -1.000000 0.000000
vn 0.000000 -1.000000 0.000000
vn 0.000000 -1.000000 0.000000
vn 0.000000 -0.283990 -0.958827
vn 0.000000 -0.283991 -0.958827
vn 0.000000 -0.283991 -0.958827
vn 0.000000 -0.283991 -0.958827
vn 0.000000 0.000000 -1.000000
vn 0.000000 0.000000 -1.000000
vn -0.072815 0.003751 -0.997338
vn -0.081088 0.004177 -0.996698
vn 0.346504 0.938049 0.000000
vn 0.346504 0.938049 0.000000
vn 0.346504 0.938049 0.000000
vn 0.346504 0.938049 0.000000
vn -0.108985 0.054799 0.992532
vn -0.000312 0.060416 0.998173
vn 0.000018 0.049273 0.998785
vn -0.089368 0.042249 0.995102
vn -0.062775 -0.381973 0.922039
vn -0.001702 -0.385581 0.922672
vn 0.001166 -0.086272 0.996271
vn -0.097492 -0.082645 0.991799
vn -0.089368 0.042249 0.995102
vn 0.000018 0.049273 0.998785
vn -0.001400 0.013065 0.999914
vn -0.001400 0.013065 0.999914
vn 0.717627 0.694974 0.044975
vn 0.717627 0.694974 0.044975
vn 0.717627 0.694974 0.044975
vn 0.717627 0.694974 0.044975
vn 0.000000 0.000000 -1.000000
vn -0.081088 0.004177 -0.996698
vn 0.000000 0.000000 -1.000000
vn 0.000000 0.000000 -1.000000
vn -0.887768 0.460292 0.000000
vn -0.887768 0.460292 0.000000
vn -0.887768 0.460292 0.000000
vn -0.887768 0.460292 0.000000
vn -0.808211 0.587664 0.038031
vn -0.808211 0.587664 0.038031
vn -0.808211 0.587664 0.038031
vn -0.808211 0.587664 0.038031
vn 0.000018 0.049273 0.998785
vn 0.095707 0.042279 0.994511
vn 0.002134 0.013215 0.999910
vn 0.002134 0.013215 0.999910
vn 0.887109 0.461560 0.000000
vn 0.887109 0.461560 0.000000
vn 0.887109 0.461560 0.000000
vn 0.887109 0.461560 0.000000
vn 0.085945 0.004427 -0.996290
vn 0.000000 0.000000 -1.000000
vn 0.000000 0.000000 -1.000000
vn 0.000000 0.000000 -1.000000
vn -0.097492 -0.082645 0.991799
vn 0.001166 -0.086272 0.996271
vn -0.000312 0.060416 0.998173
vn -0.108985 0.054799 0.992532
vn 0.118369 0.055824 0.991399
vn -0.000312 0.060416 0.998173
vn 0.001166 -0.086272 0.996271
vn 0.107496 -0.088138 0.990291
vn 0.967598 0.244302 -0.063795
vn 0.916717 0.398539 -0.028225
vn 0.947134 0.314451 -0.063705
vn 0.967598 0.244302 -0.063795
vn 0.000000 0.264982 -0.964253
vn 0.000000 0.254381 -0.967104
vn 0.000000 0.175462 -0.984486
vn 0.000000 0.175463 -0.984486
vn 0.000000 0.175462 -0.984486
vn 0.000000 0.175462 -0.984486
vn 0.000000 0.254381 -0.967104
vn 0.000000 0.264982 -0.964253
vn -0.916717 0.398539 -0.028225
vn -0.967598 0.244305 -0.063796
vn -0.967598 0.244305 -0.063796
vn -0.947132 0.314455 -0.063706
vn 0.207989 -0.978009 -0.015442
vn 0.207989 -0.978009 -0.015442
vn 0.417826 -0.908477 -0.009563
vn 0.413665 -0.910378 -0.009690
vn 0.077466 0.003991 -0.996987
vn 0.085945 0.004427 -0.996290
vn 0.184786 0.045987 -0.981702
vn 0.183709 0.034764 -0.982366
vn -0.118002 0.993013 0.000000
vn -0.118002 0.993013 0.000000
vn -0.276570 0.960994 0.000000
vn -0.276570 0.960994 0.000000
vn 0.095707 0.042279 0.994511
vn 0.118369 0.055824 0.991399
vn 0.194288 0.052061 0.979562
vn 0.192618 0.059510 0.979468
vn -0.207988 -0.978009 -0.015442
vn -0.207988 -0.978009 -0.015442
vn -0.414433 -0.910028 -0.009666
vn -0.418597 -0.908122 -0.009539
vn -0.108985 0.054799 0.992532
vn -0.089368 0.042249 0.995102
vn -0.191847 0.060422 0.979563
vn -0.193754 0.052694 0.979634
vn 0.118001 0.993014 0.000000
vn 0.118001 0.993014 0.000000
vn 0.275217 0.961382 0.000000
vn 0.275217 0.961382 0.000000
vn -0.081088 0.004177 -0.996698
vn -0.072815 0.003751 -0.997338
vn -0.183194 0.035368 -0.982440
vn -0.184042 0.046854 -0.981801
vn 0.413665 -0.910378 -0.009690
vn 0.417826 -0.908477 -0.009563
vn 0.792184 -0.610282 0.000000
vn 0.792184 -0.610282 0.000000
vn 0.183709 0.034764 -0.982366
vn 0.184786 0.045987 -0.981702
vn 0.159060 0.116972 -0.980315
vn 0.168716 0.104738 -0.980084
vn -0.276570 0.960994 0.000000
vn -0.276570 0.960994 0.000000
vn -0.690556 0.723279 0.000000
vn -0.690556 0.723279 0.000000
vn 0.192618 0.059510 0.979468
vn 0.194288 0.052061 0.979562
vn 0.168716 0.104738 0.980084
vn 0.159060 0.116972 0.980315
vn -0.418597 -0.908122 -0.009539
vn -0.414433 -0.910028 -0.009666
vn -0.809896 -0.586573 0.000000
vn -0.809896 -0.586573 0.000000
vn -0.193754 0.052694 0.979634
vn -0.191847 0.060422 0.979563
vn -0.145232 0.112712 0.982957
vn -0.159732 0.101943 0.981883
vn 0.275217 0.961382 0.000000
vn 0.275217 0.961382 0.000000
vn 0.722392 0.691484 0.000000
vn 0.722392 0.691484 0.000000
vn -0.184042 0.046854 -0.981801
vn -0.183194 0.035368 -0.982440
vn -0.159732 0.101943 -0.981883
vn -0.145232 0.112712 -0.982957
vn 0.792184 -0.610282 0.000000
vn 0.792184 -0.610282 0.000000
vn 0.972836 -0.231495 0.000000
vn 0.972836 -0.231495 0.000000
vn 0.168716 0.104738 -0.980084
vn 0.159060 0.116972 -0.980315
vn 0.116770 0.169654 -0.978561
vn 0.116770 0.169654 -0.978561
vn -0.690556 0.723279 0.000000
vn -0.690556 0.723279 0.000000
vn -0.897325 0.441371 0.000000
vn -0.897325 0.441371 0.000000
vn 0.159060 0.116972 0.980315
vn 0.168716 0.104738 0.980084
vn 0.116770 0.169654 0.978561
vn 0.116770 0.169654 0.978561
vn -0.809896 -0.586573 0.000000
vn -0.809896 -0.586573 0.000000
vn -0.984598 -0.174831 0.000000
vn -0.984598 -0.174831 0.000000
vn -0.159732 0.101943 0.981883
vn -0.145232 0.112712 0.982957
vn -0.091626 0.151907 0.984139
vn -0.091626 0.151907 0.984139
vn 0.722392 0.691484 0.000000
vn 0.722392 0.691484 0.000000
vn 0.945573 0.325410 0.000000
vn 0.945573 0.325410 0.000000
vn -0.145232 0.112712 -0.982957
vn -0.159732 0.101943 -0.981883
vn -0.091626 0.151907 -0.984139
vn -0.091626 0.151907 -0.984139
vn 0.000000 -0.999928 -0.012001
vn 0.000000 -0.999928 -0.012001
vn 0.000000 -0.999928 -0.012001
vn 0.000000 -0.999928 -0.012001
vn 0.000000 0.999836 -0.018088
vn 0.000000 0.999836 -0.018088
vn 0.000000 0.999836 -0.018088
vn 0.000000 0.999836 -0.018088
vn 0.947134 0.314451 -0.063705
vn 0.916717 0.398539 -0.028225
vn 0.894282 0.447306 -0.013304
vn 0.923607 0.378076 -0.063316
vn 0.000000 0.999836 -0.018089
vn 0.000000 0.999836 -0.018088
vn 0.000000 0.999836 -0.018088
vn 0.000000 0.999836 -0.018089
vn 0.000000 -0.999928 -0.012001
vn 0.000000 -0.999928 -0.012001
vn 0.000000 -0.999928 -0.012001
vn 0.000000 -0.999928 -0.012001
vn -0.916717 0.398539 -0.028225
vn -0.947132 0.314455 -0.063706
vn -0.923605 0.378080 -0.063318
vn -0.894282 0.447306 -0.013305
vn 0.000000 0.115612 0.993294
vn 0.000000 0.115612 0.993294
vn 0.000000 0.115612 0.993294
vn 0.000000 0.115612 0.993294
vn 0.000000 0.254381 -0.967104
vn 0.000000 0.264982 -0.964253
vn 0.000000 0.284228 -0.958757
vn 0.000000 0.284228 -0.958757
vn 0.894282 0.447306 -0.013304
vn 0.916717 0.398539 -0.028225
vn 0.883597 0.468242 0.002383
vn 0.883597 0.468242 0.002383
vn 0.000000 0.115612 0.993294
vn 0.000000 0.115612 0.993294
vn 0.000000 0.115612 0.993294
vn 0.000000 0.115612 0.993294
vn -0.916717 0.398539 -0.028225
vn -0.894282 0.447306 -0.013305
vn -0.883598 0.468240 0.002383
vn -0.883598 0.468240 0.002383
vn 0.000000 0.264982 -0.964253
vn 0.000000 0.254381 -0.967104
vn 0.000000 0.284228 -0.958757
vn 0.000000 0.284228 -0.958757
vn 0.000000 -0.999979 -0.006517
vn 0.000000 -0.999979 -0.006517
vn 0.000000 -0.999979 -0.006517
vn 0.000000 -0.999979 -0.006517
vn 0.000000 -0.999979 -0.006514
vn 0.000000 -0.999979 -0.006514
vn 0.000000 -0.999979 -0.006514
vn 0.000000 -0.999979 -0.006514
vn -0.000001 -0.999938 -0.011099
vn -0.000001 -0.999938 -0.011099
vn -0.000001 -0.999938 -0.011099
vn -0.000001 -0.999938 -0.011099
vn 0.000000 -0.999979 -0.006517
vn 0.000000 -0.999979 -0.006517
vn 0.000000 -0.999979 -0.006517
vn 0.000000 -0.999979 -0.006517
vn 0.000001 -0.999938 -0.011099
vn 0.000001 -0.999938 -0.011099
vn 0.000001 -0.999938 -0.011099
vn 0.000001 -0.999938 -0.011099
vn 0.000000 -0.999979 -0.006514
vn 0.000000 -0.999979 -0.006514
vn 0.000000 -0.999979 -0.006514
vn 0.000000 -0.999979 -0.006514
vn 0.000000 -0.012001 0.999928
vn 0.000000 -0.012001 0.999928
vn 0.000000 -0.012001 0.999928
vn 0.000000 -0.012001 0.999928
vn 0.000000 0.012001 -0.999928
vn 0.000000 0.012001 -0.999928
vn 0.000000 0.012001 -0.999928
vn 0.000000 0.012001 -0.999928
vn 1.000000 0.000000 0.000000
vn 1.000000 0.000000 0.000000
vn 1.000000 0.000000 0.000000
vn 1.000000 0.000000 0.000000
vn 0.000000 -0.012001 0.999928
vn 0.000000 -0.012001 0.999928
vn 0.000000 -0.012001 0.999928
vn 0.000000 -0.012001 0.999928
vn -1.000000 0.000000 0.000000
vn -1.000000 0.000000 0.000000
vn -1.000000 0.000000 0.000000
vn -1.000000 0.000000 0.000000
vn 0.000000 0.012001 -0.999928
vn 0.000000 0.012001 -0.999928
vn 0.000000 0.012001 -0.999928
vn 0.000000 0.012001 -0.999928
s off
g group1 horneddemon1:skulldemongroup1
usemtl horneddemon1:lambert7SG
f 36/27/65 31/28/66 20/29/67 22/30/68
f 41/31/69 42/32/70 43/33/71 44/34/72
f 32/35/73 33/36/74 24/37/75 26/38/76
f 31/28/77 32/35/78 26/38/79 20/29/80
f 20/29/81 26/39/82 24/40/83 22/30/84
f 25/41/85 19/42/86 21/43/87 23/44/88
f 35/45/89 46/46/90 47/47/91 28/48/92
f 67/49/93 68/50/94 69/51/95 70/52/96
f 48/53/97 49/54/98 34/55/99 29/56/100
f 71/57/101 72/58/102 73/59/103 74/60/104
f 25/61/105 32/35/106 31/28/107 19/42/108
f 23/62/109 33/36/110 32/35/111 25/61/112
f 34/55/113 49/54/114 50/63/115 30/64/116
f 37/65/117 38/66/118 39/67/119 40/68/120
f 45/69/121 46/46/122 35/45/123 27/70/124
f 19/42/125 31/28/126 36/27/127 21/43/128
f 27/70/129 35/45/130 38/66/131 37/65/132
f 35/45/133 34/55/134 39/67/135 38/66/136
f 34/55/137 30/64/138 40/68/139 39/67/140
f 30/71/141 27/70/142 37/65/143 40/72/144
f 34/55/145 35/45/146 42/32/147 41/31/148
f 35/45/149 28/48/150 43/33/151 42/32/152
f 28/48/153 29/73/154 44/74/155 43/33/156
f 29/56/157 34/55/158 41/31/159 44/34/160
f 21/43/161 36/27/162 46/46/163 45/69/164
f 47/47/165 46/46/166 36/27/167 22/30/168
f 22/30/169 24/40/170 48/75/171 47/47/172
f 76/76/173 75/77/174 77/78/175 78/79/176
f 79/80/177 77/78/178 75/77/179 80/81/180
f 23/44/181 21/43/182 45/69/183 50/82/184
f 47/83/185 48/84/186 52/85/187 51/86/188
f 48/84/189 29/87/190 53/88/191 52/85/192
f 29/89/193 28/90/194 54/91/195 53/92/196
f 28/90/197 47/83/198 51/86/199 54/91/200
f 50/93/201 45/94/202 56/95/203 55/96/204
f 45/94/205 27/97/206 57/98/207 56/95/208
f 27/97/209 30/99/210 58/100/211 57/98/212
f 30/99/213 50/101/214 55/102/215 58/100/216
f 51/86/217 52/85/218 60/103/219 59/104/220
f 52/85/221 53/88/222 61/105/223 60/103/224
f 53/92/225 54/91/226 62/106/227 61/107/228
f 54/91/229 51/86/230 59/104/231 62/106/232
f 55/96/233 56/95/234 64/108/235 63/109/236
f 56/95/237 57/98/238 65/110/239 64/108/240
f 57/98/241 58/100/242 66/111/243 65/110/244
f 58/100/245 55/102/246 63/112/247 66/111/248
f 59/104/249 60/103/250 68/113/251 67/49/252
f 60/103/253 61/105/254 69/114/255 68/113/256
f 61/107/257 62/106/258 70/52/259 69/115/260
f 62/106/261 59/104/262 67/49/263 70/52/264
f 63/109/265 64/108/266 72/58/267 71/116/268
f 64/108/269 65/110/270 73/59/271 72/58/272
f 65/110/273 66/111/274 74/117/275 73/59/276
f 66/111/277 63/112/278 71/118/279 74/117/280
f 94/119/281 93/120/282 95/121/283 96/122/284
f 49/123/285 48/124/286 78/79/287 77/78/288
f 48/125/289 24/126/290 76/127/291 78/128/292
f 50/129/293 49/123/294 77/78/295 79/80/296
f 93/120/297 97/130/298 98/131/299 95/121/300
f 23/132/301 50/133/302 79/80/303 80/81/304
f 24/126/305 33/134/306 81/135/307 82/136/308
f 75/77/309 76/76/310 84/137/311 83/138/312
f 76/127/313 24/126/314 82/136/315 84/139/316
f 33/134/317 23/132/318 85/140/319 81/135/320
f 23/132/321 80/81/322 86/141/323 85/140/324
f 80/81/325 75/77/326 83/138/327 86/141/328
f 82/136/329 81/135/330 87/142/331 88/143/332
f 83/138/333 84/137/334 90/144/335 89/145/336
f 84/139/337 82/136/338 88/146/339 90/147/340
f 81/135/341 85/140/342 91/148/343 87/142/344
f 85/140/345 86/141/346 92/149/347 91/150/348
f 86/141/349 83/138/350 89/145/351 92/151/352
f 88/143/353 87/142/354 93/120/355 94/119/356
f 89/145/357 90/144/358 96/152/359 95/153/360
f 90/147/361 88/146/362 94/154/363 96/155/364
f 87/142/365 91/148/366 97/130/367 93/120/368
f 91/150/369 92/149/370 98/156/371 97/157/372
f 92/151/373 89/145/374 95/153/375 98/158/376
