# This file uses centimeters as units for non-parametric coordinates.

mtllib lamp.mtl
g default
v -1.010110 -0.836278 0.500000
v 0.423425 -0.324562 0.500000
v -1.010110 0.163722 0.500000
v 0.423425 0.675438 0.500000
v -1.010110 0.163722 -0.500000
v 0.423425 0.675438 -0.500000
v -1.010110 -0.836278 -0.500000
v 0.423425 -0.324562 -0.500000
v 1.641724 -0.163722 -0.500000
v 1.641724 -0.163722 0.500000
v 1.641724 0.836278 -0.500000
v 1.641724 0.836278 0.500000
v 3.126218 -0.163722 -0.500000
v 3.126218 -0.163722 0.500000
v 3.126218 0.836278 -0.500000
v 3.126218 0.836278 0.500000
v 4.293105 -0.367565 -0.500000
v 4.293105 -0.367565 0.500000
v 4.293105 0.632435 -0.500000
v 4.293105 0.632435 0.500000
v 4.910075 -0.535073 -0.500000
v 4.910075 -0.535073 0.500000
v 4.910075 0.464927 -0.500000
v 4.910075 0.464927 0.500000
v 6.673908 -0.535073 -0.500000
v 6.673908 -0.535073 0.500000
v 6.673908 0.464927 -0.500000
v 6.673908 0.464927 0.500000
v 5.212831 0.464927 -0.836174
v 5.212831 -0.535073 -0.836174
v 6.371151 0.464927 -0.836174
v 6.371151 -0.535073 -0.836174
v 5.212831 -0.535073 0.881171
v 5.212831 0.464927 0.881171
v 6.371151 -0.535073 0.881171
v 6.371151 0.464927 0.881171
v 5.115684 0.710306 0.388676
v 5.115684 0.710306 -0.378185
v 6.468298 0.710306 0.388676
v 6.468298 0.710306 -0.378185
v 6.236127 0.710306 -0.635984
v 5.347856 0.710306 -0.635984
v 5.347856 0.710306 0.680981
v 6.236127 0.710306 0.680981
v 5.173369 -0.713230 -0.344009
v 5.173369 -0.713230 0.357443
v 6.410613 -0.713230 -0.344009
v 6.410613 -0.713230 0.357443
v 5.385738 -0.713230 -0.579819
v 6.198244 -0.713230 -0.579819
v 6.198244 -0.713230 0.624816
v 5.385738 -0.713230 0.624816
vt 0.375000 0.000000
vt 0.625000 0.000000
vt 0.625000 0.250000
vt 0.375000 0.250000
vt 0.625000 0.500000
vt 0.375000 0.500000
vt 0.625000 0.750000
vt 0.375000 0.750000
vt 0.625000 1.000000
vt 0.375000 1.000000
vt 0.625000 0.000000
vt 0.875000 0.000000
vt 0.875000 0.250000
vt 0.625000 0.250000
vt 0.125000 0.000000
vt 0.125000 0.250000
vt 0.875000 0.000000
vt 0.875000 0.000000
vt 0.625000 0.000000
vt 0.875000 0.250000
vt 0.875000 0.250000
vt 0.625000 0.250000
vt 0.875000 0.000000
vt 0.625000 0.000000
vt 0.875000 0.250000
vt 0.625000 0.250000
vt 0.875000 0.000000
vt 0.625000 0.000000
vt 0.875000 0.250000
vt 0.625000 0.250000
vt 0.875000 0.000000
vt 0.625000 0.000000
vt 0.875000 0.250000
vt 0.625000 0.250000
vt 0.625000 0.000000
vt 0.875000 0.000000
vt 0.875000 0.000000
vt 0.625000 0.000000
vt 0.875000 0.000000
vt 0.875000 0.250000
vt 0.875000 0.250000
vt 0.875000 0.000000
vt 0.875000 0.250000
vt 0.625000 0.250000
vt 0.625000 0.250000
vt 0.875000 0.250000
vt 0.625000 0.250000
vt 0.625000 0.000000
vt 0.625000 0.000000
vt 0.625000 0.250000
vt 0.875000 0.250000
vt 0.875000 0.250000
vt 0.875000 0.000000
vt 0.875000 0.000000
vt 0.625000 0.000000
vt 0.625000 0.000000
vt 0.625000 0.250000
vt 0.625000 0.250000
vn 0.000000 0.000000 1.000000
vn 0.000000 0.000000 1.000000
vn 0.000000 0.000000 1.000000
vn 0.000000 0.000000 1.000000
vn -0.336185 0.941796 0.000000
vn -0.245836 0.969311 0.000000
vn -0.245836 0.969311 0.000000
vn -0.336185 0.941796 0.000000
vn 0.000000 0.000000 -1.000000
vn -0.000000 0.000000 -1.000000
vn -0.000000 0.000000 -1.000000
vn 0.000000 0.000000 -1.000000
vn 0.336185 -0.941796 0.000000
vn 0.245836 -0.969311 0.000000
vn 0.245836 -0.969311 0.000000
vn 0.336185 -0.941796 0.000000
vn 0.976808 0.000000 0.214119
vn 0.975278 0.000000 -0.220983
vn 0.975278 0.000000 -0.220983
vn 0.976808 0.000000 0.214119
vn -1.000000 0.000000 0.000000
vn -1.000000 0.000000 0.000000
vn -1.000000 0.000000 0.000000
vn -1.000000 0.000000 0.000000
vn 0.245836 -0.969311 0.000000
vn 0.245836 -0.969311 0.000000
vn 0.059404 -0.998234 0.000000
vn 0.059404 -0.998234 0.000000
vn -0.000000 0.000000 -1.000000
vn -0.000000 0.000000 -1.000000
vn -0.000000 0.000000 -1.000000
vn -0.000000 0.000000 -1.000000
vn -0.245836 0.969311 0.000000
vn -0.245836 0.969311 0.000000
vn -0.059404 0.998234 0.000000
vn -0.059404 0.998234 0.000000
vn 0.000000 0.000000 1.000000
vn 0.000000 0.000000 1.000000
vn 0.000000 0.000000 1.000000
vn 0.000000 0.000000 1.000000
vn 0.059404 -0.998234 0.000000
vn 0.059404 -0.998234 0.000000
vn -0.076656 -0.997058 0.000000
vn -0.076656 -0.997058 0.000000
vn -0.000000 0.000000 -1.000000
vn -0.000000 0.000000 -1.000000
vn 0.000000 0.000000 -1.000000
vn 0.000000 0.000000 -1.000000
vn -0.059404 0.998234 0.000000
vn -0.059404 0.998234 0.000000
vn 0.076656 0.997058 0.000000
vn 0.076656 0.997058 0.000000
vn 0.000000 0.000000 1.000000
vn 0.000000 0.000000 1.000000
vn 0.000000 0.000000 1.000000
vn 0.000000 0.000000 1.000000
vn -0.076656 -0.997058 0.000000
vn -0.076656 -0.997058 0.000000
vn -0.203804 -0.979012 0.000000
vn -0.203804 -0.979012 0.000000
vn 0.000000 0.000000 -1.000000
vn 0.000000 0.000000 -1.000000
vn 0.000000 0.000000 -1.000000
vn 0.000000 0.000000 -1.000000
vn 0.076656 0.997058 0.000000
vn 0.076656 0.997058 0.000000
vn 0.203804 0.979012 0.000000
vn 0.203804 0.979012 0.000000
vn 0.000000 0.000000 1.000000
vn 0.000000 0.000000 1.000000
vn 0.000000 0.000000 1.000000
vn 0.000000 0.000000 1.000000
vn -0.203804 -0.979012 0.000000
vn -0.203804 -0.979012 0.000000
vn -0.262015 -0.965064 0.000000
vn -0.262015 -0.965064 0.000000
vn 0.000000 0.000000 -1.000000
vn 0.000000 0.000000 -1.000000
vn 0.000000 0.000000 -1.000000
vn 0.000000 0.000000 -1.000000
vn 0.203804 0.979012 0.000000
vn 0.203804 0.979012 0.000000
vn 0.262015 0.965064 0.000000
vn 0.262015 0.965064 0.000000
vn 0.000000 0.000000 1.000000
vn 0.000000 0.000000 1.000000
vn 0.000000 0.000000 1.000000
vn 0.000000 0.000000 1.000000
vn 0.000000 -1.000000 0.000000
vn 0.000000 -1.000000 0.000000
vn 0.000000 -1.000000 0.000000
vn 0.000000 -1.000000 0.000000
vn 0.000000 0.000000 -1.000000
vn 0.000000 0.000000 -1.000000
vn 0.000000 0.000000 -1.000000
vn 0.000000 0.000000 -1.000000
vn 0.000000 1.000000 0.000000
vn 0.000000 1.000000 0.000000
vn 0.000000 1.000000 0.000000
vn 0.000000 1.000000 0.000000
vn 0.000000 0.000000 1.000000
vn 0.000000 0.000000 1.000000
vn 0.000000 0.000000 1.000000
vn 0.000000 0.000000 1.000000
vn -0.743075 0.000000 -0.669208
vn -0.743075 0.000000 -0.669208
vn -0.743075 0.000000 -0.669208
vn -0.743075 0.000000 -0.669208
vn 0.000000 1.000000 0.000000
vn 0.000000 1.000000 0.000000
vn 0.000000 1.000000 0.000000
vn 0.000000 1.000000 0.000000
vn 0.975278 0.000000 -0.220983
vn 0.975278 0.000000 -0.220983
vn 0.743074 0.000000 -0.669209
vn 0.743074 0.000000 -0.669209
vn 0.000000 -1.000000 0.000000
vn 0.000000 -1.000000 0.000000
vn 0.000000 -1.000000 0.000000
vn 0.000000 -1.000000 0.000000
vn -0.783049 0.000000 0.621960
vn -0.783049 0.000000 0.621960
vn -0.783049 0.000000 0.621960
vn -0.783049 0.000000 0.621960
vn 0.000000 -1.000000 0.000000
vn 0.000000 -1.000000 0.000000
vn 0.000000 -1.000000 0.000000
vn 0.000000 -1.000000 0.000000
vn 0.976808 0.000000 0.214119
vn 0.976808 0.000000 0.214119
vn 0.783049 0.000000 0.621960
vn 0.783049 0.000000 0.621960
vn 0.000000 1.000000 0.000000
vn 0.000000 1.000000 0.000000
vn 0.000000 1.000000 0.000000
vn 0.000000 1.000000 0.000000
vn -0.766488 0.642259 0.000000
vn -0.766488 0.642259 0.000000
vn -0.766488 0.642259 0.000000
vn -0.766488 0.642259 0.000000
vn 0.766487 0.642260 0.000000
vn 0.766487 0.642260 0.000000
vn 0.766487 0.642260 0.000000
vn 0.766487 0.642260 0.000000
vn 0.537423 0.690595 -0.483999
vn 0.537423 0.690595 -0.483999
vn 0.537423 0.690595 -0.483999
vn 0.537423 0.690595 -0.483999
vn 0.000000 0.632151 -0.774845
vn 0.000000 0.632151 -0.774845
vn 0.000000 0.632151 -0.774845
vn 0.000000 0.632151 -0.774845
vn -0.537422 0.690595 -0.483999
vn -0.537422 0.690595 -0.483999
vn -0.537422 0.690595 -0.483999
vn -0.537422 0.690595 -0.483999
vn -0.571033 0.684256 0.453559
vn -0.571032 0.684256 0.453559
vn -0.571033 0.684256 0.453559
vn -0.571032 0.684256 0.453559
vn 0.000000 0.632151 0.774845
vn 0.000000 0.632151 0.774845
vn 0.000000 0.632151 0.774845
vn 0.000000 0.632151 0.774845
vn 0.571033 0.684256 0.453559
vn 0.571033 0.684256 0.453559
vn 0.571033 0.684256 0.453559
vn 0.571033 0.684256 0.453559
vn -0.560410 -0.828215 0.000000
vn -0.560410 -0.828215 0.000000
vn -0.560410 -0.828215 0.000000
vn -0.560410 -0.828215 0.000000
vn 0.560410 -0.828215 0.000000
vn 0.560410 -0.828215 0.000000
vn 0.560410 -0.828215 0.000000
vn 0.560410 -0.828215 0.000000
vn -0.379384 -0.859842 -0.341671
vn -0.379384 -0.859842 -0.341671
vn -0.379384 -0.859842 -0.341671
vn -0.379384 -0.859842 -0.341671
vn 0.000000 -0.821170 -0.570684
vn 0.000000 -0.821170 -0.570684
vn 0.000000 -0.821170 -0.570684
vn 0.000000 -0.821170 -0.570684
vn 0.379384 -0.859842 -0.341671
vn 0.379384 -0.859842 -0.341671
vn 0.379384 -0.859842 -0.341671
vn 0.379384 -0.859842 -0.341671
vn 0.404972 -0.855881 0.321661
vn 0.404972 -0.855881 0.321660
vn 0.404972 -0.855881 0.321661
vn 0.404972 -0.855881 0.321661
vn 0.000000 -0.821170 0.570684
vn 0.000000 -0.821170 0.570684
vn 0.000000 -0.821170 0.570684
vn 0.000000 -0.821170 0.570684
vn -0.404971 -0.855882 0.321660
vn -0.404971 -0.855882 0.321660
vn -0.404971 -0.855882 0.321660
vn -0.404971 -0.855882 0.321660
s off
g lamp:pCube1
usemtl lamp:initialShadingGroup
f 1/1/1 2/2/2 4/3/3 3/4/4
f 3/4/5 4/3/6 6/5/7 5/6/8
f 5/6/9 6/5/10 8/7/11 7/8/12
f 7/8/13 8/7/14 2/9/15 1/10/16
f 26/11/17 25/12/18 27/13/19 28/14/20
f 7/15/21 1/1/22 3/4/23 5/16/24
f 2/2/25 8/17/26 9/18/27 10/19/28
f 8/17/29 6/20/30 11/21/31 9/18/32
f 6/20/33 4/3/34 12/22/35 11/21/36
f 4/3/37 2/2/38 10/19/39 12/22/40
f 10/19/41 9/18/42 13/23/43 14/24/44
f 9/18/45 11/21/46 15/25/47 13/23/48
f 11/21/49 12/22/50 16/26/51 15/25/52
f 12/22/53 10/19/54 14/24/55 16/26/56
f 14/24/57 13/23/58 17/27/59 18/28/60
f 13/23/61 15/25/62 19/29/63 17/27/64
f 15/25/65 16/26/66 20/30/67 19/29/68
f 16/26/69 14/24/70 18/28/71 20/30/72
f 18/28/73 17/27/74 21/31/75 22/32/76
f 17/27/77 19/29/78 23/33/79 21/31/80
f 19/29/81 20/30/82 24/34/83 23/33/84
f 20/30/85 18/28/86 22/32/87 24/34/88
f 46/35/89 45/36/90 47/37/91 48/38/92
f 30/39/93 29/40/94 31/41/95 32/42/96
f 38/43/97 37/44/98 39/45/99 40/46/100
f 34/47/101 33/48/102 35/49/103 36/50/104
f 21/31/105 23/33/106 29/40/107 30/39/108
f 38/43/109 40/46/110 41/51/111 42/52/112
f 27/13/113 25/12/114 32/42/115 31/41/116
f 47/37/117 45/36/118 49/53/119 50/54/120
f 24/34/121 22/32/122 33/48/123 34/47/124
f 46/35/125 48/38/126 51/55/127 52/56/128
f 26/11/129 28/14/130 36/50/131 35/49/132
f 39/45/133 37/44/134 43/57/135 44/58/136
f 23/33/137 24/34/138 37/44/139 38/43/140
f 28/14/141 27/13/142 40/46/143 39/45/144
f 27/13/145 31/41/146 41/51/147 40/46/148
f 31/41/149 29/40/150 42/52/151 41/51/152
f 29/40/153 23/33/154 38/43/155 42/52/156
f 24/34/157 34/47/158 43/57/159 37/44/160
f 34/47/161 36/50/162 44/58/163 43/57/164
f 36/50/165 28/14/166 39/45/167 44/58/168
f 22/32/169 21/31/170 45/36/171 46/35/172
f 25/12/173 26/11/174 48/38/175 47/37/176
f 21/31/177 30/39/178 49/53/179 45/36/180
f 30/39/181 32/42/182 50/54/183 49/53/184
f 32/42/185 25/12/186 47/37/187 50/54/188
f 26/11/189 35/49/190 51/55/191 48/38/192
f 35/49/193 33/48/194 52/56/195 51/55/196
f 33/48/197 22/32/198 46/35/199 52/56/200
