# ProBuilder 4.2.3
# https://unity3d.com/unity/features/worldbuilding/probuilder
# 4/16/2021 2:46:16 PM

mtllib ./longconcretebuilding.mtl
o longconcretebuilding

g Cube (134)
v 104.0387 2.384186E-07 -1.612306E-06
v -59.94225 0 1.050532E-06
v 104.0387 63.69194 -1.612306E-06
v -59.94227 63.69194 -3.129244E-07
v -59.94225 0 -66
v -59.94229 64.0452 -66
v 104.0387 2.384186E-07 -66.00001
v 104.0387 64.0452 -66.00001

vt 34.67956 2.384186E-07
vt -19.98075 0
vt 34.67956 63.69194
vt -19.98076 63.69194
vt 3.501773E-07 2.393411E-06
vt -22 2.393411E-06
vt -1.043081E-07 63.69194
vt -22 64.0452
vt 19.98075 1.600377E-13
vt -34.67956 2.384187E-07
vt 19.98076 64.0452
vt -34.67956 64.0452
vt 22 2.384186E-07
vt 22 64.0452
vt -34.67956 -1.022577
vt 19.98076 -1.022576
vt -34.67956 -23.02542
vt 19.98076 -23.02541
vt 34.67956 -22
vt -19.98075 -22

vn 4.871611E-08 0 3
vn -3 -1.197859E-07 0
vn -1.046837E-07 -7.274439E-15 -3
vn 3 0 0
vn 3.816591E-10 0.9998711 0.04816509
vn 1.308547E-08 -1 0

usemtl OldFactory
f 3/3/1 4/4/1 2/2/1 1/1/1
f 4/7/2 6/8/2 5/6/2 2/5/2
f 6/11/3 8/12/3 7/10/3 5/9/3
f 8/14/4 3/7/4 1/5/4 7/13/4
f 8/17/5 6/18/5 4/16/5 3/15/5
f 1/1/6 2/2/6 5/20/6 7/19/6

g Cube (215)
v -50 25 0.45
v -55 25 0.45
v -50 35 0.45
v -55 35 0.45
v -55 25 -0.55
v -55 35 -0.55
v -50 25 -0.55
v -50 35 -0.55

vt 0 0
vt -5 0
vt 0 10
vt -5 10
vt -1 0
vt -1 10
vt 5 0
vt 5 10
vt 1 0
vt 1 10
vt 0 -1
vt 5 -1
vt -5 -1

vn 0 0 1
vn -1 0 0
vn 0 0 -1
vn 1 0 0
vn 0 1 0
vn 0 -1 0

usemtl Window
f 11/23/7 12/24/7 10/22/7 9/21/7
f 12/23/8 14/26/8 13/25/8 10/21/8
f 14/28/9 16/23/9 15/21/9 13/27/9
f 16/30/10 11/23/10 9/21/10 15/29/10
f 16/31/11 14/32/11 12/27/11 11/21/11
f 9/21/12 10/22/12 13/33/12 15/31/12

g Cube (216)
v -25 25 0.45
v -30 25 0.45
v -25 35 0.45
v -30 35 0.45
v -30 25 -0.55
v -30 35 -0.55
v -25 25 -0.55
v -25 35 -0.55

vt 0 0
vt -5 0
vt 0 10
vt -5 10
vt -1 0
vt -1 10
vt 5 0
vt 5 10
vt 1 0
vt 1 10
vt 0 -1
vt 5 -1
vt -5 -1

vn 0 0 1
vn -1 0 0
vn 0 0 -1
vn 1 0 0
vn 0 1 0
vn 0 -1 0

usemtl Window
f 19/36/13 20/37/13 18/35/13 17/34/13
f 20/36/14 22/39/14 21/38/14 18/34/14
f 22/41/15 24/36/15 23/34/15 21/40/15
f 24/43/16 19/36/16 17/34/16 23/42/16
f 24/44/17 22/45/17 20/40/17 19/34/17
f 17/34/18 18/35/18 21/46/18 23/44/18

g Cube (217)
v 0 25 0.45
v -5 25 0.45
v 0 35 0.45
v -5 35 0.45
v -5 25 -0.55
v -5 35 -0.55
v 0 25 -0.55
v 0 35 -0.55

vt 0 0
vt -5 0
vt 0 10
vt -5 10
vt -1 0
vt -1 10
vt 5 0
vt 5 10
vt 1 0
vt 1 10
vt 0 -1
vt 5 -1
vt -5 -1

vn 0 0 1
vn -1 0 0
vn 0 0 -1
vn 1 0 0
vn 0 1 0
vn 0 -1 0

usemtl Window
f 27/49/19 28/50/19 26/48/19 25/47/19
f 28/49/20 30/52/20 29/51/20 26/47/20
f 30/54/21 32/49/21 31/47/21 29/53/21
f 32/56/22 27/49/22 25/47/22 31/55/22
f 32/57/23 30/58/23 28/53/23 27/47/23
f 25/47/24 26/48/24 29/59/24 31/57/24

g Cube (218)
v 25 25 0.45
v 20 25 0.45
v 25 35 0.45
v 20 35 0.45
v 20 25 -0.55
v 20 35 -0.55
v 25 25 -0.55
v 25 35 -0.55

vt 0 0
vt -5 0
vt 0 10
vt -5 10
vt -1 0
vt -1 10
vt 5 0
vt 5 10
vt 1 0
vt 1 10
vt 0 -1
vt 5 -1
vt -5 -1

vn 0 0 1
vn -1 0 0
vn 0 0 -1
vn 1 0 0
vn 0 1 0
vn 0 -1 0

usemtl Window
f 35/62/25 36/63/25 34/61/25 33/60/25
f 36/62/26 38/65/26 37/64/26 34/60/26
f 38/67/27 40/62/27 39/60/27 37/66/27
f 40/69/28 35/62/28 33/60/28 39/68/28
f 40/70/29 38/71/29 36/66/29 35/60/29
f 33/60/30 34/61/30 37/72/30 39/70/30

g Cube (219)
v 50 25 0.45
v 45 25 0.45
v 50 35 0.45
v 45 35 0.45
v 45 25 -0.55
v 45 35 -0.55
v 50 25 -0.55
v 50 35 -0.55

vt 0 0
vt -5 0
vt 0 10
vt -5 10
vt -1 0
vt -1 10
vt 5 0
vt 5 10
vt 1 0
vt 1 10
vt 0 -1
vt 5 -1
vt -5 -1

vn 0 0 1
vn -1 0 0
vn 0 0 -1
vn 1 0 0
vn 0 1 0
vn 0 -1 0

usemtl Window
f 43/75/31 44/76/31 42/74/31 41/73/31
f 44/75/32 46/78/32 45/77/32 42/73/32
f 46/80/33 48/75/33 47/73/33 45/79/33
f 48/82/34 43/75/34 41/73/34 47/81/34
f 48/83/35 46/84/35 44/79/35 43/73/35
f 41/73/36 42/74/36 45/85/36 47/83/36

g Cube (220)
v 75 25 0.45
v 70 25 0.45
v 75 35 0.45
v 70 35 0.45
v 70 25 -0.55
v 70 35 -0.55
v 75 25 -0.55
v 75 35 -0.55

vt 0 0
vt -5 0
vt 0 10
vt -5 10
vt -1 0
vt -1 10
vt 5 0
vt 5 10
vt 1 0
vt 1 10
vt 0 -1
vt 5 -1
vt -5 -1

vn 0 0 1
vn -1 0 0
vn 0 0 -1
vn 1 0 0
vn 0 1 0
vn 0 -1 0

usemtl Window
f 51/88/37 52/89/37 50/87/37 49/86/37
f 52/88/38 54/91/38 53/90/38 50/86/38
f 54/93/39 56/88/39 55/86/39 53/92/39
f 56/95/40 51/88/40 49/86/40 55/94/40
f 56/96/41 54/97/41 52/92/41 51/86/41
f 49/86/42 50/87/42 53/98/42 55/96/42

g Cube (221)
v 100 25 0.45
v 95 25 0.45
v 100 35 0.45
v 95 35 0.45
v 95 25 -0.55
v 95 35 -0.55
v 100 25 -0.55
v 100 35 -0.55

vt 0 0
vt -5 0
vt 0 10
vt -5 10
vt -1 0
vt -1 10
vt 5 0
vt 5 10
vt 1 0
vt 1 10
vt 0 -1
vt 5 -1
vt -5 -1

vn 0 0 1
vn -1 0 0
vn 0 0 -1
vn 1 0 0
vn 0 1 0
vn 0 -1 0

usemtl Window
f 59/101/43 60/102/43 58/100/43 57/99/43
f 60/101/44 62/104/44 61/103/44 58/99/44
f 62/106/45 64/101/45 63/99/45 61/105/45
f 64/108/46 59/101/46 57/99/46 63/107/46
f 64/109/47 62/110/47 60/105/47 59/99/47
f 57/99/48 58/100/48 61/111/48 63/109/48

g Cube (222)
v -50 50 0.45
v -55 50 0.45
v -50 60 0.45
v -55 60 0.45
v -55 50 -0.55
v -55 60 -0.55
v -50 50 -0.55
v -50 60 -0.55

vt 0 0
vt -5 0
vt 0 10
vt -5 10
vt -1 0
vt -1 10
vt 5 0
vt 5 10
vt 1 0
vt 1 10
vt 0 -1
vt 5 -1
vt -5 -1

vn 0 0 1
vn -1 0 0
vn 0 0 -1
vn 1 0 0
vn 0 1 0
vn 0 -1 0

usemtl Window
f 67/114/49 68/115/49 66/113/49 65/112/49
f 68/114/50 70/117/50 69/116/50 66/112/50
f 70/119/51 72/114/51 71/112/51 69/118/51
f 72/121/52 67/114/52 65/112/52 71/120/52
f 72/122/53 70/123/53 68/118/53 67/112/53
f 65/112/54 66/113/54 69/124/54 71/122/54

g Cube (223)
v -25 50 0.45
v -30 50 0.45
v -25 60 0.45
v -30 60 0.45
v -30 50 -0.55
v -30 60 -0.55
v -25 50 -0.55
v -25 60 -0.55

vt 0 0
vt -5 0
vt 0 10
vt -5 10
vt -1 0
vt -1 10
vt 5 0
vt 5 10
vt 1 0
vt 1 10
vt 0 -1
vt 5 -1
vt -5 -1

vn 0 0 1
vn -1 0 0
vn 0 0 -1
vn 1 0 0
vn 0 1 0
vn 0 -1 0

usemtl Window
f 75/127/55 76/128/55 74/126/55 73/125/55
f 76/127/56 78/130/56 77/129/56 74/125/56
f 78/132/57 80/127/57 79/125/57 77/131/57
f 80/134/58 75/127/58 73/125/58 79/133/58
f 80/135/59 78/136/59 76/131/59 75/125/59
f 73/125/60 74/126/60 77/137/60 79/135/60

g Cube (224)
v 0 50 0.45
v -5 50 0.45
v 0 60 0.45
v -5 60 0.45
v -5 50 -0.55
v -5 60 -0.55
v 0 50 -0.55
v 0 60 -0.55

vt 0 0
vt -5 0
vt 0 10
vt -5 10
vt -1 0
vt -1 10
vt 5 0
vt 5 10
vt 1 0
vt 1 10
vt 0 -1
vt 5 -1
vt -5 -1

vn 0 0 1
vn -1 0 0
vn 0 0 -1
vn 1 0 0
vn 0 1 0
vn 0 -1 0

usemtl Window
f 83/140/61 84/141/61 82/139/61 81/138/61
f 84/140/62 86/143/62 85/142/62 82/138/62
f 86/145/63 88/140/63 87/138/63 85/144/63
f 88/147/64 83/140/64 81/138/64 87/146/64
f 88/148/65 86/149/65 84/144/65 83/138/65
f 81/138/66 82/139/66 85/150/66 87/148/66

g Cube (225)
v 25 50 0.45
v 20 50 0.45
v 25 60 0.45
v 20 60 0.45
v 20 50 -0.55
v 20 60 -0.55
v 25 50 -0.55
v 25 60 -0.55

vt 0 0
vt -5 0
vt 0 10
vt -5 10
vt -1 0
vt -1 10
vt 5 0
vt 5 10
vt 1 0
vt 1 10
vt 0 -1
vt 5 -1
vt -5 -1

vn 0 0 1
vn -1 0 0
vn 0 0 -1
vn 1 0 0
vn 0 1 0
vn 0 -1 0

usemtl Window
f 91/153/67 92/154/67 90/152/67 89/151/67
f 92/153/68 94/156/68 93/155/68 90/151/68
f 94/158/69 96/153/69 95/151/69 93/157/69
f 96/160/70 91/153/70 89/151/70 95/159/70
f 96/161/71 94/162/71 92/157/71 91/151/71
f 89/151/72 90/152/72 93/163/72 95/161/72

g Cube (226)
v 50 50 0.45
v 45 50 0.45
v 50 60 0.45
v 45 60 0.45
v 45 50 -0.55
v 45 60 -0.55
v 50 50 -0.55
v 50 60 -0.55

vt 0 0
vt -5 0
vt 0 10
vt -5 10
vt -1 0
vt -1 10
vt 5 0
vt 5 10
vt 1 0
vt 1 10
vt 0 -1
vt 5 -1
vt -5 -1

vn 0 0 1
vn -1 0 0
vn 0 0 -1
vn 1 0 0
vn 0 1 0
vn 0 -1 0

usemtl Window
f 99/166/73 100/167/73 98/165/73 97/164/73
f 100/166/74 102/169/74 101/168/74 98/164/74
f 102/171/75 104/166/75 103/164/75 101/170/75
f 104/173/76 99/166/76 97/164/76 103/172/76
f 104/174/77 102/175/77 100/170/77 99/164/77
f 97/164/78 98/165/78 101/176/78 103/174/78

g Cube (227)
v 75 50 0.45
v 70 50 0.45
v 75 60 0.45
v 70 60 0.45
v 70 50 -0.55
v 70 60 -0.55
v 75 50 -0.55
v 75 60 -0.55

vt 0 0
vt -5 0
vt 0 10
vt -5 10
vt -1 0
vt -1 10
vt 5 0
vt 5 10
vt 1 0
vt 1 10
vt 0 -1
vt 5 -1
vt -5 -1

vn 0 0 1
vn -1 0 0
vn 0 0 -1
vn 1 0 0
vn 0 1 0
vn 0 -1 0

usemtl Window
f 107/179/79 108/180/79 106/178/79 105/177/79
f 108/179/80 110/182/80 109/181/80 106/177/80
f 110/184/81 112/179/81 111/177/81 109/183/81
f 112/186/82 107/179/82 105/177/82 111/185/82
f 112/187/83 110/188/83 108/183/83 107/177/83
f 105/177/84 106/178/84 109/189/84 111/187/84

g Cube (228)
v 100 50 0.45
v 95 50 0.45
v 100 60 0.45
v 95 60 0.45
v 95 50 -0.55
v 95 60 -0.55
v 100 50 -0.55
v 100 60 -0.55

vt 0 0
vt -5 0
vt 0 10
vt -5 10
vt -1 0
vt -1 10
vt 5 0
vt 5 10
vt 1 0
vt 1 10
vt 0 -1
vt 5 -1
vt -5 -1

vn 0 0 1
vn -1 0 0
vn 0 0 -1
vn 1 0 0
vn 0 1 0
vn 0 -1 0

usemtl Window
f 115/192/85 116/193/85 114/191/85 113/190/85
f 116/192/86 118/195/86 117/194/86 114/190/86
f 118/197/87 120/192/87 119/190/87 117/196/87
f 120/199/88 115/192/88 113/190/88 119/198/88
f 120/200/89 118/201/89 116/196/89 115/190/89
f 113/190/90 114/191/90 117/202/90 119/200/90

