# ProBuilder 4.2.3
# https://unity3d.com/unity/features/worldbuilding/probuilder
# 4/16/2021 2:46:46 PM

mtllib ./slantedconcretebuilding.mtl
o slantedconcretebuilding

g Cube (102)
v 0 0 0
v 8.196204E-06 0 59.94226
v -3.129236E-07 63.69194 7.399918E-06
v 6.832751E-06 63.69194 59.94228
v -66 0 59.94226
v -66 77.2196 59.94231
v -66.00001 0 7.867813E-06
v -66.00001 77.2196 1.526773E-05

vt 0 0
vt -19.98075 -4.767856E-24
vt -2.466639E-06 63.69194
vt -19.98076 63.69194
vt -22 2.393411E-06
vt -22 77.2196
vt 19.98075 0
vt 19.98076 77.2196
vt 2.466639E-06 77.2196
vt 22 0
vt 22 77.2196
vt 2.466639E-06 -33.36145
vt 19.98076 -33.36145
vt 2.466639E-06 -59.18774
vt 19.98076 -59.18774
vt 0 -22
vt -19.98075 -22

vn 3 1.637698E-09 -4.102051E-07
vn 3.576279E-07 -1.197859E-07 3
vn -3 0 3.576279E-07
vn -3.576279E-07 3.194317E-08 -3
vn 1.571382 0.851845 -1.873233E-07
vn 0 -1 0

usemtl Concrete
f 3/3/1 4/4/1 2/2/1 1/1/1
f 4/3/2 6/6/2 5/5/2 2/1/2
f 6/8/3 8/9/3 7/1/3 5/7/3
f 8/11/4 3/3/4 1/1/4 7/10/4
f 8/14/5 6/15/5 4/13/5 3/12/5
f 1/1/6 2/2/6 5/17/6 7/16/6

g Cube (189)
v -30.8 23.7 0.45
v -35.8 23.7 0.45
v -30.8 33.7 0.45
v -35.8 33.7 0.45
v -35.8 23.7 -0.55
v -35.8 33.7 -0.55
v -30.8 23.7 -0.55
v -30.8 33.7 -0.55

vt 0 0
vt -5 0
vt 0 10
vt -5 10
vt -1 0
vt -1 10
vt 5 0
vt 5 10
vt 1 0
vt 1 10
vt 0 -1
vt 5 -1
vt -5 -1

vn 0 0 1
vn -1 0 0
vn 0 0 -1
vn 1 0 0
vn 0 1 0
vn 0 -1 0

usemtl Window
f 11/20/7 12/21/7 10/19/7 9/18/7
f 12/20/8 14/23/8 13/22/8 10/18/8
f 14/25/9 16/20/9 15/18/9 13/24/9
f 16/27/10 11/20/10 9/18/10 15/26/10
f 16/28/11 14/29/11 12/24/11 11/18/11
f 9/18/12 10/19/12 13/30/12 15/28/12

g Cube (190)
v -50.8 23.7 0.45
v -55.8 23.7 0.45
v -50.8 33.7 0.45
v -55.8 33.7 0.45
v -55.8 23.7 -0.55
v -55.8 33.7 -0.55
v -50.8 23.7 -0.55
v -50.8 33.7 -0.55

vt 0 0
vt -5 0
vt 0 10
vt -5 10
vt -1 0
vt -1 10
vt 5 0
vt 5 10
vt 1 0
vt 1 10
vt 0 -1
vt 5 -1
vt -5 -1

vn 0 0 1
vn -1 0 0
vn 0 0 -1
vn 1 0 0
vn 0 1 0
vn 0 -1 0

usemtl Window
f 19/33/13 20/34/13 18/32/13 17/31/13
f 20/33/14 22/36/14 21/35/14 18/31/14
f 22/38/15 24/33/15 23/31/15 21/37/15
f 24/40/16 19/33/16 17/31/16 23/39/16
f 24/41/17 22/42/17 20/37/17 19/31/17
f 17/31/18 18/32/18 21/43/18 23/41/18

g Cube (191)
v -10.8 23.7 0.45
v -15.8 23.7 0.45
v -10.8 33.7 0.45
v -15.8 33.7 0.45
v -15.8 23.7 -0.55
v -15.8 33.7 -0.55
v -10.8 23.7 -0.55
v -10.8 33.7 -0.55

vt 0 0
vt -5 0
vt 0 10
vt -5 10
vt -1 0
vt -1 10
vt 5 0
vt 5 10
vt 1 0
vt 1 10
vt 0 -1
vt 5 -1
vt -5 -1

vn 0 0 1
vn -1 0 0
vn 0 0 -1
vn 1 0 0
vn 0 1 0
vn 0 -1 0

usemtl Window
f 27/46/19 28/47/19 26/45/19 25/44/19
f 28/46/20 30/49/20 29/48/20 26/44/20
f 30/51/21 32/46/21 31/44/21 29/50/21
f 32/53/22 27/46/22 25/44/22 31/52/22
f 32/54/23 30/55/23 28/50/23 27/44/23
f 25/44/24 26/45/24 29/56/24 31/54/24

g Cube (192)
v -30.8 43.7 0.45
v -35.8 43.7 0.45
v -30.8 53.7 0.45
v -35.8 53.7 0.45
v -35.8 43.7 -0.55
v -35.8 53.7 -0.55
v -30.8 43.7 -0.55
v -30.8 53.7 -0.55

vt 0 0
vt -5 0
vt 0 10
vt -5 10
vt -1 0
vt -1 10
vt 5 0
vt 5 10
vt 1 0
vt 1 10
vt 0 -1
vt 5 -1
vt -5 -1

vn 0 0 1
vn -1 0 0
vn 0 0 -1
vn 1 0 0
vn 0 1 0
vn 0 -1 0

usemtl Window
f 35/59/25 36/60/25 34/58/25 33/57/25
f 36/59/26 38/62/26 37/61/26 34/57/26
f 38/64/27 40/59/27 39/57/27 37/63/27
f 40/66/28 35/59/28 33/57/28 39/65/28
f 40/67/29 38/68/29 36/63/29 35/57/29
f 33/57/30 34/58/30 37/69/30 39/67/30

g Cube (193)
v -50.8 43.7 0.45
v -55.8 43.7 0.45
v -50.8 53.7 0.45
v -55.8 53.7 0.45
v -55.8 43.7 -0.55
v -55.8 53.7 -0.55
v -50.8 43.7 -0.55
v -50.8 53.7 -0.55

vt 0 0
vt -5 0
vt 0 10
vt -5 10
vt -1 0
vt -1 10
vt 5 0
vt 5 10
vt 1 0
vt 1 10
vt 0 -1
vt 5 -1
vt -5 -1

vn 0 0 1
vn -1 0 0
vn 0 0 -1
vn 1 0 0
vn 0 1 0
vn 0 -1 0

usemtl Window
f 43/72/31 44/73/31 42/71/31 41/70/31
f 44/72/32 46/75/32 45/74/32 42/70/32
f 46/77/33 48/72/33 47/70/33 45/76/33
f 48/79/34 43/72/34 41/70/34 47/78/34
f 48/80/35 46/81/35 44/76/35 43/70/35
f 41/70/36 42/71/36 45/82/36 47/80/36

g Cube (194)
v -10.8 43.7 0.45
v -15.8 43.7 0.45
v -10.8 53.7 0.45
v -15.8 53.7 0.45
v -15.8 43.7 -0.55
v -15.8 53.7 -0.55
v -10.8 43.7 -0.55
v -10.8 53.7 -0.55

vt 0 0
vt -5 0
vt 0 10
vt -5 10
vt -1 0
vt -1 10
vt 5 0
vt 5 10
vt 1 0
vt 1 10
vt 0 -1
vt 5 -1
vt -5 -1

vn 0 0 1
vn -1 0 0
vn 0 0 -1
vn 1 0 0
vn 0 1 0
vn 0 -1 0

usemtl Window
f 51/85/37 52/86/37 50/84/37 49/83/37
f 52/85/38 54/88/38 53/87/38 50/83/38
f 54/90/39 56/85/39 55/83/39 53/89/39
f 56/92/40 51/85/40 49/83/40 55/91/40
f 56/93/41 54/94/41 52/89/41 51/83/41
f 49/83/42 50/84/42 53/95/42 55/93/42

g Cube (195)
v -50.8 60.2 0.45
v -55.8 60.2 0.45
v -50.8 70.2 0.45
v -55.8 70.2 0.45
v -55.8 60.2 -0.55
v -55.8 70.2 -0.55
v -50.8 60.2 -0.55
v -50.8 70.2 -0.55

vt 0 0
vt -5 0
vt 0 10
vt -5 10
vt -1 0
vt -1 10
vt 5 0
vt 5 10
vt 1 0
vt 1 10
vt 0 -1
vt 5 -1
vt -5 -1

vn 0 0 1
vn -1 0 0
vn 0 0 -1
vn 1 0 0
vn 0 1 0
vn 0 -1 0

usemtl Window
f 59/98/43 60/99/43 58/97/43 57/96/43
f 60/98/44 62/101/44 61/100/44 58/96/44
f 62/103/45 64/98/45 63/96/45 61/102/45
f 64/105/46 59/98/46 57/96/46 63/104/46
f 64/106/47 62/107/47 60/102/47 59/96/47
f 57/96/48 58/97/48 61/108/48 63/106/48

