# Blender v2.90.1 OBJ File: ''
# www.blender.org
mtllib SpikeFat.mtl
o SpikeFat
v -0.176336 -1.448315 0.176338
v -0.176336 -1.448315 -0.176336
v 0.176338 -1.448315 -0.176336
v 0.176338 -1.448315 0.176338
v -0.950813 0.008344 -0.950814
v 0.950814 0.008344 -0.950814
v 0.950814 0.008344 0.950813
v -0.950813 0.008344 0.950813
v -0.176338 1.439969 0.176337
v 0.176335 1.439969 0.176337
v 0.176335 1.439969 -0.176337
v -0.176338 1.439969 -0.176337
vt 0.315993 0.231199
vt 0.351352 0.218114
vt 0.364437 0.253472
vt 0.329079 0.266558
vt 0.709173 0.506616
vt 0.519414 0.433686
vt 0.676626 0.255419
vt 0.711818 0.268944
vt 0.328761 0.504244
vt 0.232197 0.683137
vt 0.075464 0.504448
vt 0.093372 0.471271
vt 0.495679 0.716725
vt 0.482593 0.681367
vt 0.517951 0.668281
vt 0.531037 0.703640
vt 0.803499 0.686698
vt 0.570638 0.715205
vt 0.553144 0.681807
vt 0.464684 0.714544
vt 0.944954 0.476580
vt 0.962447 0.509978
vn 0.0000 -1.0000 0.0000
vn 0.0000 -0.4695 -0.8830
vn 0.0000 -0.4695 0.8830
vn 0.0000 1.0000 0.0000
vn 0.8795 0.4758 0.0000
vn -0.8795 0.4758 0.0000
vn 0.0000 0.4758 0.8795
vn 0.0000 0.4758 -0.8795
vn -0.8830 -0.4695 -0.0000
vn 0.8830 -0.4695 -0.0000
usemtl aiStandardSurface1SG.002
s 1
f 1/1/1 2/2/1 3/3/1 4/4/1
f 5/5/2 6/6/2 3/7/2 2/8/2
f 7/9/3 8/10/3 1/11/3 4/12/3
f 9/13/4 10/14/4 11/15/4 12/16/4
f 7/9/5 6/6/5 11/15/5 10/14/5
f 5/5/6 8/17/6 9/18/6 12/19/6
f 10/14/7 9/20/7 8/10/7 7/9/7
f 12/19/8 11/15/8 6/6/8 5/5/8
f 5/5/9 2/21/9 1/22/9 8/17/9
f 3/3/10 6/6/10 7/9/10 4/4/10
