# This file uses centimeters as units for non-parametric coordinates.

mtllib street.mtl
g default
v 5.891100 -0.500000 38.845644
v -5.891100 -0.500000 38.845644
v 5.891100 0.500000 38.845644
v -5.891100 0.500000 38.845644
v -5.891100 -0.500000 -38.845644
v -5.891100 0.500000 -38.845644
v 5.891100 -0.500000 -38.845644
v 5.891100 0.500000 -38.845644
vt -8.198549 1.000000
vt -19.980749 1.000000
vt -19.980749 0.000000
vt -8.198549 0.000000
vt 34.194920 1.000000
vt -43.496368 1.000000
vt -43.496368 0.000000
vt 34.194920 0.000000
vt 19.980749 1.000000
vt 8.198549 1.000000
vt 8.198549 0.000000
vt 19.980749 0.000000
vt 43.496368 1.000000
vt -34.194920 1.000000
vt -34.194920 0.000000
vt 43.496368 0.000000
vt 8.198549 -43.496368
vt 19.980749 -43.496368
vt 19.980749 34.194920
vt 8.198549 34.194920
vt -8.198549 34.194920
vt -19.980749 34.194920
vt -19.980749 -43.496368
vt -8.198549 -43.496368
vn 0.000000 0.000000 1.000000
vn 0.000000 0.000000 1.000000
vn 0.000000 0.000000 1.000000
vn 0.000000 0.000000 1.000000
vn -1.000000 0.000000 0.000000
vn -1.000000 0.000000 0.000000
vn -1.000000 0.000000 0.000000
vn -1.000000 0.000000 0.000000
vn 0.000000 0.000000 -1.000000
vn 0.000000 0.000000 -1.000000
vn 0.000000 0.000000 -1.000000
vn 0.000000 0.000000 -1.000000
vn 1.000000 0.000000 0.000000
vn 1.000000 0.000000 0.000000
vn 1.000000 0.000000 0.000000
vn 1.000000 0.000000 0.000000
vn 0.000000 1.000000 0.000000
vn 0.000000 1.000000 0.000000
vn 0.000000 1.000000 0.000000
vn 0.000000 1.000000 0.000000
vn 0.000000 -1.000000 0.000000
vn 0.000000 -1.000000 0.000000
vn 0.000000 -1.000000 0.000000
vn 0.000000 -1.000000 0.000000
s off
g street:Cube_9_
usemtl street:Street
f 3/1/1 4/2/2 2/3/3 1/4/4
f 4/5/5 6/6/6 5/7/7 2/8/8
f 6/9/9 8/10/10 7/11/11 5/12/12
f 8/13/13 3/14/14 1/15/15 7/16/16
f 8/17/17 6/18/18 4/19/19 3/20/20
f 1/21/21 2/22/22 5/23/23 7/24/24
