# This file uses centimeters as units for non-parametric coordinates.

mtllib streetlamp.mtl
g default
v 0.978677 -1.000000 0.029401
v -0.021323 -1.000000 0.029401
v 0.978677 34.000000 0.029401
v -0.021323 34.000000 0.029401
v -0.021323 -1.000000 -0.970599
v -0.021323 34.000000 -0.970599
v 0.978677 -1.000000 -0.970599
v 0.978677 34.000000 -0.970599
vt 0.000000 35.000000
vt -1.000000 35.000000
vt -1.000000 0.000000
vt 0.000000 0.000000
vt 1.000000 35.000000
vt 1.000000 0.000000
vt 0.000000 -1.000000
vt 1.000000 -1.000000
vt -1.000000 -1.000000
vt 0.000000 35.000000
vt -1.000000 35.000000
vt -1.000000 0.000000
vt 0.000000 0.000000
vt 0.000000 35.000000
vt 0.000000 0.000000
vt 1.000000 35.000000
vt 1.000000 0.000000
vt 1.000000 0.000000
vt 0.000000 0.000000
vt 0.000000 -1.000000
vn 0.000000 0.000000 1.000000
vn 0.000000 0.000000 1.000000
vn 0.000000 0.000000 1.000000
vn 0.000000 0.000000 1.000000
vn -1.000000 0.000000 0.000000
vn -1.000000 0.000000 0.000000
vn -1.000000 0.000000 0.000000
vn -1.000000 0.000000 0.000000
vn 0.000000 0.000000 -1.000000
vn 0.000000 0.000000 -1.000000
vn 0.000000 0.000000 -1.000000
vn 0.000000 0.000000 -1.000000
vn 1.000000 0.000000 0.000000
vn 1.000000 0.000000 0.000000
vn 1.000000 0.000000 0.000000
vn 1.000000 0.000000 0.000000
vn 0.000000 1.000000 0.000000
vn 0.000000 1.000000 0.000000
vn 0.000000 1.000000 0.000000
vn 0.000000 1.000000 0.000000
vn 0.000000 -1.000000 0.000000
vn 0.000000 -1.000000 0.000000
vn 0.000000 -1.000000 0.000000
vn 0.000000 -1.000000 0.000000
s off
g streetlamp:post
usemtl streetlamp:OldMetal
f 3/1/1 4/2/2 2/3/3 1/4/4
f 4/10/5 6/11/6 5/12/7 2/13/8
f 6/5/9 8/14/10 7/15/11 5/6/12
f 8/16/13 3/1/14 1/4/15 7/17/16
f 8/7/17 6/8/18 4/18/19 3/19/20
f 1/4/21 2/3/22 5/9/23 7/20/24
