# ProBuilder 4.2.3
# https://unity3d.com/unity/features/worldbuilding/probuilder
# 4/17/2021 8:25:42 PM

mtllib ./theatrealley.mtl
o theatrealley

g Cube (93)
v -17.18464 0 17.00426
v -19.98078 0 17.00424
v -17.18464 1 17.00426
v -19.98078 1 17.00424
v -19.98076 0 -15.87237
v -19.98076 1 -15.87237
v -17.18462 0 -15.87238
v -17.18462 1 -15.87238

vt -17.18454 0
vt -19.98068 0
vt -17.18454 1
vt -19.98068 1
vt 17.00426 0
vt -15.87235 0
vt 17.00426 1
vt -15.87235 1
vt 19.98069 0
vt 17.18455 0
vt 19.98069 1
vt 17.18455 1
vt 15.87237 0
vt -17.00427 0
vt 15.87237 1
vt -17.00427 1
vt 17.18464 17.00426
vt 19.98078 17.00424
vt 17.18462 -15.87238
vt 19.98076 -15.87237
vt -17.18462 -15.87238
vt -19.98076 -15.87237
vt -17.18464 17.00426
vt -19.98078 17.00424

vn -6.139234E-06 0 1
vn -1 0 -7.541998E-07
vn -4.433891E-06 0 -1
vn 1 0 7.541991E-07
vn 0 1 0
vn 0 -1 0

usemtl ConcreteAlley
f 3/3/1 4/4/1 2/2/1 1/1/1
f 4/7/2 6/8/2 5/6/2 2/5/2
f 6/11/3 8/12/3 7/10/3 5/9/3
f 8/15/4 3/16/4 1/14/4 7/13/4
f 8/19/5 6/20/5 4/18/5 3/17/5
f 1/23/6 2/24/6 5/22/6 7/21/6

