# ProBuilder 4.2.3
# https://unity3d.com/unity/features/worldbuilding/probuilder
# 4/16/2021 3:02:45 PM

mtllib ./theatreramp.mtl
o theatreramp

g pCube84
v -108.1156 4.893721 163.0877
v -98.3131 22.50724 163.0877
v -41.44929 -9.139433 163.0877
v -51.25182 -26.75295 163.0877
v -98.3131 22.50724 142.0909
v -41.44929 -9.139433 142.0909
v -108.1156 4.893721 142.0909
v -51.25182 -26.75295 142.0909

vt 0.00038 0.001992
vt 0.00038 0.998008
vt 0.026494 0.998008
vt 0.026494 0.001992
vt 0.131524 0.001992
vt 0.131524 0.028107
vt 0.157638 0.028107
vt 0.157638 0.001992
vt 0.033302 0.001992
vt 0.033302 0.998008
vt 0.059417 0.998008
vt 0.059417 0.001992
vt 0.164264 0.001992
vt 0.164264 0.028107
vt 0.190379 0.028107
vt 0.190379 0.001992
vt 0.066043 0.001992
vt 0.066043 0.998008
vt 0.092157 0.998008
vt 0.092157 0.001992
vt 0.098783 0.001992
vt 0.098783 0.998008
vt 0.124898 0.998008
vt 0.124898 0.001992

vn 0 0 1
vn 0.4862964 0.8737939 0
vn 0 0 -1
vn -0.4862964 -0.8737939 0
vn 0.8737939 -0.4862964 0
vn -0.8737939 0.4862964 0

usemtl Wood_Debree_1
f 4/4/1 3/3/1 2/2/1 1/1/1
f 3/8/2 6/7/2 5/6/2 2/5/2
f 6/12/3 8/11/3 7/10/3 5/9/3
f 8/16/4 4/15/4 1/14/4 7/13/4
f 8/20/5 6/19/5 3/18/5 4/17/5
f 1/24/6 2/23/6 5/22/6 7/21/6

