# ProBuilder 4.2.3
# https://unity3d.com/unity/features/worldbuilding/probuilder
# 4/16/2021 3:03:37 PM

mtllib ./theatrerampplatform.mtl
o theatrerampplatform

g pCube85
v -148.4913 -8.667995 207.0148
v -148.4913 22.43554 207.0148
v -97.98114 22.43554 207.0148
v -97.98114 -8.667995 207.0148
v -148.4913 22.43554 141.5942
v -97.98114 22.43554 141.5942
v -148.4913 -8.667995 141.5942
v -97.98114 -8.667995 141.5942

vt 0.000388 0.001992
vt 0.000388 0.998008
vt 0.026502 0.998008
vt 0.026502 0.001992
vt 0.135375 0.001992
vt 0.135375 0.030657
vt 0.161489 0.030657
vt 0.161489 0.001992
vt 0.03336 0.001992
vt 0.03336 0.998008
vt 0.059475 0.998008
vt 0.059475 0.001992
vt 0.168165 0.001992
vt 0.168165 0.030657
vt 0.19428 0.030657
vt 0.19428 0.001992
vt 0.066151 0.001992
vt 0.066151 0.998008
vt 0.094816 0.998008
vt 0.094816 0.001992
vt 0.100763 0.001992
vt 0.100763 0.998008
vt 0.129428 0.998008
vt 0.129428 0.001992

vn 0 0 1
vn 0 1 0
vn 0 0 -1
vn 0 -1 0
vn 1 0 0
vn -1 0 0

usemtl Wood_Debree_1
f 4/4/1 3/3/1 2/2/1 1/1/1
f 3/8/2 6/7/2 5/6/2 2/5/2
f 6/12/3 8/11/3 7/10/3 5/9/3
f 8/16/4 4/15/4 1/14/4 7/13/4
f 8/20/5 6/19/5 3/18/5 4/17/5
f 1/24/6 2/23/6 5/22/6 7/21/6

