# ProBuilder 4.2.3
# https://unity3d.com/unity/features/worldbuilding/probuilder
# 4/16/2021 3:01:15 PM

mtllib ./theatrefloor1.mtl
o theatrefloor1

g Cube (109)
v 0 0 0
v -72.28963 0 -7.76878E-05
v 0 1 0
v -72.28963 1 -7.76878E-05
v -72.28963 0 -22.00008
v -72.28963 1 -22.00008
v 0 0 -22
v 0 1 -22

vt 0 0
vt -72.28963 0
vt 0 1
vt -72.28963 1
vt -22.00008 0
vt -22.00008 1
vt 72.28966 0
vt 72.28966 1
vt 22 0
vt 22 1
vt 0 -22
vt 72.28963 -22.00008
vt -72.28963 -22.00008

vn -1.074674E-06 0 1
vn -1 0 0
vn 1.081777E-06 0 -1
vn 1 0 0
vn 0 1 0
vn 0 -1 0

usemtl Dirt
f 3/3/1 4/4/1 2/2/1 1/1/1
f 4/3/2 6/6/2 5/5/2 2/1/2
f 6/8/3 8/3/3 7/1/3 5/7/3
f 8/10/4 3/3/4 1/1/4 7/9/4
f 8/11/5 6/12/5 4/7/5 3/1/5
f 1/1/6 2/2/6 5/13/6 7/11/6

