# This file uses centimeters as units for non-parametric coordinates.

mtllib verteyedemon_UPDATED.mtl
g default
v 8.268132 7.750159 -1.428192
v 23.326330 7.750159 -1.428192
v 10.113723 10.436841 -2.577233
v 21.480738 10.436841 -2.577233
v 10.113723 10.436841 -11.306393
v 21.480738 10.436841 -11.306393
v 8.268132 7.750159 -12.455434
v 23.326330 7.750159 -12.455434
v 10.788097 7.319327 -10.044266
v 21.010533 7.319327 -10.044266
v 21.010533 7.319327 -2.060033
v 10.788097 7.319327 -2.060033
v 7.571812 7.186413 -13.063873
v 24.022649 7.186413 -13.063873
v 24.022649 7.186413 -0.819753
v 7.571812 7.186413 -0.819753
v 6.341122 5.140421 -13.063873
v 25.253339 5.140421 -13.063873
v 25.253339 5.140421 -0.819753
v 6.341122 5.140421 -0.819753
v 7.455463 4.849746 -12.554747
v 24.343168 4.849746 -12.554747
v 24.343168 4.849746 -1.328879
v 7.455463 4.849746 -1.328879
v 11.640560 -4.840840 -12.554747
v 21.406501 -4.840840 -12.554747
v 21.406501 -4.840840 -3.855408
v 11.640560 -4.840840 -3.855408
v 13.014899 -20.345873 -8.976725
v 14.984783 -18.569533 -8.976725
v 14.984783 -18.569533 -5.654104
v 13.014899 -20.345873 -5.654104
v 9.430278 -0.368935 -12.554747
v 21.169472 -0.368935 -12.554747
v 21.169472 -0.368935 -2.689493
v 9.430278 -0.368935 -2.689493
vt 0.339852 0.024033
vt 0.340878 0.162325
vt 0.244881 0.163286
vt 0.244009 0.033325
vt 0.123678 0.142563
vt 0.129051 0.049988
vt 0.340878 0.301800
vt 0.336630 0.436161
vt 0.226092 0.415394
vt 0.244679 0.286959
vt 0.113625 0.386731
vt 0.117227 0.295739
vt 0.451853 0.297063
vt 0.448834 0.175694
vt 0.479842 0.059061
vt 0.577930 0.290386
vt 0.418013 0.300216
vt 0.416924 0.170060
vt 0.450109 0.036134
vt 0.611860 0.308886
vt 0.018694 0.293569
vt 0.025188 0.136751
vt 0.416718 0.066141
vt 0.645043 0.281120
vt 0.404501 0.184775
vt 0.405428 0.285392
vt 0.383410 0.017595
vt 0.690130 0.311910
vt 0.386103 0.168376
vt 0.384073 0.299288
vt 0.364422 0.160881
vt 0.356532 0.015866
vt 0.346295 0.444014
vt 0.361176 0.304519
vt 0.712454 0.324240
vt 0.735501 0.313649
vt 0.679056 0.131580
vt 0.699663 0.116568
vt 0.735501 0.126178
vt 0.811903 0.154383
vt 0.819264 0.272742
vt 0.933496 0.125114
vt 0.943572 0.286649
vt 0.373387 0.447615
vt 0.638222 0.167737
vt 0.401269 0.405595
vt 0.602240 0.144292
vt 0.430049 0.442112
vt 0.571009 0.166863
vt 0.464901 0.420207
vt 0.277102 0.424977
vt 0.780610 0.291619
vt 0.776646 0.141367
vt 0.288238 0.029037
vt 0.289181 0.162843
vt 0.289072 0.293808
vn 0.000000 0.393227 0.919442
vn 0.000000 0.393227 0.919442
vn 0.000000 0.393227 0.919442
vn 0.000000 0.393227 0.919442
vn 0.000000 1.000000 0.000000
vn 0.000000 1.000000 0.000000
vn 0.000000 1.000000 0.000000
vn 0.000000 1.000000 0.000000
vn 0.000000 0.393227 -0.919441
vn 0.000000 0.393227 -0.919441
vn 0.000000 0.393227 -0.919441
vn 0.000000 0.393227 -0.919441
vn 0.669682 -0.742648 0.000000
vn 0.669682 -0.742648 0.000000
vn 0.669682 -0.742648 0.000000
vn 0.669682 -0.742648 0.000000
vn 0.824257 0.566216 0.000000
vn 0.824257 0.566216 0.000000
vn 0.824257 0.566216 0.000000
vn 0.824257 0.566216 0.000000
vn -0.824257 0.566216 0.000000
vn -0.824257 0.566216 0.000000
vn -0.824257 0.566216 0.000000
vn -0.824257 0.566216 0.000000
vn 0.000000 -0.984409 -0.175896
vn 0.000000 -0.984409 -0.175896
vn 0.000000 -0.984409 -0.175896
vn 0.000000 -0.984409 -0.175896
vn 0.182902 -0.983131 0.000000
vn 0.182902 -0.983131 0.000000
vn 0.182902 -0.983131 0.000000
vn 0.182902 -0.983131 0.000000
vn 0.000000 -0.826209 0.563364
vn 0.000000 -0.826209 0.563364
vn 0.000000 -0.826209 0.563364
vn 0.000000 -0.826209 0.563364
vn -0.168522 -0.985698 0.000000
vn -0.168522 -0.985698 0.000000
vn -0.168522 -0.985698 0.000000
vn -0.168522 -0.985698 0.000000
vn 0.000000 0.999033 -0.043975
vn 0.000000 0.999033 -0.043975
vn 0.000000 0.999033 -0.043975
vn 0.000000 0.999033 -0.043975
vn 0.044084 0.999028 0.000000
vn 0.044084 0.999028 0.000000
vn 0.583807 0.811892 0.000000
vn 0.676164 0.736751 0.000000
vn 0.000000 0.994307 0.106555
vn 0.000000 0.994307 0.106555
vn 0.000000 0.994307 0.106555
vn 0.000000 0.994307 0.106555
vn -0.041290 0.999147 0.000000
vn -0.041290 0.999147 0.000000
vn -0.656757 0.754102 0.000000
vn -0.563649 0.826014 0.000000
vn 0.000000 0.000000 -1.000000
vn 0.000000 0.000000 -1.000000
vn 0.000000 0.000000 -1.000000
vn 0.000000 0.000000 -1.000000
vn 0.856921 0.515448 0.000000
vn 0.856921 0.515448 0.000000
vn 0.000000 0.000000 1.000000
vn 0.000000 0.000000 1.000000
vn 0.000000 0.000000 1.000000
vn 0.000000 0.000000 1.000000
vn -0.856921 0.515448 0.000000
vn -0.856921 0.515448 0.000000
vn 0.000000 -0.868430 -0.495811
vn 0.000000 -0.868430 -0.495811
vn 0.000000 -0.868430 -0.495811
vn 0.000000 -0.868430 -0.495811
vn 0.304225 -0.952600 0.000000
vn 0.304225 -0.952600 0.000000
vn 0.304224 -0.952600 0.000000
vn 0.304224 -0.952600 0.000000
vn 0.000000 -0.868431 0.495810
vn 0.000000 -0.868431 0.495810
vn 0.000000 -0.868431 0.495810
vn 0.000000 -0.868431 0.495810
vn -0.252403 -0.967622 0.000000
vn -0.252403 -0.967622 0.000000
vn -0.252403 -0.967622 0.000000
vn -0.252403 -0.967622 0.000000
vn 0.000000 0.000000 -1.000000
vn 0.000000 0.000000 -1.000000
vn 0.021289 -0.140648 -0.989831
vn 0.020955 -0.138445 -0.990148
vn 0.951348 -0.308120 0.000000
vn 0.932318 -0.361640 0.000000
vn 0.968529 -0.248900 0.000000
vn 0.966042 -0.258386 0.000000
vn 0.000000 -0.252286 0.967653
vn 0.000000 -0.252286 0.967653
vn 0.010504 -0.182533 0.983144
vn 0.010551 -0.182215 0.983202
vn -0.922851 -0.385157 0.000000
vn -0.919261 -0.393648 0.000000
vn -0.973957 -0.226731 0.000000
vn -0.972584 -0.232550 0.000000
vn 0.036873 -0.243607 -0.969173
vn 0.036873 -0.243607 -0.969173
vn 0.905804 -0.423698 0.000000
vn 0.905804 -0.423698 0.000000
vn 0.018971 -0.125339 0.991933
vn 0.018971 -0.125339 0.991933
vn -0.996095 -0.088292 0.000000
vn -0.996095 -0.088292 0.000000
vn 0.000000 0.000000 -1.000000
vn 0.000000 0.000000 -1.000000
vn 0.854409 -0.519601 0.000000
vn 0.854409 -0.519601 0.000000
vn 0.000000 -0.252286 0.967653
vn 0.000000 -0.252286 0.967653
vn -0.935276 -0.353920 0.000000
vn -0.935276 -0.353920 0.000000
s off
g evenmoredemons:verteye_body
usemtl verteyedemon
f 1/17/1 2/18/2 4/14/3 3/13/4
f 3/13/5 4/14/6 6/49/7 5/16/8
f 5/16/9 6/49/10 8/47/11 7/20/12
f 29/21/13 30/22/14 31/5/15 32/12/16
f 2/18/17 8/19/18 6/15/19 4/14/20
f 7/48/21 1/17/22 3/13/23 5/50/24
f 7/20/25 8/47/26 10/45/27 9/24/28
f 8/19/29 2/18/30 11/25/31 10/23/32
f 2/18/33 1/17/34 12/26/35 11/25/36
f 1/17/37 7/48/38 9/46/39 12/26/40
f 9/24/41 10/45/42 14/37/43 13/28/44
s 1
f 10/23/45 11/25/46 15/29/47 14/27/48
s off
f 11/25/49 12/26/50 16/30/51 15/29/52
s 2
f 12/26/53 9/46/54 13/44/55 16/30/56
s off
f 13/28/57 14/37/58 18/38/59 17/35/60
s 1
f 14/27/48 15/29/47 19/31/61 18/32/62
s off
f 15/29/63 16/30/64 20/34/65 19/31/66
s 2
f 16/30/56 13/44/55 17/33/67 20/34/68
s off
f 17/35/69 18/38/70 22/39/71 21/36/72
f 18/32/73 19/31/74 23/2/75 22/1/76
f 19/31/77 20/34/78 24/7/79 23/2/80
f 20/34/81 17/33/82 21/8/83 24/7/84
s 3
f 33/52/85 34/53/86 26/40/87 25/41/88
s 4
f 34/54/89 35/55/90 27/3/91 26/4/92
s 5
f 35/55/93 36/56/94 28/10/95 27/3/96
s 6
f 36/56/97 33/51/98 25/9/99 28/10/100
s 3
f 25/41/88 26/40/87 30/42/101 29/43/102
s 4
f 26/4/92 27/3/91 31/5/103 30/6/104
s 5
f 27/3/96 28/10/95 32/12/105 31/5/106
s 6
f 28/10/100 25/9/99 29/11/107 32/12/108
s 3
f 21/36/109 22/39/110 34/53/86 33/52/85
s 4
f 22/1/111 23/2/112 35/55/90 34/54/89
s 5
f 23/2/113 24/7/114 36/56/94 35/55/93
s 6
f 24/7/115 21/8/116 33/51/98 36/56/97
g default
v 10.541969 18.180643 -3.304773
v 21.256662 18.180643 -3.304773
v 10.541969 26.209366 -3.304773
v 21.256662 26.209366 -3.304773
v 10.541969 26.209366 -8.124457
v 21.256662 26.209366 -8.124457
v 10.541969 18.180643 -8.124457
v 21.256662 18.180643 -8.124457
v 11.985887 29.048197 -3.979843
v 19.812745 27.631162 -3.979843
v 19.812745 27.631162 -8.124457
v 11.985887 29.048197 -8.124457
v 14.046275 12.625730 -8.124457
v 17.752357 13.622482 -8.124457
v 17.752357 13.622482 -3.979843
v 14.046275 12.625730 -3.979843
v 10.541969 22.937533 -3.304773
v 21.256662 22.937533 -3.304773
v 21.256662 22.937533 -8.124457
v 10.541969 22.937533 -8.124457
v 24.780115 23.122179 -4.272616
v 24.780115 23.122179 -7.156613
v 24.780115 26.024712 -7.156613
v 24.780115 26.024712 -4.272616
v 7.018516 23.122179 -7.156613
v 7.018516 23.122179 -4.272616
v 7.018516 26.024712 -4.272616
v 7.018516 26.024712 -7.156613
v 27.659094 24.711227 -4.272616
v 27.659094 24.711227 -7.156613
v 27.659094 26.024712 -7.156613
v 27.659094 26.024712 -4.272616
v 4.349221 24.734281 -7.156613
v 4.349221 24.734281 -4.272616
v 3.929853 26.001658 -4.272616
v 3.929853 26.001658 -7.156613
v 25.134842 30.153553 -4.902996
v 25.134842 30.153553 -6.526234
v 26.638956 30.153553 -4.902996
v 26.638956 30.153553 -6.526234
v 4.932215 28.273049 -4.902996
v 4.932215 28.273049 -6.526234
v 3.428102 28.273049 -6.526234
v 3.428102 28.273049 -4.902996
vt 0.862435 0.629516
vt 0.886625 0.554674
vt 0.900935 0.558459
vt 0.879335 0.635521
vt 0.826665 0.615508
vt 0.855956 0.543572
vt 0.937827 0.585091
vt 0.924801 0.623193
vt 0.859065 0.926422
vt 0.828541 0.852933
vt 0.843695 0.844846
vt 0.873258 0.920352
vt 0.827302 0.941551
vt 0.796764 0.868915
vt 0.892708 0.853477
vt 0.903805 0.888205
vt 0.965111 0.688601
vt 0.892180 0.668346
vt 0.929226 0.636073
vt 0.964703 0.647699
vt 0.851606 0.811003
vt 0.920294 0.787222
vt 0.932013 0.817570
vt 0.894826 0.839692
vt 0.840531 0.774464
vt 0.964284 0.728385
vt 0.784382 0.617033
vt 0.834602 0.509102
vt 0.798095 0.971687
vt 0.760020 0.863263
vt 0.970173 0.622830
vt 0.965160 0.608377
vt 0.935145 0.836604
vt 0.937403 0.851117
vt 0.802648 0.776269
vt 0.872664 0.716877
vt 0.853261 0.664605
vt 0.813345 0.818412
vt 0.867615 0.640189
vt 0.831627 0.841143
vt 0.931303 0.972376
vt 0.924763 0.479102
vt 0.923744 0.538337
vt 0.896305 0.513661
vt 0.877398 0.960376
vt 0.903318 0.933245
vt 0.891525 0.546230
vt 0.868937 0.933438
vt 0.948904 0.573907
vt 0.914013 0.896362
vt 0.838635 0.703720
vt 0.887447 0.683228
vt 0.839546 0.773668
vt 0.953752 0.506477
vt 0.930190 0.754709
vt 0.899792 0.992787
vt 0.490312 0.833477
vt 0.347308 0.757263
vt 0.368049 0.731711
vt 0.510693 0.767580
vt 0.220230 0.751856
vt 0.153442 0.892387
vt 0.073111 0.854754
vt 0.148994 0.718899
vt 0.275231 0.768219
vt 0.222233 0.924613
vt 0.222852 0.604413
vt 0.152604 0.488581
vt 0.220938 0.455395
vt 0.276082 0.610960
vt 0.151565 0.661081
vt 0.087126 0.520380
vt 0.372610 0.632228
vt 0.513358 0.639072
vt 0.347308 0.613191
vt 0.513480 0.620720
vt -0.001489 0.676902
vt 0.011907 0.630098
vt 0.560961 0.752827
vt 0.531614 0.615172
vt 0.582715 0.604278
vt 0.612062 0.741932
vt 0.657011 0.588439
vt 0.686358 0.726093
vt 0.737800 0.618282
vt 0.763519 0.662576
vn -0.029913 0.000000 0.999552
vn 0.029913 0.000000 0.999552
vn 0.054448 0.070335 0.996036
vn -0.041255 0.079160 0.996008
vn 0.178152 0.984003 0.000000
vn 0.178152 0.984003 0.000000
vn 0.178152 0.984003 0.000000
vn 0.178152 0.984003 0.000000
vn -0.047825 0.000000 -0.998856
vn 0.051002 0.000000 -0.998698
vn 0.029913 0.000000 -0.999552
vn -0.029913 0.000000 -0.999552
vn 0.259721 -0.965684 0.000000
vn 0.259721 -0.965684 0.000000
vn 0.259721 -0.965684 0.000000
vn 0.259721 -0.965684 0.000000
vn 1.000000 0.000000 0.000000
vn 1.000000 0.000000 0.000000
vn 0.986815 0.161853 0.000000
vn 0.986815 0.161853 0.000000
vn -0.949376 -0.314143 0.000000
vn -0.949376 -0.314143 0.000000
vn -0.963500 -0.267709 0.000000
vn -0.963500 -0.267709 0.000000
vn 0.023081 0.302003 0.953028
vn 0.023081 0.302003 0.953028
vn 0.701627 0.712544 0.000000
vn 0.701627 0.712544 0.000000
vn 0.701627 0.712544 0.000000
vn 0.701627 0.712544 0.000000
vn 0.000000 0.000000 -1.000000
vn 0.000000 0.000000 -1.000000
vn -0.891329 0.453358 0.000000
vn -0.891329 0.453358 0.000000
vn -0.891329 0.453358 0.000000
vn -0.891329 0.453358 0.000000
vn 0.000000 0.000000 -1.000000
vn 0.000000 0.000000 -1.000000
vn 0.000000 0.000000 -1.000000
vn 0.000000 0.000000 -1.000000
vn 0.792790 -0.609495 0.000000
vn 0.792790 -0.609495 0.000000
vn 0.792790 -0.609495 0.000000
vn 0.792790 -0.609495 0.000000
vn 0.002940 -0.042533 0.999091
vn 0.003086 -0.044653 0.998998
vn 0.009146 -0.132325 0.991164
vn 0.009146 -0.132325 0.991164
vn -0.845768 -0.533551 0.000000
vn -0.845768 -0.533551 0.000000
vn -0.845768 -0.533551 0.000000
vn -0.845768 -0.533551 0.000000
vn 1.000000 0.000000 0.000000
vn 1.000000 0.000000 0.000000
vn 1.000000 0.000000 0.000000
vn 1.000000 0.000000 0.000000
vn -1.000000 0.000000 0.000000
vn -1.000000 0.000000 0.000000
vn -1.000000 0.000000 0.000000
vn -1.000000 0.000000 0.000000
vn 0.052333 -0.998630 0.000000
vn 0.052333 -0.998630 0.000000
vn 0.200715 -0.979650 0.000000
vn 0.200715 -0.979650 0.000000
vn 0.117882 0.050507 -0.991742
vn 0.201263 0.000000 -0.979537
vn 0.052336 0.998630 0.000000
vn 0.052336 0.998630 0.000000
vn 0.052336 0.998630 0.000000
vn 0.052336 0.998630 0.000000
vn 0.201263 0.000000 0.979537
vn 0.117882 0.050507 0.991742
vn -0.052333 -0.998630 0.000000
vn -0.052333 -0.998630 0.000000
vn -0.207431 -0.978250 0.000000
vn -0.207431 -0.978250 0.000000
vn -0.150055 0.044658 0.987669
vn -0.205227 0.000000 0.978714
vn -0.052336 0.998630 0.000000
vn -0.052336 0.998630 0.000000
vn -0.052336 0.998630 0.000000
vn -0.052336 0.998630 0.000000
vn -0.205227 0.000000 -0.978714
vn -0.150055 0.044658 -0.987669
vn 0.483228 -0.875495 0.000000
vn 0.483228 -0.875495 0.000000
vn 0.000000 0.086253 -0.996273
vn 0.000000 0.000000 -1.000000
vn 0.000000 1.000000 0.000000
vn 0.000000 1.000000 0.000000
vn 0.000000 1.000000 0.000000
vn 0.000000 1.000000 0.000000
vn 0.000000 0.000000 1.000000
vn 0.000000 0.086253 0.996273
vn -0.516975 -0.856000 0.000000
vn -0.516975 -0.856000 0.000000
vn -0.000743 0.148081 0.988975
vn 0.000000 0.000000 1.000000
vn 0.000000 1.000000 0.000000
vn 0.000000 1.000000 0.000000
vn 0.000000 1.000000 0.000000
vn 0.000000 1.000000 0.000000
vn -0.000000 0.000000 -1.000000
vn -0.000743 0.148081 -0.988975
vn -0.996330 0.085599 0.000000
vn -0.996330 0.085599 0.000000
vn -0.996330 0.085599 0.000000
vn -0.996330 0.085599 0.000000
vn 0.000000 0.150928 0.988545
vn 0.000000 0.150928 0.988545
vn 0.970807 0.239863 0.000000
vn 0.970807 0.239863 0.000000
vn 0.000000 0.150928 -0.988545
vn 0.000000 0.150928 -0.988545
vn 0.733028 0.680199 0.000000
vn 0.733028 0.680199 0.000000
vn 0.733028 0.680199 0.000000
vn 0.733028 0.680199 0.000000
vn -0.001345 0.267973 -0.963425
vn -0.001345 0.267973 -0.963425
vn -0.976460 -0.215701 0.000000
vn -0.976460 -0.215701 0.000000
vn -0.001345 0.267973 0.963425
vn -0.001345 0.267973 0.963425
s 1
g evenmoredemons:verteye_body evenmoredemons:verteyehead
usemtl verteyedemon
f 53/121/117 54/126/118 40/131/119 39/114/120
s off
f 45/115/121 46/129/122 47/130/123 48/116/124
s 2
f 41/135/125 42/136/126 55/137/127 56/138/128
s off
f 49/133/129 50/134/130 51/127/131 52/120/132
s 3
f 65/57/133 66/58/134 67/59/135 68/60/136
s 4
f 69/65/137 70/66/138 71/67/139 72/68/140
s 1
f 39/114/120 40/131/119 46/129/141 45/115/142
s off
f 40/131/143 42/132/144 47/130/145 46/129/146
s 2
f 42/136/126 41/135/125 48/116/147 47/130/148
s off
f 41/113/149 39/114/150 45/115/151 48/116/152
s 2
f 43/140/153 44/139/154 50/141/155 49/142/156
s off
f 44/124/157 38/123/158 51/127/159 50/128/160
s 1
f 38/123/161 37/117/162 52/120/163 51/127/164
s off
f 37/117/165 43/118/166 49/119/167 52/120/168
s 1
f 37/117/162 38/123/161 54/126/118 53/121/117
s off
f 38/123/169 44/124/170 55/125/171 54/126/172
s 2
f 56/138/128 55/137/127 44/139/154 43/140/153
s off
f 43/118/173 37/117/174 53/121/175 56/122/176
s 5
f 54/83/177 55/84/178 58/62/179 57/61/180
s 2
f 55/98/127 42/110/126 59/99/181 58/100/182
s off
f 42/82/183 40/108/184 60/74/185 59/73/186
s 1
f 40/92/119 54/107/118 57/93/187 60/74/188
s 6
f 56/85/189 53/86/190 62/70/191 61/69/192
s 1
f 53/91/117 39/109/120 63/77/193 62/94/194
s off
f 39/81/195 41/111/196 64/78/197 63/77/198
s 2
f 41/97/125 56/112/128 61/101/199 64/102/200
s 5
f 57/61/180 58/62/179 66/58/201 65/57/202
s 2
f 58/100/182 59/99/181 67/59/203 66/103/204
s off
f 74/87/205 73/75/206 75/64/207 76/88/208
s 1
f 60/74/188 57/93/187 65/95/209 68/60/210
s 6
f 61/69/192 62/70/191 70/66/211 69/65/212
s 1
f 62/94/194 63/77/193 71/67/213 70/96/214
s off
f 77/80/215 78/89/216 79/90/217 80/71/218
s 2
f 64/102/200 61/101/199 69/104/219 72/68/220
s off
f 59/73/221 60/74/222 73/75/223 74/76/224
s 1
f 60/74/188 68/60/210 75/64/225 73/75/226
s 3
f 68/60/136 67/59/135 76/63/227 75/64/228
s 2
f 67/59/203 59/99/181 74/105/229 76/63/230
s off
f 63/77/231 64/78/232 78/79/233 77/80/234
s 2
f 64/102/200 72/68/220 79/72/235 78/106/236
s 4
f 72/68/140 71/67/139 80/71/237 79/72/238
s 1
f 71/67/213 63/77/193 77/80/239 80/71/240
g default
v 13.974156 21.738321 -1.912343
v 16.461443 21.738321 -1.912343
v 13.974156 24.225606 -1.912343
v 16.461443 24.225606 -1.912343
v 13.974156 24.225606 -4.399629
v 16.461443 24.225606 -4.399629
v 13.974156 21.738321 -4.399628
v 16.461443 21.738321 -4.399629
v 13.538881 24.660886 -3.155986
v 16.896718 22.981968 -4.834904
v 15.217800 21.303050 -4.834904
v 13.538881 22.981968 -4.834904
v 16.896718 21.303050 -3.155986
v 13.538881 21.303050 -3.155986
v 15.217800 21.303050 -1.477068
v 16.896718 22.981968 -1.477068
v 15.217800 24.660886 -1.477068
v 13.538881 22.981968 -1.477068
v 16.896718 24.660886 -3.155986
v 15.217800 24.660886 -4.834904
v 15.217800 22.981968 -0.917428
v 15.217800 25.220525 -3.155986
v 15.217800 22.981968 -5.394543
v 15.217800 20.743410 -3.155986
v 17.456357 22.981968 -3.155986
v 12.979242 22.981968 -3.155986
vt 0.607342 0.923888
vt 0.621879 0.919795
vt 0.625922 0.944914
vt 0.607011 0.944277
vt 0.637563 0.922431
vt 0.643564 0.943834
vt 0.645796 0.965816
vt 0.624857 0.968606
vt 0.608182 0.964363
vt 0.613296 0.996232
vt 0.593273 0.969580
vt 0.665410 0.972177
vt 0.563060 0.986072
vt 0.572709 0.969212
vt 0.541068 0.943479
vt 0.568242 0.943608
vt 0.678839 0.925497
vt 0.563829 0.900899
vt 0.573142 0.917954
vt 0.615477 0.890470
vt 0.593528 0.917937
vt 0.646725 0.912490
vt 0.662918 0.939771
vt 0.586956 0.943887
vt 0.710680 0.948530
vt 0.697819 0.983729
vt 0.687365 0.949744
vt 0.700746 0.907314
vt 0.663441 0.882608
vt 0.663501 0.904169
vn -0.577350 -0.577351 0.577350
vn -0.000000 -0.707106 0.707107
vn 0.000000 -0.000000 1.000000
vn -0.707107 -0.000000 0.707107
vn 0.577350 -0.577350 0.577350
vn 0.707107 -0.000000 0.707107
vn 0.577351 0.577350 0.577350
vn 0.000000 0.707107 0.707106
vn -0.577350 0.577350 0.577350
vn 0.000000 1.000000 -0.000000
vn -0.707106 0.707107 -0.000000
vn 0.707106 0.707107 -0.000000
vn 0.577350 0.577350 -0.577350
vn 0.000000 0.707107 -0.707106
vn -0.577350 0.577350 -0.577351
vn -0.000000 -0.000000 -1.000000
vn -0.707107 -0.000000 -0.707107
vn 0.707107 -0.000000 -0.707107
vn 0.577350 -0.577350 -0.577350
vn -0.000000 -0.707106 -0.707107
vn -0.577350 -0.577351 -0.577350
vn -0.000000 -1.000000 -0.000000
vn -0.707107 -0.707106 0.000000
vn 0.707107 -0.707106 -0.000000
vn 1.000000 0.000000 0.000000
vn -1.000000 -0.000000 -0.000000
s 1
g evenmoredemons:verteye_body evenmoredemons:verteyehead evenmoredemons:uppereye
usemtl verteyedemon
f 81/143/241 95/144/242 101/145/243 98/146/244
f 95/144/242 82/147/245 96/148/246 101/145/243
f 101/145/243 96/148/246 84/149/247 97/150/248
f 98/146/244 101/145/243 97/150/248 83/151/249
f 83/151/249 97/150/248 102/152/250 89/153/251
f 97/150/248 84/149/247 99/154/252 102/152/250
f 102/168/250 99/154/252 86/169/253 100/167/254
f 89/153/251 102/152/250 100/155/254 85/156/255
f 85/156/255 100/155/254 103/157/256 92/158/257
f 100/167/254 86/169/253 90/159/258 103/170/256
f 103/170/256 90/159/258 88/172/259 91/171/260
f 92/158/257 103/157/256 91/160/260 87/161/261
f 87/161/261 91/160/260 104/162/262 94/163/263
f 91/171/260 88/172/259 93/164/264 104/162/262
f 104/162/262 93/164/264 82/147/245 95/144/242
f 94/163/263 104/162/262 95/144/242 81/143/241
f 82/147/245 93/164/264 105/165/265 96/148/246
f 93/164/264 88/172/259 90/159/258 105/165/265
f 105/165/265 90/159/258 86/169/253 99/154/252
f 96/148/246 105/165/265 99/154/252 84/149/247
f 87/161/261 94/163/263 106/166/266 92/158/257
f 94/163/263 81/143/241 98/146/244 106/166/266
f 106/166/266 98/146/244 83/151/249 89/153/251
f 92/158/257 106/166/266 89/153/251 85/156/255
g default
v 15.114049 17.173296 -2.370720
v 16.684581 17.173296 -2.370720
v 15.114049 18.743827 -2.370720
v 16.684581 18.743827 -2.370720
v 15.114049 18.743827 -3.941252
v 16.684581 18.743827 -3.941252
v 15.114049 17.173296 -3.941252
v 16.684581 17.173296 -3.941252
v 14.839206 19.018668 -3.155986
v 16.959424 17.958559 -4.216095
v 15.899315 16.898450 -4.216095
v 14.839206 17.958559 -4.216095
v 16.959424 16.898450 -3.155986
v 14.839206 16.898450 -3.155986
v 15.899315 16.898450 -2.095877
v 16.959424 17.958559 -2.095877
v 15.899315 19.018668 -2.095877
v 14.839206 17.958559 -2.095877
v 16.959424 19.018668 -3.155986
v 15.899315 19.018668 -4.216095
v 15.899315 17.958559 -1.742507
v 15.899315 19.372038 -3.155986
v 15.899315 17.958559 -4.569464
v 15.899315 16.545080 -3.155986
v 17.312794 17.958559 -3.155986
v 14.485837 17.958559 -3.155986
vt 0.414705 0.910772
vt 0.430248 0.906869
vt 0.433778 0.933635
vt 0.413738 0.932388
vt 0.446804 0.910139
vt 0.452523 0.933022
vt 0.454227 0.956405
vt 0.431933 0.958733
vt 0.414375 0.953728
vt 0.418836 0.987687
vt 0.398402 0.958812
vt 0.474840 0.963745
vt 0.365858 0.975393
vt 0.376602 0.957801
vt 0.343817 0.929551
vt 0.372637 0.930508
vt 0.490494 0.914637
vt 0.369245 0.885073
vt 0.378608 0.903445
vt 0.424342 0.875571
vt 0.400232 0.904042
vt 0.456822 0.899871
vt 0.473174 0.929297
vt 0.392478 0.931369
vt 0.523572 0.940029
vt 0.508867 0.976977
vt 0.498804 0.940613
vt 0.514279 0.896012
vt 0.475455 0.868680
vt 0.474868 0.891551
vn -0.577350 -0.577350 0.577351
vn 0.000000 -0.707107 0.707106
vn 0.000000 0.000000 1.000000
vn -0.707107 0.000000 0.707107
vn 0.577350 -0.577350 0.577351
vn 0.707107 0.000000 0.707107
vn 0.577350 0.577350 0.577350
vn 0.000000 0.707106 0.707107
vn -0.577350 0.577350 0.577350
vn 0.000000 1.000000 -0.000000
vn -0.707107 0.707107 -0.000000
vn 0.707107 0.707106 0.000000
vn 0.577350 0.577351 -0.577350
vn -0.000000 0.707106 -0.707107
vn -0.577350 0.577351 -0.577350
vn -0.000000 0.000000 -1.000000
vn -0.707107 0.000000 -0.707107
vn 0.707107 0.000000 -0.707107
vn 0.577350 -0.577350 -0.577350
vn 0.000000 -0.707108 -0.707106
vn -0.577350 -0.577350 -0.577350
vn 0.000000 -1.000000 -0.000000
vn -0.707106 -0.707107 -0.000000
vn 0.707106 -0.707107 0.000000
vn 1.000000 0.000000 0.000000
vn -1.000000 0.000000 -0.000000
s 1
g evenmoredemons:verteye_body evenmoredemons:verteyehead evenmoredemons:bottomeye
usemtl verteyedemon
f 107/173/267 121/174/268 127/175/269 124/176/270
f 121/174/268 108/177/271 122/178/272 127/175/269
f 127/175/269 122/178/272 110/179/273 123/180/274
f 124/176/270 127/175/269 123/180/274 109/181/275
f 109/181/275 123/180/274 128/182/276 115/183/277
f 123/180/274 110/179/273 125/184/278 128/182/276
f 128/198/276 125/184/278 112/199/279 126/197/280
f 115/183/277 128/182/276 126/185/280 111/186/281
f 111/186/281 126/185/280 129/187/282 118/188/283
f 126/197/280 112/199/279 116/189/284 129/200/282
f 129/200/282 116/189/284 114/202/285 117/201/286
f 118/188/283 129/187/282 117/190/286 113/191/287
f 113/191/287 117/190/286 130/192/288 120/193/289
f 117/201/286 114/202/285 119/194/290 130/192/288
f 130/192/288 119/194/290 108/177/271 121/174/268
f 120/193/289 130/192/288 121/174/268 107/173/267
f 108/177/271 119/194/290 131/195/291 122/178/272
f 119/194/290 114/202/285 116/189/284 131/195/291
f 131/195/291 116/189/284 112/199/279 125/184/278
f 122/178/272 131/195/291 125/184/278 110/179/273
f 113/191/287 120/193/289 132/196/292 118/188/283
f 120/193/289 107/173/267 124/176/270 132/196/292
f 132/196/292 124/176/270 109/181/275 115/183/277
f 118/188/283 132/196/292 115/183/277 111/186/281
